#N canvas 452 467 450 300 10;
#X obj 56 84 hilbert~;
#X obj 142 155 tabosc4~ noise21;
#X obj 252 154 tabosc4~ noise22;
#X floatatom 146 117 5 0 0 0 - - -;
#X obj 54 180 *~;
#X obj 88 183 *~;
#X obj 68 208 +~;
#X obj 58 60 inlet~;
#X obj 67 231 outlet~;
#X obj 143 72 inlet;
#X obj 144 94 / 512;
#X obj 270 59 loadbang;
#X obj 271 82 random 10000;
#X obj 271 104 / 10000;
#X connect 0 0 4 0;
#X connect 0 1 5 0;
#X connect 1 0 4 1;
#X connect 2 0 5 1;
#X connect 3 0 1 0;
#X connect 3 0 2 0;
#X connect 4 0 6 0;
#X connect 5 0 6 1;
#X connect 6 0 8 0;
#X connect 7 0 0 0;
#X connect 9 0 10 0;
#X connect 10 0 3 0;
#X connect 11 0 12 0;
#X connect 12 0 13 0;
#X connect 13 0 1 1;
#X connect 13 0 2 1;
