#N canvas 128 62 491 403 10;
#X obj 64 141 inlet;
#X obj 148 148 inlet;
#X text 60 116 trigger;
#X obj 210 147 inlet;
#X obj 209 332 line~;
#X obj 315 147 inlet;
#X obj 417 150 inlet;
#X obj 209 357 outlet~;
#X text 316 124 attack;
#X text 423 126 decay;
#X obj 64 169 t b;
#X text 215 124 peak;
#X text 150 128 state;
#X text 147 114 steady;
#X msg 261 198 stop;
#X text 56 76 When steady state level is changed the envelope transitions
to the steady state value.;
#X obj 60 275 f \$2;
#X obj 213 273 f \$1;
#X obj 300 295 t f;
#X obj 255 146 inlet;
#X text 260 123 peak2;
#X obj 364 146 inlet;
#X text 364 123 attack2;
#X text 60 20 Arguments: steady state level \, peak1 level \, peak2
level \, attack time1 \, attack time2 \, decay time.;
#X obj 60 299 pack 0 \$4;
#X obj 135 298 pack 0 \$5;
#X obj 213 299 pack 0 \$6;
#X obj 135 272 f \$3;
#X obj 277 226 del \$4;
#X obj 331 224 del \$5;
#X connect 0 0 10 0;
#X connect 1 0 14 0;
#X connect 1 0 17 1;
#X connect 1 0 18 0;
#X connect 3 0 16 1;
#X connect 4 0 7 0;
#X connect 5 0 24 1;
#X connect 5 0 28 1;
#X connect 6 0 26 1;
#X connect 10 0 16 0;
#X connect 10 0 28 0;
#X connect 14 0 28 0;
#X connect 14 0 29 0;
#X connect 16 0 24 0;
#X connect 17 0 26 0;
#X connect 18 0 4 0;
#X connect 19 0 27 1;
#X connect 21 0 29 1;
#X connect 21 0 25 1;
#X connect 24 0 4 0;
#X connect 25 0 4 0;
#X connect 26 0 4 0;
#X connect 27 0 25 0;
#X connect 28 0 27 0;
#X connect 28 0 29 0;
#X connect 29 0 17 0;
