#N canvas 0 0 450 300 10;
#X obj 84 31 inlet~;
#X obj 104 101 rpole~;
#X obj 79 165 outlet~;
#X obj 103 71 rzero_rev~;
#X obj 209 41 inlet~;
#X connect 0 0 3 0;
#X connect 1 0 2 0;
#X connect 3 0 1 0;
#X connect 4 0 3 1;
#X connect 4 0 1 1;
