#N canvas 224 79 410 390 10;
#X obj 99 325 line~;
#X obj 93 240 unpack;
#X obj 113 191 r \$1;
#X obj 99 350 outlet~;
#X text 22 31 \$1 is the name of the receive symbol.;
#X text 22 109 outlet is the level as a signal.;
#X obj 113 214 t l b;
#X text 22 31 \$1 is the name of the receive symbol.;
#X text 21 71 \$3 is ramp time when not specified by received message.
;
#X obj 320 215 f \$2;
#X obj 170 176 f \$3;
#X msg 170 223 20;
#X obj 170 200 sel 0;
#X obj 205 223 moses 0;
#X msg 205 246 0;
#X obj 142 326 f;
#X obj 320 242 sel 0;
#X msg 320 275 1;
#X obj 267 148 loadbang;
#X text 21 11 control an amplitude in quartic scale using linear segments.
;
#X text 20 49 \$2 is output level for an input of 50 (default is 1).
;
#X text 42 90 (default is 20 - to specify zero \, set \$3 negative.)
;
#X obj 68 272 expr $f1*$f1*$f1*$f1*0.0004*0.0004*$f2;
#X connect 0 0 3 0;
#X connect 1 0 22 0;
#X connect 1 1 0 1;
#X connect 2 0 6 0;
#X connect 6 0 1 0;
#X connect 6 1 15 0;
#X connect 9 0 16 0;
#X connect 10 0 12 0;
#X connect 11 0 15 1;
#X connect 12 0 11 0;
#X connect 12 1 13 0;
#X connect 13 0 14 0;
#X connect 13 1 15 1;
#X connect 14 0 15 1;
#X connect 15 0 0 1;
#X connect 16 0 17 0;
#X connect 16 1 22 1;
#X connect 17 0 22 1;
#X connect 18 0 9 0;
#X connect 18 0 10 0;
#X connect 22 0 0 0;
