#N canvas 440 117 467 380 10;
#X obj 150 286 line~;
#X obj 150 308 *~;
#X obj 150 330 *~;
#X obj 111 219 * 0.25;
#X obj 111 241 dbtorms;
#X obj 143 194 unpack;
#X obj 166 143 r \$1;
#X obj 150 352 outlet~;
#X text 22 31 \$1 is the name of the receive symbol.;
#X text 20 111 outlet is the level as a signal.;
#X text 21 11 control an amplitude in dB using quartic segments.;
#X obj 166 167 t l b;
#X obj 361 132 f \$2;
#X obj 361 106 loadbang;
#X obj 224 161 f \$3;
#X msg 224 208 20;
#X obj 224 185 sel 0;
#X obj 259 208 moses 0;
#X msg 259 231 0;
#X obj 196 285 f;
#X obj 361 159 sel 0;
#X obj 386 260 * 5623.42;
#X msg 363 182 1;
#X obj 111 263 *;
#X text 20 49 \$2 is output level for an input of 100 (default is 1).
;
#X text 21 71 \$3 is ramp time when not specified by received message.
;
#X obj 391 206 sqrt;
#X obj 391 229 sqrt;
#X text 42 90 (default is 20 - to specify zero \, set \$3 negative.)
;
#X connect 0 0 1 0;
#X connect 0 0 1 1;
#X connect 1 0 2 0;
#X connect 1 0 2 1;
#X connect 2 0 7 0;
#X connect 3 0 4 0;
#X connect 4 0 23 0;
#X connect 5 0 3 0;
#X connect 5 1 0 1;
#X connect 6 0 11 0;
#X connect 11 0 5 0;
#X connect 11 1 19 0;
#X connect 12 0 20 0;
#X connect 13 0 12 0;
#X connect 13 0 14 0;
#X connect 14 0 16 0;
#X connect 15 0 19 1;
#X connect 16 0 15 0;
#X connect 16 1 17 0;
#X connect 17 0 18 0;
#X connect 17 1 19 1;
#X connect 18 0 19 1;
#X connect 19 0 0 1;
#X connect 20 0 22 0;
#X connect 20 1 26 0;
#X connect 21 0 23 1;
#X connect 22 0 26 0;
#X connect 23 0 0 0;
#X connect 26 0 27 0;
#X connect 27 0 21 0;
