#N canvas 64 40 461 242 10;
#X obj 119 102 expr 0.02*0.02*min($f1 \, 50)*min($f1 \, 50);
#X obj 64 125 expr 0.02*0.02*min(100-$f1 \, 50)*min(100-$f1 \, 50)
;
#X obj 64 158 outlet;
#X obj 119 158 outlet;
#X obj 119 72 r \$1;
#X connect 0 0 3 0;
#X connect 1 0 2 0;
#X connect 4 0 0 0;
#X connect 4 0 1 0;
