#N canvas 0 0 570 590 10;
#X obj 60 388 cpole~;
#X obj 79 453 cpole~;
#X obj 60 365 *~;
#X msg 481 329 clear;
#X obj 138 126 loadbang;
#X obj 182 173 samplerate~;
#X obj 182 194 / 2;
#X obj 138 216 / 22050;
#X obj 138 174 f \$1;
#X obj 138 194 t f b;
#X obj 146 147 inlet;
#X obj 61 119 inlet~;
#X obj 484 165 inlet;
#X obj 91 524 outlet~;
#X text 61 98 audio;
#X text 486 142 clear;
#X text 144 106 hp freq;
#X obj 179 286 line~;
#X obj 261 286 line~;
#X obj 302 286 line~;
#X obj 343 286 line~;
#X obj 383 219 inlet;
#X obj 93 479 rzero~ 1;
#X obj 92 501 rzero~ 1;
#X obj 138 263 * 0.25;
#X text 84 23 2-pole \, 2-zero butterworth high-pass filter with line~
objects to try to de-click transitions;
#X obj 138 238 buttercoef2 1;
#X connect 0 0 1 0;
#X connect 0 1 1 1;
#X connect 1 0 22 0;
#X connect 2 0 0 0;
#X connect 3 0 0 0;
#X connect 3 0 1 0;
#X connect 3 0 22 0;
#X connect 4 0 8 0;
#X connect 5 0 6 0;
#X connect 6 0 7 1;
#X connect 7 0 26 0;
#X connect 8 0 9 0;
#X connect 9 0 7 0;
#X connect 9 1 5 0;
#X connect 10 0 8 0;
#X connect 11 0 2 0;
#X connect 12 0 3 0;
#X connect 17 0 2 1;
#X connect 18 0 0 2;
#X connect 18 0 1 2;
#X connect 19 0 0 3;
#X connect 20 0 1 3;
#X connect 21 0 17 1;
#X connect 21 0 18 1;
#X connect 21 0 19 1;
#X connect 21 0 20 1;
#X connect 22 0 23 0;
#X connect 23 0 13 0;
#X connect 24 0 17 0;
#X connect 26 0 24 0;
#X connect 26 1 18 0;
#X connect 26 2 19 0;
#X connect 26 3 20 0;
