#N canvas 0 0 710 528 10;
#X obj 63 51 inlet;
#X floatatom 468 164 5 0 0 0 - - -;
#X obj 97 172 t f f;
#X obj 524 261 loadbang;
#X obj 535 289 inlet;
#X obj 524 337 expr 1 - 2*$f1;
#X obj 201 247 * -1;
#X obj 159 247 t f f;
#X obj 64 372 f;
#X text 522 228 1 to normalize at Nyquist;
#X text 63 29 characteristic frequency \, 0(DC) to 1(Nyquist);
#X obj 390 418 outlet;
#X obj 451 419 outlet;
#X obj 324 416 outlet;
#X obj 65 436 outlet;
#X obj 63 408 expr (($f2-$f1)*($f2-$f1)+$f3*$f3);
#X obj 97 195 expr (1 - $f2*$f2) / (1 + $f2*$f2 + 2*$f2*cos($f1));
#X obj 159 224 expr 2*$f2*sin($f1) / (1 + $f2*$f2 + 2*$f2*cos($f1))
;
#X obj 468 119 clip 0 1;
#X obj 468 141 expr tan($f1*1.57);
#X obj 97 150 expr $f1*1.5708;
#X text 522 242 0 to normalize at DC;
#X text 141 128 "theta" in units of pi/2;
#X text 207 157 conjugate pair of pole/zero locations:;
#X text 193 174 real part: (1-r*r)/(1+r*r-2rcos(th));
#X text 241 245 imaginary part: 2rsin(th)/(...);
#X obj 524 313 f \$1;
#X text 412 21 argument 1: 1=Nyquist/0=DC norm;
#X text 62 458 normalizer;
#X text 325 440 real;
#X text 390 440 imag-a;
#X text 451 441 imag-b;
#X msg 97 127 0.5;
#X text 119 4 2-pole (or zero) Butterworth filter coefficient calculator
;
#X obj 63 79 t b b f;
#X connect 0 0 34 0;
#X connect 1 0 16 1;
#X connect 1 0 17 1;
#X connect 2 0 16 0;
#X connect 2 1 17 0;
#X connect 3 0 26 0;
#X connect 4 0 26 0;
#X connect 5 0 8 1;
#X connect 6 0 12 0;
#X connect 7 0 11 0;
#X connect 7 0 15 2;
#X connect 7 1 6 0;
#X connect 8 0 15 0;
#X connect 15 0 14 0;
#X connect 16 0 13 0;
#X connect 16 0 15 1;
#X connect 17 0 7 0;
#X connect 18 0 19 0;
#X connect 19 0 1 0;
#X connect 20 0 2 0;
#X connect 26 0 5 0;
#X connect 32 0 20 0;
#X connect 34 0 8 0;
#X connect 34 1 32 0;
#X connect 34 2 18 0;
