#N canvas 43 126 576 596 10;
#X obj 56 360 rpole~;
#X obj 56 438 cpole~;
#X obj 75 503 cpole~;
#X obj 56 415 *~;
#X msg 484 394 clear;
#X obj 138 126 loadbang;
#X obj 56 336 *~;
#X obj 182 173 samplerate~;
#X obj 182 194 / 2;
#X obj 138 216 / 22050;
#X obj 138 174 f \$1;
#X obj 138 194 t f b;
#X obj 146 147 inlet;
#X obj 232 211 loadbang;
#X obj 61 119 inlet~;
#X obj 484 165 inlet;
#X obj 89 574 outlet~;
#X text 61 98 audio;
#X text 486 142 clear;
#X obj 138 238 buttercoef3;
#X msg 232 234 1;
#X obj 89 551 *~ 0.125;
#X text 84 23 3-pole \, 3-zero butterworth high-pass filter with line~
objects to try to de-click transitions;
#X text 144 106 hp freq;
#X obj 141 287 line~;
#X obj 182 287 line~;
#X obj 223 287 line~;
#X obj 264 287 line~;
#X obj 305 287 line~;
#X obj 346 287 line~;
#X obj 383 219 inlet;
#X obj 57 386 rzero~ 1;
#X obj 89 529 rzero~ 1;
#X obj 60 462 czero~ 1;
#X connect 0 0 31 0;
#X connect 1 0 33 0;
#X connect 1 1 33 1;
#X connect 2 0 32 0;
#X connect 3 0 1 0;
#X connect 4 0 0 0;
#X connect 4 0 1 0;
#X connect 4 0 2 0;
#X connect 4 0 31 0;
#X connect 4 0 32 0;
#X connect 4 0 33 0;
#X connect 5 0 10 0;
#X connect 6 0 0 0;
#X connect 7 0 8 0;
#X connect 8 0 9 1;
#X connect 9 0 19 0;
#X connect 10 0 11 0;
#X connect 11 0 9 0;
#X connect 11 1 7 0;
#X connect 12 0 10 0;
#X connect 13 0 20 0;
#X connect 14 0 6 0;
#X connect 15 0 4 0;
#X connect 19 0 24 0;
#X connect 19 1 25 0;
#X connect 19 2 26 0;
#X connect 19 3 27 0;
#X connect 19 4 28 0;
#X connect 19 5 29 0;
#X connect 20 0 19 1;
#X connect 21 0 16 0;
#X connect 24 0 6 1;
#X connect 25 0 3 1;
#X connect 26 0 0 1;
#X connect 27 0 1 2;
#X connect 27 0 2 2;
#X connect 28 0 1 3;
#X connect 29 0 2 3;
#X connect 30 0 24 1;
#X connect 30 0 25 1;
#X connect 30 0 26 1;
#X connect 30 0 27 1;
#X connect 30 0 28 1;
#X connect 30 0 29 1;
#X connect 31 0 3 0;
#X connect 32 0 21 0;
#X connect 33 0 2 0;
#X connect 33 1 2 1;
