#N canvas 0 0 574 594 10;
#X obj 56 360 rpole~;
#X obj 56 438 cpole~;
#X obj 75 503 cpole~;
#X obj 56 415 *~;
#X msg 484 394 clear;
#X obj 138 126 loadbang;
#X obj 56 336 *~;
#X obj 182 173 samplerate~;
#X obj 182 194 / 2;
#X obj 138 216 / 22050;
#X obj 138 174 f \$1;
#X obj 138 194 t f b;
#X obj 146 147 inlet;
#X obj 61 119 inlet~;
#X obj 484 165 inlet;
#X obj 89 574 outlet~;
#X text 61 98 audio;
#X text 486 142 clear;
#X obj 138 238 buttercoef3;
#X obj 89 551 *~ 0.125;
#X text 144 106 hp freq;
#X obj 138 286 line~;
#X obj 179 286 line~;
#X obj 220 286 line~;
#X obj 261 286 line~;
#X obj 302 286 line~;
#X obj 343 286 line~;
#X obj 383 219 inlet;
#X obj 89 529 rzero~ -1;
#X obj 60 462 czero~ -1;
#X obj 57 386 rzero~ -1;
#X text 84 23 3-pole \, 3-zero butterworth low-pass filter with line~
objects to try to de-click transitions;
#X connect 0 0 30 0;
#X connect 1 0 29 0;
#X connect 1 1 29 1;
#X connect 2 0 28 0;
#X connect 3 0 1 0;
#X connect 4 0 0 0;
#X connect 4 0 1 0;
#X connect 4 0 2 0;
#X connect 4 0 28 0;
#X connect 4 0 29 0;
#X connect 4 0 30 0;
#X connect 5 0 10 0;
#X connect 6 0 0 0;
#X connect 7 0 8 0;
#X connect 8 0 9 1;
#X connect 9 0 18 0;
#X connect 10 0 11 0;
#X connect 11 0 9 0;
#X connect 11 1 7 0;
#X connect 12 0 10 0;
#X connect 13 0 6 0;
#X connect 14 0 4 0;
#X connect 18 0 21 0;
#X connect 18 1 22 0;
#X connect 18 2 23 0;
#X connect 18 3 24 0;
#X connect 18 4 25 0;
#X connect 18 5 26 0;
#X connect 19 0 15 0;
#X connect 21 0 6 1;
#X connect 22 0 3 1;
#X connect 23 0 0 1;
#X connect 24 0 1 2;
#X connect 24 0 2 2;
#X connect 25 0 1 3;
#X connect 26 0 2 3;
#X connect 27 0 21 1;
#X connect 27 0 22 1;
#X connect 27 0 23 1;
#X connect 27 0 24 1;
#X connect 27 0 25 1;
#X connect 27 0 26 1;
#X connect 28 0 19 0;
#X connect 29 0 2 0;
#X connect 29 1 2 1;
#X connect 30 0 3 0;
