#N canvas 0 0 574 594 10;
#X obj 56 330 rpole~;
#X obj 56 408 cpole~;
#X obj 88 473 cpole~;
#X msg 487 305 clear;
#X obj 138 96 loadbang;
#X obj 182 143 samplerate~;
#X obj 182 164 / 2;
#X obj 138 186 / 22050;
#X obj 138 144 f \$1;
#X obj 138 164 t f b;
#X obj 146 117 inlet;
#X obj 61 89 inlet~;
#X obj 484 135 inlet;
#X obj 108 520 outlet~;
#X text 61 68 audio;
#X text 486 112 clear;
#X text 144 76 pole freq;
#X obj 268 96 loadbang;
#X obj 312 143 samplerate~;
#X obj 312 164 / 2;
#X obj 268 186 / 22050;
#X obj 268 164 t f b;
#X obj 276 117 inlet;
#X text 274 76 zero freq;
#X text 84 13 Shelving filter;
#X obj 138 208 buttercoef3 \$3;
#X obj 268 208 buttercoef3 \$3;
#X text 246 14 arg1 - pole frequency;
#X text 247 29 arg2 - zero frequency;
#X text 246 45 arg3 - 0 to normalize at DC \, 1 for Nyquist;
#X obj 268 144 f \$2;
#X obj 268 229 t b f;
#X obj 268 250 / 1;
#X obj 56 306 *~ 1;
#X obj 268 279 t b f;
#X obj 268 300 / 1;
#X obj 57 356 rzero~;
#X obj 77 432 czero~;
#X obj 109 496 czero~;
#X obj 56 385 *~ 1;
#X connect 0 0 36 0;
#X connect 1 0 37 0;
#X connect 1 1 37 1;
#X connect 2 0 38 0;
#X connect 2 1 38 1;
#X connect 3 0 0 0;
#X connect 3 0 1 0;
#X connect 3 0 2 0;
#X connect 3 0 36 0;
#X connect 3 0 37 0;
#X connect 3 0 38 0;
#X connect 4 0 8 0;
#X connect 5 0 6 0;
#X connect 6 0 7 1;
#X connect 7 0 25 0;
#X connect 8 0 9 0;
#X connect 9 0 7 0;
#X connect 9 1 5 0;
#X connect 10 0 8 0;
#X connect 11 0 33 0;
#X connect 12 0 3 0;
#X connect 17 0 30 0;
#X connect 18 0 19 0;
#X connect 19 0 20 1;
#X connect 20 0 26 0;
#X connect 21 0 20 0;
#X connect 21 1 18 0;
#X connect 22 0 30 0;
#X connect 25 0 32 0;
#X connect 25 1 35 0;
#X connect 25 2 0 1;
#X connect 25 3 2 2;
#X connect 25 3 1 2;
#X connect 25 4 1 3;
#X connect 25 5 2 3;
#X connect 26 0 31 0;
#X connect 26 1 34 0;
#X connect 26 2 36 1;
#X connect 26 3 37 2;
#X connect 26 3 38 2;
#X connect 26 4 37 3;
#X connect 26 5 38 3;
#X connect 30 0 21 0;
#X connect 31 0 32 0;
#X connect 31 1 32 1;
#X connect 32 0 33 1;
#X connect 33 0 0 0;
#X connect 34 0 35 0;
#X connect 34 1 35 1;
#X connect 35 0 39 1;
#X connect 36 0 39 0;
#X connect 37 0 2 0;
#X connect 37 1 2 1;
#X connect 38 0 13 0;
#X connect 39 0 1 0;
