#N canvas 307 168 455 435 10;
#X obj 34 36 inlet~;
#X obj 84 36 inlet~;
#X obj 133 85 *~;
#X obj 162 85 *~;
#X obj 133 108 +~;
#X obj 166 137 q8_rsqrt~;
#X obj 150 162 *~;
#X obj 180 161 *~;
#X obj 150 184 *~;
#X obj 149 209 *~ -0.5;
#X obj 177 187 *~ 1.5;
#X obj 149 230 +~;
#X obj 132 275 *~;
#X obj 33 275 *~;
#X obj 83 277 *~;
#X obj 24 343 outlet~;
#X obj 80 343 outlet~;
#X text 40 368 unit complex;
#X text 40 382 number out;
#X text 37 15 real;
#X text 84 13 imaginary;
#X obj 133 343 outlet~;
#X text 137 361 r out;
#X text 181 229 inverse modulus to 16 bit precision;
#X text 236 136 inverse modulus to 8 bit precision;
#X text 160 275 modulus to 16 bit precision;
#X connect 0 0 2 0;
#X connect 0 0 2 1;
#X connect 0 0 13 0;
#X connect 1 0 3 0;
#X connect 1 0 3 1;
#X connect 1 0 14 0;
#X connect 2 0 4 0;
#X connect 3 0 4 1;
#X connect 4 0 6 0;
#X connect 4 0 12 0;
#X connect 4 0 5 0;
#X connect 5 0 6 1;
#X connect 5 0 7 0;
#X connect 5 0 7 1;
#X connect 5 0 10 0;
#X connect 6 0 8 0;
#X connect 7 0 8 1;
#X connect 8 0 9 0;
#X connect 9 0 11 0;
#X connect 10 0 11 1;
#X connect 11 0 12 1;
#X connect 11 0 13 1;
#X connect 11 0 14 1;
#X connect 12 0 21 0;
#X connect 13 0 15 0;
#X connect 14 0 16 0;
