#N canvas 0 0 476 570 10;
#X obj 60 388 cpole~;
#X obj 79 453 cpole~;
#X obj 139 95 loadbang;
#X obj 182 173 samplerate~;
#X obj 182 194 / 2;
#X obj 138 216 / 22050;
#X obj 139 119 f \$1;
#X obj 138 194 t f b;
#X obj 61 119 inlet~;
#X obj 91 524 outlet~;
#X text 61 98 audio;
#X obj 93 479 rzero~ 1;
#X obj 92 501 rzero~ 1;
#X obj 88 275 * 0.25;
#X obj 138 238 buttercoef2 1;
#X obj 139 143 mtof;
#X obj 60 365 *~ 0;
#X text 84 23 2-pole \, 2-zero butterworth high-pass filter \, m cutoff
one octave below \$1 pitch;
#X obj 139 167 * 1;
#X connect 0 0 1 0;
#X connect 0 1 1 1;
#X connect 1 0 11 0;
#X connect 2 0 6 0;
#X connect 3 0 4 0;
#X connect 4 0 5 1;
#X connect 5 0 14 0;
#X connect 6 0 15 0;
#X connect 7 0 5 0;
#X connect 7 1 3 0;
#X connect 8 0 16 0;
#X connect 11 0 12 0;
#X connect 12 0 9 0;
#X connect 13 0 16 1;
#X connect 14 0 13 0;
#X connect 14 1 0 2;
#X connect 14 1 1 2;
#X connect 14 2 0 3;
#X connect 14 3 1 3;
#X connect 15 0 18 0;
#X connect 16 0 0 0;
#X connect 18 0 7 0;
