#N canvas 480 65 682 751 10;
#X obj 69 655 cpole~;
#X obj 86 686 czero~;
#X obj 101 627 *~;
#X obj 137 628 *~;
#X obj 173 629 *~;
#X obj 208 629 *~;
#X obj 134 560 cos~;
#X obj 189 559 cos~;
#X obj 189 535 -~ 0.25;
#X obj 27 43 r \$1-attack;
#X obj 108 126 mtof;
#X obj 108 226 sqrt;
#X obj 108 247 sqrt;
#X obj 94 344 *~;
#X obj 94 367 *~;
#X obj 116 176 samplerate~;
#X obj 108 203 /;
#X obj 108 152 t f b;
#X obj 198 123 mtof;
#X obj 143 229 sqrt;
#X obj 143 250 sqrt;
#X obj 205 171 samplerate~;
#X obj 198 196 /;
#X obj 198 149 t f b;
#X obj 266 416 mtof;
#X obj 296 466 samplerate~;
#X obj 266 470 /;
#X obj 266 442 t f b;
#X obj 266 493 * 6.28;
#X obj 260 551 expr 1 - $f1;
#X obj 427 287 r \$1-attack;
#X obj 427 308 ad~ 0 0 0 0 0;
#X obj 388 502 *~ 1;
#X obj 387 531 *~ -1;
#X floatatom 207 700 7 0 0 0 - - -;
#X obj 207 672 snapshot~;
#X obj 440 592 metro 100;
#X obj 440 556 tgl 15 0 empty empty empty 0 -6 0 8 -262144 -1 -1 0
1;
#X floatatom 276 700 7 0 0 0 - - -;
#X obj 276 672 snapshot~;
#X floatatom 344 700 7 0 0 0 - - -;
#X obj 344 672 snapshot~;
#X floatatom 413 700 7 0 0 0 - - -;
#X obj 413 672 snapshot~;
#X floatatom 539 549 7 0 0 0 - - -;
#X obj 539 521 snapshot~;
#X floatatom 238 585 7 0 0 0 - - -;
#X obj 445 110 * 0.025;
#X obj 445 153 expr 1.5*$f1-0.5*$f1*$f1*$f1;
#X obj 470 201 * 0.025;
#X obj 470 244 expr 1.5*$f1-0.5*$f1*$f1*$f1;
#X obj 470 223 clip -1 1;
#X obj 445 132 clip -0.97 0.97;
#X obj 294 584 +~ 0;
#X obj 333 584 +~ 0;
#X obj 266 515 clip 0.01 0.5;
#X obj 266 395 r \$4;
#X obj 108 42 r \$3;
#X obj 196 40 r \$3p;
#X obj 158 281 r \$3a;
#X obj 445 86 r \$2;
#X obj 470 176 r \$2p;
#X obj 492 268 r \$2a;
#X obj 515 289 r \$2d;
#X obj 68 598 inlet~;
#X obj 86 713 outlet~;
#X text 420 62 gain at center freq \, -40 to 40;
#X text 258 375 bandwidth (midi);
#X obj 93 321 abd~ 0 0 0 0 0;
#X obj 285 123 mtof;
#X obj 179 225 sqrt;
#X obj 179 246 sqrt;
#X obj 292 171 samplerate~;
#X obj 285 196 /;
#X obj 285 149 t f b;
#X obj 283 40 r \$3q;
#X obj 208 320 r \$3d;
#X obj 171 299 r \$3b;
#X text 315 103 center freq (midi);
#X obj 324 32 expr max( \$5 -40 \, 0.24*$f1);
#X obj 319 5 r \$1-eqbias;
#X floatatom 364 58 5 0 0 0 - - -;
#X obj 108 106 +;
#X obj 324 57 t b f;
#X obj 197 103 +;
#X obj 285 103 +;
#X connect 0 0 1 0;
#X connect 0 1 1 1;
#X connect 1 0 65 0;
#X connect 2 0 0 2;
#X connect 2 0 35 0;
#X connect 3 0 0 3;
#X connect 3 0 39 0;
#X connect 4 0 1 2;
#X connect 4 0 41 0;
#X connect 5 0 1 3;
#X connect 5 0 43 0;
#X connect 6 0 4 1;
#X connect 6 0 2 1;
#X connect 7 0 5 1;
#X connect 7 0 3 1;
#X connect 8 0 7 0;
#X connect 9 0 68 0;
#X connect 10 0 17 0;
#X connect 11 0 12 0;
#X connect 12 0 68 1;
#X connect 13 0 14 0;
#X connect 13 0 14 1;
#X connect 14 0 6 0;
#X connect 14 0 8 0;
#X connect 15 0 16 1;
#X connect 16 0 11 0;
#X connect 17 0 16 0;
#X connect 17 1 15 0;
#X connect 18 0 23 0;
#X connect 19 0 20 0;
#X connect 20 0 68 2;
#X connect 21 0 22 1;
#X connect 22 0 19 0;
#X connect 23 0 22 0;
#X connect 23 1 21 0;
#X connect 24 0 27 0;
#X connect 25 0 26 1;
#X connect 26 0 28 0;
#X connect 27 0 26 0;
#X connect 27 1 25 0;
#X connect 28 0 55 0;
#X connect 29 0 53 1;
#X connect 29 0 54 1;
#X connect 29 0 46 0;
#X connect 30 0 31 0;
#X connect 31 0 32 0;
#X connect 32 0 33 0;
#X connect 32 0 53 0;
#X connect 33 0 54 0;
#X connect 35 0 34 0;
#X connect 36 0 35 0;
#X connect 36 0 39 0;
#X connect 36 0 41 0;
#X connect 36 0 43 0;
#X connect 36 0 45 0;
#X connect 37 0 36 0;
#X connect 39 0 38 0;
#X connect 41 0 40 0;
#X connect 43 0 42 0;
#X connect 45 0 44 0;
#X connect 47 0 52 0;
#X connect 48 0 31 1;
#X connect 49 0 51 0;
#X connect 50 0 31 2;
#X connect 51 0 50 0;
#X connect 52 0 48 0;
#X connect 53 0 2 0;
#X connect 53 0 3 0;
#X connect 54 0 4 0;
#X connect 54 0 5 0;
#X connect 55 0 29 0;
#X connect 55 0 32 1;
#X connect 56 0 24 0;
#X connect 57 0 82 0;
#X connect 58 0 84 0;
#X connect 59 0 68 4;
#X connect 60 0 47 0;
#X connect 61 0 49 0;
#X connect 62 0 31 3;
#X connect 63 0 31 4;
#X connect 64 0 0 0;
#X connect 68 0 13 0;
#X connect 68 0 13 1;
#X connect 69 0 74 0;
#X connect 70 0 71 0;
#X connect 71 0 68 3;
#X connect 72 0 73 1;
#X connect 73 0 70 0;
#X connect 74 0 73 0;
#X connect 74 1 72 0;
#X connect 75 0 85 0;
#X connect 76 0 68 6;
#X connect 77 0 68 5;
#X connect 79 0 81 0;
#X connect 79 0 83 0;
#X connect 80 0 79 0;
#X connect 82 0 10 0;
#X connect 83 0 82 0;
#X connect 83 0 84 0;
#X connect 83 0 85 0;
#X connect 83 1 82 1;
#X connect 83 1 84 1;
#X connect 83 1 85 1;
#X connect 84 0 18 0;
#X connect 85 0 69 0;
