#N canvas 630 140 450 300 12;
#X obj 91 79 r \$2;
#X obj 91 134 f;
#X obj 91 155 outlet;
#X obj 91 106 spigot;
#X obj 129 16 loadbang;
#X msg 129 40 1;
#X obj 194 68 sel 0 \$1;
#X obj 247 93 b;
#X obj 249 116 0;
#X obj 194 95 1;
#X obj 194 38 r qlist-recall-voice;
#X connect 0 0 3 0;
#X connect 1 0 2 0;
#X connect 3 0 1 0;
#X connect 4 0 5 0;
#X connect 5 0 3 1;
#X connect 6 0 9 0;
#X connect 6 1 9 0;
#X connect 6 2 7 0;
#X connect 7 0 8 0;
#X connect 8 0 3 1;
#X connect 9 0 3 1;
#X connect 10 0 6 0;
