#N canvas 94 49 374 287 10;
#X obj 107 195 t b;
#X obj 107 118 f;
#X obj 107 220 f;
#X obj 107 98 bng 15 250 50 0 empty empty empty -38 7 0 12 -262144
-1 -1;
#X obj 187 99 f;
#X text 123 55 MUTE logic;
#X obj 107 76 r \$1-mute;
#X obj 187 76 r \$1;
#X obj 107 244 s \$1;
#X obj 221 191 t b;
#X obj 221 213 f \$2;
#X obj 107 160 sel 1 0;
#X obj 107 138 == \$2;
#X obj 187 128 sel \$2;
#X connect 0 0 2 0;
#X connect 1 0 12 0;
#X connect 2 0 8 0;
#X connect 3 0 1 0;
#X connect 4 0 1 1;
#X connect 4 0 13 0;
#X connect 6 0 3 0;
#X connect 7 0 4 0;
#X connect 9 0 10 0;
#X connect 10 0 8 0;
#X connect 11 0 0 0;
#X connect 11 1 9 0;
#X connect 12 0 11 0;
#X connect 13 1 2 1;
