#N canvas 0 0 517 398 10;
#N canvas 0 0 863 638 ctl 0;
#X obj 187 35 setctl \$1-octave;
#X obj 12 11 setctl \$1-filterbias;
#X obj 12 31 setctl \$1-cf1percent;
#X obj 12 51 setctl \$1-fshz;
#X obj 187 56 setctl \$1-window;
#X obj 187 76 setctl \$1-amp0;
#X obj 187 96 setctl \$1-delay0;
#X obj 187 116 setctl \$1-amp1;
#X obj 187 136 setctl \$1-delay1;
#X obj 187 156 setctl \$1-transpose1;
#X obj 187 176 setctl \$1-amp2;
#X obj 187 196 setctl \$1-delay2;
#X obj 187 216 setctl \$1-transpose2;
#X obj 335 20 r p-h0;
#X obj 448 20 r p-h1;
#X obj 187 15 setctl \$1-level;
#X obj 272 243 setctl \$1-pvocon;
#X obj 12 70 setctl \$1-thru;
#X obj 12 128 setctl \$1-h2;
#X obj 12 147 setctl \$1-h3;
#X obj 12 167 setctl \$1-h4;
#X obj 12 188 setctl \$1-tri;
#X obj 12 207 setctl \$1-partials;
#X obj 20 228 setctl \$1-cf1;
#X obj 20 248 setctl \$1-cf1p;
#X obj 20 267 setctl \$1-cf1a;
#X obj 19 324 setctl \$1-cf1d;
#X obj 175 243 setctl \$1-bw;
#X obj 175 263 setctl \$1-bwp;
#X obj 175 283 setctl \$1-bwa;
#X obj 175 303 setctl \$1-bwd;
#X obj 12 109 setctl \$1-h1;
#X obj 571 274 setctl \$1-vcf;
#X obj 571 257 setctl \$1-vcfd;
#X obj 410 308 setctl \$1-vcfbias;
#X obj 409 331 setctl \$1-q;
#X obj 405 381 setctl \$1-inter1;
#X obj 404 400 setctl \$1-inter2;
#X obj 404 420 setctl \$1-symmetry;
#X obj 404 440 setctl \$1-duty;
#X obj 170 326 setctl \$1-clip;
#X obj 170 347 setctl \$1-clipeven;
#X obj 168 395 setctl \$1-eq1;
#X obj 168 415 setctl \$1-eq1p;
#X obj 168 435 setctl \$1-eq1a;
#X obj 168 455 setctl \$1-eq1d;
#X obj 168 483 setctl \$1-ef1;
#X obj 168 503 setctl \$1-ef1p;
#X obj 168 522 setctl \$1-ef1a;
#X obj 168 583 setctl \$1-ef1d;
#X obj 282 395 setctl \$1-eq2;
#X obj 282 415 setctl \$1-eq2p;
#X obj 282 435 setctl \$1-eq2a;
#X obj 282 456 setctl \$1-eq2d;
#X obj 282 483 setctl \$1-ef2;
#X obj 282 522 setctl \$1-ef2a;
#X obj 282 583 setctl \$1-ef2d;
#X obj 281 503 setctl \$1-ef2p;
#X obj 179 605 setctl \$1-bw1;
#X obj 293 604 setctl \$1-bw2;
#X obj 19 343 setctl \$1-cf1bias;
#X obj 417 468 setctl \$1-amp;
#X obj 417 488 setctl \$1-ampp;
#X obj 417 508 setctl \$1-ampa;
#X obj 417 528 setctl \$1-ampd;
#X obj 272 262 setctl \$1-pvocsamp;
#X obj 570 19 r p-h2;
#X obj 710 21 r p-h3;
#X obj 19 286 setctl \$1-cf1q;
#X obj 19 305 setctl \$1-cf1b;
#X obj 19 362 setctl \$1-a1;
#X obj 19 382 setctl \$1-a1p;
#X obj 19 402 setctl \$1-a1a;
#X obj 19 422 setctl \$1-a1d;
#X obj 24 442 setctl \$1-cf2;
#X obj 24 462 setctl \$1-cf2p;
#X obj 24 481 setctl \$1-cf2a;
#X obj 23 500 setctl \$1-cf2q;
#X obj 23 519 setctl \$1-cf2b;
#X obj 23 538 setctl \$1-cf2d;
#X obj 23 557 setctl \$1-cf2bias;
#X obj 23 576 setctl \$1-a2;
#X obj 23 596 setctl \$1-a2p;
#X obj 23 616 setctl \$1-a2a;
#X obj 23 636 setctl \$1-a2d;
#X obj 272 300 setctl \$1-pvocdist;
#X obj 272 281 setctl \$1-pvocspeed;
#X obj 168 541 setctl \$1-ef1q;
#X obj 281 541 setctl \$1-ef2q;
#X obj 168 560 setctl \$1-ef1b;
#X obj 282 560 setctl \$1-ef2b;
#N canvas 311 238 676 607 ties 0;
#X obj 68 91 spigot;
#X obj 68 185 spigot;
#X obj 244 101 spigot;
#X obj 244 130 s \$1-cf1p;
#X obj 119 92 r tie1;
#X obj 118 186 r tie2;
#X obj 68 115 s \$1-inter2;
#X obj 68 209 s \$1-bwp;
#X obj 68 50 r \$1-inter1+;
#X obj 244 60 r \$1-cf1+;
#X obj 74 72 s \$1-inter1;
#X obj 250 80 s \$1-cf1;
#X obj 78 163 s \$1-bw;
#X obj 68 141 r \$1-bw+;
#X obj 73 321 spigot;
#X obj 73 250 r \$1-eq1+;
#X obj 83 272 s \$1-eq1;
#X obj 84 295 r tie-eq1;
#X obj 73 345 s \$1-eq1p;
#X obj 225 340 spigot;
#X obj 225 269 r \$1-eq2+;
#X obj 235 291 s \$1-eq2;
#X obj 235 314 r tie-eq2;
#X obj 225 364 s \$1-eq2p;
#X obj 402 476 spigot;
#X obj 402 405 r \$1-amp+;
#X obj 412 427 s \$1-amp;
#X obj 413 449 r tie-amp;
#X obj 402 499 s \$1-ampp;
#X obj 313 130 s \$1-cf1q;
#X msg 246 161 20;
#X msg 307 163 1000;
#X obj 246 187 s \$1-cf1a;
#X obj 278 207 s \$1-cf1b;
#X obj 308 229 s \$1-cf1d;
#X obj 398 324 spigot;
#X obj 398 280 r \$1-a1+;
#X obj 407 300 s \$1-a1;
#X obj 448 325 r tie-a1;
#X obj 398 348 s \$1-a1p;
#X obj 295 101 r tie-cf1;
#X obj 383 101 spigot;
#X msg 385 161 20;
#X msg 446 163 1000;
#X obj 537 324 spigot;
#X obj 383 60 r \$1-cf2+;
#X obj 389 80 s \$1-cf2;
#X obj 434 101 r tie-cf2;
#X obj 383 130 s \$1-cf2p;
#X obj 452 130 s \$1-cf2q;
#X obj 385 187 s \$1-cf2a;
#X obj 417 207 s \$1-cf2b;
#X obj 447 229 s \$1-cf2d;
#X obj 537 280 r \$1-a2+;
#X obj 546 300 s \$1-a2;
#X obj 537 348 s \$1-a2p;
#X obj 587 325 r tie-a2;
#X obj 67 433 spigot;
#X msg 69 493 20;
#X msg 130 495 1000;
#X obj 67 392 r \$1-ef1+;
#X obj 73 412 s \$1-ef1;
#X obj 118 433 r tie-ef1;
#X obj 67 462 s \$1-ef1p;
#X obj 136 462 s \$1-ef1q;
#X obj 69 519 s \$1-ef1a;
#X obj 101 539 s \$1-ef1b;
#X obj 131 561 s \$1-ef1d;
#X obj 210 434 spigot;
#X msg 212 494 20;
#X msg 273 496 1000;
#X obj 210 393 r \$1-ef2+;
#X obj 216 413 s \$1-ef2;
#X obj 261 434 r tie-ef2;
#X obj 210 463 s \$1-ef2p;
#X obj 279 463 s \$1-ef2q;
#X obj 212 520 s \$1-ef2a;
#X obj 244 540 s \$1-ef2b;
#X obj 274 562 s \$1-ef2d;
#X msg 101 494 200;
#X msg 244 495 200;
#X msg 278 162 200;
#X msg 417 162 200;
#X obj 514 441 spigot;
#X msg 516 501 20;
#X msg 577 503 1000;
#X msg 548 502 200;
#X obj 514 400 r \$1-vcf+;
#X obj 520 420 s \$1-vcf;
#X obj 565 441 r tie-vcf;
#X obj 514 470 s \$1-vcfp;
#X obj 583 470 s \$1-vcfq;
#X obj 516 527 s \$1-vcfa;
#X obj 548 547 s \$1-vcfb;
#X obj 578 569 s \$1-vcfd;
#X connect 0 0 6 0;
#X connect 1 0 7 0;
#X connect 2 0 3 0;
#X connect 2 0 29 0;
#X connect 2 0 30 0;
#X connect 2 0 81 0;
#X connect 2 0 31 0;
#X connect 4 0 0 1;
#X connect 5 0 1 1;
#X connect 8 0 0 0;
#X connect 8 0 10 0;
#X connect 9 0 2 0;
#X connect 9 0 11 0;
#X connect 13 0 1 0;
#X connect 13 0 12 0;
#X connect 14 0 18 0;
#X connect 15 0 14 0;
#X connect 15 0 16 0;
#X connect 17 0 14 1;
#X connect 19 0 23 0;
#X connect 20 0 19 0;
#X connect 20 0 21 0;
#X connect 22 0 19 1;
#X connect 24 0 28 0;
#X connect 25 0 24 0;
#X connect 25 0 26 0;
#X connect 27 0 24 1;
#X connect 30 0 32 0;
#X connect 31 0 34 0;
#X connect 35 0 39 0;
#X connect 36 0 35 0;
#X connect 36 0 37 0;
#X connect 38 0 35 1;
#X connect 40 0 2 1;
#X connect 41 0 42 0;
#X connect 41 0 82 0;
#X connect 41 0 43 0;
#X connect 41 0 48 0;
#X connect 41 0 49 0;
#X connect 42 0 50 0;
#X connect 43 0 52 0;
#X connect 44 0 55 0;
#X connect 45 0 41 0;
#X connect 45 0 46 0;
#X connect 47 0 41 1;
#X connect 53 0 44 0;
#X connect 53 0 54 0;
#X connect 56 0 44 1;
#X connect 57 0 58 0;
#X connect 57 0 79 0;
#X connect 57 0 59 0;
#X connect 57 0 63 0;
#X connect 57 0 64 0;
#X connect 58 0 65 0;
#X connect 59 0 67 0;
#X connect 60 0 57 0;
#X connect 60 0 61 0;
#X connect 62 0 57 1;
#X connect 68 0 69 0;
#X connect 68 0 80 0;
#X connect 68 0 70 0;
#X connect 68 0 74 0;
#X connect 68 0 75 0;
#X connect 69 0 76 0;
#X connect 70 0 78 0;
#X connect 71 0 68 0;
#X connect 71 0 72 0;
#X connect 73 0 68 1;
#X connect 79 0 66 0;
#X connect 80 0 77 0;
#X connect 81 0 33 0;
#X connect 82 0 51 0;
#X connect 83 0 84 0;
#X connect 83 0 86 0;
#X connect 83 0 85 0;
#X connect 83 0 90 0;
#X connect 83 0 91 0;
#X connect 84 0 92 0;
#X connect 85 0 94 0;
#X connect 86 0 93 0;
#X connect 87 0 83 0;
#X connect 87 0 88 0;
#X connect 89 0 83 1;
#X restore 406 583 pd ties;
#X obj 571 189 setctl \$1-vcfa;
#X obj 571 206 setctl \$1-vcfp;
#X obj 571 240 setctl \$1-vcfq;
#X obj 572 223 setctl \$1-vcfb;
#X obj 568 310 setctl \$1-oddh;
#X obj 595 386 setctl \$1-voz;
#X obj 595 405 setctl \$1-vsamp;
#X obj 595 424 setctl \$1-vfret;
#X obj 595 443 setctl \$1-vframes;
#X obj 595 462 setctl \$1-vspeed;
#X obj 282 625 setctl \$1-eqbias;
#X obj 627 521 setctl \$1-pmod;
#X obj 626 539 setctl \$1-pharm;
#X obj 629 559 setctl \$1-penv;
#X msg 335 44 \; t-window 20 \; t-amp0 50 \; t-delay0 0 \; t-amp1 0
\; t-delay1 0 \; t-transpose1 0 \; t-amp2 0 \; t-delay2 0 \; t-transpose2
0;
#X msg 448 44 \; t-window 9 \; t-amp0 44 \; t-delay0 0 \; t-amp1 41
\; t-delay1 0 \; t-transpose1 -7 \; t-amp2 41 \; t-delay2 0 \; t-transpose2
5;
#X msg 570 43 \; t-window 5 \; t-amp0 44 \; t-delay0 0 \; t-amp1 41
\; t-delay1 8 \; t-transpose1 0.15 \; t-amp2 41 \; t-delay2 0 \; t-transpose2
-0.2;
#X msg 710 45 \; t-window 9 \; t-amp0 44 \; t-delay0 0 \; t-amp1 41
\; t-delay1 0 \; t-transpose1 -7 \; t-amp2 41 \; t-delay2 0 \; t-transpose2
5;
#X obj 12 90 setctl \$1-h0;
#X connect 13 0 106 0;
#X connect 14 0 107 0;
#X connect 66 0 108 0;
#X connect 67 0 109 0;
#X restore 255 374 pd ctl;
#X floatatom 49 36 5 0 100 0 bias #1-filterbias-set #1-filterbias;
#X floatatom 487 31 4 0 100 0 level #1-level-set #1-level;
#X text 125 33 mod:;
#X floatatom 142 69 5 -200 500 0 percent #1-cf1percent-set #1-cf1percent
;
#X floatatom 142 53 5 0 0 0 fshz #1-fshz-set #1-fshz;
#X floatatom 263 183 5 0 200 0 window #1-window-set #1-window;
#X floatatom 263 199 5 0 100 0 amp0 #1-amp0-set #1-amp0;
#X floatatom 263 215 5 0 100 0 delay0 #1-delay0-set #1-delay0;
#X floatatom 263 231 5 0 100 0 amp1 #1-amp1-set #1-amp1;
#X floatatom 263 247 5 0 100 0 delay1 #1-delay1-set #1-delay1;
#X floatatom 263 263 5 -1200 1200 0 trans1 #1-transpose1-set #1-transpose1
;
#X floatatom 263 279 5 0 100 0 amp2 #1-amp2-set #1-amp2;
#X floatatom 263 295 5 0 100 0 delay2 #1-delay2-set #1-delay2;
#X floatatom 263 311 5 -1200 1200 0 trans2 #1-transpose2-set #1-transpose2
;
#X obj 245 332 bng 15 250 50 0 p-h0 empty 0 -11 8 0 10 -262144 -1 -1
;
#X obj 245 350 bng 15 250 50 0 p-h1 empty 1 -11 8 0 10 -262144 -1 -1
;
#X obj 6 6 bng 15 250 50 0 reset empty empty 15 6 0 10 -262144 -1 -1
;
#X obj 481 335 tgl 12 0 \$1-pvocon \$1-pvocon-set on -17 6 0 10 -262144
-1 -1 0 1;
#X text 467 318 pvoc:;
#X floatatom 481 349 5 0 100 0 sample #1-pvocsamp-set #1-pvocsamp;
#X floatatom 120 5 5 0 100 0 thru #1-thru-set #1-thru;
#X floatatom 49 83 5 0 100 0 h2 #1-h2-set #1-h2;
#X floatatom 49 97 5 0 100 0 h3 #1-h3-set #1-h3;
#X floatatom 254 95 5 0 100 0 tri #1-tri-set #1-tri;
#X floatatom 263 111 5 0 100 0 partials #1-partials-set #1-partials
;
#X floatatom 51 272 3 0 160 0 cf1 #1-cf1-set #1-cf1+;
#X floatatom 140 357 3 0 160 0 bw #1-bw-set #1-bw+;
#X floatatom 51 216 3 0 500 0 cf1p #1-cf1p-set #1-cf1p;
#X floatatom 51 202 5 0 500 0 cf1a #1-cf1a-set #1-cf1a;
#X floatatom 51 258 5 0 9999 0 cf1d #1-cf1d-set #1-cf1d;
#X floatatom 140 327 3 0 500 0 bwp #1-bwp-set #1-bwp;
#X floatatom 140 313 5 0 500 0 bwa #1-bwa-set #1-bwa;
#X floatatom 140 343 5 0 9999 0 bwd #1-bwd-set #1-bwd;
#X floatatom 49 111 5 0 100 0 h4 #1-h4-set #1-h4;
#X text 472 12 MASTER;
#X floatatom 49 69 5 0 100 0 h1 #1-h1-set #1-h1;
#X floatatom 474 255 3 0 160 0 vcf #1-vcf-set #1-vcf+;
#X floatatom 476 112 3 0 500 0 ampp #1-ampp-set #1-ampp;
#X floatatom 476 98 5 0 500 0 ampa #1-ampa-set #1-ampa;
#X floatatom 476 126 5 0 9999 0 ampd #1-ampd-set #1-ampd;
#X floatatom 478 296 3 0 999 0 q #1-q-set #1-q;
#X floatatom 490 276 3 0 100 0 vcfbias #1-vcfbias-set #1-vcfbias;
#X floatatom 142 85 5 0 100 0 inter1 #1-inter1-set #1-inter1+;
#X floatatom 142 101 5 0 100 0 inter2 #1-inter2-set #1-inter2;
#X obj 183 96 tgl 12 0 tie1 tie1-set empty 0 0 0 10 -262144 -1 -1 0
1;
#X obj 167 360 tgl 12 0 tie2 tie2-set empty 0 0 0 10 -262144 -1 -1
0 1;
#X obj 78 274 tgl 12 0 tie-cf1 tie-cf1-set empty 0 0 0 10 -262144 -1
-1 0 1;
#X obj 503 142 tgl 12 0 tie-amp tie-amp-set empty 0 0 0 10 -262144
-1 -1 0 1;
#X floatatom 487 48 4 -200 100 0 octave #1-octave-set #1-octave;
#X floatatom 263 127 5 -100 100 0 symmetry #1-symmetry-set #1-symmetry
;
#X floatatom 263 143 5 0 100 0 duty #1-duty-set #1-duty;
#X floatatom 69 314 5 0 100 0 clip #1-clip-set #1-clip;
#X floatatom 69 328 5 0 100 0 clipeven #1-clipeven-set #1-clipeven
;
#X floatatom 364 63 3 -40 40 0 eq1 #1-eq1-set #1-eq1+;
#X floatatom 364 35 3 -40 40 0 eq1p #1-eq1p-set #1-eq1p;
#X floatatom 364 21 5 0 500 0 eq1a #1-eq1a-set #1-eq1a;
#X floatatom 364 49 5 0 9999 0 eq1d #1-eq1d-set #1-eq1d;
#X obj 391 66 tgl 12 0 tie-eq1 tie-eq1-set empty 0 0 0 10 -262144 -1
-1 0 1;
#X floatatom 365 158 3 0 160 0 ef1 #1-ef1-set #1-ef1+;
#X floatatom 365 102 3 0 500 0 ef1p #1-ef1p-set #1-ef1p;
#X floatatom 365 88 5 0 500 0 ef1a #1-ef1a-set #1-ef1a;
#X floatatom 365 144 5 0 9999 0 ef1d #1-ef1d-set #1-ef1d;
#X obj 393 160 tgl 12 0 tie-ef1 tie-ef1-set empty 0 0 0 10 -262144
-1 -1 0 1;
#X floatatom 364 240 3 -40 40 0 eq2 #1-eq2-set #1-eq2+;
#X floatatom 364 212 3 -40 40 0 eq2p #1-eq2p-set #1-eq2p;
#X floatatom 364 198 5 0 500 0 eq2a #1-eq2a-set #1-eq2a;
#X floatatom 364 226 5 0 9999 0 eq2d #1-eq2d-set #1-eq2d;
#X obj 391 242 tgl 12 0 tie-eq2 tie-eq2-set empty 0 0 0 10 -262144
-1 -1 0 1;
#X floatatom 365 337 3 0 160 0 ef2 #1-ef2-set #1-ef2+;
#X floatatom 365 281 3 0 500 0 ef2p #1-ef2p-set #1-ef2p;
#X floatatom 365 267 5 0 500 0 ef2a #1-ef2a-set #1-ef2a;
#X floatatom 365 323 5 0 9999 0 ef2d #1-ef2d-set #1-ef2d;
#X obj 392 339 tgl 12 0 tie-ef2 tie-ef2-set empty 0 0 0 10 -262144
-1 -1 0 1;
#X floatatom 371 176 5 0 160 0 bw1 #1-bw1-set #1-bw1;
#X floatatom 372 354 5 0 160 0 bw2 #1-bw2-set #1-bw2;
#X floatatom 72 290 3 0 100 0 cf1bias #1-cf1bias-set #1-cf1bias;
#X floatatom 476 140 3 0 160 0 amp #1-amp-set #1-amp+;
#X floatatom 474 199 3 0 500 0 vcfp #1-vcfp-set #1-vcfp;
#X floatatom 474 185 5 0 500 0 vcfa #1-vcfa-set #1-vcfa;
#X floatatom 474 241 5 0 9999 0 vcfd #1-vcfd-set #1-vcfd;
#X obj 502 258 tgl 12 0 tie-vcf tie-vcf-set empty 0 0 0 10 -262144
-1 -1 0 1;
#X text 475 171 VCF:;
#X text 474 83 VCA:;
#X text 369 5 EQ:;
#X obj 280 333 bng 15 250 50 0 p-h2 empty 2 -11 8 0 10 -262144 -1 -1
;
#X obj 280 350 bng 15 250 50 0 p-h3 empty 3 -11 8 0 10 -262144 -1 -1
;
#X floatatom 51 244 3 0 500 0 cf1q #1-cf1q-set #1-cf1q;
#X floatatom 51 230 5 0 500 0 cf1b #1-cf1b-set #1-cf1b;
#X floatatom 51 179 3 0 160 0 a1 #1-a1-set #1-a1+;
#X floatatom 51 149 3 0 110 0 a1p #1-a1p-set #1-a1p;
#X floatatom 51 135 5 0 500 0 a1a #1-a1a-set #1-a1a;
#X floatatom 51 165 5 0 9999 0 a1d #1-a1d-set #1-a1d;
#X obj 78 182 tgl 12 0 tie-a1 tie-a1-set empty 0 0 0 10 -262144 -1
-1 0 1;
#X floatatom 141 268 3 0 160 0 cf2 #1-cf2-set #1-cf2+;
#X floatatom 141 212 3 0 500 0 cf2p #1-cf2p-set #1-cf2p;
#X floatatom 141 198 5 0 500 0 cf2a #1-cf2a-set #1-cf2a;
#X floatatom 141 254 5 0 9999 0 cf2d #1-cf2d-set #1-cf2d;
#X obj 167 270 tgl 12 0 tie-cf2 tie-cf2-set empty 0 0 0 10 -262144
-1 -1 0 1;
#X floatatom 141 240 3 0 500 0 cf2q #1-cf2q-set #1-cf2q;
#X floatatom 141 226 5 0 500 0 cf2b #1-cf2b-set #1-cf2b;
#X floatatom 141 175 3 0 110 0 a2 #1-a2-set #1-a2+;
#X floatatom 141 145 3 0 110 0 a2p #1-a2p-set #1-a2p;
#X floatatom 141 131 5 0 500 0 a2a #1-a2a-set #1-a2a;
#X floatatom 141 161 5 0 9999 0 a2d #1-a2d-set #1-a2d;
#X obj 168 178 tgl 12 0 tie-a2 tie-a2-set empty 0 0 0 10 -262144 -1
-1 0 1;
#X floatatom 161 286 3 0 100 0 cf2bias #1-cf2bias-set #1-cf2bias;
#X floatatom 481 365 5 0 100 0 speed #1-pvocspeed-set #1-pvocspeed
;
#X floatatom 481 381 5 0 300 0 distance #1-pvocdist-set #1-pvocdist
;
#X floatatom 365 309 3 0 500 0 ef2q #1-ef2q-set #1-ef2q;
#X floatatom 365 295 5 0 500 0 ef2b #1-ef2b-set #1-ef2b;
#X floatatom 365 130 3 0 500 0 ef1q #1-ef1q-set #1-ef1q;
#X floatatom 365 116 5 0 500 0 ef1b #1-ef1b-set #1-ef1b;
#X floatatom 474 227 3 0 500 0 vcfq #1-vcfq-set #1-vcfq;
#X floatatom 474 213 5 0 500 0 vcfb #1-vcfb-set #1-vcfb;
#X obj 488 66 tgl 12 0 \$1-oddh \$1-oddh-set empty -17 6 0 10 -262144
-1 -1 0 1;
#X text 451 64 oddh;
#X text 25 6 reset;
#X floatatom 258 7 5 0 100 0 voz #1-voz-set #1-voz;
#X floatatom 268 39 5 -6 36 0 vfret #1-vfret-set #1-vfret;
#X floatatom 268 55 5 0 100 0 vframes #1-vframes-set #1-vframes;
#X floatatom 268 71 5 1 300 0 vspeed #1-vspeed-set #1-vspeed;
#X floatatom 268 23 5 0 85 0 vsamp #1-vsamp-set #1-vsamp;
#X text 226 166 pitchshift:;
#X floatatom 364 374 3 0 100 0 eqbias #1-eqbias-set #1-eqbias;
#X floatatom 56 351 5 0 100 0 pmod #1-pmod-set #1-pmod;
#X floatatom 56 365 5 0 100 0 pharm #1-pharm-set #1-pharm;
#X floatatom 56 379 5 0 100 0 penv #1-penv-set #1-penv;
#X floatatom 49 55 5 0 100 0 h0 #1-h0-set #1-h0;
