#N canvas 378 14 644 617 10;
#X obj 105 72 r \$1-param;
#X obj 105 95 route filterrange filterbias filterq octave fuzz lomod
cf1percent fshz mod noisebalance noisecut noisefreq window amp0
delay0 amp1 delay1 transpose1 amp2 delay2 transpose3;
#X obj 105 566 s \$1-filterrange;
#X obj 124 546 s \$1-filterbias;
#X obj 143 526 s \$1-filterq;
#X obj 163 506 s \$1-octave;
#X obj 182 486 s \$1-fuzz;
#X obj 202 466 s \$1-lomod;
#X obj 221 446 s \$1-cf1percent;
#X obj 241 426 s \$1-fshz;
#X obj 260 406 s \$1-mod;
#X obj 279 386 s \$1-noisebalance;
#X obj 299 366 s \$1-noisecut;
#X obj 318 346 s \$1-noisefreq;
#X obj 338 326 s \$1-window;
#X obj 357 306 s \$1-amp0;
#X obj 377 286 s \$1-delay0;
#X obj 396 266 s \$1-amp1;
#X obj 415 246 s \$1-delay1;
#X obj 435 226 s \$1-transpose1;
#X obj 454 206 s \$1-amp2;
#X obj 474 186 s \$1-delay2;
#X obj 493 166 s \$1-transpose2;
#X connect 0 0 1 0;
#X connect 1 0 2 0;
#X connect 1 1 3 0;
#X connect 1 2 4 0;
#X connect 1 3 5 0;
#X connect 1 4 6 0;
#X connect 1 5 7 0;
#X connect 1 6 8 0;
#X connect 1 7 9 0;
#X connect 1 8 10 0;
#X connect 1 9 11 0;
#X connect 1 10 12 0;
#X connect 1 11 13 0;
#X connect 1 12 14 0;
#X connect 1 13 15 0;
#X connect 1 14 16 0;
#X connect 1 15 17 0;
#X connect 1 16 18 0;
#X connect 1 17 19 0;
#X connect 1 18 20 0;
#X connect 1 19 21 0;
#X connect 1 20 22 0;
