#N canvas 74 422 450 300 12;
#X obj 64 35 r qlist-grab;
#X obj 81 89 f;
#X obj 65 113 f;
#X obj 65 141 t f b;
#X obj 65 193 pack 0 s;
#X msg 65 218 \; qlist-save add \$2 \$1;
#X obj 116 164 symbol \$1;
#X obj 81 65 r \$1;
#X connect 0 0 2 0;
#X connect 1 0 2 1;
#X connect 2 0 3 0;
#X connect 3 0 4 0;
#X connect 3 1 6 0;
#X connect 4 0 5 0;
#X connect 6 0 4 1;
#X connect 7 0 1 0;
