#N canvas 280 167 738 417 12;
#X obj 192 48 loadbang;
#X obj 192 73 \$1;
#X obj 289 20 r qlist-reload;
#X obj 289 44 sel \$1;
#X obj 46 61 r qlist-recall;
#X obj 46 84 sel \$1;
#X obj 56 113 r \$1-qlist-recall;
#X obj 375 178 \$1;
#X obj 375 201 s preset-number;
#X obj 227 201 s qlist-recall-voice;
#X obj 227 177 0;
#X obj 461 63 t b b;
#X obj 501 166 print \$1-recall;
#X obj 159 22 bng 15 250 50 0 empty empty empty 17 7 0 10 -262144 -1
-1;
#X obj 192 96 makefilename ../preset/x%d.txt;
#X msg 191 119 read \$1 cr;
#X obj 45 192 qlist;
#X obj 309 249 r qlist-recall-string;
#X obj 115 183 b;
#X obj 115 207 s ramp-master;
#X obj 46 138 t b b b;
#X obj 180 370 s qlist-recall-voice;
#X obj 180 346 0;
#X obj 309 274 swap;
#X obj 309 298 pack;
#X obj 309 322 route \$1;
#X obj 180 263 t b b b f;
#X connect 0 0 1 0;
#X connect 1 0 14 0;
#X connect 2 0 3 0;
#X connect 3 0 1 0;
#X connect 4 0 5 0;
#X connect 5 0 20 0;
#X connect 6 0 20 0;
#X connect 7 0 8 0;
#X connect 10 0 9 0;
#X connect 13 0 1 0;
#X connect 14 0 15 0;
#X connect 15 0 16 0;
#X connect 17 0 23 0;
#X connect 18 0 19 0;
#X connect 20 0 16 0;
#X connect 20 1 18 0;
#X connect 20 2 7 0;
#X connect 20 2 10 0;
#X connect 22 0 21 0;
#X connect 23 0 24 0;
#X connect 23 1 24 1;
#X connect 24 0 25 0;
#X connect 25 0 26 0;
#X connect 26 0 22 0;
#X connect 26 1 16 0;
#X connect 26 2 19 0;
#X connect 26 3 21 0;
