#N canvas 105 474 450 300 10;
#X obj 64 68 inlet~;
#X obj 63 205 +~;
#X obj 64 255 outlet~;
#X obj 79 169 line~;
#X obj 183 86 inlet;
#X obj 183 190 snapshot~;
#X msg 79 141 \$1 \, 0 100;
#X connect 0 0 1 0;
#X connect 1 0 2 0;
#X connect 1 0 5 0;
#X connect 3 0 1 1;
#X connect 4 0 5 0;
#X connect 5 0 6 0;
#X connect 6 0 3 0;
