#N canvas 45 66 450 300 10;
#X obj 70 69 inlet~;
#X obj 70 95 rzero~ 1;
#X obj 257 142 samplerate~;
#X obj 70 118 +~ 0.5;
#X obj 70 143 wrap~;
#X obj 69 166 -~ 0.5;
#X obj 206 160 *;
#X obj 226 91 loadbang;
#X obj 206 71 inlet;
#X obj 206 137 f \$1;
#X obj 226 114 t b b;
#X obj 69 191 *~;
#X obj 256 195 print samplerate;
#X obj 68 214 phasor~;
#X obj 68 240 outlet~;
#X connect 0 0 1 0;
#X connect 1 0 3 0;
#X connect 2 0 6 1;
#X connect 2 0 12 0;
#X connect 3 0 4 0;
#X connect 4 0 5 0;
#X connect 5 0 11 0;
#X connect 6 0 11 1;
#X connect 7 0 10 0;
#X connect 8 0 9 0;
#X connect 9 0 6 0;
#X connect 10 0 9 0;
#X connect 10 1 2 0;
#X connect 11 0 13 0;
#X connect 13 0 14 0;
