#N canvas -10 266 585 483 10;
#X obj 123 291 *~;
#X obj 91 221 *~;
#X obj 88 70 inlet~;
#X text 84 56 cosine;
#X obj 89 449 outlet~;
#X obj 91 291 +~;
#X obj 342 158 inlet~;
#X text 331 137 noise frequency;
#X obj 120 221 tabosc4~ noise41;
#X obj 150 291 tabosc4~ noise42;
#X obj 301 289 *~;
#X obj 332 340 *~;
#X obj 300 340 +~;
#X obj 301 260 delread~ \$0-del 4.866;
#X obj 328 289 tabosc4~ noise43;
#X obj 359 340 tabosc4~ noise44;
#X obj 107 101 delwrite~ \$0-del 20;
#X obj 91 377 shaker-allpass~ 5.5234 0.618;
#X obj 123 262 delread~ \$0-del 10;
#X obj 306 379 shaker-allpass~ 4.253 0.618;
#X obj 91 398 shaker-allpass~ 8.4325 0.618;
#X obj 306 401 shaker-allpass~ 9.1234 0.618;
#X obj 332 311 delread~ \$0-del 11.7658;
#X connect 0 0 5 1;
#X connect 1 0 5 0;
#X connect 2 0 16 0;
#X connect 2 0 1 0;
#X connect 5 0 17 0;
#X connect 6 0 8 0;
#X connect 6 0 9 0;
#X connect 6 0 14 0;
#X connect 6 0 15 0;
#X connect 8 0 1 1;
#X connect 9 0 0 1;
#X connect 10 0 12 0;
#X connect 11 0 12 1;
#X connect 12 0 19 0;
#X connect 13 0 10 0;
#X connect 14 0 10 1;
#X connect 15 0 11 1;
#X connect 17 0 20 0;
#X connect 18 0 0 0;
#X connect 19 0 21 0;
#X connect 20 0 4 0;
#X connect 21 0 4 0;
#X connect 22 0 11 0;
