#N canvas 111 48 412 392 10;
#X obj 99 325 line~;
#X obj 68 272 dbtorms;
#X obj 92 246 unpack;
#X obj 112 197 r \$1;
#X obj 99 350 outlet~;
#X text 22 31 \$1 is the name of the receive symbol.;
#X text 22 109 outlet is the level as a signal.;
#X text 21 11 control an amplitude in dB using linear segments.;
#X obj 112 220 t l b;
#X text 22 31 \$1 is the name of the receive symbol.;
#X text 20 49 \$2 is output level for an input of 100 (default is 1).
;
#X text 21 71 \$3 is ramp time when not specified by received message.
;
#X text 42 90 (default is 20 - o specify zero \, set \$3 negative.)
;
#X obj 267 253 f \$2;
#X obj 170 176 f \$3;
#X msg 170 223 20;
#X obj 170 200 sel 0;
#X obj 205 223 moses 0;
#X msg 205 246 0;
#X obj 142 326 f;
#X obj 267 280 sel 0;
#X msg 267 303 1;
#X obj 68 296 *;
#X obj 10 273 dbtorms;
#X obj 11 297 * -1;
#X obj 19 242 * -1;
#X obj 19 219 moses 1;
#X obj 267 148 loadbang;
#X connect 0 0 4 0;
#X connect 1 0 22 0;
#X connect 2 0 1 0;
#X connect 2 0 26 0;
#X connect 2 1 0 1;
#X connect 3 0 8 0;
#X connect 8 0 2 0;
#X connect 8 1 19 0;
#X connect 13 0 20 0;
#X connect 14 0 16 0;
#X connect 15 0 19 1;
#X connect 16 0 15 0;
#X connect 16 1 17 0;
#X connect 17 0 18 0;
#X connect 17 1 19 1;
#X connect 18 0 19 1;
#X connect 19 0 0 1;
#X connect 20 0 21 0;
#X connect 20 1 22 1;
#X connect 21 0 22 1;
#X connect 22 0 0 0;
#X connect 23 0 24 0;
#X connect 24 0 22 0;
#X connect 25 0 23 0;
#X connect 26 0 25 0;
#X connect 26 1 1 0;
#X connect 27 0 13 0;
#X connect 27 0 14 0;
