#N canvas 1 31 462 426 10;
#X obj 99 111 q8_rsqrt~;
#X obj 83 136 *~;
#X obj 113 135 *~;
#X obj 83 158 *~;
#X obj 82 183 *~ -0.5;
#X obj 110 161 *~ 1.5;
#X obj 82 204 +~;
#X obj 66 233 *~;
#X obj 66 260 outlet~;
#X obj 66 82 inlet~;
#X text 171 110 inverse sqrt to 8 bits;
#X text 114 203 inverse sqrt to 16 bit precision;
#X text 94 233 sqrt to 16 bit precision;
#X connect 0 0 1 1;
#X connect 0 0 2 0;
#X connect 0 0 2 1;
#X connect 0 0 5 0;
#X connect 1 0 3 0;
#X connect 2 0 3 1;
#X connect 3 0 4 0;
#X connect 4 0 6 0;
#X connect 5 0 6 1;
#X connect 6 0 7 1;
#X connect 7 0 8 0;
#X connect 9 0 1 0;
#X connect 9 0 7 0;
#X connect 9 0 0 0;
