#N canvas 38 3 860 712 10;
#X obj 269 42 inlet;
#X text 221 14 this string;
#X obj 169 34 inlet;
#X obj 373 44 inlet;
#X obj 38 109 timer;
#X obj 25 72 t b b;
#X text 35 15 left neighboring string;
#X text 385 21 right neighboring string;
#X obj 265 462 r qlist-recall-string;
#X obj 434 489 r qlist-recall;
#X obj 198 537 f;
#X obj 155 534 f;
#X obj 38 131 moses;
#X obj 79 131 r idle-timerthresh1;
#X obj 50 176 random 44;
#X obj 50 198 + 1;
#X obj 51 153 b;
#X obj 50 224 t b f;
#X obj 48 268 s qlist-recall-string;
#X obj 25 361 timer;
#X obj 204 365 timer;
#X obj 254 364 timer;
#X obj 38 318 t b b b;
#X obj 73 431 sel 1;
#X obj 157 620 pack 0 0;
#X obj 158 642 sel;
#X obj 174 668 t b f;
#X obj 175 715 s qlist-recall-string;
#X obj 98 296 print change-1;
#X obj 270 429 sel 1;
#X obj 336 659 print change-2;
#X obj 51 245 pack \$2 0;
#X obj 295 591 print \$2-change-2;
#X obj 422 591 print \$2-change-3;
#X obj 175 689 pack \$2 0;
#X floatatom 326 214 5 0 0 0 - - -;
#X floatatom 17 412 5 0 0 0 - - -;
#X obj 56 478 bng 15 250 50 0 empty empty empty 17 7 0 10 -262144 -1
-1;
#X obj 179 464 bng 15 250 50 0 empty empty empty 17 7 0 10 -262144
-1 -1;
#X obj 73 409 expr $f1 > $f3 && $f2 > $f3;
#X obj 270 406 expr $f1 > $f2 && $f3 >= $f2;
#X floatatom 224 332 5 0 0 0 - - -;
#X floatatom 280 335 5 0 0 0 - - -;
#X floatatom 348 542 5 0 0 0 - - -;
#X floatatom 390 542 5 0 0 0 - - -;
#X floatatom 435 542 5 0 0 0 - - -;
#X obj 367 487 route \$1;
#X obj 265 487 route \$3 \$2;
#X obj 13 564 r qlist-recall-if-change;
#X obj 13 589 route \$2;
#X obj 588 166 spigot;
#X obj 685 172 tgl 15 0 empty empty empty 0 -6 0 8 -262144 -1 -1 0
1;
#X obj 587 144 r \$2-attack;
#X obj 621 40 r random-list;
#X obj 621 64 route -1;
#X msg 713 144 0;
#X msg 681 95 1;
#X obj 589 209 list;
#X obj 588 188 b;
#X obj 62 674 print \$2-x;
#X obj 588 265 until;
#X obj 588 288 list append;
#X obj 507 373 print zzz;
#X obj 588 312 list split 2;
#X obj 588 238 t b l b;
#X obj 730 312 random 100;
#X obj 706 500 f;
#X obj 602 373 unpack;
#X obj 602 399 t b f;
#X obj 631 451 -;
#X obj 603 431 f;
#X obj 631 474 moses;
#X obj 673 500 b;
#X obj 698 314 b;
#X obj 2 621 r \$0-recall-if-change;
#X obj 696 583 s \$0-recall-if-change;
#X obj 664 550 moses;
#X obj 628 618 random 51;
#X obj 630 650 moses 46;
#X obj 700 648 + 5;
#X obj 627 590 b;
#X obj 670 218 s random-list-on-set;
#X msg 663 195 set \$1;
#X obj 673 118 r random-list-on;
#X text 565 550 -1 for random;
#X connect 0 0 5 0;
#X connect 2 0 4 0;
#X connect 2 0 20 0;
#X connect 3 0 4 0;
#X connect 3 0 21 0;
#X connect 4 0 12 0;
#X connect 5 0 4 0;
#X connect 5 0 19 0;
#X connect 5 1 4 1;
#X connect 8 0 46 0;
#X connect 8 0 47 0;
#X connect 9 0 10 1;
#X connect 9 0 11 1;
#X connect 9 0 24 1;
#X connect 10 0 24 0;
#X connect 11 0 24 0;
#X connect 12 0 22 0;
#X connect 12 1 16 0;
#X connect 13 0 12 1;
#X connect 13 0 35 0;
#X connect 14 0 15 0;
#X connect 15 0 17 0;
#X connect 16 0 14 0;
#X connect 17 0 31 0;
#X connect 17 1 31 1;
#X connect 19 0 39 0;
#X connect 19 0 40 0;
#X connect 19 0 36 0;
#X connect 20 0 39 1;
#X connect 20 0 40 1;
#X connect 20 0 41 0;
#X connect 21 0 39 2;
#X connect 21 0 40 2;
#X connect 21 0 42 0;
#X connect 22 0 19 1;
#X connect 22 1 20 1;
#X connect 22 2 21 1;
#X connect 23 0 11 0;
#X connect 23 0 37 0;
#X connect 24 0 25 0;
#X connect 25 1 26 0;
#X connect 26 0 34 0;
#X connect 26 1 34 1;
#X connect 29 0 10 0;
#X connect 29 0 38 0;
#X connect 31 0 18 0;
#X connect 34 0 27 0;
#X connect 39 0 23 0;
#X connect 40 0 29 0;
#X connect 46 0 10 1;
#X connect 47 0 11 1;
#X connect 47 0 43 0;
#X connect 47 1 24 1;
#X connect 47 1 44 0;
#X connect 48 0 49 0;
#X connect 49 0 24 0;
#X connect 50 0 58 0;
#X connect 51 0 50 1;
#X connect 51 0 82 0;
#X connect 52 0 50 0;
#X connect 53 0 54 0;
#X connect 54 0 55 0;
#X connect 54 1 56 0;
#X connect 54 1 57 1;
#X connect 55 0 51 0;
#X connect 56 0 51 0;
#X connect 57 0 64 0;
#X connect 58 0 57 0;
#X connect 60 0 61 0;
#X connect 61 0 63 0;
#X connect 63 0 67 0;
#X connect 63 1 61 1;
#X connect 63 2 73 0;
#X connect 64 0 60 0;
#X connect 64 1 61 1;
#X connect 64 2 65 0;
#X connect 65 0 70 1;
#X connect 66 0 76 0;
#X connect 67 0 68 0;
#X connect 67 1 66 1;
#X connect 68 0 70 0;
#X connect 68 1 69 1;
#X connect 69 0 71 0;
#X connect 69 0 70 1;
#X connect 70 0 69 0;
#X connect 71 0 72 0;
#X connect 72 0 73 0;
#X connect 72 0 66 0;
#X connect 73 0 60 1;
#X connect 74 0 24 0;
#X connect 74 0 59 0;
#X connect 76 0 80 0;
#X connect 76 1 75 0;
#X connect 77 0 78 0;
#X connect 78 0 75 0;
#X connect 78 1 79 0;
#X connect 79 0 75 0;
#X connect 80 0 77 0;
#X connect 82 0 81 0;
#X connect 83 0 51 0;
