#N canvas 200 71 456 224 12;
#X obj 27 172 outlet~;
#X obj 27 117 inlet~;
#N canvas 173 67 761 504 analysis 0;
#X obj 39 16 inlet~;
#X obj 88 409 mtof;
#X text 48 239 pitch;
#X text 14 331 only take;
#X obj 88 450 s \$1-hz;
#X obj 280 243 s \$1-fastdb;
#X obj 80 362 moses;
#X obj 79 340 moses;
#X obj 123 340 - 1;
#X obj 287 160 f \$4;
#X obj 123 363 + 26;
#X text 15 362 range of;
#X text 15 375 string;
#X obj 184 404 r \$6-fastdb;
#X obj 272 405 r \$7-fastdb;
#X obj 155 430 expr $f1>$f2-$f4 && $f1>$f3-$f4;
#X obj 360 391 r xtalk;
#X obj 88 429 spigot;
#X obj 155 451 tgl 15 0 empty empty empty 0 -6 0 8 -262144 -1 -1 1
1;
#X floatatom 360 411 5 0 0 0 - - -;
#X obj 426 344 spigot;
#X obj 425 270 b;
#X obj 426 292 1;
#X obj 465 294 0;
#X obj 465 272 b;
#X obj 426 367 outlet;
#X obj 287 183 mtof;
#X msg 206 163 maxfreq \$1;
#X obj 425 246 r metro500;
#X obj 399 325 pack;
#X obj 79 313 spigot;
#X obj 112 292 > 50;
#X text 144 236 amp (dB);
#X text 188 452 suppress pitch if string;
#X text 187 466 is 'xtalk' quiter than neighbor;
#X obj 235 329 spigot;
#X obj 283 329 r calc-avg-amp;
#N canvas 1 31 450 300 avg-amp 0;
#X obj 72 22 inlet;
#X obj 156 25 r calc-avg-amp;
#X obj 156 50 sel 1;
#X msg 155 75 0;
#X obj 94 111 f;
#X obj 123 111 + 1;
#X obj 72 53 t f b;
#X obj 82 162 /;
#X obj 82 205 s \$1-avg-amp;
#X obj 50 78 dbtopow;
#X obj 82 184 powtodb;
#X obj 27 126 f;
#X obj 52 126 +;
#X obj 33 100 t b f;
#X connect 0 0 6 0;
#X connect 1 0 2 0;
#X connect 2 0 3 0;
#X connect 3 0 4 1;
#X connect 3 0 11 1;
#X connect 4 0 5 0;
#X connect 5 0 4 1;
#X connect 5 0 7 1;
#X connect 6 0 9 0;
#X connect 6 1 4 0;
#X connect 7 0 10 0;
#X connect 9 0 13 0;
#X connect 10 0 8 0;
#X connect 11 0 12 0;
#X connect 11 0 7 0;
#X connect 12 0 11 1;
#X connect 13 0 11 0;
#X connect 13 1 12 1;
#X restore 235 350 pd avg-amp;
#X obj 378 135 bng 15 250 50 0 empty empty empty 0 -6 0 8 -262144 -1
-1;
#X obj 378 155 s \$1-attack;
#X msg 379 38 print;
#X obj 519 136 list prepend \$1;
#X obj 519 158 s all-attack;
#X text 14 347 pitch in;
#X obj 503 356 unpack;
#X obj 503 382 s \$1-tune;
#X obj 287 138 loadbang;
#X obj 477 49 r all-bonks;
#X obj 378 112 bonk~ -npts 512 -hop 256 -minbandwidth 3;
#X obj 287 204 * 30;
#X obj 40 221 sigmund~ -npts \$3 -npeak 12;
#X obj 25 270 s \$1-raw-pit;
#X obj 60 110 r sigmund-\$1;
#X obj 75 145 r all-sigmunds;
#X obj 630 428 switch~;
#X obj 630 404 tgl 15 0 empty empty empty 17 7 0 10 -262144 -1 -1 1
1;
#X obj 618 220 bang~;
#X obj 619 249 spigot;
#X msg 685 255 0;
#X msg 681 217 1;
#X obj 678 190 loadbang;
#X obj 623 284 f \$1;
#X obj 623 314 * 1.5;
#X obj 622 341 del;
#X msg 634 372 1;
#X msg 588 371 0;
#X obj 574 315 del 0;
#X msg 394 88 minvel 12 \, thresh 85 85 \, attack-bins 1 \, mask 1
0;
#X connect 0 0 48 0;
#X connect 0 0 50 0;
#X connect 1 0 17 0;
#X connect 6 0 1 0;
#X connect 7 1 6 0;
#X connect 8 0 7 1;
#X connect 9 0 8 0;
#X connect 9 0 10 0;
#X connect 9 0 26 0;
#X connect 10 0 6 1;
#X connect 13 0 15 1;
#X connect 14 0 15 2;
#X connect 15 0 17 1;
#X connect 15 0 18 0;
#X connect 16 0 19 0;
#X connect 17 0 4 0;
#X connect 19 0 15 3;
#X connect 20 0 24 0;
#X connect 20 0 25 0;
#X connect 20 0 44 0;
#X connect 21 0 22 0;
#X connect 22 0 20 1;
#X connect 23 0 20 1;
#X connect 24 0 23 0;
#X connect 26 0 49 0;
#X connect 27 0 50 0;
#X connect 28 0 21 0;
#X connect 29 0 20 0;
#X connect 30 0 7 0;
#X connect 31 0 30 1;
#X connect 35 0 37 0;
#X connect 36 0 35 1;
#X connect 38 0 39 0;
#X connect 40 0 48 0;
#X connect 41 0 42 0;
#X connect 44 0 45 0;
#X connect 46 0 9 0;
#X connect 46 0 67 0;
#X connect 47 0 48 0;
#X connect 48 0 38 0;
#X connect 48 1 41 0;
#X connect 49 0 27 0;
#X connect 50 0 29 0;
#X connect 50 0 30 0;
#X connect 50 0 51 0;
#X connect 50 1 5 0;
#X connect 50 1 15 0;
#X connect 50 1 29 1;
#X connect 50 1 31 0;
#X connect 50 1 35 0;
#X connect 52 0 50 0;
#X connect 53 0 50 0;
#X connect 55 0 54 0;
#X connect 56 0 57 0;
#X connect 57 0 58 0;
#X connect 57 0 61 0;
#X connect 57 0 66 0;
#X connect 58 0 57 1;
#X connect 59 0 57 1;
#X connect 59 0 64 0;
#X connect 60 0 59 0;
#X connect 61 0 62 0;
#X connect 62 0 63 0;
#X connect 63 0 64 0;
#X connect 64 0 55 0;
#X connect 65 0 55 0;
#X connect 66 0 65 0;
#X connect 67 0 48 0;
#X restore 131 32 pd analysis;
#X obj 26 144 +~;
#N canvas 419 314 453 339 input 0;
#X obj 41 275 outlet~;
#X obj 56 252 throw~ in-sum~;
#X obj 145 125 dbtorms;
#X msg 23 72 set adc-ch\$1;
#X obj 145 76 f \$5;
#X obj 23 48 r chnl-string\$1;
#X obj 157 51 r trim-string\$1;
#X obj 41 128 *~ 1;
#X obj 41 98 r~ adc-ch\$2;
#X obj 226 253 env~ 8192;
#X floatatom 227 292 5 0 0 0 - - -;
#X obj 145 102 + 100;
#X obj 145 28 loadbang;
#X obj 42 151 de-dc~ \$4;
#X floatatom 219 121 5 0 0 0 - - -;
#X obj 59 198 catch~ add-in-\$1;
#X obj 41 225 +~;
#X obj 51 174 s~ string-\$1-trimmed;
#X connect 2 0 7 1;
#X connect 3 0 8 0;
#X connect 4 0 11 0;
#X connect 5 0 3 0;
#X connect 6 0 4 0;
#X connect 7 0 13 0;
#X connect 8 0 7 0;
#X connect 9 0 10 0;
#X connect 11 0 2 0;
#X connect 11 0 14 0;
#X connect 12 0 4 0;
#X connect 13 0 16 0;
#X connect 13 0 17 0;
#X connect 15 0 16 1;
#X connect 16 0 0 0;
#X connect 16 0 1 0;
#X restore 121 11 pd input;
#N canvas 169 105 963 639 pvoc 0;
#X floatatom 445 76 7 0 0 0 - - -;
#N canvas 122 84 1013 688 fft-analysis 0;
#X obj 178 432 *~;
#X obj 147 432 *~;
#X obj 147 454 -~;
#X obj 243 433 *~;
#X obj 212 433 *~;
#X obj 212 455 +~;
#X obj 256 140 *~;
#X obj 225 140 *~;
#X obj 197 140 *~;
#X obj 166 140 *~;
#X obj 166 283 +~;
#X obj 137 314 *~;
#X obj 49 597 *~;
#X obj 366 333 rfft~;
#X obj 291 101 rfft~;
#X obj 490 598 *~;
#X obj 671 290 r window-size;
#X obj 738 206 r sample-rate;
#X obj 603 52 r sample-rate;
#X obj 578 29 r window-size;
#X obj 601 98 t b f;
#X obj 578 121 /;
#X obj 520 598 *~;
#X obj 50 577 *~;
#X obj 66 554 rifft~;
#X obj 50 623 outlet~;
#X obj 625 446 print~;
#X msg 624 418 bang;
#X text 115 554 inverse real FFT;
#X obj 597 180 bang~;
#X obj 516 424 line~;
#X obj 578 143 * 1000;
#X text 630 136 window size (msec);
#X obj 603 76 * 4;
#X obj 609 341 +;
#X obj 598 282 t f f;
#X msg 516 396 \$1 \, \$2 \$3;
#X obj 516 369 pack 0 0 0;
#X obj 737 232 / 1000;
#X obj 598 255 *;
#X text 643 269 reading location (samples);
#X text 660 387 hop size (samples);
#X obj 564 464 sig~;
#X obj 534 463 +~;
#X text 638 82 (overlap times parent SR);
#X text 638 69 local sample rate;
#X obj 107 314 *~;
#X obj 107 336 +~;
#X obj 107 360 rsqrt~;
#X obj 148 390 *~;
#X obj 208 390 *~;
#X obj 31 518 sig~;
#X obj 14 448 t b f;
#X msg 14 469 1;
#X obj 28 492 /;
#X floatatom 670 360 0 0 0 0 - - -;
#X obj 670 339 *;
#X obj 846 226 * 0.01;
#X obj 848 247 + 69;
#X obj 849 268 mtof;
#X obj 849 290 / 440;
#X obj 689 316 t b f;
#X obj 14 427 r window-size;
#X floatatom 846 318 0 0 0 0 - - -;
#X obj 551 543 tabreceive~ hanning;
#X obj 83 20 tabreceive~ \$1-phase-real;
#X obj 268 21 tabreceive~ \$1-phase-imag;
#X obj 193 518 tabsend~ \$1-phase-real;
#X obj 262 493 tabsend~ \$1-phase-imag;
#X obj 598 229 r \$1-location;
#X obj 534 489 tabread4~ sample-snd1;
#X obj 516 515 tabread4~ sample-snd1;
#X obj 725 493 makefilename sample-snd%d;
#X msg 725 517 set \$1;
#X obj 812 56 block~ 2048 8;
#X obj 630 387 / 8;
#X obj 754 11 table \$1-phase-real 2048;
#X obj 753 32 table \$1-phase-imag 2048;
#X obj 117 578 tabreceive~ pvoc-resynth-wind;
#X obj 165 168 +~;
#X obj 224 168 -~;
#X obj 179 198 lrshift~ 1;
#X obj 174 222 lrshift~ -1;
#X obj 291 198 lrshift~ 1;
#X obj 283 222 lrshift~ -1;
#X obj 185 253 *~;
#X obj 309 265 *~;
#X obj 225 283 +~;
#X obj 296 48 *~;
#X obj 264 48 *~;
#X obj 264 70 +~;
#X obj 334 73 q8_rsqrt~;
#X obj 110 104 *~;
#X obj 201 105 *~;
#X obj 391 211 r z-lock;
#X obj 682 414 r \$1-onset;
#X obj 597 204 s \$1-calc-location;
#X obj 682 440 *;
#X obj 392 236 / 100;
#X obj 443 51 r overlap;
#X msg 445 132 set 2048 \$1;
#X floatatom 440 176 5 0 0 0 - - -;
#X floatatom 503 314 5 0 0 0 - - -;
#X floatatom 475 342 5 0 0 0 - - -;
#X obj 494 101 t b f;
#X obj 492 76 / 2;
#X obj 191 496 +~ 1e-15;
#X obj 725 466 fparam \$1 pvocsamp;
#X obj 847 204 r \$1-transpo;
#X connect 0 0 2 1;
#X connect 1 0 2 0;
#X connect 2 0 24 0;
#X connect 2 0 106 0;
#X connect 3 0 5 1;
#X connect 4 0 5 0;
#X connect 5 0 24 1;
#X connect 5 0 68 0;
#X connect 6 0 80 1;
#X connect 7 0 80 0;
#X connect 8 0 79 1;
#X connect 9 0 79 0;
#X connect 10 0 49 1;
#X connect 10 0 46 0;
#X connect 10 0 46 1;
#X connect 11 0 47 1;
#X connect 12 0 25 0;
#X connect 13 0 1 1;
#X connect 13 0 3 1;
#X connect 13 1 0 1;
#X connect 13 1 4 1;
#X connect 14 0 9 1;
#X connect 14 0 7 1;
#X connect 14 1 6 1;
#X connect 14 1 8 1;
#X connect 15 0 14 0;
#X connect 16 0 56 0;
#X connect 17 0 38 0;
#X connect 18 0 33 0;
#X connect 19 0 21 0;
#X connect 20 0 21 0;
#X connect 20 1 21 1;
#X connect 21 0 31 0;
#X connect 22 0 13 0;
#X connect 23 0 12 0;
#X connect 24 0 23 1;
#X connect 27 0 26 0;
#X connect 29 0 96 0;
#X connect 30 0 26 0;
#X connect 30 0 43 0;
#X connect 30 0 71 0;
#X connect 31 0 37 2;
#X connect 33 0 20 0;
#X connect 34 0 37 1;
#X connect 35 0 37 0;
#X connect 35 1 34 0;
#X connect 36 0 30 0;
#X connect 37 0 36 0;
#X connect 38 0 39 1;
#X connect 38 0 97 1;
#X connect 39 0 35 0;
#X connect 42 0 43 1;
#X connect 43 0 70 0;
#X connect 46 0 47 0;
#X connect 47 0 48 0;
#X connect 48 0 49 0;
#X connect 48 0 50 0;
#X connect 49 0 1 0;
#X connect 49 0 4 0;
#X connect 50 0 0 0;
#X connect 50 0 3 0;
#X connect 51 0 23 0;
#X connect 52 0 53 0;
#X connect 52 1 54 1;
#X connect 53 0 54 0;
#X connect 54 0 51 0;
#X connect 55 0 34 1;
#X connect 55 0 75 0;
#X connect 56 0 55 0;
#X connect 57 0 58 0;
#X connect 58 0 59 0;
#X connect 59 0 60 0;
#X connect 60 0 61 0;
#X connect 60 0 63 0;
#X connect 61 0 56 0;
#X connect 61 1 56 1;
#X connect 62 0 52 0;
#X connect 64 0 22 1;
#X connect 64 0 15 1;
#X connect 65 0 89 0;
#X connect 65 0 89 1;
#X connect 65 0 92 0;
#X connect 66 0 88 0;
#X connect 66 0 88 1;
#X connect 66 0 93 0;
#X connect 69 0 39 0;
#X connect 70 0 22 0;
#X connect 71 0 15 0;
#X connect 72 0 73 0;
#X connect 73 0 70 0;
#X connect 73 0 71 0;
#X connect 75 0 42 0;
#X connect 75 0 102 0;
#X connect 78 0 12 1;
#X connect 79 0 10 0;
#X connect 79 0 81 0;
#X connect 79 0 82 0;
#X connect 80 0 87 0;
#X connect 80 0 84 0;
#X connect 80 0 83 0;
#X connect 81 0 85 0;
#X connect 82 0 85 0;
#X connect 83 0 86 0;
#X connect 84 0 86 0;
#X connect 85 0 10 1;
#X connect 86 0 87 1;
#X connect 87 0 50 1;
#X connect 87 0 11 0;
#X connect 87 0 11 1;
#X connect 88 0 90 1;
#X connect 89 0 90 0;
#X connect 90 0 91 0;
#X connect 91 0 92 1;
#X connect 91 0 93 1;
#X connect 92 0 9 0;
#X connect 92 0 6 0;
#X connect 93 0 8 0;
#X connect 93 0 7 0;
#X connect 94 0 98 0;
#X connect 95 0 97 0;
#X connect 97 0 70 1;
#X connect 97 0 71 1;
#X connect 98 0 86 1;
#X connect 98 0 85 1;
#X connect 99 0 100 0;
#X connect 99 0 75 1;
#X connect 99 0 101 0;
#X connect 99 0 105 0;
#X connect 100 0 74 0;
#X connect 104 0 33 0;
#X connect 104 1 33 1;
#X connect 105 0 104 0;
#X connect 106 0 67 0;
#X connect 107 0 72 0;
#X connect 108 0 57 0;
#X restore 122 19 pd fft-analysis;
#X obj 123 96 hip~ 5;
#X msg 359 55 0;
#X msg 445 56 set \$1;
#X obj 618 62 t b f;
#X msg 341 35 set \$1;
#X floatatom 631 195 8 0 0 0 - - -;
#X obj 70 243 + 0.5;
#X obj 70 264 int;
#X obj 242 41 dbtorms;
#X obj 242 61 pack 0 12;
#X obj 241 83 line~;
#X obj 122 44 *~;
#X obj 293 405 spigot;
#X obj 586 289 spigot;
#X obj 386 269 spigot;
#X msg 586 356 0;
#X floatatom 341 74 8 0 0 0 - - -;
#X floatatom 448 401 8 0 0 0 - - -;
#X obj 448 357 -;
#X obj 341 14 r \$1-location;
#X obj 341 92 s \$1-location;
#X obj 445 38 r \$1-transpo;
#X obj 445 92 s \$1-transpo;
#X obj 343 179 tgl 15 0 empty empty empty 0 -6 0 8 -262144 -1 -1 0
1;
#X obj 586 397 s \$1-pvoc-lvl;
#X obj 454 334 t b f;
#X obj 356 572 s \$1-gofrom;
#X obj 618 17 r \$1-gofrom;
#X msg 628 40 1000;
#X obj 618 216 s \$1-location;
#X obj 448 420 s \$1-transpo;
#X obj 242 20 r \$1-pvoc-lvl;
#X obj 27 65 switch~;
#X obj 122 121 outlet~;
#X obj 586 266 r \$1-fastdb;
#X obj 23 153 r \$1-attack;
#X obj 386 249 r \$1-hz;
#X obj 386 290 ftom;
#X obj 70 203 f;
#X msg 419 500 set \$1;
#X obj 419 476 makefilename sample-att%d;
#X obj 70 312 + 12;
#X obj 68 342 moses;
#X obj 135 341 + 25;
#X obj 102 367 - 12;
#X obj 356 527 t b;
#X obj 356 551 f;
#X obj 68 367 - 40;
#X obj 293 447 t f f;
#X msg 187 530 set \$1;
#X obj 129 552 t b;
#X obj 129 576 f;
#X obj 178 508 makefilename sample-pit%d;
#X obj 129 597 s \$1-origpit;
#X obj 457 255 r \$1-origpit;
#X floatatom 171 574 5 0 0 0 - - -;
#X floatatom 34 284 5 0 0 0 - - -;
#X floatatom 29 365 5 0 0 0 - - -;
#X obj 70 287 moses \$4;
#X obj 135 319 f \$4;
#X obj 135 298 bng 15 250 50 0 empty empty empty 0 -6 0 8 -262144 -1
-1;
#X floatatom 409 550 6 0 0 0 - - -;
#X obj 618 131 timer;
#X obj 663 116 t b;
#X obj 171 550 tabread sample-pit1;
#X obj 409 526 tabread sample-att1;
#X obj 677 264 r \$1-pvocsamp;
#X obj 677 286 tabread sample-correct;
#X floatatom 721 312 5 0 0 0 - - -;
#X obj 677 310 - 100;
#X obj 586 313 +;
#X obj 586 333 moses 30;
#X obj 622 359 + 30;
#X obj 28 43 == 1;
#X obj 22 422 s guitar-index;
#X obj 618 169 expr $f2*min(1 \, .05*$f1*$f3/max(1 \, $f2));
#X obj 22 396 f;
#X obj 23 174 b;
#X floatatom 293 427 5 0 0 0 - - -;
#X floatatom 457 296 7 0 0 0 - - -;
#X floatatom 586 380 5 0 100 0 - - -;
#X obj 53 401 s \$1-guitarindex;
#X obj 293 383 r \$1-guitarindex;
#X obj 99 203 r \$1-hz;
#X obj 70 222 ftom;
#X obj 386 311 * 100;
#X obj 457 277 * 100;
#X floatatom 386 331 7 0 0 0 - - -;
#X obj 129 486 moses 0;
#X obj 356 504 moses 0;
#X obj 675 477 bng 15 250 50 0 empty empty empty 17 7 0 10 -262144
-1 -1;
#X obj 676 498 s reload-pvoc;
#X obj 70 181 del 30;
#X obj 664 63 s \$1-onset;
#X obj 663 94 r \$1-calc-location;
#X obj 135 277 loadbang;
#X obj 3 18 fparam \$1 pvocon;
#X obj 419 455 fparam \$1 pvocsamp;
#X obj 682 141 fparam \$1 pvocdist;
#X obj 814 142 fparam \$1 pvocspeed;
#X obj 122 69 *~ 0;
#X obj 203 106 amp-qdumb \$1 thru;
#X floatatom 188 177 5 0 0 0 - - -;
#X connect 0 0 24 0;
#X connect 1 0 13 0;
#X connect 2 0 35 0;
#X connect 3 0 18 0;
#X connect 4 0 0 0;
#X connect 5 0 64 0;
#X connect 5 1 95 0;
#X connect 6 0 18 0;
#X connect 8 0 9 0;
#X connect 9 0 58 0;
#X connect 9 0 60 0;
#X connect 10 0 11 0;
#X connect 11 0 12 0;
#X connect 12 0 13 1;
#X connect 13 0 102 0;
#X connect 14 0 80 0;
#X connect 15 0 72 0;
#X connect 16 0 39 0;
#X connect 17 0 82 0;
#X connect 18 0 22 0;
#X connect 19 0 32 0;
#X connect 20 0 19 0;
#X connect 21 0 6 0;
#X connect 23 0 4 0;
#X connect 25 0 16 1;
#X connect 25 0 14 1;
#X connect 25 0 15 1;
#X connect 27 0 20 0;
#X connect 27 1 20 1;
#X connect 29 0 5 0;
#X connect 30 0 5 0;
#X connect 33 0 10 0;
#X connect 36 0 15 0;
#X connect 37 0 79 0;
#X connect 38 0 16 0;
#X connect 39 0 87 0;
#X connect 40 0 86 0;
#X connect 41 0 67 0;
#X connect 42 0 41 0;
#X connect 43 0 44 0;
#X connect 44 0 49 0;
#X connect 44 0 59 0;
#X connect 44 1 46 0;
#X connect 45 0 44 1;
#X connect 46 0 49 0;
#X connect 47 0 48 0;
#X connect 48 0 28 0;
#X connect 49 0 78 1;
#X connect 50 0 90 0;
#X connect 50 1 91 0;
#X connect 51 0 66 0;
#X connect 52 0 53 0;
#X connect 53 0 55 0;
#X connect 54 0 51 0;
#X connect 56 0 88 0;
#X connect 60 0 43 0;
#X connect 60 1 44 0;
#X connect 61 0 45 0;
#X connect 62 0 61 0;
#X connect 64 0 77 0;
#X connect 65 0 64 1;
#X connect 66 0 53 0;
#X connect 66 0 57 0;
#X connect 67 0 48 0;
#X connect 67 0 63 0;
#X connect 68 0 69 0;
#X connect 69 0 71 0;
#X connect 69 0 70 0;
#X connect 71 0 72 1;
#X connect 72 0 73 0;
#X connect 73 0 17 0;
#X connect 73 1 74 0;
#X connect 74 0 82 0;
#X connect 75 0 34 0;
#X connect 75 0 25 0;
#X connect 77 0 7 0;
#X connect 77 0 31 0;
#X connect 78 0 76 0;
#X connect 78 0 83 0;
#X connect 79 0 78 0;
#X connect 79 0 94 0;
#X connect 80 0 50 0;
#X connect 81 0 27 0;
#X connect 82 0 26 0;
#X connect 84 0 14 0;
#X connect 85 0 40 1;
#X connect 86 0 8 0;
#X connect 87 0 89 0;
#X connect 88 0 81 0;
#X connect 89 0 20 0;
#X connect 90 0 52 0;
#X connect 90 1 66 0;
#X connect 91 0 47 0;
#X connect 91 1 67 0;
#X connect 92 0 93 0;
#X connect 94 0 40 0;
#X connect 96 0 65 0;
#X connect 97 0 62 0;
#X connect 98 0 75 0;
#X connect 98 0 104 0;
#X connect 99 0 42 0;
#X connect 99 0 54 0;
#X connect 100 0 77 1;
#X connect 101 0 77 2;
#X connect 102 0 2 0;
#X connect 103 0 102 1;
#X restore 141 123 pd pvoc;
#N canvas 192 27 681 551 processing 1;
#X obj 22 12 inlet~;
#X obj 73 397 switch~;
#X obj 73 349 == 0;
#X obj 73 375 tgl 15 0 empty empty empty 0 -6 0 8 -262144 -1 -1 1 1
;
#X obj 137 284 outlet~;
#N canvas 145 64 565 536 octaves 0;
#X obj 85 478 outlet~;
#X obj 120 303 osc~;
#X obj 109 366 *~;
#X obj 188 304 osc~;
#X obj 212 419 *~;
#X obj 120 257 r \$1-hz;
#X obj 120 280 * 0.5;
#X obj 188 257 r \$1-hz;
#X obj 188 280 * 0.25;
#X obj 85 434 +~;
#N canvas 0 22 450 300 delw 0;
#X obj 109 33 inlet~;
#X obj 110 153 outlet~;
#X obj 126 60 delwrite~ \$0-octave-del 100;
#X connect 0 0 1 0;
#X connect 0 0 2 0;
#X restore 84 75 pd delw;
#X obj 85 45 inlet~;
#N canvas 419 172 448 298 delr 0;
#X obj 109 33 inlet~;
#X obj 112 244 outlet~;
#X obj 138 183 *~;
#X obj 193 28 r \$1-hz;
#X obj 193 98 pack 0 10;
#X obj 193 52 expr 500/$f1;
#X obj 193 75 +;
#X obj 138 157 vd~ \$0-octave-del;
#X obj 263 181 expr max($f1/100 \, 0);
#X obj 138 207 *~;
#X obj 233 229 sel 0 1;
#X obj 228 259 1;
#X obj 261 257 -1;
#X obj 138 131 line~;
#X floatatom 51 173 5 0 0 0 - - -;
#X obj 263 156 fparam \$1 octave;
#X obj 235 207 fparam \$1 oddh;
#X connect 0 0 1 0;
#X connect 2 0 9 0;
#X connect 3 0 5 0;
#X connect 4 0 13 0;
#X connect 5 0 6 0;
#X connect 6 0 4 0;
#X connect 7 0 2 0;
#X connect 8 0 2 1;
#X connect 8 0 14 0;
#X connect 9 0 1 0;
#X connect 10 0 11 0;
#X connect 10 1 12 0;
#X connect 11 0 9 1;
#X connect 12 0 9 1;
#X connect 13 0 7 0;
#X connect 15 0 8 0;
#X connect 16 0 10 0;
#X restore 86 100 pd delr;
#X obj 85 390 +~;
#X obj 231 334 *~ 0;
#X obj 149 336 *~ 0;
#X obj 240 82 expr max(0 \, min(1.414 \, 0.01414*(-100-$f1)));
#X obj 172 132 expr max(0 \, min(1.414 \, 0.01414*(-$f1)));
#X obj 289 189 expr 1 - max(0 \, min(1 \, -0.0025*$f1));
#X obj 86 455 *~ 0;
#X floatatom 317 38 5 0 0 0 - - -;
#X obj 172 46 fparam \$1 octave;
#X connect 1 0 15 0;
#X connect 2 0 13 1;
#X connect 3 0 14 0;
#X connect 4 0 9 1;
#X connect 5 0 6 0;
#X connect 6 0 1 0;
#X connect 7 0 8 0;
#X connect 8 0 3 0;
#X connect 9 0 19 0;
#X connect 10 0 12 0;
#X connect 11 0 10 0;
#X connect 12 0 2 0;
#X connect 12 0 13 0;
#X connect 13 0 4 0;
#X connect 13 0 9 0;
#X connect 14 0 4 1;
#X connect 15 0 2 1;
#X connect 16 0 14 1;
#X connect 17 0 15 1;
#X connect 18 0 19 1;
#X connect 19 0 0 0;
#X connect 21 0 16 0;
#X connect 21 0 17 0;
#X connect 21 0 18 0;
#X connect 21 0 20 0;
#X restore 138 96 pd octaves;
#N canvas 40 215 774 754 modulation 1;
#X obj 38 573 outlet~;
#X obj 169 141 inlet~;
#X obj 168 201 hilbert~;
#X obj 34 154 phasor~;
#X obj 34 202 cos~;
#X obj 34 131 +;
#X obj 94 103 t b f;
#X obj 44 84 t b f;
#X obj 44 62 * 0.01;
#X obj 67 179 -~ 0.25;
#X obj 67 203 cos~;
#X obj 33 232 *~;
#X obj 62 232 *~;
#X obj 33 255 -~;
#X obj 33 18 r \$1-hz;
#X obj 33 105 *;
#X obj 38 520 *~;
#X obj 99 235 *~;
#X obj 128 235 *~;
#X obj 99 258 +~;
#N canvas 0 22 450 300 (subpatch) 0;
#X array \$0-array 500 float 0;
#X coords 0 1 499 -1 400 140 1;
#X restore 321 41 graph;
#X obj 542 419 tabwrite~ \$0-array;
#X obj 555 367 bng 15 250 50 0 empty empty empty 0 -6 0 8 -262144 -1
-1;
#N canvas 1 31 527 510 harmonics 0;
#X obj 97 42 inlet~;
#X obj 109 94 *~;
#X obj 152 111 *~;
#X obj 109 117 *~ 2;
#X obj 109 139 -~ 1;
#X obj 153 133 *~ 4;
#X obj 196 115 *~ 3;
#X obj 153 157 -~;
#X obj 169 192 *~;
#X obj 169 215 *~ 2;
#X obj 169 237 -~ 1;
#X obj 73 395 outlet~;
#X obj 73 285 *~ 0;
#X obj 103 304 *~ 0;
#X obj 137 309 *~ 0;
#X obj 168 328 *~ 0;
#X obj 73 369 +~;
#X obj 106 370 amp-qdumb \$1 h0 0.5;
#X obj 202 260 amp-qdumb \$1 h1;
#X obj 203 282 amp-qdumb \$1 h2;
#X obj 203 305 amp-qdumb \$1 h3;
#X obj 204 329 amp-qdumb \$1 h4;
#X connect 0 0 1 0;
#X connect 0 0 1 1;
#X connect 0 0 2 1;
#X connect 0 0 6 0;
#X connect 0 0 12 0;
#X connect 1 0 3 0;
#X connect 1 0 2 0;
#X connect 2 0 5 0;
#X connect 3 0 4 0;
#X connect 4 0 8 0;
#X connect 4 0 8 1;
#X connect 4 0 13 0;
#X connect 5 0 7 0;
#X connect 6 0 7 1;
#X connect 7 0 14 0;
#X connect 8 0 9 0;
#X connect 9 0 10 0;
#X connect 10 0 15 0;
#X connect 12 0 16 0;
#X connect 13 0 16 0;
#X connect 14 0 16 0;
#X connect 15 0 16 0;
#X connect 16 0 11 0;
#X connect 17 0 16 1;
#X connect 18 0 12 1;
#X connect 19 0 13 1;
#X connect 20 0 14 1;
#X connect 21 0 15 1;
#X restore 395 433 pd harmonics;
#N canvas 487 127 560 454 triangle 0;
#X obj 110 168 *~ 1e+20;
#X obj 110 191 clip~ -1 1;
#X obj 45 188 -~ 0.5;
#X obj 107 124 wrap~;
#X obj 45 211 *~;
#X obj 45 239 *~;
#X obj 84 265 *~;
#X obj 94 287 *~;
#X obj 46 265 min~;
#X obj 122 258 * -1;
#X obj 122 237 + 1;
#X obj 86 102 -~ 0.5;
#X obj 85 78 inlet~;
#X obj 86 403 outlet~;
#X obj 344 191 *~ 1e+20;
#X obj 344 214 clip~ -1 1;
#X obj 279 211 -~ 0.5;
#X obj 341 147 wrap~;
#X obj 279 262 *~;
#X obj 318 288 *~;
#X obj 328 310 *~;
#X obj 280 288 min~;
#X obj 356 281 * -1;
#X obj 356 260 + 1;
#X obj 320 125 -~ 0.5;
#X obj 376 56 / 100;
#X obj 328 330 *~ 0;
#X obj 321 101 wrap~;
#X obj 319 76 +~ 0;
#X obj 387 340 * 0.01;
#X obj 279 234 *~ 0;
#X obj 86 378 *~;
#X floatatom 459 134 5 0 0 0 - - -;
#X floatatom 388 391 5 0 0 0 - - -;
#X floatatom 325 416 5 0 0 0 - - -;
#X floatatom 193 307 5 0 0 0 - - -;
#X obj 127 378 amp-qdumb \$1 tri 2;
#X obj 377 31 fparam \$1 duty;
#X obj 356 239 fparam \$1 partials;
#X obj 387 318 fparam \$1 symmetry;
#X obj 122 216 fparam \$1 partials;
#X connect 0 0 1 0;
#X connect 1 0 6 1;
#X connect 1 0 5 1;
#X connect 1 0 7 1;
#X connect 2 0 4 0;
#X connect 3 0 2 0;
#X connect 4 0 5 0;
#X connect 5 0 8 0;
#X connect 6 0 8 1;
#X connect 7 0 31 0;
#X connect 8 0 7 0;
#X connect 9 0 4 1;
#X connect 10 0 9 0;
#X connect 10 0 35 0;
#X connect 11 0 0 0;
#X connect 11 0 3 0;
#X connect 11 0 6 0;
#X connect 12 0 11 0;
#X connect 12 0 28 0;
#X connect 14 0 15 0;
#X connect 15 0 19 1;
#X connect 15 0 18 1;
#X connect 15 0 20 1;
#X connect 16 0 30 0;
#X connect 17 0 16 0;
#X connect 18 0 21 0;
#X connect 19 0 21 1;
#X connect 20 0 26 0;
#X connect 21 0 20 0;
#X connect 22 0 30 1;
#X connect 23 0 22 0;
#X connect 24 0 14 0;
#X connect 24 0 17 0;
#X connect 24 0 19 0;
#X connect 25 0 28 1;
#X connect 25 0 32 0;
#X connect 26 0 31 0;
#X connect 27 0 24 0;
#X connect 28 0 27 0;
#X connect 29 0 26 1;
#X connect 29 0 33 0;
#X connect 30 0 18 0;
#X connect 31 0 13 0;
#X connect 36 0 31 1;
#X connect 36 0 34 0;
#X connect 37 0 25 0;
#X connect 38 0 23 0;
#X connect 39 0 29 0;
#X connect 40 0 10 0;
#X restore 141 433 pd triangle;
#N canvas 0 22 449 338 intermod 0;
#X obj 211 143 r~ \$7-imod~;
#X obj 181 185 +~;
#X obj 181 134 *~;
#X obj 212 187 *~;
#X obj 69 133 inlet~;
#X obj 67 226 outlet~;
#X obj 181 89 r~ \$6-imod~;
#X obj 200 111 amp-q~ \$1 inter1;
#X obj 228 164 amp-q~ \$1 inter2;
#X connect 0 0 3 0;
#X connect 1 0 5 0;
#X connect 2 0 1 0;
#X connect 3 0 1 1;
#X connect 4 0 5 0;
#X connect 6 0 2 0;
#X connect 7 0 2 1;
#X connect 8 0 3 1;
#X restore 169 175 pd intermod;
#X obj 57 495 *~;
#X obj 38 549 de-dc~ \$4;
#X obj 521 507 env~ 8192;
#X floatatom 522 531 5 0 0 0 - - -;
#X obj 32 382 unitpolar~ --------------;
#X obj 234 296 * 0.01;
#X obj 106 302 -~;
#X obj 162 300 -~;
#X obj 106 326 *~ 0;
#X obj 162 324 *~ 0;
#X obj 121 353 +~;
#X obj 171 354 +~;
#N canvas 197 507 498 441 pmod 1;
#X obj 285 156 *~ 0.5;
#X obj 285 181 -~ 0.25;
#X obj 285 205 cos~;
#X obj 160 225 *~;
#X obj 160 250 +~ 201;
#X obj 285 133 wrap~;
#X obj 285 108 *~ 1;
#X obj 108 180 +~ 0;
#X obj 108 157 *~ 0;
#X obj 150 183 * 4;
#X obj 285 79 inlet~;
#X obj 87 53 inlet~;
#X obj 161 299 outlet~;
#X obj 161 275 tabread4~ paf-tab;
#X obj 150 159 fparam \$1 pmod;
#X obj 132 106 fparam \$1 penv;
#X obj 324 109 fparam \$1 pharm;
#X obj 86 84 butterworth-lp3-dumb~ 1000;
#X obj 177 12 loadbang;
#X obj 177 36 f \$4;
#X obj 177 60 mtof;
#X floatatom 244 50 5 0 0 0 - - -;
#X obj 134 131 * 100;
#X connect 0 0 1 0;
#X connect 1 0 2 0;
#X connect 2 0 3 1;
#X connect 3 0 4 0;
#X connect 4 0 13 0;
#X connect 5 0 0 0;
#X connect 6 0 5 0;
#X connect 7 0 3 0;
#X connect 8 0 7 0;
#X connect 9 0 7 1;
#X connect 10 0 6 0;
#X connect 11 0 17 0;
#X connect 13 0 12 0;
#X connect 14 0 9 0;
#X connect 15 0 22 0;
#X connect 16 0 6 1;
#X connect 17 0 8 0;
#X connect 18 0 19 0;
#X connect 19 0 20 0;
#X connect 20 0 17 1;
#X connect 20 0 21 0;
#X connect 22 0 8 1;
#X restore 97 494 pd pmod;
#N canvas 407 23 815 588 formant 0;
#X obj 113 143 inlet~;
#X obj 13 522 outlet~;
#X obj 343 75 r \$1-attack;
#X obj 13 279 cos~;
#X obj 14 300 +~ 1;
#X obj 15 323 *~;
#X obj 15 347 +~;
#X obj 122 321 *~;
#X obj 57 279 *~;
#X obj 165 280 *~;
#X obj 57 299 cos~;
#X obj 166 300 cos~;
#X obj 12 214 *~;
#X obj 120 218 *~;
#X obj 122 279 cos~;
#X obj 122 299 +~ 1;
#X obj 230 148 / 10;
#X obj 12 460 clip~;
#X obj 83 390 pack;
#X obj 83 370 f;
#X obj 83 409 route 0;
#X obj 54 410 b;
#X obj 208 370 t b f;
#X obj 678 95 t b f;
#X obj 26 432 -1000;
#X obj 67 431 1000;
#X obj 127 437 expr -2+$f1*0.02*(1+$f2*0.01);
#X obj 142 415 expr 2-$f1*0.02*(1-$f2*0.01);
#X obj 343 226 abd~ 0 0 0 0 0 0 0;
#X obj 166 121 sig~ 1;
#X obj 166 144 -~;
#X obj 230 170 +~ 0.5;
#X obj 359 119 expr exp(.057762*(max( 0 \, 0.24*$f2+40- \$4 )+$f1))
;
#X obj 372 145 expr exp(.057762*(max( 0 \, 0.24*$f2+40- \$4 )+$f1))
;
#X obj 382 168 expr exp(.057762*(max( 0 \, 0.24*$f2+40- \$4 )+$f1))
;
#X obj 12 236 min~ 0.5;
#X obj 121 242 min~ 0.5;
#X obj 452 78 fparam \$1 cfp;
#X obj 13 495 *~;
#X obj 230 127 fparam \$1 bw;
#X obj 359 96 fparam \$1 cf;
#X obj 678 71 fparam \$1 cfbias;
#X obj 423 188 fparam \$1 cfa;
#X obj 478 225 fparam \$1 cfd;
#X obj 556 81 fparam \$1 cfp2;
#X obj 443 205 fparam \$1 cfa2;
#X obj 47 494 amp-qdumb \$1 fmt;
#X obj 83 349 fparam \$1 fmtclip;
#X obj 208 349 fparam \$1 fmteven;
#X connect 0 0 30 1;
#X connect 0 0 12 0;
#X connect 0 0 8 0;
#X connect 2 0 28 0;
#X connect 3 0 4 0;
#X connect 4 0 5 0;
#X connect 5 0 6 0;
#X connect 6 0 17 0;
#X connect 7 0 6 1;
#X connect 8 0 10 0;
#X connect 9 0 11 0;
#X connect 10 0 5 1;
#X connect 11 0 7 1;
#X connect 12 0 35 0;
#X connect 13 0 36 0;
#X connect 14 0 15 0;
#X connect 15 0 7 0;
#X connect 16 0 31 0;
#X connect 17 0 38 0;
#X connect 18 0 20 0;
#X connect 19 0 18 0;
#X connect 20 0 21 0;
#X connect 20 1 26 0;
#X connect 20 1 27 0;
#X connect 21 0 24 0;
#X connect 21 0 25 0;
#X connect 22 0 19 0;
#X connect 22 1 18 1;
#X connect 23 0 32 0;
#X connect 23 0 33 0;
#X connect 23 0 34 0;
#X connect 23 1 32 1;
#X connect 23 1 33 1;
#X connect 23 1 34 1;
#X connect 24 0 17 1;
#X connect 25 0 17 2;
#X connect 26 0 17 1;
#X connect 27 0 17 2;
#X connect 28 0 9 1;
#X connect 28 0 8 1;
#X connect 29 0 30 0;
#X connect 30 0 13 0;
#X connect 30 0 9 0;
#X connect 31 0 12 1;
#X connect 31 0 13 1;
#X connect 32 0 28 1;
#X connect 33 0 28 2;
#X connect 34 0 28 3;
#X connect 35 0 3 0;
#X connect 36 0 14 0;
#X connect 37 0 33 0;
#X connect 38 0 1 0;
#X connect 39 0 16 0;
#X connect 40 0 32 0;
#X connect 41 0 23 0;
#X connect 42 0 28 4;
#X connect 43 0 28 6;
#X connect 44 0 34 0;
#X connect 45 0 28 5;
#X connect 46 0 38 1;
#X connect 47 0 19 0;
#X connect 48 0 22 0;
#X restore 226 433 pd formant;
#N canvas 281 33 777 676 waveform 0;
#X obj 79 211 inlet~;
#X obj 58 563 outlet~;
#X obj 34 313 cos~;
#X obj 35 334 +~ 1;
#X obj 53 416 *~;
#X obj 53 440 +~;
#X obj 142 446 *~;
#X obj 141 314 cos~;
#X obj 141 334 +~ 1;
#X obj 187 225 sig~ 1;
#X obj 187 250 -~;
#X obj 33 289 *~ 0.5;
#X obj 141 293 *~ 0.5;
#X obj 453 128 samplerate~;
#X obj 454 150 / 512;
#X obj 542 129 f \$4;
#X obj 543 176 mtof;
#X obj 454 194 /;
#X obj 78 354 *~ 1;
#X obj 186 355 *~ 1;
#X obj 70 391 tabreadwrap4~ waveform10 512;
#X obj 161 421 tabreadwrap4~ waveform10 512;
#X obj 336 333 line~;
#X msg 336 308 0 \, \$1 \$2;
#X obj 257 182 t f f;
#X obj 433 72 t b b b;
#X obj 310 167 /;
#X obj 257 210 pack;
#X obj 473 515 print;
#X obj 473 493 spigot;
#X obj 525 493 r zzloud;
#X obj 257 160 f;
#X obj 54 475 *~ 0;
#X obj 543 152 + 5;
#X msg 335 392 set waveform\$1;
#X obj 59 538 rampdown~;
#X obj 90 514 line~;
#X obj 60 514 *~;
#X msg 157 540 0 \, 1 5;
#X obj 254 515 b;
#X obj 328 210 * 20;
#X obj 310 232 *;
#X obj 539 55 r global-bash-window;
#X obj 155 502 loadbang;
#X obj 433 50 r \$1-attack;
#X obj 94 474 amp-qdumb \$1 voz 15;
#X obj 311 136 fparam \$1 vframes;
#X obj 335 368 fparam \$1 vsamp;
#X obj 575 152 fparam \$1 vfret;
#X obj 328 187 fparam \$1 vspeed;
#X obj 280 42 r livesinger;
#X obj 562 246 r frame-recorded;
#X obj 201 121 spigot;
#X obj 258 122 spigot;
#X obj 300 69 == 0;
#X obj 529 247 f;
#X msg 411 308 \$1 \, \$2 15000;
#X obj 528 300 t f f;
#X obj 528 275 -;
#X obj 528 324 pack;
#X obj 567 325 expr $f1+15*$f2;
#X connect 0 0 10 1;
#X connect 0 0 11 0;
#X connect 0 0 18 0;
#X connect 2 0 3 0;
#X connect 3 0 4 0;
#X connect 4 0 5 0;
#X connect 5 0 32 0;
#X connect 6 0 5 1;
#X connect 7 0 8 0;
#X connect 8 0 6 0;
#X connect 9 0 10 0;
#X connect 10 0 12 0;
#X connect 10 0 19 0;
#X connect 11 0 2 0;
#X connect 12 0 7 0;
#X connect 13 0 14 0;
#X connect 14 0 17 0;
#X connect 14 0 26 1;
#X connect 14 0 60 1;
#X connect 15 0 33 0;
#X connect 16 0 17 1;
#X connect 17 0 18 1;
#X connect 17 0 19 1;
#X connect 18 0 20 0;
#X connect 19 0 21 0;
#X connect 20 0 4 1;
#X connect 21 0 6 1;
#X connect 22 0 20 1;
#X connect 22 0 21 1;
#X connect 23 0 22 0;
#X connect 24 0 27 0;
#X connect 24 1 26 0;
#X connect 25 0 53 0;
#X connect 25 0 52 0;
#X connect 25 1 13 0;
#X connect 25 2 15 0;
#X connect 26 0 41 0;
#X connect 27 0 23 0;
#X connect 27 0 39 0;
#X connect 29 0 28 0;
#X connect 30 0 29 1;
#X connect 31 0 24 0;
#X connect 32 0 37 0;
#X connect 33 0 16 0;
#X connect 34 0 21 0;
#X connect 34 0 20 0;
#X connect 35 0 1 0;
#X connect 36 0 37 1;
#X connect 37 0 35 0;
#X connect 38 0 36 0;
#X connect 39 0 35 1;
#X connect 39 0 38 0;
#X connect 40 0 41 1;
#X connect 41 0 27 1;
#X connect 42 0 14 1;
#X connect 43 0 38 0;
#X connect 44 0 25 0;
#X connect 45 0 32 1;
#X connect 46 0 31 1;
#X connect 46 0 58 1;
#X connect 47 0 34 0;
#X connect 48 0 33 1;
#X connect 49 0 40 0;
#X connect 50 0 52 1;
#X connect 50 0 54 0;
#X connect 51 0 55 1;
#X connect 52 0 55 0;
#X connect 53 0 31 0;
#X connect 54 0 53 1;
#X connect 55 0 58 0;
#X connect 56 0 22 0;
#X connect 56 0 28 0;
#X connect 57 0 59 0;
#X connect 57 1 60 0;
#X connect 58 0 57 0;
#X connect 59 0 56 0;
#X connect 60 0 59 1;
#X restore 304 433 pd waveform;
#X obj 94 81 fparam \$1 fshz;
#X obj 44 40 fparam \$1 fspc;
#X obj 234 270 fparam \$1 fsmix;
#X connect 1 0 25 0;
#X connect 2 0 11 1;
#X connect 2 0 18 1;
#X connect 2 0 32 1;
#X connect 2 0 36 1;
#X connect 2 1 12 1;
#X connect 2 1 17 1;
#X connect 2 1 33 1;
#X connect 2 1 37 1;
#X connect 3 0 9 0;
#X connect 3 0 4 0;
#X connect 4 0 11 0;
#X connect 4 0 17 0;
#X connect 5 0 3 0;
#X connect 6 0 5 0;
#X connect 6 1 5 1;
#X connect 7 0 15 0;
#X connect 7 1 15 1;
#X connect 8 0 7 0;
#X connect 9 0 10 0;
#X connect 10 0 12 0;
#X connect 10 0 18 0;
#X connect 11 0 13 0;
#X connect 12 0 13 1;
#X connect 13 0 32 0;
#X connect 14 0 15 0;
#X connect 15 0 5 0;
#X connect 16 0 27 0;
#X connect 17 0 19 0;
#X connect 18 0 19 1;
#X connect 19 0 33 0;
#X connect 22 0 21 0;
#X connect 23 0 26 0;
#X connect 24 0 26 0;
#X connect 25 0 2 0;
#X connect 26 0 16 1;
#X connect 27 0 0 0;
#X connect 28 0 29 0;
#X connect 30 0 38 0;
#X connect 30 0 16 0;
#X connect 30 1 24 0;
#X connect 30 1 38 1;
#X connect 30 1 39 0;
#X connect 30 1 40 0;
#X connect 30 2 23 0;
#X connect 31 0 35 1;
#X connect 31 0 34 1;
#X connect 32 0 34 0;
#X connect 33 0 35 0;
#X connect 34 0 36 0;
#X connect 35 0 37 0;
#X connect 36 0 30 0;
#X connect 37 0 30 1;
#X connect 38 0 26 1;
#X connect 39 0 26 0;
#X connect 40 0 26 0;
#X connect 41 0 6 0;
#X connect 42 0 8 0;
#X connect 43 0 31 0;
#X restore 17 94 pd modulation;
#N canvas 110 68 478 489 filter 0;
#X obj 149 403 outlet~;
#X obj 148 342 inlet~;
#X floatatom 271 209 5 0 0 0 - - -;
#X obj 271 258 mtof;
#X floatatom 307 288 7 0 0 0 - - -;
#X obj 271 234 + \$4;
#X obj 64 415 print~;
#X obj 92 372 bng 15 250 50 0 empty empty empty 0 -6 0 8 -262144 -1
-1;
#X obj 281 345 t f b;
#X obj 206 259 mtof;
#X obj 206 235 f \$4;
#X obj 208 209 loadbang;
#X obj 271 182 fparam \$1 filterbias;
#X obj 148 376 butterworth-shelf3~ 1000 1000;
#X connect 1 0 13 0;
#X connect 2 0 5 0;
#X connect 3 0 4 0;
#X connect 3 0 8 0;
#X connect 5 0 3 0;
#X connect 7 0 6 0;
#X connect 8 0 13 2;
#X connect 8 1 13 3;
#X connect 9 0 13 1;
#X connect 10 0 9 0;
#X connect 11 0 10 0;
#X connect 12 0 2 0;
#X connect 13 0 0 0;
#X connect 13 0 6 0;
#X restore 21 52 pd filter;
#X obj 138 44 *~ 0;
#X obj 291 99 outlet~;
#N canvas 1 31 526 259 pitchshift 0;
#X obj 66 130 outlet~;
#X obj 67 28 inlet~;
#X text 213 6 PITCH SHIFTER;
#N canvas 0 22 450 300 delwrite 0;
#X obj 68 99 outlet~;
#X obj 67 28 inlet~;
#X obj 83 64 delwrite~ \$0-psdel 5000;
#X connect 1 0 2 0;
#X connect 1 0 0 0;
#X restore 67 61 pd delwrite;
#N canvas 41 48 833 678 delread 0;
#X obj 229 639 outlet~;
#X obj 33 540 inlet~;
#X obj 250 342 *~;
#X obj 118 128 exp;
#X floatatom 119 149 6 0 0 0 - - -;
#X obj 95 362 cos~;
#X obj 119 167 - 1;
#X obj 118 84 * 0.05776;
#X obj 119 188 * -1;
#X text 167 139 speed;
#X text 166 153 change;
#X obj 639 148 max 1;
#X obj 152 412 vd~ \$0-psdel;
#X obj 250 421 vd~ \$0-psdel;
#X obj 118 106 * 0.01;
#X obj 152 495 *~ 0;
#X obj 152 386 +~ 0.025;
#X obj 250 396 +~ 0.025;
#X obj 639 46 r \$1-hz;
#X obj 567 273 pack 0 11.61;
#X obj 567 299 line~;
#X obj 521 194 pack 0 11.61;
#X obj 521 219 line~;
#X obj 521 170 expr 1000/$f1;
#X obj 94 246 *~ 0;
#X obj 638 75 max 1;
#X obj 95 386 +~ 1;
#X obj 95 340 *~ 0.5;
#X obj 151 439 -~;
#X obj 119 439 *~;
#X obj 152 470 +~;
#X obj 94 286 phasor~;
#X obj 152 340 +~;
#X obj 639 123 expr 1000/$f1;
#X obj 95 410 *~ 0.5;
#X msg 312 588 0 \, 1 5;
#X obj 312 563 r \$1-ramp-master;
#X obj 192 495 amp-qdumb \$1 amp1;
#X obj 33 569 *~ 0;
#X obj 73 569 amp-qdumb \$1 amp0;
#X obj 228 615 +~;
#X obj 228 583 *~;
#X obj 261 585 line~;
#X obj 508 349 *~;
#X obj 376 135 exp;
#X floatatom 377 156 6 0 0 0 - - -;
#X obj 353 369 cos~;
#X obj 377 174 - 1;
#X obj 376 91 * 0.05776;
#X obj 377 195 * -1;
#X text 425 146 speed;
#X text 424 160 change;
#X obj 410 419 vd~ \$0-psdel;
#X obj 508 428 vd~ \$0-psdel;
#X obj 376 113 * 0.01;
#X obj 410 393 +~ 0.025;
#X obj 508 403 +~ 0.025;
#X obj 352 253 *~ 0;
#X obj 353 393 +~ 1;
#X obj 353 347 *~ 0.5;
#X obj 409 446 -~;
#X obj 377 446 *~;
#X obj 410 477 +~;
#X obj 352 293 phasor~;
#X obj 410 347 +~;
#X obj 353 417 *~ 0.5;
#X obj 411 503 *~ 0;
#X obj 451 503 amp-qdumb \$1 amp2;
#X obj 435 561 loadbang;
#X obj 667 100 spigot;
#X obj 748 98 sel 0;
#X obj 749 123 f \$4;
#X obj 749 147 mtof;
#X obj 118 61 fparam \$1 trans1;
#X obj 376 68 fparam \$1 trans2;
#X obj 690 68 fparam \$1 pslock;
#X connect 1 0 38 0;
#X connect 2 0 32 0;
#X connect 2 0 17 0;
#X connect 3 0 4 0;
#X connect 4 0 6 0;
#X connect 5 0 26 0;
#X connect 6 0 8 0;
#X connect 7 0 14 0;
#X connect 8 0 24 1;
#X connect 11 0 19 0;
#X connect 11 0 23 0;
#X connect 12 0 28 0;
#X connect 13 0 28 1;
#X connect 13 0 30 1;
#X connect 14 0 3 0;
#X connect 15 0 41 0;
#X connect 16 0 12 0;
#X connect 17 0 13 0;
#X connect 18 0 25 0;
#X connect 19 0 20 0;
#X connect 20 0 2 1;
#X connect 20 0 32 1;
#X connect 20 0 64 1;
#X connect 20 0 43 1;
#X connect 21 0 22 0;
#X connect 22 0 24 0;
#X connect 22 0 57 0;
#X connect 23 0 21 0;
#X connect 24 0 31 0;
#X connect 25 0 69 0;
#X connect 26 0 34 0;
#X connect 27 0 5 0;
#X connect 28 0 29 1;
#X connect 29 0 30 0;
#X connect 30 0 15 0;
#X connect 31 0 2 0;
#X connect 31 0 27 0;
#X connect 32 0 16 0;
#X connect 33 0 11 0;
#X connect 34 0 29 0;
#X connect 35 0 42 0;
#X connect 36 0 35 0;
#X connect 37 0 15 1;
#X connect 38 0 40 0;
#X connect 39 0 38 1;
#X connect 40 0 0 0;
#X connect 41 0 40 1;
#X connect 42 0 41 1;
#X connect 43 0 64 0;
#X connect 43 0 56 0;
#X connect 44 0 45 0;
#X connect 45 0 47 0;
#X connect 46 0 58 0;
#X connect 47 0 49 0;
#X connect 48 0 54 0;
#X connect 49 0 57 1;
#X connect 52 0 60 0;
#X connect 53 0 60 1;
#X connect 53 0 62 1;
#X connect 54 0 44 0;
#X connect 55 0 52 0;
#X connect 56 0 53 0;
#X connect 57 0 63 0;
#X connect 58 0 65 0;
#X connect 59 0 46 0;
#X connect 60 0 61 1;
#X connect 61 0 62 0;
#X connect 62 0 66 0;
#X connect 63 0 43 0;
#X connect 63 0 59 0;
#X connect 64 0 55 0;
#X connect 65 0 61 0;
#X connect 66 0 41 0;
#X connect 67 0 66 1;
#X connect 68 0 35 0;
#X connect 69 0 33 0;
#X connect 70 0 71 0;
#X connect 71 0 72 0;
#X connect 72 0 33 0;
#X connect 73 0 7 0;
#X connect 74 0 48 0;
#X connect 75 0 69 1;
#X connect 75 0 70 0;
#X restore 67 98 pd delread;
#X connect 1 0 3 0;
#X connect 3 0 4 0;
#X connect 4 0 0 0;
#X restore 137 169 pd pitchshift;
#X obj 136 253 rampdown~;
#X obj 170 228 line~;
#X obj 137 228 *~;
#X msg 218 259 0 \, 1 5;
#X obj 228 235 r \$1-ramp-master;
#X obj 218 212 loadbang;
#X obj 473 94 env~ 8192;
#X floatatom 474 133 5 0 0 0 - - -;
#X obj 161 20 amp-qdumb \$1 thru;
#X obj 364 388 spigot;
#X obj 402 298 loadbang;
#X msg 402 322 1;
#X obj 467 350 sel 0 \$1;
#X obj 520 375 b;
#X obj 522 398 0;
#X obj 467 377 1;
#X obj 467 320 r qlist-recall-voice;
#X obj 363 420 s \$1-ramp-master;
#X obj 365 269 r ramp-master;
#N canvas 158 22 726 688 filter 0;
#X obj 79 528 cpole~;
#X obj 111 500 *~;
#X obj 147 501 *~;
#X obj 129 455 cos~;
#X obj 170 455 cos~;
#X obj 170 431 -~ 0.25;
#X obj 96 287 *~;
#X floatatom 450 600 7 0 0 0 - - -;
#X obj 450 572 snapshot~;
#X obj 448 507 metro 100;
#X obj 448 471 tgl 15 0 empty empty empty 0 -6 0 8 -262144 -1 -1 0
1;
#X floatatom 528 600 7 0 0 0 - - -;
#X obj 528 572 snapshot~;
#X obj 78 471 inlet~;
#X obj 75 644 outlet~;
#X obj 96 35 r \$1-attack;
#X obj 96 261 *~;
#X obj 113 81 expr 3.01294*exp(.01444056*(max( \$4 -40 \, 0.24*$f2)+$f1))
;
#X obj 479 53 t b f;
#X obj 129 124 expr 3.01294*exp(.01444056*(max( \$4 -40 \, 0.24*$f2)+$f1))
;
#X obj 96 231 abd~ 0 0 0 0 0;
#X obj 143 166 expr 3.01294*exp(.01444056*(max( \$4 -40 \, 0.24*$f2)+$f1))
;
#X obj 338 230 metro 100;
#X obj 338 210 tgl 15 0 empty empty empty 0 -6 0 8 -262144 -1 -1 0
1;
#X floatatom 339 274 7 0 0 0 - - -;
#X obj 339 252 snapshot~;
#X obj 178 277 samplerate~;
#X obj 96 316 *~;
#X obj 297 349 expr 1/(0.000001+$f1*$f1*0.0025);
#X obj 254 457 clip~ 0 1;
#X obj 253 406 sig~ 1;
#X obj 253 431 -~;
#X obj 272 381 *~ 0;
#X obj 145 552 -~;
#X obj 78 562 *~;
#X floatatom 202 338 7 0 0 0 - - -;
#X obj 178 301 expr 1/$f1;
#X obj 177 552 -~ 1;
#X floatatom 526 433 5 0 0 0 - - -;
#X obj 113 58 fparam \$1 vcf;
#X obj 129 103 fparam \$1 vcfp;
#X obj 143 145 fparam \$1 vcfp2;
#X obj 157 187 fparam \$1 vcfa;
#X obj 173 209 fparam \$1 vcfa2;
#X obj 217 230 fparam \$1 vcfd;
#X obj 479 32 fparam \$1 vcfbias;
#X obj 297 325 fparam \$1 vcfq;
#X obj 526 385 fparam \$1 vcfdepth;
#X obj 526 408 expr $f1/50-$f1*$f1/10000;
#X floatatom 537 497 5 0 0 0 - - -;
#X obj 537 472 expr 1-$f1*$f1/10000;
#X obj 76 596 *~ 0;
#X obj 113 596 *~ 0;
#X obj 76 620 +~;
#X connect 0 0 34 0;
#X connect 1 0 0 2;
#X connect 1 0 8 0;
#X connect 1 0 37 0;
#X connect 2 0 0 3;
#X connect 2 0 12 0;
#X connect 2 0 33 0;
#X connect 3 0 1 1;
#X connect 4 0 2 1;
#X connect 5 0 4 0;
#X connect 6 0 25 0;
#X connect 6 0 27 0;
#X connect 8 0 7 0;
#X connect 9 0 8 0;
#X connect 9 0 12 0;
#X connect 10 0 9 0;
#X connect 12 0 11 0;
#X connect 13 0 0 0;
#X connect 13 0 52 0;
#X connect 15 0 20 0;
#X connect 15 0 26 0;
#X connect 16 0 6 0;
#X connect 16 0 6 1;
#X connect 17 0 20 1;
#X connect 18 0 17 0;
#X connect 18 0 19 0;
#X connect 18 0 21 0;
#X connect 18 1 17 1;
#X connect 18 1 19 1;
#X connect 18 1 21 1;
#X connect 19 0 20 2;
#X connect 20 0 16 0;
#X connect 20 0 16 1;
#X connect 21 0 20 3;
#X connect 22 0 25 0;
#X connect 23 0 22 0;
#X connect 25 0 24 0;
#X connect 26 0 36 0;
#X connect 27 0 5 0;
#X connect 27 0 3 0;
#X connect 27 0 32 0;
#X connect 28 0 32 1;
#X connect 29 0 1 0;
#X connect 29 0 2 0;
#X connect 30 0 31 0;
#X connect 31 0 29 0;
#X connect 32 0 31 1;
#X connect 33 0 34 1;
#X connect 34 0 51 0;
#X connect 36 0 27 1;
#X connect 36 0 35 0;
#X connect 37 0 33 1;
#X connect 39 0 17 0;
#X connect 40 0 19 0;
#X connect 41 0 21 0;
#X connect 42 0 20 4;
#X connect 43 0 20 5;
#X connect 44 0 20 6;
#X connect 45 0 18 0;
#X connect 46 0 28 0;
#X connect 47 0 48 0;
#X connect 47 0 50 0;
#X connect 48 0 38 0;
#X connect 48 0 51 1;
#X connect 50 0 49 0;
#X connect 50 0 52 1;
#X connect 51 0 53 0;
#X connect 52 0 53 1;
#X connect 53 0 14 0;
#X restore 137 144 pd filter;
#X obj 72 325 fparam \$1 pvocon;
#N canvas 379 298 450 300 noise 0;
#X obj 58 86 2tab/2tab;
#X obj 166 106 - 60;
#X obj 166 130 mtof;
#X obj 165 77 fparam \$1 nf;
#X obj 209 120 fparam \$1 nd;
#X obj 209 144 / 100;
#X obj 58 109 -~;
#X obj 58 132 *~ 0;
#X obj 49 157 +~;
#X obj 40 26 inlet~;
#X obj 48 189 outlet~;
#X connect 0 0 6 0;
#X connect 1 0 2 0;
#X connect 2 0 0 1;
#X connect 3 0 1 0;
#X connect 4 0 5 0;
#X connect 5 0 7 1;
#X connect 6 0 7 0;
#X connect 7 0 8 1;
#X connect 8 0 10 0;
#X connect 9 0 0 0;
#X connect 9 0 6 1;
#X connect 9 0 8 0;
#X restore 137 121 pd noise;
#X connect 0 0 7 0;
#X connect 0 0 8 0;
#X connect 2 0 3 0;
#X connect 3 0 1 0;
#X connect 5 0 32 0;
#X connect 6 0 5 0;
#X connect 7 0 9 0;
#X connect 7 0 6 0;
#X connect 8 0 5 0;
#X connect 10 0 13 0;
#X connect 11 0 4 0;
#X connect 12 0 13 1;
#X connect 13 0 11 0;
#X connect 14 0 12 0;
#X connect 15 0 14 0;
#X connect 15 0 11 1;
#X connect 16 0 14 0;
#X connect 17 0 18 0;
#X connect 19 0 8 1;
#X connect 20 0 28 0;
#X connect 21 0 22 0;
#X connect 22 0 20 1;
#X connect 23 0 26 0;
#X connect 23 1 26 0;
#X connect 23 2 24 0;
#X connect 24 0 25 0;
#X connect 25 0 20 1;
#X connect 26 0 20 1;
#X connect 27 0 23 0;
#X connect 29 0 20 0;
#X connect 30 0 10 0;
#X connect 31 0 2 0;
#X connect 32 0 30 0;
#X restore 121 95 pd processing;
#N canvas 491 108 745 708 voice-changer 0;
#X obj 41 20 r \$1-attack;
#X obj 41 96 + 1;
#X obj 41 219 t b f;
#X obj 41 243 f \$1;
#X obj 47 287 s qlist-recall-string;
#X obj 48 265 pack;
#X obj 41 46 spigot;
#X obj 122 46 r nutso;
#X obj 98 48 tgl 15 0 empty empty empty 0 -6 0 8 -262144 -1 -1 0 1
;
#X obj 244 316 print;
#X obj 245 284 spigot;
#X obj 279 242 r loud-nutso;
#X obj 203 19 r reset;
#X obj 280 264 tgl 15 0 empty empty empty 17 7 0 10 -262144 -1 -1 0
1;
#X obj 497 37 r \$1-attack;
#X obj 497 63 spigot;
#X obj 548 65 tgl 15 0 empty empty empty 0 -6 0 8 -262144 -1 -1 0 1
;
#X obj 578 63 r scatsinger;
#X obj 559 204 random 56;
#X obj 559 227 + 30;
#X obj 522 126 timer;
#X obj 521 151 > 80;
#X obj 576 249 v scat-last;
#X obj 435 124 s scat-bang;
#X obj 544 91 r scat-bang;
#X obj 497 89 t b b;
#X obj 522 174 sel 0 1;
#X obj 472 206 v scat-last;
#X msg 203 42 \; nutso 0 \; sneak -1;
#X obj 111 107 r \$1-attack;
#X obj 111 133 spigot;
#X obj 168 135 tgl 15 0 empty empty empty 0 -6 0 8 -262144 -1 -1 0
1;
#X obj 210 108 r sneak;
#X obj 210 131 != -1;
#X obj 148 159 r sneak;
#X obj 112 158 f;
#X msg 147 188 0;
#X msg 329 41 \; sneak 16;
#X obj 561 278 t b f b;
#X obj 561 302 0;
#X obj 618 303 \$1;
#X obj 559 339 s qlist-recall-voice;
#X obj 608 372 s vsamp;
#X obj 54 391 spigot;
#X obj 111 393 tgl 15 0 empty empty empty 0 -6 0 8 -262144 -1 -1 0
1;
#X obj 205 358 r updown;
#X obj 54 365 r all-attack;
#X obj 26 539 route;
#X obj 220 385 expr ($f1 !=0) && ( \$1 !=1) && (\$1 !=6);
#X obj 424 481 expr ($f1 !=0) && ( \$1 ==1);
#X obj 222 481 expr ($f1 !=0) && ( \$1 ==6);
#X obj 300 505 r upvoice;
#X obj 279 538 spigot;
#X obj 222 505 sel 1;
#X obj 245 538 f;
#X obj 298 589 t b f;
#X obj 298 613 f \$1;
#X obj 304 657 s qlist-recall-string;
#X obj 305 635 pack;
#X obj 359 627 print;
#X obj 358 603 spigot;
#X obj 414 619 tgl 15 0 empty empty empty 17 7 0 10 -262144 -1 -1 0
1;
#X obj 413 597 r loud-updown;
#X obj 71 539 route;
#X obj 79 451 loadbang;
#X obj 79 475 \$1;
#X obj 82 501 - 1;
#X obj 114 501 + 1;
#X obj 116 539 route \$1;
#X msg 26 563 1;
#X msg 70 563 0;
#X obj 117 568 b;
#X obj 53 602 f;
#X obj 53 626 sel 1 0;
#X obj 482 540 spigot;
#X obj 425 507 sel 1;
#X obj 448 540 f;
#X obj 496 506 r downvoice;
#X obj 41 73 random 36;
#X connect 0 0 6 0;
#X connect 1 0 2 0;
#X connect 2 0 3 0;
#X connect 2 1 5 1;
#X connect 3 0 5 0;
#X connect 5 0 4 0;
#X connect 5 0 10 0;
#X connect 6 0 78 0;
#X connect 7 0 8 0;
#X connect 8 0 6 1;
#X connect 10 0 9 0;
#X connect 11 0 13 0;
#X connect 12 0 28 0;
#X connect 13 0 10 1;
#X connect 14 0 15 0;
#X connect 15 0 25 0;
#X connect 16 0 15 1;
#X connect 17 0 16 0;
#X connect 18 0 19 0;
#X connect 19 0 22 0;
#X connect 19 0 38 0;
#X connect 20 0 21 0;
#X connect 21 0 26 0;
#X connect 24 0 20 0;
#X connect 25 0 23 0;
#X connect 25 1 20 1;
#X connect 26 0 27 0;
#X connect 26 1 18 0;
#X connect 27 0 38 0;
#X connect 29 0 30 0;
#X connect 30 0 35 0;
#X connect 31 0 30 1;
#X connect 32 0 33 0;
#X connect 33 0 31 0;
#X connect 34 0 35 1;
#X connect 35 0 36 0;
#X connect 35 0 2 0;
#X connect 36 0 31 0;
#X connect 38 0 39 0;
#X connect 38 1 42 0;
#X connect 38 2 40 0;
#X connect 39 0 41 0;
#X connect 40 0 41 0;
#X connect 43 0 47 0;
#X connect 43 0 63 0;
#X connect 43 0 68 0;
#X connect 44 0 43 1;
#X connect 45 0 48 0;
#X connect 45 0 49 0;
#X connect 45 0 50 0;
#X connect 46 0 43 0;
#X connect 47 0 69 0;
#X connect 48 0 44 0;
#X connect 49 0 75 0;
#X connect 49 0 74 1;
#X connect 50 0 52 1;
#X connect 50 0 53 0;
#X connect 51 0 52 0;
#X connect 51 0 54 1;
#X connect 52 0 54 0;
#X connect 53 0 54 0;
#X connect 54 0 55 0;
#X connect 55 0 56 0;
#X connect 55 1 58 1;
#X connect 56 0 58 0;
#X connect 58 0 57 0;
#X connect 58 0 60 0;
#X connect 60 0 59 0;
#X connect 61 0 60 1;
#X connect 62 0 61 0;
#X connect 63 0 70 0;
#X connect 64 0 65 0;
#X connect 65 0 66 0;
#X connect 65 0 67 0;
#X connect 66 0 47 1;
#X connect 67 0 63 1;
#X connect 68 0 71 0;
#X connect 69 0 72 1;
#X connect 70 0 72 1;
#X connect 71 0 72 0;
#X connect 72 0 73 0;
#X connect 73 0 54 0;
#X connect 73 1 76 0;
#X connect 74 0 76 0;
#X connect 75 0 76 0;
#X connect 76 0 55 0;
#X connect 77 0 74 0;
#X connect 77 0 76 1;
#X connect 78 0 1 0;
#X restore 317 57 pd voice-changer;
#X obj 207 118 s~ \$1-imod~;
#X floatatom 131 76 7 0 0 0 - - -;
#X obj 122 183 outlet~;
#X floatatom 192 76 7 0 0 0 - - -;
#X obj 131 54 unpack;
#X obj 121 151 +~;
#N canvas 192 155 346 449 osc 0;
#X obj 51 193 osc~;
#X obj 51 215 +~ 0.15;
#X obj 51 237 cos~;
#X obj 51 301 *~ 0;
#X obj 87 300 amp-qdumb \$1 osc;
#X obj 51 268 *~;
#X obj 128 184 r \$1-fastdb;
#X obj 130 210 dbtorms;
#X obj 130 234 pack 0 11;
#X obj 130 258 line~;
#X obj 54 21 r \$1-hz;
#X obj 51 325 outlet~;
#X obj 109 75 spigot;
#X obj 55 54 spigot;
#X obj 110 156 mtof;
#X floatatom 192 126 5 0 0 0 - - -;
#X floatatom 227 103 5 0 0 0 - - -;
#X obj 126 33 == 0;
#X obj 179 9 fparam \$1 quantize;
#X obj 109 100 b;
#X floatatom 161 147 5 0 0 0 - - -;
#X obj 110 123 \$4;
#X connect 0 0 1 0;
#X connect 1 0 2 0;
#X connect 2 0 5 0;
#X connect 3 0 11 0;
#X connect 4 0 3 1;
#X connect 5 0 3 0;
#X connect 6 0 7 0;
#X connect 7 0 8 0;
#X connect 8 0 9 0;
#X connect 9 0 5 1;
#X connect 10 0 13 0;
#X connect 10 0 12 0;
#X connect 12 0 16 0;
#X connect 12 0 19 0;
#X connect 13 0 0 0;
#X connect 13 0 15 0;
#X connect 14 0 0 0;
#X connect 14 0 20 0;
#X connect 17 0 13 1;
#X connect 18 0 12 1;
#X connect 18 0 17 0;
#X connect 19 0 21 0;
#X connect 21 0 14 0;
#X restore 225 157 pd osc;
#X connect 1 0 3 0;
#X connect 2 0 12 0;
#X connect 3 0 0 0;
#X connect 4 0 2 0;
#X connect 4 0 6 0;
#X connect 5 0 13 1;
#X connect 6 0 13 0;
#X connect 6 1 8 0;
#X connect 12 0 9 0;
#X connect 12 1 11 0;
#X connect 13 0 3 1;
#X connect 13 0 10 0;
#X connect 14 0 13 1;
