#N canvas 0 0 732 512 10;
#X obj 239 97 osc~;
#X floatatom 128 53 5 0 0 0 - - -;
#X obj 223 285 -;
#X obj 223 251 env~ 4096;
#X obj 326 266 env~ 4096;
#X floatatom 224 325 5 0 0 0 - - -;
#X obj 152 202 butterworth-hp2~ 100;
#X msg 341 96 \; pd dsp 1;
#X obj 16 200 butterworth-lp2~ 100;
#X obj 58 288 -;
#X obj 58 254 env~ 4096;
#X floatatom 59 328 5 0 0 0 - - -;
#X connect 0 0 4 0;
#X connect 0 0 6 0;
#X connect 0 0 8 0;
#X connect 1 0 0 0;
#X connect 2 0 5 0;
#X connect 3 0 2 0;
#X connect 4 0 2 1;
#X connect 4 0 9 1;
#X connect 6 0 3 0;
#X connect 8 0 10 0;
#X connect 9 0 11 0;
#X connect 10 0 9 0;
