#N canvas 0 0 450 300 10;
#N canvas 0 0 450 300 graph3 0;
#X array l 441 float 2;
#X array r 441 float 2;
#X coords 0 1 440 -1 200 140 1;
#X restore 68 41 graph;
#X obj 173 196 inlet~;
#X obj 177 1 bng 15 250 50 0 empty empty empty 6 6 0 8 -262144 -1 -1
;
#X obj 238 1 tgl 15 0 empty empty auto 17 7 0 12 -262144 -1 -1 0 1
;
#X obj 32 238 metro 100;
#X obj 166 272 tabwrite~ l;
#X obj 322 203 inlet~;
#X obj 332 273 tabwrite~ r;
#X connect 1 0 5 0;
#X connect 2 0 5 0;
#X connect 2 0 7 0;
#X connect 3 0 4 0;
#X connect 4 0 5 0;
#X connect 4 0 7 0;
#X connect 6 0 7 0;
#X coords 0 0 1 1 200 140 1;
