#N canvas 223 91 823 500 10;
#X obj 59 47 string-in 1 3 39 2048;
#X obj 311 79 s loud-note;
#X obj 311 56 tgl 15 0 empty empty empty 0 -6 0 8 -262144 -1 -1 0 1
;
#N canvas 356 146 731 674 trevor 0;
#X obj 51 59 table sample1;
#X obj 191 114 soundfiler;
#N canvas 221 55 680 577 attacks 0;
#X obj 340 155 i;
#X obj 393 155 i;
#X obj 284 155 i;
#X obj 137 115 t b f b b b b b;
#X obj 230 154 i;
#X floatatom 478 196 0 0 0 0 - - -;
#X msg 310 442 145;
#X msg 413 443 142;
#X obj 316 476 s fake-note;
#X obj 198 359 0;
#X obj 214 326 sel 1;
#X obj 48 362 1;
#X obj 68 330 sel 1;
#X obj 48 210 route 0 1;
#X obj 48 179 pack;
#X obj 175 154 i;
#X obj 49 151 i;
#X obj 478 174 r tv-rest-threshold;
#X obj 106 473 bng 15 250 50 0 empty empty empty 0 -6 0 8 -262144 -1
-1;
#X floatatom 177 181 5 0 0 0 - - -;
#X obj 137 93 env~ 1024;
#X obj 76 257 expr $i1 > $i2+7 && $i1 > $i3;
#X obj 384 253 expr $i1 < $i2-7 || $i1 < $i3;
#X obj 138 73 butterworth_lp6 700;
#X obj 56 530 outlet;
#X obj 170 532 outlet;
#X text 73 508 attacks;
#X text 189 509 decays;
#X obj 140 49 tabplay~ sample1;
#X obj 149 -1 inlet;
#X obj 216 35 switch~;
#X msg 216 6 1;
#X connect 0 0 1 1;
#X connect 1 0 21 1;
#X connect 1 0 22 1;
#X connect 2 0 0 1;
#X connect 3 0 16 0;
#X connect 3 1 14 1;
#X connect 3 1 15 1;
#X connect 3 2 15 0;
#X connect 3 3 4 0;
#X connect 3 4 2 0;
#X connect 3 5 0 0;
#X connect 3 6 1 0;
#X connect 4 0 2 1;
#X connect 5 0 21 2;
#X connect 5 0 22 2;
#X connect 6 0 8 0;
#X connect 7 0 8 0;
#X connect 9 0 16 1;
#X connect 10 0 7 0;
#X connect 10 0 9 0;
#X connect 10 0 25 0;
#X connect 11 0 16 1;
#X connect 12 0 6 0;
#X connect 12 0 11 0;
#X connect 12 0 18 0;
#X connect 12 0 24 0;
#X connect 13 0 21 0;
#X connect 13 1 22 0;
#X connect 14 0 13 0;
#X connect 15 0 4 1;
#X connect 15 0 19 0;
#X connect 16 0 14 0;
#X connect 17 0 5 0;
#X connect 20 0 3 0;
#X connect 21 0 12 0;
#X connect 22 0 10 0;
#X connect 23 0 20 0;
#X connect 28 0 23 0;
#X connect 29 0 28 0;
#X connect 29 0 31 0;
#X connect 31 0 30 0;
#X restore 29 361 pd attacks;
#X obj 27 269 bng 15 250 50 0 empty empty empty 0 -6 0 8 -262144 -1
-1;
#X obj 31 413 bng 15 250 50 0 empty empty empty 0 -6 0 8 -262144 -1
-1;
#X obj 26 389 spigot 1;
#X obj 55 479 1;
#X obj 61 427 0;
#X obj 14 517 timer;
#X floatatom 187 584 7 0 0 0 - - -;
#X obj 42 554 t f b;
#X obj 89 554 f;
#X obj 118 553 + 1;
#X msg 110 311 0;
#X obj 42 588 tabwrite attacks;
#X msg 84 182 \; attacks write trevor1-attacks.txt;
#X floatatom 63 626 7 0 0 0 - - -;
#X obj 53 449 del 500;
#X msg 84 268 \; attacks const 0;
#X obj 194 152 table attacks 100;
#X obj 18 611 print;
#X obj 342 228 soundfiler;
#X msg 349 192 write -bytes 4 trevor1-attacks.wav attacks;
#X msg 342 170 read trevor1-attacks.wav attacks;
#X obj 342 147 loadbang;
#X obj 264 12 loadbang;
#X obj 406 283 bng 15 250 50 0 empty empty empty 0 -6 0 8 -262144 -1
-1;
#X obj 421 424 bng 15 250 50 0 empty empty empty 0 -6 0 8 -262144 -1
-1;
#X obj 416 400 spigot 1;
#X obj 445 490 1;
#X obj 451 438 0;
#X obj 404 528 timer;
#X floatatom 568 590 7 0 0 0 - - -;
#X obj 432 565 t f b;
#X obj 489 562 f;
#X obj 518 561 + 1;
#X msg 511 370 0;
#X obj 432 599 tabwrite attacks;
#X floatatom 453 637 7 0 0 0 - - -;
#X obj 443 460 del 500;
#X msg 490 313 \; attacks const 0;
#X obj 408 622 print;
#N canvas 185 406 440 250 attacks 0;
#X obj 139 166 outlet;
#X text 156 144 attacks;
#X obj 145 84 tabplay~ sample1;
#X obj 149 -1 inlet;
#X obj 216 58 switch~;
#X msg 216 29 1;
#N canvas 137 473 450 300 downsamp 0;
#X obj 89 36 inlet~;
#X obj 75 152 bonk~;
#X obj 125 80 loadbang;
#X obj 75 179 t b;
#X obj 75 204 outlet;
#X obj 223 45 block~ 32 1 0.5;
#X msg 123 114 minvel 60;
#X msg 202 114 thresh 35 40;
#X connect 0 0 1 0;
#X connect 1 0 3 0;
#X connect 2 0 6 0;
#X connect 2 0 7 0;
#X connect 3 0 4 0;
#X connect 6 0 1 0;
#X connect 7 0 1 0;
#X restore 144 111 pd downsamp;
#X connect 2 0 6 0;
#X connect 3 0 2 0;
#X connect 3 0 5 0;
#X connect 5 0 4 0;
#X connect 6 0 0 0;
#X restore 418 369 pd attacks;
#X msg 261 76 read -maxsize 2e+06 ../../../../rep/other/twa_corbies/bash.snd
sample1;
#X msg 265 37 read -maxsize 2e+06 ../../../../bis/archive/sound/misc/trevor1.aiff
sample1;
#X connect 2 0 5 0;
#X connect 3 0 8 0;
#X connect 3 0 13 0;
#X connect 3 0 18 0;
#X connect 3 0 2 0;
#X connect 4 0 7 0;
#X connect 4 0 8 1;
#X connect 4 0 17 0;
#X connect 5 0 4 0;
#X connect 6 0 5 1;
#X connect 7 0 5 1;
#X connect 8 0 10 0;
#X connect 10 0 14 0;
#X connect 10 0 20 0;
#X connect 10 0 16 0;
#X connect 10 1 11 0;
#X connect 11 0 12 0;
#X connect 11 0 14 1;
#X connect 11 0 9 0;
#X connect 12 0 11 1;
#X connect 13 0 11 1;
#X connect 17 0 6 0;
#X connect 22 0 21 0;
#X connect 23 0 21 0;
#X connect 24 0 23 0;
#X connect 25 0 44 0;
#X connect 26 0 31 0;
#X connect 26 0 36 0;
#X connect 26 0 40 0;
#X connect 26 0 42 0;
#X connect 27 0 30 0;
#X connect 27 0 31 1;
#X connect 27 0 39 0;
#X connect 28 0 27 0;
#X connect 29 0 28 1;
#X connect 30 0 28 1;
#X connect 31 0 33 0;
#X connect 33 0 37 0;
#X connect 33 0 41 0;
#X connect 33 0 38 0;
#X connect 33 1 34 0;
#X connect 34 0 35 0;
#X connect 34 0 37 1;
#X connect 34 0 32 0;
#X connect 35 0 34 1;
#X connect 36 0 34 1;
#X connect 39 0 29 0;
#X connect 42 0 28 0;
#X connect 43 0 1 0;
#X connect 44 0 1 0;
#X restore 493 86 pd trevor;
#N canvas 185 499 382 222 pvoc 0;
#N canvas 138 111 767 761 hanning-window 0;
#X obj 92 206 phasor~;
#X obj 92 234 cos~;
#X obj 23 328 tabwrite~ hanning;
#X obj 30 252 -~;
#X obj 28 218 sig~ 1;
#X msg 37 180 0;
#X text 141 13 CALCULATE HANNING;
#X text 141 27 WINDOW TABLE;
#N canvas 0 0 450 300 graph1 0;
#X array hanning 4096 float 0;
#X coords 0 1 4096 -1 400 300 1;
#X restore 275 281 graph;
#X obj 93 171 sig~;
#X text 175 148 sample rate / window size;
#X msg 23 144 bang;
#X obj 66 269 sig~ 0.5;
#X obj 49 300 *~;
#X obj 94 80 samplerate~;
#X obj 25 23 r window-size;
#X obj 25 53 t b f;
#X msg 275 547 \; hanning resize 4096;
#X obj 93 132 /;
#X connect 0 0 1 0;
#X connect 1 0 3 1;
#X connect 3 0 13 0;
#X connect 4 0 3 0;
#X connect 5 0 0 1;
#X connect 9 0 0 0;
#X connect 11 0 2 0;
#X connect 11 0 5 0;
#X connect 12 0 13 1;
#X connect 13 0 2 0;
#X connect 14 0 18 0;
#X connect 15 0 16 0;
#X connect 16 0 14 0;
#X connect 16 0 11 0;
#X connect 16 1 18 1;
#X connect 18 0 9 0;
#X restore 18 121 pd hanning-window;
#X obj 19 46 loadbang;
#X obj 18 68 samplerate~;
#X obj 19 91 s sample-rate;
#X obj 91 42 bng 15 250 50 0 empty empty empty 0 -6 0 8 -262144 -1
-1;
#X connect 1 0 2 0;
#X connect 2 0 3 0;
#X connect 4 0 2 0;
#X restore 493 58 pd pvoc;
#X obj 610 42 loadbang;
#X obj 306 310 vu 15 120 empty empty -1 -8 0 8 -66577 -1 0 0;
#X text 301 432 out;
#X obj 387 275 out~;
#X obj 500 133 tgl 15 0 empty empty empty 0 -6 0 8 -262144 -1 -1 1
1;
#X text 520 133 on;
#X obj 385 237 catch~ pvoc-out;
#X msg 608 67 \; window-size 2048 \; pd dsp 1;
#X obj 501 159 s pvoc-on;
#X obj 302 263 env~ 8192;
#X obj 301 287 - 88;
#X obj 59 75 string-in 2 4 44 2048;
#X obj 59 102 string-in 3 5 49 1024;
#X obj 59 129 string-in 4 6 54 1024;
#X obj 58 156 string-in 5 7 58 1024;
#X obj 58 183 string-in 6 8 63 1024;
#X connect 2 0 1 0;
#X connect 5 0 12 0;
#X connect 9 0 13 0;
#X connect 11 0 8 0;
#X connect 11 0 8 1;
#X connect 11 0 14 0;
#X connect 14 0 15 0;
#X connect 15 0 6 0;
