#N canvas 146 140 819 812 10;
#X obj 101 63 hip~ 2;
#X msg 124 85 print;
#X obj 133 107 loadbang;
#X obj 59 253 s \$1-note;
#X obj 226 211 s \$1-env;
#X obj 269 284 s \$1-pit;
#X obj 201 233 unpack;
#X text 193 12 args: 1.channel \, 2.adc \, 3.low-pitch \, 4.fiddle-window
;
#X obj 100 41 adc~ \$2;
#X obj 100 163 fiddle~ \$4;
#X obj 7 219 moses \$3;
#X obj 201 259 moses \$3;
#X obj 142 293 f;
#X obj 143 320 s \$1-attack;
#X obj 36 286 s any-note;
#X obj 80 20 r all-fiddle;
#X msg 133 130 reattack 30 10 \, vibrato 50 3 \, npartial 7 \, amp-range
40 70;
#X obj 142 262 del 5;
#X floatatom 560 286 0 0 0 0 - - -;
#N canvas 61 388 933 630 fft-analysis 0;
#X obj 177 242 *~;
#X obj 146 242 *~;
#X obj 146 264 -~;
#X obj 242 243 *~;
#X obj 211 243 *~;
#X obj 211 265 +~;
#X obj 256 73 *~;
#X obj 225 73 *~;
#X obj 197 73 *~;
#X obj 166 73 *~;
#X obj 166 95 +~;
#X obj 136 124 *~;
#X obj 49 560 *~;
#X obj 365 179 rfft~;
#X obj 291 34 rfft~;
#X obj 490 598 *~;
#X obj 685 288 r window-size;
#X obj 751 201 r sample-rate;
#X obj 609 234 f;
#X obj 603 52 r sample-rate;
#X obj 578 29 r window-size;
#X obj 601 98 t b f;
#X obj 578 121 /;
#X obj 520 598 *~;
#X obj 50 540 *~;
#X obj 66 517 rifft~;
#X obj 50 586 outlet~;
#X obj 625 446 print~;
#X msg 624 418 bang;
#X text 115 517 inverse real FFT;
#X obj 589 210 bang~;
#X obj 516 424 line~;
#X obj 578 143 * 1000;
#X text 630 136 window size (msec);
#X obj 603 76 * 4;
#X obj 632 159 r speed;
#X obj 640 235 +;
#X obj 633 200 *;
#X msg 710 188 0;
#X obj 609 341 +;
#X obj 600 298 t f f;
#X msg 516 396 \$1 \, \$2 \$3;
#X obj 516 369 pack 0 0 0;
#X obj 752 229 / 1000;
#X obj 609 269 *;
#X text 639 270 reading location (samples);
#X obj 637 381 / 4;
#X text 669 386 hop size (samples);
#X obj 564 464 sig~;
#X obj 534 463 +~;
#X text 638 82 (overlap times parent SR);
#X text 638 69 local sample rate;
#X obj 106 124 *~;
#X obj 106 146 +~;
#X obj 106 170 rsqrt~;
#X obj 225 95 -~;
#X obj 147 200 *~;
#X obj 207 200 *~;
#X obj 31 481 sig~;
#X obj 14 411 t b f;
#X msg 14 432 1;
#X obj 28 455 /;
#X obj 632 180 * 0.01;
#X obj 691 212 s speed;
#X obj 800 30 block~ 2048 4;
#X floatatom 672 360 0 0 0 0 - - -;
#X obj 670 339 *;
#X obj 829 256 * 0.01;
#X obj 831 277 + 69;
#X obj 832 298 mtof;
#X obj 832 320 / 440;
#X obj 689 316 t b f;
#X obj 14 390 r window-size;
#X floatatom 835 353 0 0 0 0 - - -;
#X obj 551 543 tabreceive~ hanning;
#X obj 50 71 sig~ 1e-15;
#X obj 534 489 tabread4~ sample1;
#X obj 516 515 tabread4~ sample1;
#X obj 448 269 s \$1-see-location;
#X obj 71 8 tabreceive~ \$1-phase-real;
#X obj 266 9 tabreceive~ \$1-phase-imag;
#X obj 188 433 tabsend~ \$1-phase-real;
#X obj 290 411 tabsend~ \$1-phase-imag;
#X obj 709 160 r \$1-location;
#X obj 829 234 r \$1-transpo;
#X connect 0 0 2 1;
#X connect 1 0 2 0;
#X connect 2 0 25 0;
#X connect 2 0 81 0;
#X connect 3 0 5 1;
#X connect 4 0 5 0;
#X connect 5 0 25 1;
#X connect 5 0 82 0;
#X connect 6 0 55 1;
#X connect 7 0 55 0;
#X connect 8 0 10 1;
#X connect 9 0 10 0;
#X connect 10 0 56 1;
#X connect 10 0 52 0;
#X connect 10 0 52 1;
#X connect 11 0 53 1;
#X connect 12 0 26 0;
#X connect 13 0 1 1;
#X connect 13 0 3 1;
#X connect 13 1 0 1;
#X connect 13 1 4 1;
#X connect 14 0 9 1;
#X connect 14 0 7 1;
#X connect 14 1 6 1;
#X connect 14 1 8 1;
#X connect 15 0 14 0;
#X connect 16 0 66 0;
#X connect 17 0 43 0;
#X connect 18 0 36 0;
#X connect 18 0 44 0;
#X connect 18 0 78 0;
#X connect 19 0 34 0;
#X connect 20 0 22 0;
#X connect 21 0 22 0;
#X connect 21 1 22 1;
#X connect 22 0 32 0;
#X connect 23 0 13 0;
#X connect 24 0 12 0;
#X connect 25 0 24 1;
#X connect 28 0 27 0;
#X connect 30 0 18 0;
#X connect 31 0 27 0;
#X connect 31 0 49 0;
#X connect 31 0 77 0;
#X connect 32 0 42 2;
#X connect 32 0 37 1;
#X connect 34 0 21 0;
#X connect 35 0 62 0;
#X connect 36 0 18 1;
#X connect 37 0 36 1;
#X connect 38 0 63 0;
#X connect 39 0 42 1;
#X connect 40 0 42 0;
#X connect 40 1 39 0;
#X connect 41 0 31 0;
#X connect 42 0 41 0;
#X connect 43 0 44 1;
#X connect 44 0 40 0;
#X connect 46 0 48 0;
#X connect 48 0 49 1;
#X connect 49 0 76 0;
#X connect 52 0 53 0;
#X connect 53 0 54 0;
#X connect 54 0 56 0;
#X connect 54 0 57 0;
#X connect 55 0 57 1;
#X connect 55 0 11 0;
#X connect 55 0 11 1;
#X connect 56 0 1 0;
#X connect 56 0 4 0;
#X connect 57 0 0 0;
#X connect 57 0 3 0;
#X connect 58 0 24 0;
#X connect 59 0 60 0;
#X connect 59 1 61 1;
#X connect 60 0 61 0;
#X connect 61 0 58 0;
#X connect 62 0 37 0;
#X connect 65 0 46 0;
#X connect 65 0 39 1;
#X connect 66 0 65 0;
#X connect 67 0 68 0;
#X connect 68 0 69 0;
#X connect 69 0 70 0;
#X connect 70 0 71 0;
#X connect 70 0 73 0;
#X connect 71 0 66 0;
#X connect 71 1 66 1;
#X connect 72 0 59 0;
#X connect 74 0 23 1;
#X connect 74 0 15 1;
#X connect 74 0 12 1;
#X connect 75 0 10 0;
#X connect 76 0 23 0;
#X connect 77 0 15 0;
#X connect 79 0 9 0;
#X connect 79 0 6 0;
#X connect 80 0 7 0;
#X connect 80 0 8 0;
#X connect 83 0 38 0;
#X connect 83 0 18 1;
#X connect 84 0 67 0;
#X restore 379 357 pd fft-analysis;
#N canvas 260 23 647 768 phase-tables 0;
#N canvas 0 0 450 300 graph2 0;
#X array \$1-phase-imag 4096 float 0;
#X coords 0 10 4096 -10 400 300 1;
#X restore 167 337 graph;
#N canvas 0 0 450 300 graph3 0;
#X array \$1-phase-real 4096 float 0;
#X coords 0 -10 4096 10 400 300 1;
#X restore 170 17 graph;
#X msg 171 650 \; phase-real resize 4096 \; phase-imag resize 4096
;
#X restore 615 479 pd phase-tables;
#X obj 381 417 hip~ 5;
#X msg 426 230 0;
#X msg 558 263 set \$1;
#X text 556 196 transposition;
#X text 557 214 in cents;
#X obj 520 442 env~ 16384;
#X obj 520 470 - 88;
#X obj 520 500 s out-vu;
#X obj 594 575 t b f;
#X obj 594 607 0;
#X obj 590 642 f;
#X obj 622 643 + 1;
#X obj 499 697 +;
#X obj 462 620 t f b;
#X msg 460 254 set \$1;
#X floatatom 590 699 8 0 0 0 - - -;
#X obj 590 668 expr 600/(($f1+5)*($f1+5));
#X obj 165 606 + 0.5;
#X obj 165 629 int;
#X obj 165 652 - 40;
#X obj 165 676 moses 1;
#X obj 165 699 sel 0;
#X obj 165 728 t b f;
#X obj 322 686 * 100;
#X obj 549 364 dbtorms;
#X obj 549 385 pack 0 12;
#X obj 548 407 line~;
#X obj 378 385 *~;
#X obj 165 585 spigot;
#X obj 65 581 spigot;
#X obj 320 591 spigot;
#X obj 208 699 tabread attacks;
#X obj 65 605 moses 20;
#X msg 60 629 0;
#X floatatom 425 282 8 0 0 0 - - -;
#X floatatom 403 703 8 0 0 0 - - -;
#X obj 322 664 -;
#X obj 459 231 r \$1-location;
#X obj 425 308 s \$1-location;
#X obj 558 237 r \$1-transpo;
#X obj 559 311 s \$1-transpo;
#X obj 391 531 r pvoc-on;
#X obj 390 561 tgl 15 0 empty empty empty 0 -6 0 8 -262144 -1 -1 1
1;
#X obj 165 558 r \$1-note;
#X obj 320 550 r \$1-pit;
#X obj 65 558 r \$1-env;
#X obj 60 666 s \$1-pvoc-lvl;
#X obj 207 605 t b f;
#X obj 195 751 s \$1-gofrom;
#X obj 594 532 r \$1-gofrom;
#X msg 604 553 1000;
#X obj 634 576 s \$1-location;
#X obj 499 723 s \$1-location;
#X obj 461 595 r \$1-see-location;
#X obj 322 725 s \$1-transpo;
#X obj 382 474 throw~ pvoc-out;
#X obj 549 343 r \$1-pvoc-lvl;
#X obj 249 479 env~ 8192;
#X floatatom 251 503 0 0 0 0 - - -;
#X obj 96 632 + 20;
#X connect 0 0 9 0;
#X connect 1 0 9 0;
#X connect 2 0 16 0;
#X connect 6 0 11 0;
#X connect 8 0 0 0;
#X connect 9 0 10 0;
#X connect 9 1 17 0;
#X connect 9 2 6 0;
#X connect 9 3 4 0;
#X connect 10 1 3 0;
#X connect 10 1 14 0;
#X connect 11 1 5 0;
#X connect 11 1 12 1;
#X connect 12 0 13 0;
#X connect 15 0 9 0;
#X connect 16 0 9 0;
#X connect 17 0 12 0;
#X connect 18 0 61 0;
#X connect 19 0 48 0;
#X connect 21 0 26 0;
#X connect 21 0 76 0;
#X connect 21 0 78 0;
#X connect 22 0 55 0;
#X connect 23 0 18 0;
#X connect 26 0 27 0;
#X connect 27 0 28 0;
#X connect 29 0 30 0;
#X connect 29 1 72 0;
#X connect 30 0 31 1;
#X connect 31 0 32 0;
#X connect 31 0 37 0;
#X connect 32 0 31 1;
#X connect 33 0 73 0;
#X connect 34 0 33 0;
#X connect 34 1 31 0;
#X connect 35 0 55 0;
#X connect 37 0 33 1;
#X connect 37 0 36 0;
#X connect 38 0 39 0;
#X connect 39 0 40 0;
#X connect 40 0 41 0;
#X connect 41 0 42 0;
#X connect 41 1 52 0;
#X connect 42 0 43 0;
#X connect 43 1 69 0;
#X connect 44 0 56 0;
#X connect 44 0 75 0;
#X connect 45 0 46 0;
#X connect 46 0 47 0;
#X connect 47 0 48 1;
#X connect 48 0 21 0;
#X connect 49 0 38 0;
#X connect 49 0 68 0;
#X connect 50 0 53 0;
#X connect 51 0 57 0;
#X connect 52 0 43 0;
#X connect 53 0 54 0;
#X connect 53 1 80 0;
#X connect 54 0 67 0;
#X connect 55 0 59 0;
#X connect 57 0 44 0;
#X connect 58 0 35 0;
#X connect 60 0 23 0;
#X connect 62 0 63 0;
#X connect 63 0 51 1;
#X connect 63 0 49 1;
#X connect 63 0 50 1;
#X connect 64 0 49 0;
#X connect 65 0 51 0;
#X connect 66 0 50 0;
#X connect 68 0 57 0;
#X connect 68 1 57 1;
#X connect 70 0 29 0;
#X connect 71 0 29 0;
#X connect 74 0 34 0;
#X connect 77 0 45 0;
#X connect 78 0 79 0;
#X connect 80 0 67 0;
