#N canvas 48 40 727 640 12;
#X declare -path lib -path ../lib;
#N canvas 1 31 670 517 audio 0;
#N canvas 0 22 590 431 Hann-window 0;
#N canvas 0 22 450 300 (subpatch) 0;
#X array Hann-norm 512 float 0;
#X coords 0 0.1 511 0 200 120 1;
#X restore 293 249 graph;
#X msg 171 263 0;
#X obj 65 312 osc~;
#X obj 65 264 samplerate~;
#X obj 65 335 *~ -0.5;
#X obj 65 358 +~ 0.5;
#X text 272 359 0;
#X text 288 372 0;
#X obj 65 288 / 512;
#X obj 57 241 bng 15 250 50 0 empty empty empty 0 -6 0 8 -262144 -1
-1;
#X text 336 221 Hann window;
#X text 113 310 period 512;
#X text 90 215 recalculate Hann;
#X text 125 230 window table;
#X obj 57 188 loadbang;
#X text 474 375 511;
#X text 40 27 The Hann window is computed on 'loadbang' to make the
file smaller (it doesn't have to be saved with the array.);
#X obj 56 407 tabwrite~ Hann-norm;
#X obj 66 380 *~ 0.036;
#X text 270 247 0.1;
#X connect 1 0 2 1;
#X connect 2 0 4 0;
#X connect 3 0 8 0;
#X connect 4 0 5 0;
#X connect 5 0 18 0;
#X connect 8 0 2 0;
#X connect 9 0 3 0;
#X connect 9 0 1 0;
#X connect 9 0 17 0;
#X connect 14 0 9 0;
#X connect 18 0 17 0;
#X restore 364 8 pd Hann-window;
#N canvas 0 22 623 506 fft-response 0;
#N canvas 0 22 450 300 (subpatch) 0;
#X array fft-response 512 float 0;
#X coords 0 1000 511 0 200 120 1;
#X restore 293 249 graph;
#X msg 148 255 0;
#X obj 42 256 samplerate~;
#X text 272 359 0;
#X text 288 372 0;
#X obj 42 280 / 512;
#X obj 34 233 bng 15 250 50 0 empty empty empty 0 -6 0 8 -262144 -1
-1;
#X text 102 302 period 512;
#X text 67 207 recalculate Hann;
#X text 102 222 window table;
#X obj 34 138 loadbang;
#X text 474 375 511;
#X text 40 27 The Hann window is computed on 'loadbang' to make the
file smaller (it doesn't have to be saved with the array.);
#X obj 42 304 phasor~;
#X obj 34 423 tabwrite~ fft-response;
#X obj 46 325 *~;
#X obj 46 347 *~ 20000;
#X obj 47 395 clip~ 0 1600;
#X text 252 248 1000;
#X obj 494 27 loadbang;
#X obj 493 68 samplerate~;
#X obj 493 47 bng 15 250 50 0 empty empty empty 0 -6 0 8 -262144 -1
-1;
#X obj 493 95 expr 513000/$f1;
#X obj 490 120 s envtime;
#X connect 1 0 13 1;
#X connect 2 0 5 0;
#X connect 5 0 13 0;
#X connect 6 0 2 0;
#X connect 6 0 1 0;
#X connect 6 0 14 0;
#X connect 10 0 6 0;
#X connect 13 0 15 0;
#X connect 13 0 15 1;
#X connect 15 0 16 0;
#X connect 16 0 17 0;
#X connect 17 0 14 0;
#X connect 19 0 21 0;
#X connect 20 0 22 0;
#X connect 21 0 20 0;
#X connect 22 0 23 0;
#X restore 363 27 pd fft-response;
#N canvas 0 22 765 759 hann-for-pvoc 0;
#X obj 92 206 phasor~;
#X obj 64 359 cos~;
#X obj 22 385 tabwrite~ hanning;
#X msg 37 180 0;
#X text 141 13 CALCULATE HANNING;
#X text 141 27 WINDOW TABLE;
#N canvas 0 22 450 300 (subpatch) 0;
#X array hanning 2048 float 0;
#X coords 0 1 2047 -1 400 150 1;
#X restore 281 237 graph;
#X obj 93 171 sig~;
#X text 124 136 sample rate / window size;
#X msg 24 140 bang;
#X obj 94 80 samplerate~;
#X obj 25 23 r window-size;
#X obj 25 53 t b f;
#X obj 93 132 /;
#X obj 368 28 loadbang;
#X obj 369 78 samplerate~;
#X obj 369 102 s sample-rate;
#X obj 369 52 bng 15 250 50 0 empty empty empty 0 -6 0 8 -262144 -1
-1;
#X obj 375 159 loadbang;
#X msg 88 531 \; hanning resize 2048;
#X msg 376 183 \; window-size 2048;
#N canvas 0 22 450 300 (subpatch) 0;
#X array pvoc-resynth-wind 2048 float 0;
#X coords 0 1 2047 -1 400 150 1;
#X restore 283 444 graph;
#X obj 8 432 tabwrite~ pvoc-resynth-wind;
#X obj 92 225 *~ 0.5;
#X obj 92 248 -~ 0.25;
#X obj 154 280 -~ 0.25;
#X obj 156 232 *~ 2;
#X obj 156 255 clip~ 0 0.5;
#X obj 151 380 cos~;
#X connect 0 0 23 0;
#X connect 0 0 26 0;
#X connect 1 0 2 0;
#X connect 3 0 0 1;
#X connect 7 0 0 0;
#X connect 9 0 2 0;
#X connect 9 0 3 0;
#X connect 9 0 22 0;
#X connect 10 0 13 0;
#X connect 11 0 12 0;
#X connect 12 0 10 0;
#X connect 12 0 9 0;
#X connect 12 1 13 1;
#X connect 13 0 7 0;
#X connect 14 0 17 0;
#X connect 15 0 16 0;
#X connect 17 0 15 0;
#X connect 18 0 20 0;
#X connect 23 0 24 0;
#X connect 24 0 1 0;
#X connect 25 0 28 0;
#X connect 26 0 27 0;
#X connect 27 0 25 0;
#X connect 28 0 22 0;
#X restore 497 58 pd hann-for-pvoc;
#N canvas 0 33 659 684 tables-for-pvoc 0;
#X obj 264 122 soundfiler;
#X obj 287 226 loadbang;
#X obj 263 19 loadbang;
#X obj 17 7 table sample-snd1;
#X obj 15 209 table sample-att1 100;
#X obj 16 27 table sample-snd2;
#X obj 15 228 table sample-att2 100;
#X obj 16 49 table sample-snd3;
#X obj 15 248 table sample-att3 100;
#X obj 17 68 table sample-snd4;
#X obj 15 268 table sample-att4 100;
#X obj 17 91 table sample-snd5;
#X obj 18 110 table sample-snd6;
#X obj 14 290 table sample-att5 100;
#X obj 14 309 table sample-att6 100;
#N canvas 361 292 420 431 auto-attack-finder 0;
#X obj 74 36 bng 15 250 50 0 empty empty empty 0 -6 0 8 -262144 -1
-1;
#X obj 89 177 bng 15 250 50 0 empty empty empty 0 -6 0 8 -262144 -1
-1;
#X obj 84 153 spigot 1;
#X obj 113 243 1;
#X obj 119 191 0;
#X obj 72 281 timer;
#X floatatom 236 343 7 0 0 0 - - -;
#X obj 100 318 t f b;
#X obj 157 315 f;
#X obj 186 314 + 1;
#X msg 179 123 0;
#X obj 100 352 tabwrite attacks;
#X floatatom 121 390 7 0 0 0 - - -;
#X obj 111 213 del 500;
#X msg 158 66 \; attacks const 0;
#X obj 76 375 print;
#N canvas 148 269 440 250 attacks 0;
#X obj 139 166 outlet;
#X text 156 144 attacks;
#X obj 149 -1 inlet;
#X obj 216 58 switch~;
#X msg 216 29 1;
#N canvas 137 473 450 300 downsamp 0;
#X obj 89 36 inlet~;
#X obj 125 80 loadbang;
#X obj 75 179 t b;
#X obj 75 204 outlet;
#X msg 123 114 minvel 60;
#X msg 202 114 thresh 35 40;
#X obj 75 152 bonk~;
#X connect 0 0 6 0;
#X connect 1 0 4 0;
#X connect 1 0 5 0;
#X connect 2 0 3 0;
#X connect 4 0 6 0;
#X connect 5 0 6 0;
#X connect 6 0 2 0;
#X restore 144 111 pd downsamp;
#X obj 144 84 tabplay~ sample-snd1;
#X connect 2 0 4 0;
#X connect 2 0 6 0;
#X connect 4 0 3 0;
#X connect 5 0 0 0;
#X connect 6 0 5 0;
#X restore 86 122 pd attacks;
#X obj 297 77 switch~;
#X obj 298 51 tgl 15 0 empty empty empty 0 -6 0 8 -262144 -1 -1 0 1
;
#X connect 0 0 5 0;
#X connect 0 0 10 0;
#X connect 0 0 14 0;
#X connect 0 0 16 0;
#X connect 1 0 4 0;
#X connect 1 0 5 1;
#X connect 1 0 13 0;
#X connect 2 0 1 0;
#X connect 3 0 2 1;
#X connect 4 0 2 1;
#X connect 5 0 7 0;
#X connect 7 0 11 0;
#X connect 7 0 15 0;
#X connect 7 0 12 0;
#X connect 7 1 8 0;
#X connect 8 0 9 0;
#X connect 8 0 11 1;
#X connect 8 0 6 0;
#X connect 9 0 8 1;
#X connect 10 0 8 1;
#X connect 13 0 3 0;
#X connect 16 0 2 0;
#X connect 18 0 17 0;
#X restore 291 615 pd auto-attack-finder;
#X obj 17 405 table sample-pit1 100;
#X obj 17 424 table sample-pit2 100;
#X obj 17 444 table sample-pit3 100;
#X obj 17 464 table sample-pit4 100;
#X obj 16 486 table sample-pit5 100;
#X obj 16 506 table sample-pit6 100;
#X obj 284 421 loadbang;
#X obj 15 329 table sample-att7 100;
#X obj 15 527 table sample-pit7 100;
#X obj 19 590 table sample-correct 100;
#X text 188 179 for live;
#X obj 15 178 table sample-snd10 441000;
#X obj 15 366 table sample-att10 100;
#X obj 19 131 table sample-snd7;
#X obj 16 564 table sample-pit10 100;
#X obj 19 149 table sample-snd8;
#X obj 15 347 table sample-att8 100;
#X obj 15 546 table sample-pit8 100;
#X msg 284 443 \; sample-pit1 read trevor-index/original-pit.txt \;
sample-pit2 read trevor-index/original-pit.txt \; sample-pit3 read
trevor-index/original-pit.txt \; sample-pit4 read trevor-index/original-pit.txt
\; sample-pit5 const 74.6 \; sample-pit6 const 67 \; sample-pit7 read
trevor-index/janis-pitches.txt \; sample-pit8 read trevor-index/nrad2-pitches.txt
\; sample-pit10 read trevor-index/original-pit.txt \; sample-correct
0 100 80 70 70 60 90 90 90 90 0 84;
#X obj 338 19 r reload-pvoc;
#X obj 361 227 r reload-pvoc;
#X obj 341 421 r reload-pvoc;
#X msg 287 249 \; sample-att1 read trevor-index/trevor1-attacks.txt
\; sample-att2 read trevor-index/radio-attacks.txt \; sample-att3 read
trevor-index/bear-attacks.txt \; sample-att4 read trevor-index/bash-attacks.txt
\; sample-att5 const 314 \; sample-att6 const 100 \; sample-att7 read
trevor-index/janis-attacks.txt \; sample-att8 read trevor-index/nrad2-attacks.txt
\; sample-att10 const 100 \;;
#X msg 263 41 read -maxsize 2e+06 ../sound/tv/trevor1.wav sample-snd1
\, read -maxsize 2e+06 ../sound/tv/radio-montage1.wav sample-snd2 \,
read -maxsize 2e+06 ../sound/tv/bash.snd sample-snd4 \, read -resize
trevor-index/janis.wav sample-snd7 \, read -resize trevor-index/nrad.wav
sample-snd8;
#X connect 1 0 38 0;
#X connect 2 0 39 0;
#X connect 22 0 34 0;
#X connect 35 0 39 0;
#X connect 36 0 38 0;
#X connect 37 0 34 0;
#X connect 39 0 0 0;
#X restore 497 37 pd tables-for-pvoc;
#X obj 95 274 env~ 8192;
#X obj 95 296 i;
#N canvas 252 156 485 646 outtofile 0;
#X obj 32 45 inlet~;
#X obj 50 143 dbtorms;
#X obj 32 169 *~;
#X obj 348 139 bng 15 250 50 0 empty empty empty 0 -6 0 8 -262144 -1
-1;
#X obj 351 282 metro 1000;
#X obj 355 253 tgl 15 0 empty empty empty 0 -6 0 8 -262144 -1 -1 0
1;
#X obj 351 310 f;
#X obj 380 311 + 1;
#X obj 344 164 t b b;
#X msg 182 192 open /tmp/x.wav \, start;
#X msg 388 195 stop;
#X msg 427 196 0;
#X msg 346 193 1;
#X msg 410 311 0;
#X floatatom 350 346 5 0 0 0 - - -;
#X floatatom 54 123 5 0 0 0 - - -;
#X obj 397 158 bng 15 250 50 0 empty empty empty 0 -6 0 8 -262144 -1
-1;
#X obj 33 315 writesf~;
#X obj 164 113 dbtorms;
#X obj 151 133 *~;
#X floatatom 168 93 5 0 0 0 - - -;
#X obj 152 71 catch~ zz-record;
#X obj 51 574 throw~ outz~;
#X obj 50 542 readsf~;
#X floatatom 35 420 5 0 0 0 - - -;
#X obj 50 489 makefilename /home/msp/work/guitar/rec/patterns%d.wav
;
#X obj 33 441 moses 10;
#X obj 27 466 makefilename /home/msp/work/guitar/rec/patterns0%d.wav
;
#X msg 49 517 open \$1 \, start;
#X obj 33 400 bng 15 250 50 0 empty empty empty 17 7 0 10 -262144 -1
-1;
#X msg 93 399 stop;
#X obj 44 76 s~ other-insig;
#X connect 0 0 2 0;
#X connect 0 0 31 0;
#X connect 1 0 2 1;
#X connect 2 0 17 0;
#X connect 3 0 8 0;
#X connect 4 0 6 0;
#X connect 5 0 4 0;
#X connect 6 0 7 0;
#X connect 6 0 14 0;
#X connect 7 0 6 1;
#X connect 8 0 9 0;
#X connect 8 0 12 0;
#X connect 8 1 13 0;
#X connect 9 0 17 0;
#X connect 10 0 17 0;
#X connect 11 0 5 0;
#X connect 12 0 5 0;
#X connect 13 0 6 1;
#X connect 15 0 1 0;
#X connect 16 0 10 0;
#X connect 16 0 11 0;
#X connect 18 0 19 1;
#X connect 19 0 17 0;
#X connect 20 0 18 0;
#X connect 21 0 19 0;
#X connect 23 0 22 0;
#X connect 24 0 26 0;
#X connect 25 0 28 0;
#X connect 26 0 27 0;
#X connect 26 1 25 0;
#X connect 28 0 23 0;
#X connect 29 0 24 0;
#X connect 30 0 23 0;
#X restore 208 288 pd outtofile;
#X obj 95 318 - 88;
#X obj 95 342 s big-meter;
#X obj 264 229 -~;
#X obj 235 229 -~;
#X obj 544 205 noise~;
#X obj 544 227 *~ 1e-05;
#X obj 543 250 s~ salt;
#N canvas 0 22 563 452 hann-for-normal 0;
#N canvas 0 22 450 300 (subpatch) 0;
#X array pv-hann 1024 float 0;
#X coords 0 1 1023 0 300 100 1;
#X restore 82 311 graph;
#X obj 378 165 osc~;
#X obj 378 190 *~ -0.5;
#X obj 378 214 +~ 0.5;
#X obj 38 173 /;
#X obj 127 142 samplerate~;
#X obj 177 204 swap;
#X obj 177 228 /;
#X obj 49 201 * 1000;
#X obj 38 115 t f b f;
#X msg 173 92 resize \$1;
#X msg 382 130 0;
#X obj 330 131 t f b;
#X text 15 8 calculate Hann window table (variable window size) and
constants window-hz (fundamental frequency of analysis) \, window-sec
and window-msec (analysis window size in seconds and msec).;
#X obj 331 247 tabwrite~ pv-hann;
#X obj 177 252 s pv-window-hz;
#X obj 331 105 r pv-window-hz;
#X obj 173 116 s pv-hann;
#X obj 38 251 s pv-window-sec;
#X obj 49 228 s pv-window-msec;
#X obj 37 88 r pv-window-size;
#X connect 1 0 2 0;
#X connect 2 0 3 0;
#X connect 3 0 14 0;
#X connect 4 0 8 0;
#X connect 4 0 18 0;
#X connect 5 0 4 1;
#X connect 5 0 6 1;
#X connect 6 0 7 0;
#X connect 6 1 7 1;
#X connect 7 0 15 0;
#X connect 8 0 19 0;
#X connect 9 0 4 0;
#X connect 9 0 6 0;
#X connect 9 1 5 0;
#X connect 9 2 10 0;
#X connect 10 0 17 0;
#X connect 11 0 1 1;
#X connect 12 0 1 0;
#X connect 12 1 11 0;
#X connect 12 1 14 0;
#X connect 16 0 12 0;
#X connect 20 0 9 0;
#X restore 362 46 pd hann-for-normal;
#N canvas 178 307 911 689 --output-- 0;
#X obj 688 490 t b;
#X obj 688 437 f;
#X obj 688 515 f;
#X msg 802 514 0;
#X obj 688 467 moses 1;
#X obj 802 486 t b f;
#X obj 768 447 moses 1;
#X obj 334 480 dbtorms;
#X obj 224 86 inlet~;
#X msg 378 445 \; pd dsp 1;
#X obj 334 524 line~;
#X obj 216 554 *~;
#X floatatom 335 447 3 0 100 0 dB - -;
#X obj 688 417 bng 15 250 50 0 empty empty mute -38 7 0 12 -262144
-1 -1;
#X obj 339 104 inlet~;
#X obj 269 551 *~;
#X text 674 367 MUTE logic:;
#X obj 216 525 hip~ 3;
#X obj 267 524 hip~ 3;
#X obj 335 423 r t-master-lvl;
#X obj 687 541 s t-master-lvl;
#X obj 688 392 r t-master-mute;
#X msg 410 484 set \$1;
#X obj 410 505 s t-master-lvl-set;
#X obj 768 418 r t-master-lvl;
#X obj 407 105 inlet~;
#X obj 338 209 biquad~ 0.83774 -0.06338 0.06338 -0.83774 1;
#X obj 338 188 biquad~ 1.94632 -0.94657 0.94657 -1.94632 1;
#X obj 406 230 biquad~ -0.02569 0.260502 -0.260502 0.02569 1;
#X obj 406 251 biquad~ 1.8685 -0.870686 0.870686 -1.8685 1;
#X obj 224 203 rzero_rev~ 0;
#X obj 752 231 f;
#X obj 334 503 pack 0 20;
#X obj 788 285 * 0.007;
#X obj 228 373 +~;
#X obj 264 375 -~;
#X obj 338 255 +~;
#X obj 789 232 * -0.003;
#X obj 791 257 + 1;
#X obj 227 288 *~ 1;
#X obj 397 320 *~ 0;
#X obj 227 322 +~;
#X obj 443 146 r~ salt;
#X obj 87 446 catch~ add-to-out;
#X obj 220 621 dac~ 1 3;
#X obj 293 622 dac~ 2 4;
#X obj 232 109 s~ out-to-fft;
#X obj 306 585 *~ 3;
#X obj 345 590 *~ 3;
#X obj 387 589 *~ 2;
#X obj 387 616 dac~ 5 6;
#X obj 751 187 setctl spread;
#X obj 752 210 r spread;
#X obj 102 134 catch~ outz~;
#X connect 0 0 2 0;
#X connect 1 0 4 0;
#X connect 2 0 20 0;
#X connect 3 0 20 0;
#X connect 4 0 0 0;
#X connect 4 1 5 0;
#X connect 5 0 3 0;
#X connect 6 1 2 1;
#X connect 7 0 32 0;
#X connect 8 0 46 0;
#X connect 8 0 30 0;
#X connect 10 0 11 1;
#X connect 10 0 15 1;
#X connect 11 0 44 0;
#X connect 11 0 47 0;
#X connect 11 0 49 0;
#X connect 12 0 9 0;
#X connect 12 0 22 0;
#X connect 12 0 7 0;
#X connect 13 0 1 0;
#X connect 14 0 27 0;
#X connect 15 0 45 0;
#X connect 15 0 48 0;
#X connect 15 0 49 0;
#X connect 17 0 11 0;
#X connect 18 0 15 0;
#X connect 19 0 12 0;
#X connect 21 0 13 0;
#X connect 22 0 23 0;
#X connect 24 0 1 1;
#X connect 24 0 6 0;
#X connect 25 0 28 0;
#X connect 26 0 36 0;
#X connect 27 0 26 0;
#X connect 28 0 29 0;
#X connect 29 0 36 1;
#X connect 30 0 39 0;
#X connect 31 0 33 0;
#X connect 31 0 37 0;
#X connect 32 0 10 0;
#X connect 33 0 40 1;
#X connect 34 0 17 0;
#X connect 35 0 18 0;
#X connect 36 0 40 0;
#X connect 37 0 38 0;
#X connect 38 0 39 1;
#X connect 39 0 41 0;
#X connect 40 0 34 1;
#X connect 40 0 35 1;
#X connect 41 0 34 0;
#X connect 41 0 35 0;
#X connect 42 0 27 0;
#X connect 42 0 28 0;
#X connect 43 0 17 0;
#X connect 43 0 18 0;
#X connect 47 0 44 1;
#X connect 48 0 45 1;
#X connect 49 0 50 0;
#X connect 49 0 50 1;
#X connect 52 0 31 0;
#X connect 53 0 30 0;
#X restore 212 260 pd --output--;
#N canvas 650 130 514 671 reset 0;
#X obj 37 14 r reset;
#X obj 348 485 loadbang;
#X obj 38 44 t b b b;
#X msg 348 511 \; spread 100 \; mic-in 105 \; reset bang;
#X msg 262 87 \; pmod 0 \; pharm 1 \; penv 0 \;;
#X obj 363 600 r mic-in;
#X msg 66 104 \; filterbias 19 \; octave 0 \; oddh 0 \; cf1percent
0 \; fshz 0 \; window 20 \; amp0 50 \; amp1 0 \; transpose1 0 \; amp2
0 \; transpose2 0 \; level 80 \; pvocon 0 \; pvocsamp 1 \; partials
0 \; tri 0 \; thru 45 \; h0 0 \; h1 0 \; h2 0 \; h3 0 \; h4 0 \; inter1
0 \; inter2 0 \; duty 50 \; symmetry 0 \; amp1b 0 \; squeeze 0 \; pss
0 \; amp1c 0 \; lock 0 \; amp1d 0;
#X connect 0 0 2 0;
#X connect 1 0 3 0;
#X connect 2 1 6 0;
#X connect 2 2 4 0;
#X restore 362 235 pd reset;
#N canvas 0 22 779 458 work 0;
#X floatatom 99 247 5 0 0 0 pvocspeed pvocspeed-set pvocspeed;
#X text 334 27 contextual per-string preset recall;
#X floatatom 99 264 5 0 0 0 pvoctravel pvoctravel-set pvoctravel;
#X obj 218 209 setctl pvocspeed;
#X obj 214 234 setctl pvoctravel;
#X obj 354 61 r reset;
#X floatatom 97 287 5 0 0 0 xtalk xtalk-set xtalk;
#X obj 214 261 setctl xtalk;
#X obj 317 347 f;
#X obj 285 355 f;
#X obj 716 288 bng 15 250 50 0 empty empty empty 17 7 0 10 -262144
-1 -1;
#X text 29 82 make pvoc parameters per-string;
#X text 28 66 de-click preset recall;
#X text 334 10 apps:;
#X text 28 98 improved bonk;
#X text 330 43 'grammatical' formant motion;
#X text 28 49 dynamic control of waveshaping;
#X text 29 32 string equalization to nominal amplitude;
#X text 29 14 inharmonic/percussive modulation;
#X msg 352 212 \; t-pvocon 2 \; 3-pvocon 0 \; 3-readsf open bonktest.wav
100000 \, 1;
#X obj 348 158 tgl 15 0 empty empty empty 17 7 0 10 -262144 -1 -1 0
1;
#X obj 350 181 metro 17000;
#X obj 448 137 sel 0;
#X msg 448 160 \; 3-readsf 0;
#X obj 637 12 r t-formant;
#X obj 637 90 s t-a1;
#X obj 626 114 s t-a1p;
#X msg 647 39 \; t-a1a 20 \; t-a1d 1000;
#X obj 473 351 f;
#X obj 441 359 f;
#X obj 718 248 inlet;
#X obj 625 354 f;
#X obj 593 362 f;
#X obj 625 332 r t-vcfp;
#X obj 593 391 s t-vcfq;
#X msg 661 380 \; t-vcfb 0;
#X obj 317 325 r t-ef1p;
#X obj 285 384 s t-ef1q;
#X obj 473 329 r t-ef2p;
#X obj 441 388 s t-ef2q;
#X msg 353 373 \; t-ef1b 0;
#X msg 509 377 \; t-ef2b 0;
#X obj 120 336 setctl zzframes;
#X obj 121 377 setctl zzamp;
#X floatatom 67 331 5 0 1000 0 zzframes zzframes-set zzframes;
#X floatatom 66 354 5 0 36 0 zzfret zzfret-set zzfret;
#X floatatom 67 376 5 0 120 0 zzamp zzamp-set zzamp;
#X obj 116 398 setctl zzloud;
#X floatatom 62 396 5 0 0 0 zzloud zzloud-set zzloud;
#X obj 119 356 setctl zzfret;
#X floatatom 62 419 5 0 0 0 zzsampno zzsampno-set zzsampno;
#X obj 116 421 setctl zzsampno;
#X msg 355 83 \; pvocspeed 38 \; pvoctravel 110 \; xtalk 20;
#X floatatom 8 144 5 0 100 0 - - -;
#X msg 8 165 \; all-bonks minvel \$1;
#X floatatom 183 105 5 0 100 0 - - -;
#X msg 154 164 \; all-bonks thresh \$1 \$2;
#X floatatom 228 104 5 0 100 0 - - -;
#X obj 183 142 pack;
#X obj 231 131 t b f;
#X msg 11 205 \; all-bonks print;
#X connect 5 0 52 0;
#X connect 8 0 9 1;
#X connect 9 0 40 0;
#X connect 9 0 37 0;
#X connect 10 0 9 0;
#X connect 10 0 29 0;
#X connect 10 0 32 0;
#X connect 20 0 21 0;
#X connect 20 0 22 0;
#X connect 21 0 19 0;
#X connect 22 0 23 0;
#X connect 24 0 27 0;
#X connect 24 0 25 0;
#X connect 24 0 26 0;
#X connect 28 0 29 1;
#X connect 29 0 41 0;
#X connect 29 0 39 0;
#X connect 30 0 10 0;
#X connect 31 0 32 1;
#X connect 32 0 35 0;
#X connect 32 0 34 0;
#X connect 33 0 31 0;
#X connect 36 0 8 0;
#X connect 38 0 28 0;
#X connect 53 0 54 0;
#X connect 55 0 58 0;
#X connect 57 0 59 0;
#X connect 58 0 56 0;
#X connect 59 0 58 0;
#X connect 59 1 58 1;
#X restore 550 326 pd work;
#X obj 550 307 bng 15 250 50 0 empty empty empty 17 7 0 10 -262144
-1 -1;
#X text 569 307 new-envs;
#N canvas 0 22 660 686 keys 0;
#N canvas 0 22 832 358 do-keys------------------------------------------
0;
#X obj 662 56 keyname;
#X obj 662 83 pack 0 s;
#X obj 661 110 route 1;
#X symbolatom 661 156 20 0 0 0 - - -;
#X obj 661 133 symbol;
#X obj 290 150 key;
#X obj 209 35 setctl keys-on;
#X obj 339 174 r keys-on;
#X obj 289 174 spigot;
#X floatatom 241 169 5 0 0 0 - - -;
#X obj 92 278 outlet;
#X obj 661 181 outlet;
#X obj 151 195 select 32;
#X msg 151 219 48;
#X text 200 219 alias space to 0;
#X connect 0 0 1 0;
#X connect 0 1 1 1;
#X connect 1 0 2 0;
#X connect 2 0 4 0;
#X connect 3 0 11 0;
#X connect 4 0 3 0;
#X connect 5 0 8 0;
#X connect 5 0 9 0;
#X connect 7 0 8 1;
#X connect 8 0 12 0;
#X connect 12 0 13 0;
#X connect 12 1 10 0;
#X connect 13 0 10 0;
#X restore 92 4 pd do-keys------------------------------------------
;
#N canvas 0 22 753 556 older-ideas 0;
#X obj 39 307 s reset;
#X msg 46 90 \; reset bang \; nutso 1;
#X msg 57 180 \; reset bang \; qlist-recall 40 \; auto 1;
#X msg 154 94 \; reset bang \; qlist-recall 35 \; sp02 bang;
#X text 182 159 badbass+octs;
#X text 129 417 conform;
#X msg 96 270 \; reset bang \; qlist-recall 11 \; t-mode 1;
#X msg 149 457 \; reset bang \; sp04 bang \; vocdepth 80;
#X text 161 517 sampler;
#X text 238 259 sitar;
#X msg 183 205 \; reset bang \; qlist-recall 33 \; octsplit2 bang;
#X text 219 342 funk;
#X msg 125 364 \; reset bang \; qlist-recall 13 \; conform 1;
#X msg 216 298 \; reset bang \; sp05 bang;
#X text 61 236 harm+auto-vocode;
#X text 102 328 beatbox;
#X msg 256 492 \; t-master-mute bang;
#X obj 254 473 bng 15 250 50 0 empty empty empty 17 7 0 10 -262144
-1 -1;
#X obj 216 279 bng 15 250 50 0 empty empty empty 17 7 0 10 -262144
-1 -1;
#X obj 126 345 bng 15 250 50 0 empty empty empty 17 7 0 10 -262144
-1 -1;
#X obj 150 439 bng 15 250 50 0 empty empty empty 17 7 0 10 -262144
-1 -1;
#X text 43 150 random;
#X obj 154 76 bng 15 250 50 0 empty empty empty 17 7 0 10 -262144 -1
-1;
#X obj 183 182 bng 15 250 50 0 empty empty empty 17 7 0 10 -262144
-1 -1;
#X msg 241 398 \; qlist-recall 30;
#X obj 242 374 bng 15 250 50 0 empty empty empty 17 7 0 10 -262144
-1 -1;
#X obj 21 49 select 32 49 50 51 52 53 54 55 56 57 27;
#X obj 304 87 bng 15 250 50 0 empty empty empty 17 7 0 10 -262144 -1
-1;
#N canvas 268 147 722 529 random 0;
#X obj 37 31 inlet;
#X obj 280 31 inlet;
#X obj 37 124 s qlist-recall;
#X floatatom 37 104 5 0 0 0 - - -;
#X obj 37 56 random 6;
#X obj 37 81 + 51;
#X obj 339 277 + 1;
#X obj 339 255 random 49;
#X obj 338 300 moses 43;
#X obj 400 301 + 7;
#X obj 307 160 f;
#X obj 307 108 t b b;
#X obj 341 161 + 1;
#X obj 307 136 until;
#X obj 358 110 0;
#X obj 360 135 b;
#X obj 280 53 bng 15 250 50 0 empty empty empty 17 7 0 10 -262144 -1
-1;
#X obj 342 184 moses 7;
#X obj 342 207 t b f;
#X obj 278 78 t b b;
#X obj 372 233 s qlist-recall-voice;
#X obj 479 324 pack;
#X obj 479 352 print zz;
#X obj 338 327 f;
#X obj 338 354 s qlist-recall1;
#X msg 279 206 0;
#X connect 0 0 4 0;
#X connect 1 0 16 0;
#X connect 3 0 2 0;
#X connect 4 0 5 0;
#X connect 5 0 3 0;
#X connect 6 0 8 0;
#X connect 7 0 6 0;
#X connect 8 0 23 0;
#X connect 8 1 9 0;
#X connect 9 0 23 0;
#X connect 10 0 12 0;
#X connect 11 0 13 0;
#X connect 11 1 14 0;
#X connect 12 0 10 1;
#X connect 12 0 17 0;
#X connect 13 0 10 0;
#X connect 14 0 10 1;
#X connect 15 0 13 1;
#X connect 16 0 19 0;
#X connect 17 0 18 0;
#X connect 17 1 15 0;
#X connect 18 0 7 0;
#X connect 18 1 20 0;
#X connect 18 1 21 1;
#X connect 19 0 25 0;
#X connect 19 1 11 0;
#X connect 23 0 21 0;
#X connect 23 0 24 0;
#X connect 25 0 20 0;
#X restore 304 109 pd random;
#X obj 308 47 select 122 120 99 118 98 110 111;
#X obj 329 86 bng 15 250 50 0 empty empty empty 17 7 0 10 -262144 -1
-1;
#X floatatom 89 26 5 0 0 0 - - -;
#X obj 20 285 t b b;
#X obj 20 263 bng 15 250 50 0 empty empty empty 17 7 0 10 -262144 -1
-1;
#X obj 19 337 random 43;
#X obj 19 363 + 1;
#X obj 18 405 s qlist-recall;
#X floatatom 19 385 5 0 0 0 - - -;
#X obj 303 27 select 90 88 67 86 66 78 77;
#X msg 534 208 \; geiger 1;
#X msg 594 130 \; alarm 1;
#X obj 535 186 bng 15 250 50 0 empty empty empty 17 7 0 10 -262144
-1 -1;
#X obj 624 72 bng 15 250 50 0 empty empty empty 17 7 0 10 -262144 -1
-1;
#X symbolatom 535 29 20 0 0 0 - - -;
#X obj 594 90 bng 15 250 50 0 empty empty empty 17 7 0 10 -262144 -1
-1;
#X obj 566 142 bng 15 250 50 0 empty empty empty 17 7 0 10 -262144
-1 -1;
#X msg 567 165 \; geiger 0;
#X msg 623 90 \; alarm 0;
#X obj 628 212 bng 15 250 50 0 empty empty empty 17 7 0 10 -262144
-1 -1;
#X obj 535 49 select F1 F2 F3 F4 F5;
#X obj 628 235 s reset;
#X connect 17 0 16 0;
#X connect 18 0 13 0;
#X connect 19 0 12 0;
#X connect 20 0 7 0;
#X connect 22 0 3 0;
#X connect 23 0 10 0;
#X connect 25 0 24 0;
#X connect 26 0 33 0;
#X connect 26 1 1 0;
#X connect 26 2 2 0;
#X connect 26 3 6 0;
#X connect 26 4 19 0;
#X connect 26 5 20 0;
#X connect 26 6 22 0;
#X connect 26 7 23 0;
#X connect 26 8 18 0;
#X connect 26 9 25 0;
#X connect 26 10 17 0;
#X connect 27 0 28 0;
#X connect 29 0 27 0;
#X connect 29 1 30 0;
#X connect 30 0 28 1;
#X connect 31 0 26 0;
#X connect 32 0 34 0;
#X connect 32 1 0 0;
#X connect 33 0 32 0;
#X connect 34 0 35 0;
#X connect 35 0 37 0;
#X connect 37 0 36 0;
#X connect 38 0 27 0;
#X connect 38 1 30 0;
#X connect 41 0 39 0;
#X connect 42 0 47 0;
#X connect 43 0 49 0;
#X connect 44 0 40 0;
#X connect 45 0 46 0;
#X connect 48 0 50 0;
#X connect 49 0 41 0;
#X connect 49 1 45 0;
#X connect 49 2 44 0;
#X connect 49 3 42 0;
#X connect 49 4 48 0;
#X restore 431 324 pd older-ideas;
#X obj 399 39 select F1 F2 F3 F4 F5 F6 F7 F8;
#X msg 142 595 \; reset bang \; qlist-recall 30;
#X text 258 619 1 radio;
#X text 335 416 4 scat;
#X obj 92 35 select 32 48 49 50 51 52 53 54 55 56 57;
#X text 344 311 5 f-ff;
#X msg 233 285 \; reset bang \; qlist-recall 50;
#X text 372 245 6 barf;
#X msg 251 220 \; reset bang \; qlist-recall 59;
#X text 398 187 7 badbs;
#X msg 277 148 \; reset bang \; qlist-recall 35 \; octsplit3 bang;
#X text 424 117 8 random;
#X msg 298 77 \; reset bang \; qlist-recall 20 \; nutso 1;
#X obj 24 183 r reset;
#X msg 24 258 0;
#X obj 24 211 bng 15 250 50 0 empty empty empty 17 7 0 10 -262144 -1
-1;
#X obj 28 67 moses 48;
#X obj 40 99 moses 58;
#X msg 42 132 stop;
#X obj 5 135 - 48;
#X obj 4 291 s key-fback;
#X obj 24 237 del 1;
#X obj 20 25 t f f;
#X msg 405 358 \; reset bang \; qlist-recall 40 \; auto 1;
#X text 535 528 conform;
#X msg 407 494 \; reset bang \; qlist-recall 13 \; conform 1;
#X text 531 393 paper+auto-vocode;
#X text 277 544 2 mutron+beatbox;
#X msg 434 228 \; reset bang \; qlist-recall 30 \; conform 1;
#X text 563 265 9 radio+conform;
#X text 554 640 3 sitar;
#X msg 435 606 \; reset bang \; qlist-recall 33 \; octsplit2 bang;
#X text 309 470 3 paper+auto-vocode;
#X msg 211 373 \; reset bang \; qlist-recall 67 \; scatsinger 1;
#X msg 58 389 \; reset bang \; qlist-recall 5;
#X text 69 370 0 fawnk;
#X msg 188 447 \; reset bang \; qlist-recall 12 \; auto 1 \; t-fftout
85;
#X msg 165 519 \; reset bang \; qlist-recall 6 \; t-bash 73 \; t-mode
1;
#X connect 0 0 6 0;
#X connect 0 0 24 0;
#X connect 0 1 2 0;
#X connect 6 1 36 0;
#X connect 6 2 3 0;
#X connect 6 3 39 0;
#X connect 6 4 38 0;
#X connect 6 5 35 0;
#X connect 6 6 8 0;
#X connect 6 7 10 0;
#X connect 6 8 12 0;
#X connect 6 9 14 0;
#X connect 6 10 30 0;
#X connect 15 0 17 0;
#X connect 16 0 22 0;
#X connect 17 0 23 0;
#X connect 18 1 19 0;
#X connect 19 0 20 0;
#X connect 19 0 21 0;
#X connect 20 0 23 0;
#X connect 21 0 22 0;
#X connect 23 0 16 0;
#X connect 24 0 18 0;
#X connect 24 1 6 0;
#X restore 362 254 pd keys;
#X obj 28 469 declare -path lib -path ../lib;
#N canvas 0 22 448 298 vibro 0;
#X obj 90 53 metro 200;
#X obj 58 103 del 100;
#X obj 95 32 tgl 15 0 empty empty empty 17 7 0 10 -262144 -1 -1 0 1
;
#X msg 120 79 \; t-transpose1 20 100;
#X msg 101 144 \; t-transpose1 -20 100;
#X connect 0 0 3 0;
#X connect 0 0 1 0;
#X connect 1 0 4 0;
#X connect 2 0 0 0;
#X restore 362 295 pd vibro;
#N canvas 0 22 824 421 read-and-write-test-soundfile 0;
#X obj 90 110 metro 2000;
#X obj 90 89 tgl 15 0 empty empty empty 17 7 0 10 -262144 -1 -1 0 1
;
#X floatatom 157 88 5 0 0 0 - - -;
#X obj 91 146 symbol;
#X symbolatom 377 251 60 0 0 0 - - -;
#X msg 389 78 test/4note.wav;
#X obj 377 229 symbol;
#X obj 376 25 openpanel;
#X msg 397 100 /home/msp/pd/doc/sound/bell.aiff;
#X msg 399 124 /home/msp/pd/doc/sound/voice.wav;
#X msg 403 152 /home/msp/pd/doc/sound/voice2.wav;
#X msg 85 289 0 \, open \$1;
#X obj 175 229 t b;
#X obj 174 261 del 100;
#X msg 176 288 1;
#X obj 84 338 s 3-readsf;
#X obj 376 4 bng 15 250 50 0 empty empty empty 17 7 0 10 -262144 -1
-1;
#X obj 389 55 loadbang;
#X obj 157 66 * 10;
#X floatatom 156 48 5 20 1000 0 - - -;
#X obj 155 6 loadbang;
#X msg 154 28 200;
#X obj 49 128 bng 15 250 50 0 empty empty empty 17 7 0 10 -262144 -1
-1;
#X msg 411 188 /home/msp/pd/patch/extern/bonk/x1-dstring.wav;
#X obj 308 342 r 3-attack;
#X obj 310 373 bng 15 250 50 0 empty empty empty 17 7 0 10 -262144
-1 -1;
#X obj 566 316 tabwrite~ test;
#X obj 566 293 bng 15 250 50 0 empty empty empty 0 -6 0 8 -262144 -1
-1;
#X msg 561 373 write test.wav test;
#X obj 561 398 soundfiler;
#X obj 603 290 adc~ 5;
#X obj 566 344 table test 441000;
#X obj 426 328 r 3-attack;
#X obj 430 358 spigot;
#X obj 491 368 tgl 15 0 empty empty empty 17 7 0 10 -262144 -1 -1 0
1;
#X msg 433 382 0;
#X connect 0 0 3 0;
#X connect 1 0 0 0;
#X connect 2 0 0 1;
#X connect 3 0 12 0;
#X connect 3 0 11 0;
#X connect 4 0 3 1;
#X connect 5 0 6 0;
#X connect 6 0 4 0;
#X connect 7 0 6 0;
#X connect 8 0 6 0;
#X connect 9 0 6 0;
#X connect 10 0 6 0;
#X connect 11 0 15 0;
#X connect 12 0 13 0;
#X connect 13 0 14 0;
#X connect 14 0 15 0;
#X connect 16 0 7 0;
#X connect 17 0 5 0;
#X connect 18 0 2 0;
#X connect 19 0 18 0;
#X connect 20 0 21 0;
#X connect 21 0 19 0;
#X connect 22 0 3 0;
#X connect 23 0 6 0;
#X connect 24 0 25 0;
#X connect 27 0 26 0;
#X connect 28 0 29 0;
#X connect 30 0 26 0;
#X connect 32 0 33 0;
#X connect 33 0 27 0;
#X connect 33 0 35 0;
#X connect 34 0 33 1;
#X connect 35 0 34 0;
#X restore 362 274 pd read-and-write-test-soundfile;
#N canvas 0 22 621 533 testtone-out 0;
#X obj 266 323 tgl 15 0 empty empty empty 17 7 0 10 -262144 -1 -1 0
1;
#X obj 274 365 *;
#X floatatom 292 284 5 0 100 0 - - -;
#X obj 291 306 dbtorms;
#X obj 290 326 t b f;
#X obj 256 412 *~;
#X obj 251 446 dac~;
#X obj 149 172 adc~ 1;
#X obj 34 127 osc~ 440;
#X floatatom 34 110 5 0 0 0 - - -;
#X obj 33 91 mtof;
#X floatatom 33 74 5 0 0 0 - - -;
#X obj 33 170 +~ 0.1;
#X obj 33 195 cos~;
#X obj 34 148 *~ 2;
#X obj 36 216 *~ 0;
#X obj 87 170 tgl 15 0 empty empty empty 17 7 0 10 -262144 -1 -1 0
1;
#X obj 80 193 * 0.1;
#X obj 208 194 tgl 15 0 empty empty empty 17 7 0 10 -262144 -1 -1 0
1;
#X obj 148 199 *~ 0;
#X obj 173 93 tgl 15 0 empty empty empty 17 7 0 10 -262144 -1 -1 0
1;
#X obj 173 119 s 1-ttone;
#X obj 242 94 tgl 15 0 empty empty empty 17 7 0 10 -262144 -1 -1 0
1;
#X obj 242 120 s 2-ttone;
#X obj 51 283 +~;
#X obj 35 427 s~ test-in-string;
#X obj 307 93 tgl 15 0 empty empty empty 17 7 0 10 -262144 -1 -1 0
1;
#X obj 376 94 tgl 15 0 empty empty empty 17 7 0 10 -262144 -1 -1 0
1;
#X obj 444 94 tgl 15 0 empty empty empty 17 7 0 10 -262144 -1 -1 0
1;
#X obj 513 95 tgl 15 0 empty empty empty 17 7 0 10 -262144 -1 -1 0
1;
#X obj 307 119 s 3-ttone;
#X obj 376 120 s 4-ttone;
#X obj 445 120 s 5-ttone;
#X obj 513 121 s 6-ttone;
#X msg 137 26 76;
#X msg 153 46 1;
#X msg 80 29 52;
#X msg 96 51 1;
#X msg 123 51 0;
#X msg 185 46 0;
#N canvas 408 301 558 370 in-table 0;
#X obj 94 45 route stop;
#X obj 161 78 list;
#X obj 92 19 inlet;
#X obj 162 106 unpack s 0;
#X obj 160 157 soundfiler;
#N canvas 0 22 450 300 (subpatch) 0;
#X array input-tab 188269 float 2;
#X coords 0 1 188269 -1 200 140 1;
#X restore 270 212 graph;
#X obj 67 235 tgl 15 0 empty empty empty 17 7 0 10 -262144 -1 -1 0
1;
#X msg 67 208 0;
#X msg 101 210 1;
#X obj 63 263 metro;
#X floatatom 134 255 5 0 0 0 - - -;
#X obj 62 290 tabplay~ input-tab;
#X obj 63 319 outlet~;
#X msg 16 274 stop;
#X msg 160 134 read -resize lib/\$1 input-tab;
#X obj 147 199 t b f;
#X connect 0 0 7 0;
#X connect 0 0 13 0;
#X connect 0 1 1 0;
#X connect 1 0 3 0;
#X connect 2 0 0 0;
#X connect 3 0 14 0;
#X connect 3 1 15 0;
#X connect 6 0 9 0;
#X connect 7 0 6 0;
#X connect 8 0 6 0;
#X connect 9 0 11 0;
#X connect 10 0 9 1;
#X connect 11 0 12 0;
#X connect 13 0 11 0;
#X connect 14 0 4 0;
#X connect 15 0 8 0;
#X connect 15 1 10 0;
#X restore 470 233 pd in-table;
#X msg 471 203 stop;
#X msg 367 177 x1.wav 3800;
#X msg 375 203 x2.wav 2000;
#X obj 37 247 +~;
#X connect 0 0 1 0;
#X connect 1 0 5 1;
#X connect 2 0 3 0;
#X connect 3 0 4 0;
#X connect 4 0 1 0;
#X connect 4 1 1 1;
#X connect 5 0 6 0;
#X connect 5 0 6 1;
#X connect 7 0 19 0;
#X connect 8 0 14 0;
#X connect 9 0 8 0;
#X connect 10 0 9 0;
#X connect 11 0 10 0;
#X connect 12 0 13 0;
#X connect 13 0 15 0;
#X connect 14 0 12 0;
#X connect 15 0 44 0;
#X connect 16 0 17 0;
#X connect 17 0 15 1;
#X connect 18 0 19 1;
#X connect 19 0 24 1;
#X connect 20 0 21 0;
#X connect 22 0 23 0;
#X connect 24 0 5 0;
#X connect 24 0 25 0;
#X connect 26 0 30 0;
#X connect 27 0 31 0;
#X connect 28 0 32 0;
#X connect 29 0 33 0;
#X connect 34 0 11 0;
#X connect 34 0 35 0;
#X connect 34 0 39 0;
#X connect 35 0 29 0;
#X connect 36 0 37 0;
#X connect 36 0 11 0;
#X connect 36 0 38 0;
#X connect 37 0 20 0;
#X connect 38 0 29 0;
#X connect 39 0 20 0;
#X connect 40 0 44 1;
#X connect 41 0 40 0;
#X connect 42 0 40 0;
#X connect 43 0 40 0;
#X connect 44 0 24 0;
#X restore 363 70 pd testtone-out;
#N canvas 0 22 448 298 scatsinger 0;
#X obj 64 39 r reset;
#X msg 65 60 \; scatsinger 0;
#X obj 177 39 setctl scatsinger;
#X connect 0 0 1 0;
#X restore 363 317 pd scatsinger;
#N canvas 0 22 540 271 see-pit-amp 0;
#X obj 35 7 tgl 15 0 empty empty empty 17 7 0 10 -262144 -1 -1 0 1
;
#X obj 24 48 r 1-avg-amp;
#X floatatom 24 72 7 0 0 0 - - -;
#X floatatom 108 72 7 0 0 0 - - -;
#X obj 108 48 r 2-avg-amp;
#X floatatom 192 72 7 0 0 0 - - -;
#X floatatom 276 72 7 0 0 0 - - -;
#X floatatom 362 73 7 0 0 0 - - -;
#X floatatom 445 73 7 0 0 0 - - -;
#X obj 192 48 r 3-avg-amp;
#X obj 276 48 r 4-avg-amp;
#X obj 362 49 r 5-avg-amp;
#X obj 445 49 r 6-avg-amp;
#X obj 35 28 s calc-avg-amp;
#X obj 33 128 r 1-tune;
#X floatatom 33 152 7 0 0 0 - - -;
#X floatatom 98 152 7 0 0 0 - - -;
#X floatatom 161 152 7 0 0 0 - - -;
#X floatatom 226 152 7 0 0 0 - - -;
#X floatatom 290 153 7 0 0 0 - - -;
#X floatatom 355 153 7 0 0 0 - - -;
#X obj 98 128 r 2-tune;
#X obj 161 128 r 3-tune;
#X obj 226 128 r 4-tune;
#X obj 290 129 r 5-tune;
#X obj 355 129 r 6-tune;
#X connect 0 0 13 0;
#X connect 1 0 2 0;
#X connect 4 0 3 0;
#X connect 9 0 5 0;
#X connect 10 0 6 0;
#X connect 11 0 7 0;
#X connect 12 0 8 0;
#X connect 14 0 15 0;
#X connect 21 0 16 0;
#X connect 22 0 17 0;
#X connect 23 0 18 0;
#X connect 24 0 19 0;
#X connect 25 0 20 0;
#X restore 363 91 pd see-pit-amp;
#N canvas 0 22 853 323 preset-rebalance 0;
#X floatatom 32 149 5 0 0 0 - - -;
#X obj 81 138 f;
#X obj 81 197 +;
#X obj 30 89 bng 15 250 50 0 empty empty empty 17 7 0 10 -262144 -1
-1;
#X obj 769 138 f;
#X obj 769 197 +;
#X obj 787 76 r t-thru;
#X obj 724 76 r t-tri;
#X obj 706 138 f;
#X obj 706 197 +;
#X obj 202 138 f;
#X obj 202 197 +;
#X obj 264 138 f;
#X obj 264 197 +;
#X obj 326 138 f;
#X obj 326 197 +;
#X obj 220 76 r t-h2;
#X obj 282 76 r t-h3;
#X obj 344 76 r t-h4;
#X obj 388 138 f;
#X obj 388 197 +;
#X obj 406 76 r t-a1;
#X obj 450 138 f;
#X obj 450 197 +;
#X obj 468 76 r t-a1p;
#X obj 512 138 f;
#X obj 512 197 +;
#X obj 574 138 f;
#X obj 574 197 +;
#X obj 530 76 r t-a2;
#X obj 592 76 r t-a2p;
#X obj 641 138 f;
#X obj 641 197 +;
#X obj 659 76 r t-voz;
#X msg 81 248 0;
#X obj 769 277 s t-thru;
#X obj 706 277 s t-tri;
#X obj 202 277 s t-h2;
#X obj 264 277 s t-h3;
#X obj 326 277 s t-h4;
#X obj 388 277 s t-a1;
#X obj 450 277 s t-a1p;
#X obj 512 277 s t-a2;
#X obj 574 277 s t-a2p;
#X obj 641 277 s t-voz;
#X msg 202 248 0;
#X msg 264 248 0;
#X msg 326 248 0;
#X msg 388 248 0;
#X msg 450 248 0;
#X msg 512 248 0;
#X msg 574 248 0;
#X msg 641 248 0;
#X msg 706 248 0;
#X msg 769 248 0;
#X msg 57 33 -1;
#X msg 22 32 1;
#X obj 22 59 t b f;
#X obj 140 138 f;
#X obj 140 197 +;
#X obj 158 76 r t-h1;
#X obj 140 277 s t-h1;
#X msg 140 248 0;
#X obj 99 76 r t-h0;
#X obj 81 277 s t-h0;
#X obj 81 222 moses 5;
#X obj 140 222 moses 5;
#X obj 202 222 moses 5;
#X obj 264 222 moses 5;
#X obj 326 222 moses 5;
#X obj 388 222 moses 5;
#X obj 450 222 moses 5;
#X obj 512 222 moses 5;
#X obj 574 222 moses 5;
#X obj 641 222 moses 5;
#X obj 706 222 moses 5;
#X obj 769 222 moses 5;
#X connect 0 0 2 1;
#X connect 0 0 11 1;
#X connect 0 0 13 1;
#X connect 0 0 15 1;
#X connect 0 0 20 1;
#X connect 0 0 23 1;
#X connect 0 0 26 1;
#X connect 0 0 28 1;
#X connect 0 0 32 1;
#X connect 0 0 9 1;
#X connect 0 0 5 1;
#X connect 1 0 2 0;
#X connect 2 0 65 0;
#X connect 3 0 1 0;
#X connect 3 0 10 0;
#X connect 3 0 12 0;
#X connect 3 0 14 0;
#X connect 3 0 19 0;
#X connect 3 0 22 0;
#X connect 3 0 25 0;
#X connect 3 0 27 0;
#X connect 3 0 31 0;
#X connect 3 0 8 0;
#X connect 3 0 4 0;
#X connect 4 0 5 0;
#X connect 5 0 76 0;
#X connect 6 0 4 1;
#X connect 7 0 8 1;
#X connect 8 0 9 0;
#X connect 9 0 75 0;
#X connect 10 0 11 0;
#X connect 11 0 67 0;
#X connect 12 0 13 0;
#X connect 13 0 68 0;
#X connect 14 0 15 0;
#X connect 15 0 69 0;
#X connect 16 0 10 1;
#X connect 17 0 12 1;
#X connect 18 0 14 1;
#X connect 19 0 20 0;
#X connect 20 0 70 0;
#X connect 21 0 19 1;
#X connect 22 0 23 0;
#X connect 23 0 71 0;
#X connect 24 0 22 1;
#X connect 25 0 26 0;
#X connect 26 0 72 0;
#X connect 27 0 28 0;
#X connect 28 0 73 0;
#X connect 29 0 25 1;
#X connect 30 0 27 1;
#X connect 31 0 32 0;
#X connect 32 0 74 0;
#X connect 33 0 31 1;
#X connect 34 0 64 0;
#X connect 45 0 37 0;
#X connect 46 0 38 0;
#X connect 47 0 39 0;
#X connect 48 0 40 0;
#X connect 49 0 41 0;
#X connect 50 0 42 0;
#X connect 51 0 43 0;
#X connect 52 0 44 0;
#X connect 53 0 36 0;
#X connect 54 0 35 0;
#X connect 55 0 57 0;
#X connect 56 0 57 0;
#X connect 57 0 3 0;
#X connect 57 1 0 0;
#X connect 58 0 59 0;
#X connect 59 0 66 0;
#X connect 60 0 58 1;
#X connect 62 0 61 0;
#X connect 63 0 1 1;
#X connect 65 0 34 0;
#X connect 65 1 64 0;
#X connect 66 0 62 0;
#X connect 66 1 61 0;
#X connect 67 0 45 0;
#X connect 67 1 37 0;
#X connect 68 0 46 0;
#X connect 68 1 38 0;
#X connect 69 0 47 0;
#X connect 69 1 39 0;
#X connect 70 0 48 0;
#X connect 70 1 40 0;
#X connect 71 0 49 0;
#X connect 71 1 41 0;
#X connect 72 0 50 0;
#X connect 72 1 42 0;
#X connect 73 0 51 0;
#X connect 73 1 43 0;
#X connect 74 0 52 0;
#X connect 74 1 44 0;
#X connect 75 0 53 0;
#X connect 75 1 36 0;
#X connect 76 0 54 0;
#X connect 76 1 35 0;
#X restore 362 407 pd preset-rebalance;
#N canvas 291 119 385 313 adc 0;
#X obj 50 258 outlet~;
#X obj 18 43 adc~ 1;
#X obj 17 71 s~ adc-ch1;
#X obj 98 71 s~ adc-ch2;
#X obj 99 43 adc~ 2;
#X obj 180 43 adc~ 3;
#X obj 180 71 s~ adc-ch3;
#X obj 261 43 adc~ 4;
#X obj 260 71 s~ adc-ch4;
#X obj 17 108 adc~ 5;
#X obj 16 136 s~ adc-ch5;
#X obj 98 108 adc~ 6;
#X obj 97 136 s~ adc-ch6;
#X obj 179 108 adc~ 7;
#X obj 178 136 s~ adc-ch7;
#X obj 260 108 adc~ 8;
#X obj 259 136 s~ adc-ch8;
#X connect 1 0 2 0;
#X connect 4 0 3 0;
#X connect 5 0 6 0;
#X connect 7 0 8 0;
#X connect 9 0 10 0;
#X connect 11 0 12 0;
#X connect 13 0 14 0;
#X connect 15 0 16 0;
#X restore 18 24 pd adc;
#N canvas 0 22 578 310 make-paf-tab 0;
#X obj 192 41 bng 15 250 50 0 empty empty empty 17 7 0 10 -262144 -1
-1;
#X obj 191 64 t b b;
#X obj 192 92 until;
#X obj 208 125 f;
#X obj 238 127 + 1;
#X obj 207 153 moses 203;
#X obj 275 117 b;
#X obj 262 90 0;
#X obj 206 183 t f f;
#X obj 130 266 tabwrite paf-tab;
#X obj 88 237 expr 1/(1+$f1*$f1);
#X obj 431 20 loadbang;
#X text 92 175 Cauchy;
#X obj 431 47 bng 15 250 50 0 empty empty empty 17 7 0 10 -262144 -1
-1;
#X obj 430 70 t b b;
#X obj 431 98 until;
#X obj 447 131 f;
#X obj 477 133 + 1;
#X obj 514 123 b;
#X obj 501 96 0;
#X obj 445 189 t f f;
#X obj 369 272 tabwrite paf-tab;
#X text 334 186 Gauss;
#X obj 327 243 expr exp(-$f1*$f1);
#X obj 10 13 table paf-tab 403;
#X obj 88 209 expr ($f1-201)/40;
#X obj 327 215 expr ($f1-201)/40;
#X obj 446 159 moses 403;
#X connect 0 0 1 0;
#X connect 1 0 2 0;
#X connect 1 1 7 0;
#X connect 2 0 3 0;
#X connect 3 0 4 0;
#X connect 3 0 5 0;
#X connect 4 0 3 1;
#X connect 5 0 8 0;
#X connect 5 1 6 0;
#X connect 6 0 2 1;
#X connect 7 0 3 1;
#X connect 8 0 25 0;
#X connect 8 1 9 1;
#X connect 10 0 9 0;
#X connect 11 0 13 0;
#X connect 13 0 14 0;
#X connect 14 0 15 0;
#X connect 14 1 19 0;
#X connect 15 0 16 0;
#X connect 16 0 17 0;
#X connect 16 0 27 0;
#X connect 17 0 16 1;
#X connect 18 0 15 1;
#X connect 19 0 16 1;
#X connect 20 0 26 0;
#X connect 20 1 21 1;
#X connect 23 0 21 0;
#X connect 25 0 10 0;
#X connect 26 0 23 0;
#X connect 27 0 20 0;
#X connect 27 1 18 0;
#X restore 364 355 pd make-paf-tab;
#N canvas 0 22 727 176 test-dynamics 0;
#X obj 75 92 s z-amp0;
#X floatatom 75 69 5 0 100 0 - - -;
#X floatatom 151 70 5 0 100 0 - - -;
#X obj 151 95 s z-range;
#X obj 92 3 loadbang;
#X msg 86 41 100;
#X floatatom 231 72 5 0 100 0 - - -;
#X obj 231 97 s z-clip;
#X msg 233 42 100;
#X msg 153 40 12;
#X floatatom 325 72 5 0 100 0 - - -;
#X msg 327 42 0;
#X obj 598 74 setctl z-origpit;
#X floatatom 657 115 7 0 10000 0 z-origpit z-origpit-set z-origpit
;
#X floatatom 492 82 5 0 100 0 - - -;
#X msg 494 52 0;
#X obj 325 97 s z-paf;
#X floatatom 402 79 5 0 100 0 - - -;
#X obj 402 104 s z-pharm;
#X msg 404 49 1;
#X obj 492 107 s z-penv;
#X connect 1 0 0 0;
#X connect 2 0 3 0;
#X connect 4 0 5 0;
#X connect 4 0 9 0;
#X connect 4 0 8 0;
#X connect 5 0 1 0;
#X connect 6 0 7 0;
#X connect 8 0 6 0;
#X connect 9 0 2 0;
#X connect 10 0 16 0;
#X connect 11 0 10 0;
#X connect 14 0 20 0;
#X connect 15 0 14 0;
#X connect 17 0 18 0;
#X connect 19 0 17 0;
#X restore 364 381 pd test-dynamics;
#X obj 531 427 setctl tunex;
#X msg 271 461 \; pd-string.pd loadbang;
#X obj 444 181 list;
#X obj 444 157 r t-param;
#X obj 445 206 pack s 0;
#X msg 446 229 \; t-\$1 \$2;
#N canvas 66 620 448 298 locale 0;
#X obj 21 66 loadbang;
#X obj 21 92 del 10;
#X obj 19 143 qlist;
#X text 39 29 delayed so that this happens after "mormal" loadbangs.
;
#X msg 20 117 read locale.txt cr \, bang;
#X obj 271 90 r #;
#X obj 272 120 r chnl-mic;
#X obj 269 152 r trim-mic;
#X connect 0 0 1 0;
#X connect 1 0 4 0;
#X connect 4 0 2 0;
#X restore 501 14 pd locale;
#N canvas 0 22 448 298 metro500 0;
#X obj 120 24 loadbang;
#X obj 122 49 bng 15 250 50 0 empty empty empty 17 7 0 10 -262144 -1
-1;
#X obj 119 70 metro 500;
#X obj 120 98 s metro500;
#X connect 0 0 1 0;
#X connect 1 0 2 0;
#X connect 2 0 3 0;
#X restore 495 81 pd metro500;
#N canvas 424 260 765 759 windows-for-fft-pshift 0;
#X obj 92 206 phasor~;
#X obj 64 359 cos~;
#X msg 37 180 0;
#N canvas 0 22 450 300 (subpatch) 0;
#X array pshift-anal-wind 2048 float 2;
#X coords 0 1 2048 -1 400 150 1;
#X restore 281 237 graph;
#X obj 93 171 sig~;
#X text 124 136 sample rate / window size;
#X msg 24 140 bang;
#X obj 94 80 samplerate~;
#X obj 25 53 t b f;
#X obj 93 132 /;
#X obj 368 28 loadbang;
#X obj 369 78 samplerate~;
#X obj 369 102 s sample-rate;
#X obj 369 52 bng 15 250 50 0 empty empty empty 0 -6 0 8 -262144 -1
-1;
#X obj 375 159 loadbang;
#N canvas 0 22 450 300 (subpatch) 0;
#X array pshift-resynth-wind 2048 float 2;
#X coords 0 1 2048 -1 400 150 1;
#X restore 278 426 graph;
#X obj 92 225 *~ 0.5;
#X obj 92 248 -~ 0.25;
#X obj 156 232 *~ 2;
#X obj 157 281 cos~;
#X obj 64 400 tabwrite~ pshift-anal-wind;
#X obj 35 462 tabwrite~ pshift-resynth-wind;
#X obj 25 23 r pshift-window-size;
#X msg 376 183 \; pshift-window-size 2048;
#X obj 156 255 clip~ 0 1;
#X obj 154 307 *~ -0.5;
#X obj 155 334 +~ 0.5;
#X connect 0 0 16 0;
#X connect 0 0 18 0;
#X connect 1 0 20 0;
#X connect 2 0 0 1;
#X connect 4 0 0 0;
#X connect 6 0 2 0;
#X connect 6 0 20 0;
#X connect 6 0 21 0;
#X connect 7 0 9 0;
#X connect 8 0 7 0;
#X connect 8 0 6 0;
#X connect 8 1 9 1;
#X connect 9 0 4 0;
#X connect 10 0 13 0;
#X connect 11 0 12 0;
#X connect 13 0 11 0;
#X connect 14 0 23 0;
#X connect 16 0 17 0;
#X connect 17 0 1 0;
#X connect 18 0 24 0;
#X connect 19 0 25 0;
#X connect 22 0 8 0;
#X connect 24 0 19 0;
#X connect 25 0 26 0;
#X connect 26 0 21 0;
#X restore 377 119 pd windows-for-fft-pshift;
#X obj 19 52 string 1 3 2048 40 0 1 2;
#X obj 19 162 string 6 8 1024 64 0 5 6;
#X obj 19 74 string 2 4 2048 45 0 1 3;
#X obj 19 96 string 3 5 1024 50 0 2 4;
#X obj 19 118 string 4 6 1024 55 0 3 5;
#X obj 19 140 string 5 7 1024 59 0 4 6;
#X connect 4 0 5 0;
#X connect 5 0 7 0;
#X connect 7 0 8 0;
#X connect 9 0 15 2;
#X connect 10 0 15 1;
#X connect 11 0 12 0;
#X connect 12 0 13 0;
#X connect 18 0 17 0;
#X connect 28 0 40 0;
#X connect 33 0 35 0;
#X connect 34 0 33 0;
#X connect 35 0 36 0;
#X connect 40 0 42 0;
#X connect 40 1 9 0;
#X connect 41 0 4 0;
#X connect 41 0 6 0;
#X connect 41 0 15 0;
#X connect 41 1 10 0;
#X connect 42 0 43 0;
#X connect 42 1 10 0;
#X connect 43 0 44 0;
#X connect 43 1 9 1;
#X connect 44 0 45 0;
#X connect 44 1 10 1;
#X connect 45 0 41 0;
#X connect 45 1 9 0;
#X restore 625 83 pd audio;
#X obj 26 47 bng 15 250 50 0 1-qlist-recall empty 1 -10 8 0 10 -262144
-1 -1;
#X obj 26 64 bng 15 250 50 0 2-qlist-recall empty 2 -10 8 0 10 -262144
-1 -1;
#X obj 26 81 bng 15 250 50 0 3-qlist-recall empty 3 -10 8 0 10 -262144
-1 -1;
#X obj 26 98 bng 15 250 50 0 4-qlist-recall empty 4 -10 8 0 10 -262144
-1 -1;
#X obj 26 115 bng 15 250 50 0 5-qlist-recall empty 5 -10 8 0 10 -262144
-1 -1;
#X obj 26 132 bng 15 250 50 0 6-qlist-recall empty 6 -10 8 0 10 -262144
-1 -1;
#X obj 26 149 bng 15 250 50 0 7-qlist-recall empty 7 -10 8 0 10 -262144
-1 -1;
#X obj 26 166 bng 15 250 50 0 8-qlist-recall empty 8 -10 8 0 10 -262144
-1 -1;
#X obj 26 183 bng 15 250 50 0 9-qlist-recall empty 9 -10 8 0 10 -262144
-1 -1;
#X obj 26 200 bng 15 250 50 0 10-qlist-recall empty 10 -18 8 0 10 -262144
-1 -1;
#X obj 124 47 bng 15 250 50 0 11-qlist-recall empty 11 -18 8 0 10 -262144
-1 -1;
#X obj 124 64 bng 15 250 50 0 12-qlist-recall empty 12 -18 8 0 10 -262144
-1 -1;
#X obj 124 81 bng 15 250 50 0 13-qlist-recall empty 13 -18 8 0 10 -262144
-1 -1;
#X obj 124 98 bng 15 250 50 0 14-qlist-recall empty 14 -18 8 0 10 -262144
-1 -1;
#X obj 124 115 bng 15 250 50 0 15-qlist-recall empty 15 -18 8 0 10
-262144 -1 -1;
#X obj 124 132 bng 15 250 50 0 16-qlist-recall empty 16 -18 8 0 10
-262144 -1 -1;
#X obj 124 149 bng 15 250 50 0 17-qlist-recall empty 17 -18 8 0 10
-262144 -1 -1;
#X obj 124 166 bng 15 250 50 0 18-qlist-recall empty 18 -18 8 0 10
-262144 -1 -1;
#X obj 124 183 bng 15 250 50 0 19-qlist-recall empty 19 -18 8 0 10
-262144 -1 -1;
#X obj 124 200 bng 15 250 50 0 20-qlist-recall empty 20 -18 8 0 10
-262144 -1 -1;
#X obj 214 47 bng 15 250 50 0 21-qlist-recall empty 21 -18 8 0 10 -262144
-1 -1;
#X obj 214 64 bng 15 250 50 0 22-qlist-recall empty 22 -18 8 0 10 -262144
-1 -1;
#X obj 214 81 bng 15 250 50 0 23-qlist-recall empty 23 -18 8 0 10 -262144
-1 -1;
#X obj 214 98 bng 15 250 50 0 24-qlist-recall empty 24 -18 8 0 10 -262144
-1 -1;
#X obj 214 115 bng 15 250 50 0 25-qlist-recall empty 25 -18 8 0 10
-262144 -1 -1;
#X obj 214 132 bng 15 250 50 0 26-qlist-recall empty 26 -18 8 0 10
-262144 -1 -1;
#X obj 214 149 bng 15 250 50 0 27-qlist-recall empty 27 -18 8 0 10
-262144 -1 -1;
#X obj 214 166 bng 15 250 50 0 28-qlist-recall empty 28 -18 8 0 10
-262144 -1 -1;
#X obj 214 183 bng 15 250 50 0 29-qlist-recall empty 29 -18 8 0 10
-262144 -1 -1;
#X obj 214 200 bng 15 250 50 0 30-qlist-recall empty 30 -18 8 0 10
-262144 -1 -1;
#X obj 303 47 bng 15 250 50 0 31-qlist-recall empty 31 -18 8 0 10 -262144
-1 -1;
#X obj 303 64 bng 15 250 50 0 32-qlist-recall empty 32 -18 8 0 10 -262144
-1 -1;
#X obj 303 81 bng 15 250 50 0 33-qlist-recall empty 33 -18 8 0 10 -262144
-1 -1;
#X obj 303 98 bng 15 250 50 0 34-qlist-recall empty 34 -18 8 0 10 -262144
-1 -1;
#X obj 303 115 bng 15 250 50 0 35-qlist-recall empty 35 -18 8 0 10
-262144 -1 -1;
#X obj 303 132 bng 15 250 50 0 36-qlist-recall empty 36 -18 8 0 10
-262144 -1 -1;
#X obj 303 149 bng 15 250 50 0 37-qlist-recall empty 37 -18 8 0 10
-262144 -1 -1;
#X obj 303 166 bng 15 250 50 0 38-qlist-recall empty 38 -18 8 0 10
-262144 -1 -1;
#X obj 303 183 bng 15 250 50 0 39-qlist-recall empty 39 -18 8 0 10
-262144 -1 -1;
#X obj 303 200 bng 15 250 50 0 40-qlist-recall empty 40 -18 8 0 10
-262144 -1 -1;
#X floatatom 637 385 3 0 120 0 master t-master-lvl-set t-master-lvl
;
#X obj 665 385 bng 15 250 50 0 t-master-mute empty empty -10 8 0 10
-262144 -1 -1;
#X obj 666 241 vu 15 120 big-meter empty -1 -8 0 8 -66577 -1 0 0;
#X obj 497 47 bng 15 250 50 0 51-qlist-recall empty 51 -18 8 0 10 -262144
-1 -1;
#X obj 497 64 bng 15 250 50 0 52-qlist-recall empty 52 -18 8 0 10 -262144
-1 -1;
#X obj 497 81 bng 15 250 50 0 53-qlist-recall empty 53 -18 8 0 10 -262144
-1 -1;
#X obj 497 98 bng 15 250 50 0 54-qlist-recall empty 54 -18 8 0 10 -262144
-1 -1;
#X obj 497 115 bng 15 250 50 0 55-qlist-recall empty 55 -18 8 0 10
-262144 -1 -1;
#X obj 497 132 bng 15 250 50 0 56-qlist-recall empty 56 -18 8 0 10
-262144 -1 -1;
#X obj 497 149 bng 15 250 50 0 57-qlist-recall empty 57 -18 8 0 10
-262144 -1 -1;
#X obj 497 166 bng 15 250 50 0 58-qlist-recall empty 58 -18 8 0 10
-262144 -1 -1;
#X obj 497 183 bng 15 250 50 0 59-qlist-recall empty 59 -18 8 0 10
-262144 -1 -1;
#X obj 497 200 bng 15 250 50 0 60-qlist-recall empty 60 -18 8 0 10
-262144 -1 -1;
#X obj 400 46 bng 15 250 50 0 41-qlist-recall empty 41 -18 8 0 10 -262144
-1 -1;
#X obj 400 63 bng 15 250 50 0 42-qlist-recall empty 42 -18 8 0 10 -262144
-1 -1;
#X obj 400 80 bng 15 250 50 0 43-qlist-recall empty 43 -18 8 0 10 -262144
-1 -1;
#X obj 400 97 bng 15 250 50 0 44-qlist-recall empty 44 -18 8 0 10 -262144
-1 -1;
#X obj 400 114 bng 15 250 50 0 45-qlist-recall empty 45 -18 8 0 10
-262144 -1 -1;
#X obj 400 131 bng 15 250 50 0 46-qlist-recall empty 46 -18 8 0 10
-262144 -1 -1;
#X obj 400 148 bng 15 250 50 0 47-qlist-recall empty 47 -18 8 0 10
-262144 -1 -1;
#X obj 400 165 bng 15 250 50 0 48-qlist-recall empty 48 -18 8 0 10
-262144 -1 -1;
#X obj 400 182 bng 15 250 50 0 49-qlist-recall empty 49 -18 8 0 10
-262144 -1 -1;
#X obj 400 199 bng 15 250 50 0 50-qlist-recall empty 50 -18 8 0 10
-262144 -1 -1;
#X floatatom 643 404 3 0 100 0 spread spread-set spread;
#X obj 26 30 bng 15 250 50 0 0-qlist-recall empty 0 -10 8 0 10 -262144
-1 -1;
#N canvas 802 624 360 146 spectrum 0;
#N canvas 610 39 811 253 graph 0;
#N canvas 0 22 450 300 (subpatch) 0;
#X array output 384 float 0;
#X coords 0 1 383 0 768 200 1;
#X restore 19 -28 graph;
#X text 33 168 |;
#X text 108 169 |;
#X text 201 169 |;
#X text 294 169 |;
#X text 386 169 |;
#X text 100 181 500;
#X text 192 181 1000;
#X text 285 181 1500;
#X text 377 181 2000;
#X text 52 168 |;
#X text 70 168 |;
#X text 89 168 |;
#X text 126 168 |;
#X text 145 168 |;
#X text 163 168 |;
#X text 182 168 |;
#X text 219 168 |;
#X text 238 168 |;
#X text 256 168 |;
#X text 275 168 |;
#X text 312 168 |;
#X text 331 168 |;
#X text 349 168 |;
#X text 368 168 |;
#X text 405 168 |;
#X text 424 168 |;
#X text 442 168 |;
#X text 461 168 |;
#X text 479 169 |;
#X text 498 168 |;
#X text 517 168 |;
#X text 535 168 |;
#X text 470 182 2500;
#X text 555 168 |;
#X text 574 169 |;
#X text 593 168 |;
#X text 612 168 |;
#X text 630 168 |;
#X text 650 168 |;
#X text 565 182 3000;
#X text 667 169 |;
#X text 686 168 |;
#X text 705 168 |;
#X text 723 168 |;
#X text 743 168 |;
#X text 658 182 3500;
#X text 760 168 |;
#X text 751 181 4000;
#X restore 270 115 pd graph;
#X obj 10 39 gain~;
#X obj 10 19 catch~ in-sum~;
#N canvas 0 22 450 300 calculate 0;
#X obj 122 92 switch~;
#X obj 122 69 tgl 15 0 empty empty empty 17 7 0 10 -262144 -1 -1 0
1;
#N canvas 587 366 607 436 hanning-window 0;
#X obj 92 206 phasor~;
#X obj 92 276 cos~;
#X obj 30 294 -~;
#X obj 28 218 sig~ 1;
#X msg 37 180 0;
#X text 148 17 CALCULATE HANNING;
#X text 148 31 WINDOW TABLE;
#N canvas 0 22 450 300 (subpatch) 0;
#X array \$0-hanning 4096 float 0;
#X coords 0 1 4095 -1 200 150 1;
#X restore 352 155 graph;
#X obj 93 131 / 1024;
#X text 146 129 sample rate / window size;
#X msg 23 144 bang;
#X obj 66 311 sig~ 0.5;
#X obj 49 342 *~;
#X obj 67 96 samplerate~;
#X obj 25 53 t b f;
#X obj 93 157 / 2;
#X obj 93 231 *~ 2;
#X obj 93 252 clip~ 0 1;
#X msg 358 61 \; output xticks 0 4.65 1;
#X obj 358 40 loadbang;
#X obj 274 299 loadbang;
#X msg 383 109 \; window-size 2048;
#X obj 23 395 tabwrite~ \$0-hanning;
#X obj 331 349 t b b;
#X msg 252 378 resize 4096;
#X obj 250 400 s \$0-hanning;
#X msg 361 374 \; s-window-size 4096;
#X obj 25 9 r s-window-size;
#X obj 330 325 bng 15 250 50 0 empty empty empty 0 -6 0 8 -262144 -1
-1;
#X connect 0 0 16 0;
#X connect 1 0 2 1;
#X connect 2 0 12 0;
#X connect 3 0 2 0;
#X connect 4 0 0 1;
#X connect 8 0 15 0;
#X connect 10 0 4 0;
#X connect 10 0 22 0;
#X connect 11 0 12 1;
#X connect 12 0 22 0;
#X connect 13 0 8 0;
#X connect 14 0 13 0;
#X connect 14 0 10 0;
#X connect 14 1 8 1;
#X connect 15 0 0 0;
#X connect 16 0 17 0;
#X connect 17 0 1 0;
#X connect 19 0 18 0;
#X connect 20 0 28 0;
#X connect 23 0 24 0;
#X connect 23 1 26 0;
#X connect 24 0 25 0;
#X connect 27 0 14 0;
#X connect 28 0 23 0;
#X restore 222 47 pd hanning-window;
#N canvas 674 177 394 369 fft 0;
#X obj 145 68 *~;
#X obj 176 68 inlet~;
#X obj 145 91 rfft~;
#X obj 182 114 *~;
#X obj 148 114 *~;
#X obj 148 137 +~;
#X obj 148 185 sqrt~;
#X obj 149 163 +~ 1e-20;
#X obj 148 280 tabwrite~ output;
#X obj 266 132 bang~;
#X obj 265 158 f;
#X obj 300 159 + 1;
#X obj 240 196 sel 0;
#X obj 300 182 mod 20;
#X obj 316 56 tgl 15 0 empty empty empty 0 -6 0 8 -262144 -1 -1 1 1
;
#X obj 323 80 sel 0 1;
#X obj 149 209 sqrt~;
#X obj 151 238 *~ 0.1;
#X obj 216 312 block~ 4096 4;
#X msg 347 117 4;
#X msg 317 115 8;
#X obj 55 18 tabreceive~ \$0-hanning;
#X obj 316 8 loadbang;
#X msg 316 33 1;
#X connect 0 0 2 0;
#X connect 1 0 0 1;
#X connect 2 0 4 0;
#X connect 2 0 4 1;
#X connect 2 1 3 0;
#X connect 2 1 3 1;
#X connect 3 0 5 1;
#X connect 4 0 5 0;
#X connect 5 0 7 0;
#X connect 6 0 16 0;
#X connect 7 0 6 0;
#X connect 9 0 10 0;
#X connect 10 0 11 0;
#X connect 10 0 12 0;
#X connect 11 0 13 0;
#X connect 12 0 8 0;
#X connect 13 0 10 1;
#X connect 14 0 15 0;
#X connect 15 0 20 0;
#X connect 15 1 19 0;
#X connect 16 0 17 0;
#X connect 17 0 8 0;
#X connect 19 0 13 1;
#X connect 20 0 13 1;
#X connect 21 0 0 0;
#X connect 22 0 23 0;
#X connect 23 0 14 0;
#X restore 21 77 pd fft;
#X obj 23 47 inlet~;
#X obj 123 49 inlet;
#X connect 1 0 0 0;
#X connect 4 0 3 0;
#X connect 5 0 1 0;
#X restore 140 122 pd calculate;
#X obj 209 80 tgl 15 0 empty empty empty 17 7 0 10 -262144 -1 -1 0
1;
#X obj 104 41 gain~;
#X obj 104 21 r~ out-to-fft;
#X obj 89 122 +~;
#X connect 1 0 7 0;
#X connect 2 0 1 0;
#X connect 4 0 3 1;
#X connect 5 0 7 1;
#X connect 6 0 5 0;
#X connect 7 0 3 0;
#X restore 625 155 pd spectrum;
#X obj 572 47 bng 15 250 50 0 61-qlist-recall empty 61 -18 8 0 10 -262144
-1 -1;
#X obj 572 64 bng 15 250 50 0 62-qlist-recall empty 62 -18 8 0 10 -262144
-1 -1;
#X obj 572 81 bng 15 250 50 0 63-qlist-recall empty 63 -18 8 0 10 -262144
-1 -1;
#X obj 572 98 bng 15 250 50 0 64-qlist-recall empty 64 -18 8 0 10 -262144
-1 -1;
#X obj 572 115 bng 15 250 50 0 65-qlist-recall empty 65 -18 8 0 10
-262144 -1 -1;
#X obj 572 132 bng 15 250 50 0 66-qlist-recall empty 66 -18 8 0 10
-262144 -1 -1;
#X obj 572 149 bng 15 250 50 0 67-qlist-recall empty 67 -18 8 0 10
-262144 -1 -1;
#X obj 572 166 bng 15 250 50 0 68-qlist-recall empty 68 -18 8 0 10
-262144 -1 -1;
#X obj 572 183 bng 15 250 50 0 69-qlist-recall empty 69 -18 8 0 10
-262144 -1 -1;
#X obj 572 200 bng 15 250 50 0 70-qlist-recall empty 70 -18 8 0 10
-262144 -1 -1;
#X obj 17 7 bng 15 250 50 0 reset empty reset 16 6 0 10 -262144 -1
-1;
#N canvas 107 73 860 661 ctl 0;
#X obj 335 20 r p-h0;
#X obj 448 20 r p-h1;
#X obj 570 19 r p-h2;
#X obj 710 21 r p-h3;
#X obj 12 11 setctl filterbias;
#X obj 12 32 setctl cf1percent;
#X obj 12 53 setctl fshz;
#X obj 12 74 setctl thru;
#X obj 12 95 setctl h0;
#X obj 12 116 setctl h1;
#X obj 12 137 setctl h2;
#X obj 12 158 setctl h3;
#X obj 12 179 setctl h4;
#X obj 41 394 setctl tri;
#X obj 41 415 setctl partials;
#X obj 187 15 setctl level;
#X obj 187 36 setctl octave;
#X obj 187 57 setctl window;
#X obj 187 78 setctl amp0;
#X obj 187 99 setctl amp1;
#X obj 187 120 setctl transpose1;
#X obj 187 141 setctl amp2;
#X obj 187 162 setctl transpose2;
#X obj 58 264 setctl pvocon;
#X obj 58 283 setctl pvocsamp;
#X obj 58 302 setctl pvocspeed;
#X obj 58 321 setctl pvocdist;
#X obj 243 265 setctl inter1;
#X obj 243 286 setctl inter2;
#X obj 41 437 setctl symmetry;
#X obj 41 458 setctl duty;
#X obj 225 348 setctl pmod;
#X obj 225 369 setctl pharm;
#X obj 225 390 setctl penv;
#X obj 190 437 setctl oddh;
#X msg 335 44 \; window 20 \; amp0 50 \; amp1 0 \; transpose1 0 \;
amp2 0 \; transpose2 0;
#X msg 448 44 \; window 9 \; amp0 44 \; amp1 41 \; transpose1 -7 \;
amp2 41 \; transpose2 5;
#X msg 570 43 \; window 5 \; amp0 44 \; amp1 41 \; transpose1 0.15
\; amp2 41 \; transpose2 -0.2;
#X msg 710 45 \; window 9 \; amp0 44 \; amp1 41 \; transpose1 -7 \;
amp2 41 \; transpose2 5;
#X obj 374 366 setctl vcfa;
#X obj 374 387 setctl vcfp;
#X obj 375 408 setctl vcfb;
#X obj 374 429 setctl vcfq;
#X obj 374 450 setctl vcfd;
#X obj 374 471 setctl vcf;
#X obj 184 197 setctl pss;
#X obj 41 518 setctl amp1b;
#X obj 40 542 setctl squeeze;
#X obj 42 571 setctl amp1c;
#X obj 39 592 setctl lock;
#X obj 287 206 setctl amp1d;
#X connect 0 0 35 0;
#X connect 1 0 36 0;
#X connect 2 0 37 0;
#X connect 3 0 38 0;
#X restore 624 129 pd ctl;
#X floatatom 78 303 5 0 100 0 bias filterbias-set filterbias;
#X text 154 300 mod:;
#X floatatom 171 338 5 -200 500 0 percent cf1percent-set cf1percent
;
#X floatatom 171 320 5 0 0 0 fshz fshz-set fshz;
#X floatatom 292 450 5 0 200 0 window window-set window;
#X floatatom 292 466 5 0 100 0 amp0 amp0-set amp0;
#X floatatom 292 482 5 0 100 0 amp1 amp1-set amp1;
#X floatatom 292 498 5 -2400 1200 0 trans1 trans1-set trans1;
#X floatatom 292 514 5 0 100 0 amp2 amp2-set amp2;
#X floatatom 292 530 5 -2400 1200 0 trans2 trans2-set trans2;
#X obj 274 551 bng 15 250 50 0 p-h0 empty 0 -11 8 0 10 -262144 -1 -1
;
#X obj 274 569 bng 15 250 50 0 p-h1 empty 1 -11 8 0 10 -262144 -1 -1
;
#X obj 35 273 bng 15 250 50 0 reset empty empty 15 6 0 10 -262144 -1
-1;
#X obj 486 545 tgl 12 0 \$1-pvocon \$1-pvocon-set on -17 6 0 10 -262144
-1 -1 0 1;
#X text 472 528 pvoc:;
#X floatatom 486 559 5 0 100 0 sample #1-pvocsamp-set #1-pvocsamp;
#X floatatom 149 272 5 0 100 0 thru thru-set thru;
#X floatatom 78 358 5 0 100 0 h2 h2-set h2;
#X floatatom 78 376 5 0 100 0 h3 h3-set h3;
#X floatatom 283 362 5 0 100 0 tri tri-set tri;
#X floatatom 292 378 5 0 100 0 partials partials-set partials;
#X floatatom 78 394 5 0 100 0 h4 h4-set h4;
#X floatatom 78 340 5 0 100 0 h1 h1-set h1;
#X floatatom 171 356 5 0 100 0 inter1 inter1-set inter1;
#X floatatom 171 374 5 0 100 0 inter2 inter2-set inter2;
#X floatatom 516 316 4 -200 100 0 octave octave-set octave;
#X floatatom 292 394 5 -100 100 0 symmetry symmetry-set symmetry;
#X floatatom 292 410 5 0 100 0 duty duty-set duty;
#X obj 309 552 bng 15 250 50 0 p-h2 empty 2 -11 8 0 10 -262144 -1 -1
;
#X obj 309 569 bng 15 250 50 0 p-h3 empty 3 -11 8 0 10 -262144 -1 -1
;
#X floatatom 486 575 5 0 100 0 speed #1-pvocspeed-set #1-pvocspeed
;
#X floatatom 486 591 5 0 300 0 distance #1-pvocdist-set #1-pvocdist
;
#X obj 517 334 tgl 12 0 oddh oddh-set empty -17 6 0 10 -262144 -1 -1
0 1;
#X text 480 332 oddh;
#X text 54 273 reset;
#X text 256 430 pitchshift:;
#X floatatom 85 543 5 0 100 0 pmod pmod-set pmod;
#X floatatom 85 561 5 0 100 0 pharm pharm-set pharm;
#X floatatom 85 579 5 0 100 0 penv penv-set penv;
#X floatatom 78 322 5 0 100 0 h0 h0-set h0;
#N canvas 0 0 530 315 preset 0;
#X msg 367 76 \; preset-number 0;
#X obj 366 43 r reset;
#X obj 345 164 r preset-number;
#X connect 1 0 0 0;
#X restore 625 106 pd preset;
#X floatatom 75 432 5 0 100 0 pshift pshift-set pshift;
#X floatatom 77 474 5 0 100 0 osc osc-set osc;
#X obj 64 497 tgl 12 0 quantize quantize-set empty -17 6 0 10 -262144
-1 -1 0 1;
#X text 80 494 quantize;
#X obj 365 456 tgl 15 0 pss pss-set empty 17 7 0 10 -262144 -1 -1 0
1;
#X text 384 453 pss;
#X text 440 432 pitchshift2:;
#X floatatom 480 452 5 0 100 0 amp1b amp1b-set amp1b;
#X floatatom 480 470 5 0 100 0 squeeze squeeze-set squeeze;
#X text 360 437 SYNC;
#X floatatom 612 454 5 0 100 0 amp1c amp1c-set amp1c;
#X text 583 435 FFT pitchshift;
#X floatatom 612 481 5 0 100 0 lock lock-set lock;
#X obj 366 302 bng 15 250 50 0 empty empty empty 0 -6 0 8 -262144 -1
-1;
#X floatatom 294 301 2 0 0 1 preset preset-number -;
#X text 354 283 STORE;
#N canvas 84 116 1052 703 -qlists- 0;
#X obj 28 18 inlet;
#X obj 12 70 f;
#X obj 80 18 inlet;
#X obj 15 290 qlist;
#X obj 15 264 r qlist-save;
#X msg 84 98 \; qlist-save clear;
#X obj 50 140 s qlist-grab;
#X obj 31 165 makefilename preset/x%d.txt;
#X msg 31 190 \; qlist-save write \$1;
#X obj 12 98 t f f b b;
#X obj 12 236 s qlist-reload;
#X obj 247 17 qlist-read 1;
#X obj 743 9 qlist-grab level;
#X obj 67 466 s reset;
#X obj 49 495 s qlist-recall;
#X obj 26 520 s qlist-resave;
#X obj 72 61 r qlist-resave;
#X obj 26 444 t f f b;
#X msg 13 379 1 \, 2 \, 3 \, 4 \, 5 \, 6 \, 7 \, 8 \, 9 \, 10;
#X obj 26 419 +;
#N canvas 31 173 637 352 timed-sequencer 0;
#X obj 53 191 qlist;
#X obj 267 146 f;
#X obj 301 146 + 1;
#X obj 67 84 t b b;
#X obj 194 76 1;
#X obj 248 179 div 60;
#X obj 302 179 mod 60;
#X obj 207 218 s seq-min;
#X obj 280 222 s seq-sec;
#X obj 107 196 b;
#X obj 228 75 0;
#X obj 272 121 1;
#X obj 67 14 r seq-start;
#X obj 214 15 r seq-stop;
#X obj 248 97 metro 1000;
#X obj 118 112 s reset;
#X msg 164 39 rewind;
#X obj 47 280 r seq-step;
#X msg 333 265 tempo 1;
#X obj 358 27 r #;
#X obj 334 290 print;
#X msg 65 155 read seq.txt \, tempo 1;
#X obj 365 218 r label;
#X msg 194 285 tempo 100;
#X obj 364 241 del 0.1;
#X obj 193 262 r seq-step;
#X obj 489 266 bng 15 250 50 0 seq-start empty empty 17 8 0 10 -262144
-1 -1;
#X obj 489 283 bng 15 250 50 0 seq-stop empty empty 17 8 0 10 -262144
-1 -1;
#X floatatom 489 304 3 0 100 0 - seq-min -;
#X floatatom 523 304 3 0 100 0 : seq-sec -;
#X text 507 264 START;
#X text 509 283 STOP;
#X obj 558 268 bng 50 250 50 0 seq-step empty empty 17 8 0 10 -262144
-1 -1;
#X text 578 253 STEP;
#X connect 0 1 9 0;
#X connect 1 0 2 0;
#X connect 1 0 5 0;
#X connect 1 0 6 0;
#X connect 2 0 1 1;
#X connect 3 0 0 0;
#X connect 3 0 4 0;
#X connect 3 1 11 0;
#X connect 3 1 21 0;
#X connect 3 1 15 0;
#X connect 4 0 14 0;
#X connect 5 0 7 0;
#X connect 6 0 8 0;
#X connect 9 0 10 0;
#X connect 10 0 7 0;
#X connect 10 0 8 0;
#X connect 10 0 14 0;
#X connect 11 0 1 1;
#X connect 12 0 3 0;
#X connect 13 0 16 0;
#X connect 13 0 10 0;
#X connect 14 0 1 0;
#X connect 16 0 0 0;
#X connect 18 0 0 0;
#X connect 18 0 20 0;
#X connect 21 0 0 0;
#X connect 22 0 24 0;
#X connect 23 0 0 0;
#X connect 24 0 18 0;
#X connect 25 0 23 0;
#X restore 21 597 pd timed-sequencer;
#N canvas 314 125 710 484 step-sequencer 0;
#X obj 53 191 qlist;
#X obj 67 84 t b b;
#X obj 118 112 s reset;
#X obj 338 15 key;
#X obj 67 14 r step-seq-on;
#X obj 466 98 setctl step-seq-on;
#X msg 103 145 read step-seq.txt \, rewind;
#X msg 29 137 next;
#X obj 205 35 del 0;
#X obj 205 13 r step-seq-step;
#X obj 198 76 spigot;
#X obj 58 48 sel 1;
#X floatatom 406 201 5 0 0 0 - - -;
#X obj 338 37 sel 32;
#X obj 47 280 s step-seq-label;
#X connect 0 0 14 0;
#X connect 1 0 7 0;
#X connect 1 1 6 0;
#X connect 1 1 2 0;
#X connect 3 0 13 0;
#X connect 4 0 11 0;
#X connect 4 0 10 1;
#X connect 6 0 0 0;
#X connect 7 0 0 0;
#X connect 8 0 10 0;
#X connect 9 0 8 0;
#X connect 10 0 7 0;
#X connect 11 0 1 0;
#X connect 13 0 10 0;
#X coords 0 0 1 1 100 60 0;
#X restore 25 621 pd step-sequencer;
#X msg 107 654 \; pd--qlists- sort;
#X msg 12 329 0 \, 10 \, 20 \, 30 \, 40 \, 50 \, 60;
#X obj 12 355 t b f;
#X obj 247 38 qlist-read 2;
#X obj 247 59 qlist-read 3;
#X obj 247 80 qlist-read 4;
#X obj 247 101 qlist-read 5;
#X obj 247 122 qlist-read 6;
#X obj 247 143 qlist-read 7;
#X obj 247 164 qlist-read 8;
#X obj 247 185 qlist-read 9;
#X obj 247 206 qlist-read 10;
#X obj 247 227 qlist-read 11;
#X obj 247 248 qlist-read 12;
#X obj 247 269 qlist-read 13;
#X obj 247 290 qlist-read 14;
#X obj 247 311 qlist-read 15;
#X obj 247 332 qlist-read 16;
#X obj 247 353 qlist-read 17;
#X obj 247 374 qlist-read 18;
#X obj 247 395 qlist-read 19;
#X obj 247 416 qlist-read 20;
#X obj 247 437 qlist-read 21;
#X obj 247 458 qlist-read 22;
#X obj 247 479 qlist-read 23;
#X obj 247 500 qlist-read 24;
#X obj 247 521 qlist-read 25;
#X obj 247 542 qlist-read 26;
#X obj 247 563 qlist-read 27;
#X obj 247 584 qlist-read 28;
#X obj 247 605 qlist-read 29;
#X obj 247 626 qlist-read 30;
#X obj 362 17 qlist-read 31;
#X obj 362 38 qlist-read 32;
#X obj 362 59 qlist-read 33;
#X obj 362 80 qlist-read 34;
#X obj 362 101 qlist-read 35;
#X obj 362 122 qlist-read 36;
#X obj 362 143 qlist-read 37;
#X obj 362 164 qlist-read 38;
#X obj 362 185 qlist-read 39;
#X obj 362 206 qlist-read 40;
#X obj 362 227 qlist-read 41;
#X obj 362 248 qlist-read 42;
#X obj 362 269 qlist-read 43;
#X obj 362 290 qlist-read 44;
#X obj 362 311 qlist-read 45;
#X obj 362 332 qlist-read 46;
#X obj 362 353 qlist-read 47;
#X obj 362 374 qlist-read 48;
#X obj 362 395 qlist-read 49;
#X obj 362 416 qlist-read 50;
#X obj 362 437 qlist-read 51;
#X obj 362 458 qlist-read 52;
#X obj 362 479 qlist-read 53;
#X obj 362 500 qlist-read 54;
#X obj 362 521 qlist-read 55;
#X obj 362 542 qlist-read 56;
#X obj 362 563 qlist-read 57;
#X obj 362 584 qlist-read 58;
#X obj 362 605 qlist-read 59;
#X obj 362 626 qlist-read 60;
#X obj 470 17 qlist-read 61;
#X obj 470 38 qlist-read 62;
#X obj 470 59 qlist-read 63;
#X obj 470 80 qlist-read 64;
#X obj 470 101 qlist-read 65;
#X obj 470 122 qlist-read 66;
#X obj 470 143 qlist-read 67;
#X obj 470 164 qlist-read 68;
#X obj 470 185 qlist-read 69;
#X obj 470 206 qlist-read 70;
#X obj 743 555 qlist-grab filterrange;
#X obj 743 576 qlist-grab filterbias;
#X obj 743 597 qlist-grab octave;
#X obj 743 618 qlist-grab fuzz;
#X obj 743 639 qlist-grab cf1percent;
#X obj 743 660 qlist-grab fshz;
#X obj 580 17 qlist-grab thru;
#X obj 580 59 qlist-grab h1;
#X obj 580 80 qlist-grab h2;
#X obj 580 101 qlist-grab h3;
#X obj 580 122 qlist-grab h4;
#X obj 580 143 qlist-grab tri;
#X obj 580 164 qlist-grab partials;
#X obj 580 185 qlist-grab cf1;
#X obj 580 206 qlist-grab cf1p;
#X obj 580 227 qlist-grab cf1a;
#X obj 580 290 qlist-grab cf1d;
#X obj 580 311 qlist-grab cf1bias;
#X obj 1059 148 qlist-grab bw;
#X obj 1059 168 qlist-grab bwp;
#X obj 1059 188 qlist-grab bwa;
#X obj 1059 208 qlist-grab bwd;
#X obj 1059 228 qlist-grab clip;
#X obj 1059 248 qlist-grab clipeven;
#X obj 1059 268 qlist-grab inter1;
#X obj 1059 288 qlist-grab inter2;
#X obj 1059 308 qlist-grab symmetry;
#X obj 1059 328 qlist-grab duty;
#X obj 743 30 qlist-grab pvocon;
#X obj 743 51 qlist-grab pvocsamp;
#X obj 743 114 qlist-grab vcf;
#X obj 743 135 qlist-grab vcfp;
#X obj 743 156 qlist-grab vcfa;
#X obj 743 219 qlist-grab vcfd;
#X obj 743 240 qlist-grab vcfbias;
#X obj 743 261 qlist-grab q;
#X obj 743 282 qlist-grab window;
#X obj 743 303 qlist-grab amp0;
#X obj 743 324 qlist-grab delay0;
#X obj 743 345 qlist-grab amp1;
#X obj 743 366 qlist-grab delay1;
#X obj 743 387 qlist-grab transpose1;
#X obj 743 408 qlist-grab amp2;
#X obj 743 429 qlist-grab delay2;
#X obj 743 450 qlist-grab transpose2;
#X obj 743 471 qlist-grab amp;
#X obj 743 492 qlist-grab ampp;
#X obj 743 513 qlist-grab ampa;
#X obj 743 534 qlist-grab ampd;
#X obj 924 9 qlist-grab eq1;
#X obj 924 30 qlist-grab eq1p;
#X obj 924 51 qlist-grab eq1a;
#X obj 924 72 qlist-grab eq1d;
#X obj 924 93 qlist-grab ef1;
#X obj 924 114 qlist-grab ef1p;
#X obj 924 135 qlist-grab ef1a;
#X obj 924 198 qlist-grab ef1d;
#X obj 924 219 qlist-grab bw1;
#X obj 924 240 qlist-grab eq2;
#X obj 924 261 qlist-grab eq2p;
#X obj 924 282 qlist-grab eq2a;
#X obj 924 303 qlist-grab eq2d;
#X obj 924 324 qlist-grab ef2;
#X obj 924 345 qlist-grab ef2p;
#X obj 924 366 qlist-grab ef2a;
#X obj 924 429 qlist-grab ef2d;
#X obj 924 450 qlist-grab bw2;
#X obj 580 248 qlist-grab cf1q;
#X obj 580 269 qlist-grab cf1b;
#X obj 580 332 qlist-grab a1;
#X obj 580 353 qlist-grab a1p;
#X obj 580 374 qlist-grab a1a;
#X obj 580 395 qlist-grab a1d;
#X obj 580 416 qlist-grab cf2;
#X obj 580 437 qlist-grab cf2p;
#X obj 580 458 qlist-grab cf2a;
#X obj 580 479 qlist-grab cf2q;
#X obj 580 500 qlist-grab cf2b;
#X obj 580 521 qlist-grab cf2d;
#X obj 580 542 qlist-grab cf2bias;
#X obj 580 563 qlist-grab a2;
#X obj 580 584 qlist-grab a2p;
#X obj 580 605 qlist-grab a2a;
#X obj 580 626 qlist-grab a2d;
#X obj 743 72 qlist-grab pvocspeed;
#X obj 743 93 qlist-grab pvocdist;
#X obj 924 387 qlist-grab ef2q;
#X obj 924 408 qlist-grab ef2b;
#X obj 924 156 qlist-grab ef1q;
#X obj 924 177 qlist-grab ef1b;
#X obj 743 177 qlist-grab vcfq;
#X obj 743 198 qlist-grab vcfb;
#X obj 1061 347 qlist-grab oddh;
#X obj 1063 19 qlist-grab voz;
#X obj 1063 39 qlist-grab vfret;
#X obj 1063 60 qlist-grab vsamp;
#X obj 1063 99 qlist-grab vspeed;
#X obj 1063 79 qlist-grab vframes;
#X obj 924 471 qlist-grab eqbias;
#X obj 924 492 qlist-grab pmod;
#X obj 924 513 qlist-grab pharm;
#X obj 924 534 qlist-grab penv;
#X obj 580 38 qlist-grab h0;
#X connect 0 0 1 1;
#X connect 1 0 9 0;
#X connect 2 0 1 0;
#X connect 4 0 3 0;
#X connect 7 0 8 0;
#X connect 9 0 10 0;
#X connect 9 1 7 0;
#X connect 9 2 6 0;
#X connect 9 3 5 0;
#X connect 16 0 9 0;
#X connect 17 0 15 0;
#X connect 17 1 14 0;
#X connect 17 2 13 0;
#X connect 18 0 19 0;
#X connect 19 0 17 0;
#X connect 23 0 24 0;
#X connect 24 0 18 0;
#X connect 24 1 19 1;
#X restore 294 321 pd -qlists-;
#X floatatom 479 498 5 0 100 0 amp1d amp1d-set amp1d;
#X connect 133 0 136 1;
#X connect 134 0 136 0;
