#N canvas 150 495 447 210 12;
#X obj 27 172 outlet~;
#X obj 27 117 inlet~;
#N canvas 309 72 673 487 analysis 0;
#X obj 39 16 inlet~;
#X obj 88 409 mtof;
#X text 48 239 pitch;
#X text 14 331 only take;
#X obj 88 450 s \$1-hz;
#X obj 280 243 s \$1-fastdb;
#X obj 80 362 moses;
#X obj 79 340 moses;
#X obj 123 340 - 1;
#X obj 287 160 f \$4;
#X obj 123 363 + 26;
#X text 15 362 range of;
#X text 15 375 string;
#X obj 184 404 r \$6-fastdb;
#X obj 272 405 r \$7-fastdb;
#X obj 155 430 expr $f1>$f2-$f4 && $f1>$f3-$f4;
#X obj 360 391 r xtalk;
#X obj 88 429 spigot;
#X obj 155 451 tgl 15 0 empty empty empty 0 -6 0 8 -262144 -1 -1 1
1;
#X floatatom 360 411 5 0 0 0 - - -;
#X obj 426 344 spigot;
#X obj 425 270 b;
#X obj 426 292 1;
#X obj 465 294 0;
#X obj 465 272 b;
#X obj 426 367 outlet;
#X obj 287 183 mtof;
#X msg 206 163 maxfreq \$1;
#X obj 425 246 r metro500;
#X obj 399 325 pack;
#X obj 79 313 spigot;
#X obj 112 292 > 50;
#X text 144 236 amp (dB);
#X text 188 452 suppress pitch if string;
#X text 187 466 is 'xtalk' quiter than neighbor;
#X obj 235 329 spigot;
#X obj 283 329 r calc-avg-amp;
#N canvas 102 314 450 300 avg-amp 0;
#X obj 72 22 inlet;
#X obj 156 25 r calc-avg-amp;
#X obj 156 50 sel 1;
#X msg 155 75 0;
#X obj 94 111 f;
#X obj 123 111 + 1;
#X obj 72 53 t f b;
#X obj 82 162 /;
#X obj 82 205 s \$1-avg-amp;
#X obj 50 78 dbtopow;
#X obj 82 184 powtodb;
#X obj 27 126 f;
#X obj 52 126 +;
#X obj 33 100 t b f;
#X connect 0 0 6 0;
#X connect 1 0 2 0;
#X connect 2 0 3 0;
#X connect 3 0 4 1;
#X connect 3 0 11 1;
#X connect 4 0 5 0;
#X connect 5 0 4 1;
#X connect 5 0 7 1;
#X connect 6 0 9 0;
#X connect 6 1 4 0;
#X connect 7 0 10 0;
#X connect 9 0 13 0;
#X connect 10 0 8 0;
#X connect 11 0 12 0;
#X connect 11 0 7 0;
#X connect 12 0 11 1;
#X connect 13 0 11 0;
#X connect 13 1 12 1;
#X restore 235 350 pd avg-amp;
#X obj 378 135 bng 15 250 50 0 empty empty empty 0 -6 0 8 -262144 -1
-1;
#X obj 378 155 s \$1-attack;
#X msg 379 38 print;
#X obj 519 136 list prepend \$1;
#X obj 519 158 s all-attack;
#X text 14 347 pitch in;
#X obj 503 356 unpack;
#X obj 503 382 s \$1-tune;
#X obj 287 138 loadbang;
#X obj 477 49 r all-bonks;
#X obj 378 112 bonk~ -npts 512 -hop 256 -minbandwidth 3;
#X msg 394 88 minvel 25 \, thresh 85 85 \, attack-bins 1 \, mask 1
0;
#X obj 287 204 * 30;
#X obj 56 176 r all-sigmunds;
#X obj 40 221 sigmund~ -npts \$3 -npeak 12;
#X connect 0 0 48 0;
#X connect 0 0 52 0;
#X connect 1 0 17 0;
#X connect 6 0 1 0;
#X connect 7 1 6 0;
#X connect 8 0 7 1;
#X connect 9 0 8 0;
#X connect 9 0 10 0;
#X connect 9 0 26 0;
#X connect 10 0 6 1;
#X connect 13 0 15 1;
#X connect 14 0 15 2;
#X connect 15 0 17 1;
#X connect 15 0 18 0;
#X connect 16 0 19 0;
#X connect 17 0 4 0;
#X connect 19 0 15 3;
#X connect 20 0 24 0;
#X connect 20 0 25 0;
#X connect 20 0 44 0;
#X connect 21 0 22 0;
#X connect 22 0 20 1;
#X connect 23 0 20 1;
#X connect 24 0 23 0;
#X connect 26 0 50 0;
#X connect 27 0 52 0;
#X connect 28 0 21 0;
#X connect 29 0 20 0;
#X connect 30 0 7 0;
#X connect 31 0 30 1;
#X connect 35 0 37 0;
#X connect 36 0 35 1;
#X connect 38 0 39 0;
#X connect 40 0 48 0;
#X connect 41 0 42 0;
#X connect 44 0 45 0;
#X connect 46 0 9 0;
#X connect 46 0 49 0;
#X connect 47 0 48 0;
#X connect 48 0 38 0;
#X connect 48 1 41 0;
#X connect 49 0 48 0;
#X connect 50 0 27 0;
#X connect 51 0 52 0;
#X connect 52 0 29 0;
#X connect 52 0 30 0;
#X connect 52 1 5 0;
#X connect 52 1 15 0;
#X connect 52 1 29 1;
#X connect 52 1 31 0;
#X connect 52 1 35 0;
#X restore 131 32 pd analysis;
#X obj 26 144 +~;
#N canvas 0 0 453 339 input 0;
#X obj 41 275 outlet~;
#X obj 41 225 hip~ 10;
#X obj 56 252 throw~ in-sum~;
#X obj 145 125 dbtorms;
#X msg 23 72 set adc-ch\$1;
#X obj 145 76 f \$5;
#X obj 23 48 r chnl-string\$1;
#X obj 157 51 r trim-string\$1;
#X obj 41 128 *~ 1;
#X obj 41 98 r~ adc-ch\$2;
#X obj 226 253 env~ 8192;
#X floatatom 227 292 5 0 0 0 - - -;
#X obj 145 102 + 100;
#X obj 145 28 loadbang;
#X obj 42 169 de-dc~ \$4;
#X floatatom 219 121 5 0 0 0 - - -;
#X connect 1 0 0 0;
#X connect 1 0 2 0;
#X connect 3 0 8 1;
#X connect 4 0 9 0;
#X connect 5 0 12 0;
#X connect 6 0 4 0;
#X connect 7 0 5 0;
#X connect 8 0 14 0;
#X connect 9 0 8 0;
#X connect 10 0 11 0;
#X connect 12 0 3 0;
#X connect 12 0 15 0;
#X connect 13 0 5 0;
#X connect 14 0 1 0;
#X restore 121 11 pd input;
#N canvas 70 65 920 630 pvoc 0;
#X floatatom 445 76 7 0 0 0 - - -;
#N canvas 46 38 933 630 fft-analysis 0;
#X obj 178 432 *~;
#X obj 147 432 *~;
#X obj 147 454 -~;
#X obj 243 433 *~;
#X obj 212 433 *~;
#X obj 212 455 +~;
#X obj 256 140 *~;
#X obj 225 140 *~;
#X obj 197 140 *~;
#X obj 166 140 *~;
#X obj 166 283 +~;
#X obj 137 314 *~;
#X obj 49 597 *~;
#X obj 366 333 rfft~;
#X obj 291 101 rfft~;
#X obj 490 598 *~;
#X obj 671 290 r window-size;
#X obj 738 206 r sample-rate;
#X obj 603 52 r sample-rate;
#X obj 578 29 r window-size;
#X obj 601 98 t b f;
#X obj 578 121 /;
#X obj 520 598 *~;
#X obj 50 577 *~;
#X obj 66 554 rifft~;
#X obj 50 623 outlet~;
#X obj 625 446 print~;
#X msg 624 418 bang;
#X text 115 554 inverse real FFT;
#X obj 597 180 bang~;
#X obj 516 424 line~;
#X obj 578 143 * 1000;
#X text 630 136 window size (msec);
#X obj 603 76 * 4;
#X obj 609 341 +;
#X obj 598 282 t f f;
#X msg 516 396 \$1 \, \$2 \$3;
#X obj 516 369 pack 0 0 0;
#X obj 737 232 / 1000;
#X obj 598 255 *;
#X text 643 269 reading location (samples);
#X text 660 387 hop size (samples);
#X obj 564 464 sig~;
#X obj 534 463 +~;
#X text 638 82 (overlap times parent SR);
#X text 638 69 local sample rate;
#X obj 107 314 *~;
#X obj 107 336 +~;
#X obj 107 360 rsqrt~;
#X obj 148 390 *~;
#X obj 208 390 *~;
#X obj 31 518 sig~;
#X obj 14 448 t b f;
#X msg 14 469 1;
#X obj 28 492 /;
#X floatatom 670 360 0 0 0 0 - - -;
#X obj 670 339 *;
#X obj 846 226 * 0.01;
#X obj 848 247 + 69;
#X obj 849 268 mtof;
#X obj 849 290 / 440;
#X obj 689 316 t b f;
#X obj 14 427 r window-size;
#X floatatom 846 318 0 0 0 0 - - -;
#X obj 551 543 tabreceive~ hanning;
#X obj 83 20 tabreceive~ \$1-phase-real;
#X obj 268 21 tabreceive~ \$1-phase-imag;
#X obj 193 518 tabsend~ \$1-phase-real;
#X obj 262 493 tabsend~ \$1-phase-imag;
#X obj 598 229 r \$1-location;
#X obj 846 204 r \$1-transpo;
#X obj 534 489 tabread4~ sample-snd1;
#X obj 516 515 tabread4~ sample-snd1;
#X obj 725 493 makefilename sample-snd%d;
#X msg 725 517 set \$1;
#X obj 725 466 r \$1-pvocsamp;
#X obj 812 56 block~ 2048 8;
#X obj 630 387 / 8;
#X obj 754 11 table \$1-phase-real 2048;
#X obj 753 32 table \$1-phase-imag 2048;
#X obj 117 578 tabreceive~ pvoc-resynth-wind;
#X obj 165 168 +~;
#X obj 224 168 -~;
#X obj 179 198 lrshift~ 1;
#X obj 174 222 lrshift~ -1;
#X obj 291 198 lrshift~ 1;
#X obj 283 222 lrshift~ -1;
#X obj 185 253 *~;
#X obj 309 265 *~;
#X obj 225 283 +~;
#X obj 296 48 *~;
#X obj 264 48 *~;
#X obj 264 70 +~;
#X obj 334 73 q8_rsqrt~;
#X obj 108 108 *~;
#X obj 201 105 *~;
#X obj 391 211 r z-lock;
#X obj 191 496 +~ 1e-15;
#X obj 682 414 r \$1-onset;
#X obj 597 204 s \$1-calc-location;
#X obj 682 440 *;
#X obj 392 236 / 100;
#X obj 443 51 r overlap;
#X msg 445 132 set 2048 \$1;
#X floatatom 440 176 5 0 0 0 - - -;
#X floatatom 503 314 5 0 0 0 - - -;
#X floatatom 475 342 5 0 0 0 - - -;
#X obj 494 101 t b f;
#X obj 492 76 / 2;
#X connect 0 0 2 1;
#X connect 1 0 2 0;
#X connect 2 0 24 0;
#X connect 2 0 97 0;
#X connect 3 0 5 1;
#X connect 4 0 5 0;
#X connect 5 0 24 1;
#X connect 5 0 68 0;
#X connect 6 0 82 1;
#X connect 7 0 82 0;
#X connect 8 0 81 1;
#X connect 9 0 81 0;
#X connect 10 0 49 1;
#X connect 10 0 46 0;
#X connect 10 0 46 1;
#X connect 11 0 47 1;
#X connect 12 0 25 0;
#X connect 13 0 1 1;
#X connect 13 0 3 1;
#X connect 13 1 0 1;
#X connect 13 1 4 1;
#X connect 14 0 9 1;
#X connect 14 0 7 1;
#X connect 14 1 6 1;
#X connect 14 1 8 1;
#X connect 15 0 14 0;
#X connect 16 0 56 0;
#X connect 17 0 38 0;
#X connect 18 0 33 0;
#X connect 19 0 21 0;
#X connect 20 0 21 0;
#X connect 20 1 21 1;
#X connect 21 0 31 0;
#X connect 22 0 13 0;
#X connect 23 0 12 0;
#X connect 24 0 23 1;
#X connect 27 0 26 0;
#X connect 29 0 99 0;
#X connect 30 0 26 0;
#X connect 30 0 43 0;
#X connect 30 0 72 0;
#X connect 31 0 37 2;
#X connect 33 0 20 0;
#X connect 34 0 37 1;
#X connect 35 0 37 0;
#X connect 35 1 34 0;
#X connect 36 0 30 0;
#X connect 37 0 36 0;
#X connect 38 0 39 1;
#X connect 38 0 100 1;
#X connect 39 0 35 0;
#X connect 42 0 43 1;
#X connect 43 0 71 0;
#X connect 46 0 47 0;
#X connect 47 0 48 0;
#X connect 48 0 49 0;
#X connect 48 0 50 0;
#X connect 49 0 1 0;
#X connect 49 0 4 0;
#X connect 50 0 0 0;
#X connect 50 0 3 0;
#X connect 51 0 23 0;
#X connect 52 0 53 0;
#X connect 52 1 54 1;
#X connect 53 0 54 0;
#X connect 54 0 51 0;
#X connect 55 0 34 1;
#X connect 55 0 77 0;
#X connect 56 0 55 0;
#X connect 57 0 58 0;
#X connect 58 0 59 0;
#X connect 59 0 60 0;
#X connect 60 0 61 0;
#X connect 60 0 63 0;
#X connect 61 0 56 0;
#X connect 61 1 56 1;
#X connect 62 0 52 0;
#X connect 64 0 22 1;
#X connect 64 0 15 1;
#X connect 65 0 91 0;
#X connect 65 0 91 1;
#X connect 65 0 94 0;
#X connect 66 0 90 0;
#X connect 66 0 90 1;
#X connect 66 0 95 0;
#X connect 69 0 39 0;
#X connect 70 0 57 0;
#X connect 71 0 22 0;
#X connect 72 0 15 0;
#X connect 73 0 74 0;
#X connect 74 0 71 0;
#X connect 74 0 72 0;
#X connect 75 0 73 0;
#X connect 77 0 42 0;
#X connect 77 0 105 0;
#X connect 80 0 12 1;
#X connect 81 0 10 0;
#X connect 81 0 83 0;
#X connect 81 0 84 0;
#X connect 82 0 89 0;
#X connect 82 0 86 0;
#X connect 82 0 85 0;
#X connect 83 0 87 0;
#X connect 84 0 87 0;
#X connect 85 0 88 0;
#X connect 86 0 88 0;
#X connect 87 0 10 1;
#X connect 88 0 89 1;
#X connect 89 0 50 1;
#X connect 89 0 11 0;
#X connect 89 0 11 1;
#X connect 90 0 92 1;
#X connect 91 0 92 0;
#X connect 92 0 93 0;
#X connect 93 0 94 1;
#X connect 93 0 95 1;
#X connect 94 0 9 0;
#X connect 94 0 6 0;
#X connect 95 0 8 0;
#X connect 95 0 7 0;
#X connect 96 0 101 0;
#X connect 97 0 67 0;
#X connect 98 0 100 0;
#X connect 100 0 71 1;
#X connect 100 0 72 1;
#X connect 101 0 88 1;
#X connect 101 0 87 1;
#X connect 102 0 103 0;
#X connect 102 0 77 1;
#X connect 102 0 104 0;
#X connect 102 0 108 0;
#X connect 103 0 76 0;
#X connect 107 0 33 0;
#X connect 107 1 33 1;
#X connect 108 0 107 0;
#X restore 122 19 pd fft-analysis;
#X obj 122 67 hip~ 5;
#X msg 359 55 0;
#X msg 445 56 set \$1;
#X obj 618 62 t b f;
#X msg 341 35 set \$1;
#X floatatom 631 195 8 0 0 0 - - -;
#X obj 100 220 + 0.5;
#X obj 100 241 int;
#X obj 242 41 dbtorms;
#X obj 242 61 pack 0 12;
#X obj 241 83 line~;
#X obj 122 44 *~;
#X obj 293 405 spigot;
#X obj 586 289 spigot;
#X obj 386 269 spigot;
#X msg 586 356 0;
#X floatatom 341 74 8 0 0 0 - - -;
#X floatatom 448 401 8 0 0 0 - - -;
#X obj 448 357 -;
#X obj 341 14 r \$1-location;
#X obj 341 92 s \$1-location;
#X obj 445 38 r \$1-transpo;
#X obj 445 92 s \$1-transpo;
#X obj 343 179 tgl 15 0 empty empty empty 0 -6 0 8 -262144 -1 -1 0
1;
#X obj 586 397 s \$1-pvoc-lvl;
#X obj 454 334 t b f;
#X obj 356 572 s \$1-gofrom;
#X obj 618 17 r \$1-gofrom;
#X msg 628 40 1000;
#X obj 618 216 s \$1-location;
#X obj 448 420 s \$1-transpo;
#X obj 242 20 r \$1-pvoc-lvl;
#X obj 27 65 switch~;
#X obj 123 88 outlet~;
#X obj 586 266 r \$1-fastdb;
#X obj 53 130 r \$1-attack;
#X obj 386 249 r \$1-hz;
#X obj 386 290 ftom;
#X obj 100 180 f;
#X obj 343 152 r \$1-pvocon;
#X msg 419 500 set \$1;
#X obj 419 455 r \$1-pvocsamp;
#X obj 419 476 makefilename sample-att%d;
#X obj 100 289 + 12;
#X obj 98 319 moses;
#X obj 165 318 + 25;
#X obj 132 344 - 12;
#X obj 356 527 t b;
#X obj 356 551 f;
#X obj 98 344 - 40;
#X obj 293 447 t f f;
#X msg 187 530 set \$1;
#X obj 178 487 r \$1-pvocsamp;
#X obj 129 552 t b;
#X obj 129 576 f;
#X obj 178 508 makefilename sample-pit%d;
#X obj 129 597 s \$1-origpit;
#X obj 456 259 r \$1-origpit;
#X floatatom 171 574 5 0 0 0 - - -;
#X floatatom 64 261 5 0 0 0 - - -;
#X floatatom 59 342 5 0 0 0 - - -;
#X obj 100 264 moses \$4;
#X obj 165 296 f \$4;
#X obj 165 275 bng 15 250 50 0 empty empty empty 0 -6 0 8 -262144 -1
-1;
#X floatatom 409 550 6 0 0 0 - - -;
#X obj 618 131 timer;
#X obj 663 116 t b;
#X obj 171 550 tabread sample-pit1;
#X obj 409 526 tabread sample-att1;
#X obj 677 264 r \$1-pvocsamp;
#X obj 677 286 tabread sample-correct;
#X floatatom 721 312 5 0 0 0 - - -;
#X obj 677 310 - 100;
#X obj 586 313 +;
#X obj 586 333 moses 30;
#X obj 622 359 + 30;
#X obj 28 43 == 1;
#X obj 794 140 r \$1-pvocspeed;
#X obj 682 141 r \$1-pvocdist;
#X obj 52 399 s guitar-index;
#X obj 618 169 expr $f2*min(1 \, .05*$f1*$f3/max(1 \, $f2));
#X obj 52 373 f;
#X obj 53 151 b;
#X floatatom 293 427 5 0 0 0 - - -;
#X floatatom 457 296 7 0 0 0 - - -;
#X floatatom 586 380 5 0 100 0 - - -;
#X obj 83 378 s \$1-guitarindex;
#X obj 293 383 r \$1-guitarindex;
#X obj 129 180 r \$1-hz;
#X obj 100 199 ftom;
#X obj 386 311 * 100;
#X obj 457 277 * 100;
#X floatatom 386 331 7 0 0 0 - - -;
#X obj 129 486 moses 0;
#X obj 356 504 moses 0;
#X obj 675 477 bng 15 250 50 0 empty empty empty 17 7 0 10 -262144
-1 -1;
#X obj 676 498 s reload-pvoc;
#X obj 100 158 del 30;
#X obj 664 63 s \$1-onset;
#X obj 663 94 r \$1-calc-location;
#X obj 165 254 loadbang;
#X obj 3 18 fparam \$1 pvocon;
#X connect 0 0 24 0;
#X connect 1 0 13 0;
#X connect 2 0 35 0;
#X connect 3 0 18 0;
#X connect 4 0 0 0;
#X connect 5 0 67 0;
#X connect 5 1 100 0;
#X connect 6 0 18 0;
#X connect 8 0 9 0;
#X connect 9 0 61 0;
#X connect 9 0 63 0;
#X connect 10 0 11 0;
#X connect 11 0 12 0;
#X connect 12 0 13 1;
#X connect 13 0 2 0;
#X connect 14 0 85 0;
#X connect 15 0 75 0;
#X connect 16 0 39 0;
#X connect 17 0 87 0;
#X connect 18 0 22 0;
#X connect 19 0 32 0;
#X connect 20 0 19 0;
#X connect 21 0 6 0;
#X connect 23 0 4 0;
#X connect 25 0 16 1;
#X connect 25 0 14 1;
#X connect 25 0 15 1;
#X connect 27 0 20 0;
#X connect 27 1 20 1;
#X connect 29 0 5 0;
#X connect 30 0 5 0;
#X connect 33 0 10 0;
#X connect 36 0 15 0;
#X connect 37 0 84 0;
#X connect 38 0 16 0;
#X connect 39 0 92 0;
#X connect 40 0 91 0;
#X connect 41 0 25 0;
#X connect 42 0 70 0;
#X connect 43 0 44 0;
#X connect 44 0 42 0;
#X connect 45 0 46 0;
#X connect 46 0 51 0;
#X connect 46 0 62 0;
#X connect 46 1 48 0;
#X connect 47 0 46 1;
#X connect 48 0 51 0;
#X connect 49 0 50 0;
#X connect 50 0 28 0;
#X connect 51 0 83 1;
#X connect 52 0 95 0;
#X connect 52 1 96 0;
#X connect 53 0 69 0;
#X connect 54 0 57 0;
#X connect 55 0 56 0;
#X connect 56 0 58 0;
#X connect 57 0 53 0;
#X connect 59 0 93 0;
#X connect 63 0 45 0;
#X connect 63 1 46 0;
#X connect 64 0 47 0;
#X connect 65 0 64 0;
#X connect 67 0 82 0;
#X connect 68 0 67 1;
#X connect 69 0 56 0;
#X connect 69 0 60 0;
#X connect 70 0 50 0;
#X connect 70 0 66 0;
#X connect 71 0 72 0;
#X connect 72 0 74 0;
#X connect 72 0 73 0;
#X connect 74 0 75 1;
#X connect 75 0 76 0;
#X connect 76 0 17 0;
#X connect 76 1 77 0;
#X connect 77 0 87 0;
#X connect 78 0 34 0;
#X connect 79 0 82 2;
#X connect 80 0 82 1;
#X connect 82 0 7 0;
#X connect 82 0 31 0;
#X connect 83 0 81 0;
#X connect 83 0 88 0;
#X connect 84 0 83 0;
#X connect 84 0 99 0;
#X connect 85 0 52 0;
#X connect 86 0 27 0;
#X connect 87 0 26 0;
#X connect 89 0 14 0;
#X connect 90 0 40 1;
#X connect 91 0 8 0;
#X connect 92 0 94 0;
#X connect 93 0 86 0;
#X connect 94 0 20 0;
#X connect 95 0 55 0;
#X connect 95 1 69 0;
#X connect 96 0 49 0;
#X connect 96 1 70 0;
#X connect 97 0 98 0;
#X connect 99 0 40 0;
#X connect 101 0 68 0;
#X connect 102 0 65 0;
#X connect 103 0 78 0;
#X restore 141 123 pd pvoc;
#N canvas 560 132 557 485 processing 0;
#X obj 22 12 inlet~;
#X obj 74 394 switch~;
#X obj 74 346 == 0;
#X obj 74 372 tgl 15 0 empty empty empty 0 -6 0 8 -262144 -1 -1 1 1
;
#X obj 138 281 outlet~;
#N canvas 145 252 565 536 octaves 0;
#X obj 85 478 outlet~;
#X obj 120 303 osc~;
#X obj 109 366 *~;
#X obj 188 304 osc~;
#X obj 212 419 *~;
#X obj 120 257 r \$1-hz;
#X obj 120 280 * 0.5;
#X obj 188 257 r \$1-hz;
#X obj 188 280 * 0.25;
#X obj 85 434 +~;
#N canvas 0 22 450 300 delw 0;
#X obj 109 33 inlet~;
#X obj 110 153 outlet~;
#X obj 126 60 delwrite~ \$0-octave-del 100;
#X connect 0 0 1 0;
#X connect 0 0 2 0;
#X restore 84 75 pd delw;
#X obj 85 45 inlet~;
#N canvas 419 172 448 298 delr 0;
#X obj 109 33 inlet~;
#X obj 112 244 outlet~;
#X obj 138 183 *~;
#X obj 193 28 r \$1-hz;
#X obj 193 98 pack 0 10;
#X obj 193 52 expr 500/$f1;
#X obj 193 75 +;
#X obj 138 157 vd~ \$0-octave-del;
#X obj 263 181 expr max($f1/100 \, 0);
#X obj 138 207 *~;
#X obj 233 229 sel 0 1;
#X obj 228 259 1;
#X obj 261 257 -1;
#X obj 138 131 line~;
#X floatatom 51 173 5 0 0 0 - - -;
#X obj 263 156 fparam \$1 octave;
#X obj 235 207 fparam \$1 oddh;
#X connect 0 0 1 0;
#X connect 2 0 9 0;
#X connect 3 0 5 0;
#X connect 4 0 13 0;
#X connect 5 0 6 0;
#X connect 6 0 4 0;
#X connect 7 0 2 0;
#X connect 8 0 2 1;
#X connect 8 0 14 0;
#X connect 9 0 1 0;
#X connect 10 0 11 0;
#X connect 10 1 12 0;
#X connect 11 0 9 1;
#X connect 12 0 9 1;
#X connect 13 0 7 0;
#X connect 15 0 8 0;
#X connect 16 0 10 0;
#X restore 86 100 pd delr;
#X obj 85 390 +~;
#X obj 231 334 *~ 0;
#X obj 149 336 *~ 0;
#X obj 240 82 expr max(0 \, min(1.414 \, 0.01414*(-100-$f1)));
#X obj 172 132 expr max(0 \, min(1.414 \, 0.01414*(-$f1)));
#X obj 289 189 expr 1 - max(0 \, min(1 \, -0.0025*$f1));
#X obj 86 455 *~ 0;
#X obj 172 46 fparam \$1 octave;
#X floatatom 317 38 5 0 0 0 - - -;
#X connect 1 0 15 0;
#X connect 2 0 13 1;
#X connect 3 0 14 0;
#X connect 4 0 9 1;
#X connect 5 0 6 0;
#X connect 6 0 1 0;
#X connect 7 0 8 0;
#X connect 8 0 3 0;
#X connect 9 0 19 0;
#X connect 10 0 12 0;
#X connect 11 0 10 0;
#X connect 12 0 2 0;
#X connect 12 0 13 0;
#X connect 13 0 4 0;
#X connect 13 0 9 0;
#X connect 14 0 4 1;
#X connect 15 0 2 1;
#X connect 16 0 14 1;
#X connect 17 0 15 1;
#X connect 18 0 19 1;
#X connect 19 0 0 0;
#X connect 20 0 16 0;
#X connect 20 0 17 0;
#X connect 20 0 18 0;
#X connect 20 0 21 0;
#X restore 138 96 pd octaves;
#N canvas 120 86 729 800 modulation 0;
#X obj 35 633 outlet~;
#X obj 145 171 inlet~;
#X obj 144 231 hilbert~;
#X obj 33 186 phasor~;
#X obj 34 233 cos~;
#X obj 33 166 +;
#X obj 65 136 t b f;
#X obj 44 84 t b f;
#X obj 44 62 * 0.01;
#X obj 67 210 -~ 0.25;
#X obj 67 234 cos~;
#X obj 33 263 *~;
#X obj 62 263 *~;
#X obj 33 286 -~;
#X obj 33 18 r \$1-hz;
#X obj 33 105 *;
#X obj 34 575 *~;
#X obj 99 266 *~;
#X obj 128 266 *~;
#X obj 99 289 +~;
#N canvas 0 22 450 300 (subpatch) 0;
#X array \$0-array 500 float 0;
#X coords 0 1 499 -1 400 140 1;
#X restore 292 98 graph;
#X obj 296 490 tabwrite~ \$0-array;
#X obj 311 465 bng 15 250 50 0 empty empty empty 0 -6 0 8 -262144 -1
-1;
#N canvas 0 0 527 510 harmonics 0;
#X obj 97 42 inlet~;
#X obj 109 94 *~;
#X obj 152 111 *~;
#X obj 109 117 *~ 2;
#X obj 109 139 -~ 1;
#X obj 153 133 *~ 4;
#X obj 196 115 *~ 3;
#X obj 153 157 -~;
#X obj 169 192 *~;
#X obj 169 215 *~ 2;
#X obj 169 237 -~ 1;
#X obj 73 395 outlet~;
#X obj 73 285 *~ 0;
#X obj 103 304 *~ 0;
#X obj 137 309 *~ 0;
#X obj 168 328 *~ 0;
#X obj 73 369 +~;
#X obj 202 260 amp-qdumb \$1 h1 0.15;
#X obj 203 282 amp-qdumb \$1 h2 0.15;
#X obj 203 305 amp-qdumb \$1 h3 0.15;
#X obj 204 329 amp-qdumb \$1 h4 0.15;
#X obj 106 370 amp-qdumb \$1 h0 0.5;
#X connect 0 0 1 0;
#X connect 0 0 1 1;
#X connect 0 0 2 1;
#X connect 0 0 6 0;
#X connect 0 0 12 0;
#X connect 1 0 3 0;
#X connect 1 0 2 0;
#X connect 2 0 5 0;
#X connect 3 0 4 0;
#X connect 4 0 8 0;
#X connect 4 0 8 1;
#X connect 4 0 13 0;
#X connect 5 0 7 0;
#X connect 6 0 7 1;
#X connect 7 0 14 0;
#X connect 8 0 9 0;
#X connect 9 0 10 0;
#X connect 10 0 15 0;
#X connect 12 0 16 0;
#X connect 13 0 16 0;
#X connect 14 0 16 0;
#X connect 15 0 16 0;
#X connect 16 0 11 0;
#X connect 17 0 12 1;
#X connect 18 0 13 1;
#X connect 19 0 14 1;
#X connect 20 0 15 1;
#X connect 21 0 16 1;
#X restore 401 355 pd harmonics;
#N canvas 0 0 560 454 triangle 0;
#X obj 110 168 *~ 1e+20;
#X obj 110 191 clip~ -1 1;
#X obj 45 188 -~ 0.5;
#X obj 107 124 wrap~;
#X obj 45 211 *~;
#X obj 45 239 *~;
#X obj 84 265 *~;
#X obj 94 287 *~;
#X obj 46 265 min~;
#X obj 122 258 * -1;
#X obj 122 237 + 1;
#X obj 122 216 r \$1-partials;
#X obj 86 102 -~ 0.5;
#X obj 85 78 inlet~;
#X obj 86 403 outlet~;
#X obj 344 191 *~ 1e+20;
#X obj 344 214 clip~ -1 1;
#X obj 279 211 -~ 0.5;
#X obj 341 147 wrap~;
#X obj 279 262 *~;
#X obj 318 288 *~;
#X obj 328 310 *~;
#X obj 280 288 min~;
#X obj 356 281 * -1;
#X obj 356 260 + 1;
#X obj 320 125 -~ 0.5;
#X obj 376 56 / 100;
#X obj 328 330 *~ 0;
#X obj 321 101 wrap~;
#X obj 319 76 +~ 0;
#X obj 387 340 * 0.01;
#X obj 279 234 *~ 0;
#X obj 86 378 *~;
#X obj 377 31 fparam \$1 duty;
#X obj 356 239 fparam \$1 partials;
#X obj 387 318 fparam \$1 symmetry;
#X obj 127 378 amp-qdumb \$1 tri 0.75;
#X connect 0 0 1 0;
#X connect 1 0 6 1;
#X connect 1 0 5 1;
#X connect 1 0 7 1;
#X connect 2 0 4 0;
#X connect 3 0 2 0;
#X connect 4 0 5 0;
#X connect 5 0 8 0;
#X connect 6 0 8 1;
#X connect 7 0 32 0;
#X connect 8 0 7 0;
#X connect 9 0 4 1;
#X connect 10 0 9 0;
#X connect 11 0 10 0;
#X connect 12 0 0 0;
#X connect 12 0 3 0;
#X connect 12 0 6 0;
#X connect 13 0 12 0;
#X connect 13 0 29 0;
#X connect 15 0 16 0;
#X connect 16 0 20 1;
#X connect 16 0 19 1;
#X connect 16 0 21 1;
#X connect 17 0 31 0;
#X connect 18 0 17 0;
#X connect 19 0 22 0;
#X connect 20 0 22 1;
#X connect 21 0 27 0;
#X connect 22 0 21 0;
#X connect 23 0 31 1;
#X connect 24 0 23 0;
#X connect 25 0 15 0;
#X connect 25 0 18 0;
#X connect 25 0 20 0;
#X connect 26 0 29 1;
#X connect 27 0 32 0;
#X connect 28 0 25 0;
#X connect 29 0 28 0;
#X connect 30 0 27 1;
#X connect 31 0 19 0;
#X connect 32 0 14 0;
#X connect 33 0 26 0;
#X connect 34 0 24 0;
#X connect 35 0 30 0;
#X connect 36 0 32 1;
#X restore 154 355 pd triangle;
#N canvas 0 0 449 338 intermod 0;
#X obj 211 143 r~ \$7-imod~;
#X obj 181 185 +~;
#X obj 181 134 *~;
#X obj 212 187 *~;
#X obj 69 133 inlet~;
#X obj 67 226 outlet~;
#X obj 181 89 r~ \$6-imod~;
#X obj 200 111 amp-q~ \$1 inter1;
#X obj 228 164 amp-q~ \$1 inter2;
#X connect 0 0 3 0;
#X connect 1 0 5 0;
#X connect 2 0 1 0;
#X connect 3 0 1 1;
#X connect 4 0 5 0;
#X connect 6 0 2 0;
#X connect 7 0 2 1;
#X connect 8 0 3 1;
#X restore 145 205 pd intermod;
#X obj 273 568 *~ 0.5;
#X obj 273 593 -~ 0.25;
#X obj 273 617 cos~;
#X obj 273 655 *~;
#X obj 274 705 tabread~ paf-tab;
#X obj 53 522 *~;
#X obj 273 680 +~ 201;
#X obj 379 632 * 40;
#X obj 273 545 wrap~;
#X obj 273 520 *~ 1;
#X obj 354 681 +~ 0;
#X obj 354 658 *~ 0;
#X obj 434 672 * 4;
#X obj 150 733 env~ 8192;
#X floatatom 150 757 5 0 0 0 - - -;
#X obj 36 604 de-dc~ \$4;
#X obj 44 40 fparam \$1 cf1percent;
#X obj 65 114 fparam \$1 fshz;
#X obj 434 647 fparam \$1 pmod;
#X obj 378 607 fparam \$1 penv;
#X obj 312 521 fparam \$1 pharm;
#X obj 519 480 env~ 8192;
#X floatatom 520 519 5 0 0 0 - - -;
#X obj 34 309 unitpolar~ --------------;
#X connect 1 0 25 0;
#X connect 2 0 11 1;
#X connect 2 0 18 1;
#X connect 2 1 12 1;
#X connect 2 1 17 1;
#X connect 3 0 9 0;
#X connect 3 0 4 0;
#X connect 4 0 11 0;
#X connect 4 0 17 0;
#X connect 5 0 3 0;
#X connect 6 0 5 0;
#X connect 6 1 5 1;
#X connect 7 0 15 0;
#X connect 7 1 15 1;
#X connect 8 0 7 0;
#X connect 9 0 10 0;
#X connect 10 0 12 0;
#X connect 10 0 18 0;
#X connect 11 0 13 0;
#X connect 12 0 13 1;
#X connect 13 0 49 0;
#X connect 14 0 15 0;
#X connect 15 0 5 0;
#X connect 16 0 41 0;
#X connect 17 0 19 0;
#X connect 18 0 19 1;
#X connect 19 0 49 1;
#X connect 22 0 21 0;
#X connect 23 0 31 0;
#X connect 24 0 31 0;
#X connect 25 0 2 0;
#X connect 26 0 27 0;
#X connect 27 0 28 0;
#X connect 28 0 29 0;
#X connect 29 0 32 0;
#X connect 30 0 31 1;
#X connect 31 0 16 1;
#X connect 32 0 30 0;
#X connect 33 0 37 1;
#X connect 34 0 26 0;
#X connect 35 0 34 0;
#X connect 36 0 29 1;
#X connect 37 0 36 0;
#X connect 38 0 36 1;
#X connect 39 0 40 0;
#X connect 41 0 0 0;
#X connect 42 0 8 0;
#X connect 43 0 6 0;
#X connect 44 0 38 0;
#X connect 45 0 33 0;
#X connect 46 0 35 1;
#X connect 47 0 48 0;
#X connect 49 0 16 0;
#X connect 49 0 37 0;
#X connect 49 1 21 0;
#X connect 49 1 35 0;
#X connect 49 1 24 0;
#X connect 49 2 23 0;
#X restore 22 63 pd modulation;
#N canvas 0 0 478 489 filter 0;
#X obj 149 403 outlet~;
#X obj 148 342 inlet~;
#X floatatom 196 193 5 0 0 0 - - -;
#X obj 196 261 mtof;
#X floatatom 232 291 7 0 0 0 - - -;
#X obj 196 218 + \$4;
#X obj 64 415 print~;
#X obj 92 372 bng 15 250 50 0 empty empty empty 0 -6 0 8 -262144 -1
-1;
#X obj 210 335 t f b;
#X obj 148 376 butterworth-lp3~ 3000;
#X obj 196 166 fparam \$1 filterbias;
#X connect 1 0 9 0;
#X connect 2 0 5 0;
#X connect 3 0 4 0;
#X connect 3 0 8 0;
#X connect 5 0 3 0;
#X connect 7 0 6 0;
#X connect 8 0 9 1;
#X connect 8 1 9 3;
#X connect 9 0 0 0;
#X connect 9 0 6 0;
#X connect 10 0 2 0;
#X restore 22 38 pd filter;
#X obj 138 44 *~ 0;
#X obj 314 106 outlet~;
#N canvas 420 188 526 259 pitchshift 0;
#X obj 66 130 outlet~;
#X obj 67 28 inlet~;
#X text 213 6 PITCH SHIFTER;
#N canvas 0 22 450 300 delwrite 0;
#X obj 68 99 outlet~;
#X obj 67 28 inlet~;
#X obj 83 64 delwrite~ \$0-psdel 5000;
#X connect 1 0 2 0;
#X connect 1 0 0 0;
#X restore 67 61 pd delwrite;
#N canvas 0 102 852 708 delread 0;
#X obj 116 682 outlet~;
#X obj 51 23 inlet~;
#X obj 135 377 *~;
#X floatatom 298 121 0 0 0 0 - - -;
#X obj 78 150 exp;
#X floatatom 79 171 6 0 0 0 - - -;
#X obj 80 388 cos~;
#X obj 79 437 *~;
#X obj 79 457 +~;
#X obj 223 316 wrap~;
#X obj 281 379 *~;
#X obj 222 466 *~;
#X obj 223 289 +~ 0.5;
#X obj 80 364 -~ 0.5;
#X obj 79 189 - 1;
#X obj 78 106 * 0.05776;
#X obj 79 210 * -1;
#X text 132 164 speed;
#X text 131 178 change;
#X obj 79 316 phasor~;
#X text 386 270 delay;
#X text 383 288 (msec);
#X obj 298 148 max 1;
#X obj 481 386 *~;
#X obj 424 167 exp;
#X floatatom 425 186 6 0 0 0 - - -;
#X obj 425 426 cos~;
#X obj 425 446 *~;
#X obj 425 466 +~;
#X obj 569 325 wrap~;
#X obj 627 388 *~;
#X obj 568 448 cos~;
#X obj 568 475 *~;
#X obj 569 298 +~ 0.5;
#X obj 425 386 -~ 0.5;
#X obj 425 406 *~ 0.5;
#X obj 568 387 -~ 0.5;
#X obj 568 420 *~ 0.5;
#X obj 425 202 - 1;
#X obj 424 120 * 0.05776;
#X obj 425 223 * -1;
#X text 478 173 speed;
#X text 477 187 change;
#X obj 425 325 phasor~;
#X obj 135 429 vd~ \$0-psdel;
#X obj 281 441 vd~ \$0-psdel;
#X obj 481 438 vd~ \$0-psdel;
#X obj 627 450 vd~ \$0-psdel;
#X obj 78 128 * 0.01;
#X obj 424 142 * 0.01;
#X text 274 50 window (msec);
#X obj 271 97 t b f;
#X obj 206 127 random 100;
#X obj 206 151 * 0.01;
#X obj 471 253 random 100;
#X obj 471 277 * 0.01;
#X obj 79 488 *~ 0;
#X obj 404 619 *~ 0;
#X obj 423 511 *~ 0;
#X obj 135 403 +~ 0.025;
#X obj 281 412 +~ 0.025;
#X obj 481 412 +~ 0.025;
#X obj 627 421 +~ 0.025;
#X obj 118 488 amp-qdumb \$1 amp1;
#X obj 459 510 amp-qdumb \$1 amp2;
#X obj 275 70 fparam \$1 window;
#X obj 443 619 amp-qdumb \$1 amp0;
#X obj 403 592 delread~ \$0-psdel 0;
#X obj 603 45 r \$1-hz;
#X obj 309 179 pack 0 11.61;
#X obj 604 70 spigot;
#X obj 659 70 fparam \$1 pss;
#X obj 309 204 line~;
#X obj 211 206 pack 0 11.61;
#X obj 211 231 line~;
#X obj 211 182 expr 1000/$f1;
#X obj 79 259 *~ 0;
#X obj 425 268 *~ 0;
#X obj 604 94 max 1;
#X obj 604 118 expr 2000/$f1;
#X obj 78 83 fparam \$1 trans1;
#X obj 424 98 fparam \$1 trans2;
#X floatatom 613 202 5 0 0 0 - - -;
#X floatatom 652 195 5 0 0 0 - - -;
#X obj 80 412 +~ 1;
#X obj 225 397 cos~;
#X obj 225 373 -~ 0.5;
#X obj 225 421 +~ 1;
#X connect 2 0 59 0;
#X connect 3 0 22 0;
#X connect 4 0 5 0;
#X connect 5 0 14 0;
#X connect 6 0 84 0;
#X connect 7 0 8 0;
#X connect 8 0 56 0;
#X connect 9 0 10 0;
#X connect 9 0 86 0;
#X connect 10 0 60 0;
#X connect 11 0 8 1;
#X connect 12 0 9 0;
#X connect 13 0 6 0;
#X connect 14 0 16 0;
#X connect 15 0 48 0;
#X connect 16 0 76 1;
#X connect 19 0 2 0;
#X connect 19 0 13 0;
#X connect 19 0 12 0;
#X connect 22 0 69 0;
#X connect 22 0 75 0;
#X connect 23 0 61 0;
#X connect 24 0 25 0;
#X connect 25 0 38 0;
#X connect 26 0 27 0;
#X connect 27 0 28 0;
#X connect 28 0 58 0;
#X connect 29 0 30 0;
#X connect 29 0 36 0;
#X connect 30 0 62 0;
#X connect 31 0 32 0;
#X connect 32 0 28 1;
#X connect 33 0 29 0;
#X connect 34 0 35 0;
#X connect 35 0 26 0;
#X connect 36 0 37 0;
#X connect 37 0 31 0;
#X connect 38 0 40 0;
#X connect 39 0 49 0;
#X connect 40 0 77 1;
#X connect 43 0 23 0;
#X connect 43 0 34 0;
#X connect 43 0 33 0;
#X connect 44 0 7 1;
#X connect 45 0 11 1;
#X connect 46 0 27 1;
#X connect 47 0 32 1;
#X connect 48 0 4 0;
#X connect 49 0 24 0;
#X connect 51 0 52 0;
#X connect 51 0 54 0;
#X connect 51 1 3 0;
#X connect 52 0 53 0;
#X connect 53 0 19 1;
#X connect 54 0 55 0;
#X connect 55 0 43 1;
#X connect 56 0 0 0;
#X connect 57 0 0 0;
#X connect 58 0 0 0;
#X connect 59 0 44 0;
#X connect 60 0 45 0;
#X connect 61 0 46 0;
#X connect 62 0 47 0;
#X connect 63 0 56 1;
#X connect 64 0 58 1;
#X connect 65 0 51 0;
#X connect 66 0 57 1;
#X connect 67 0 57 0;
#X connect 68 0 70 0;
#X connect 69 0 72 0;
#X connect 69 0 83 0;
#X connect 70 0 78 0;
#X connect 71 0 70 1;
#X connect 72 0 10 1;
#X connect 72 0 2 1;
#X connect 72 0 23 1;
#X connect 72 0 30 1;
#X connect 73 0 74 0;
#X connect 73 0 82 0;
#X connect 74 0 76 0;
#X connect 74 0 77 0;
#X connect 75 0 73 0;
#X connect 76 0 19 0;
#X connect 77 0 43 0;
#X connect 78 0 79 0;
#X connect 79 0 22 0;
#X connect 80 0 15 0;
#X connect 81 0 39 0;
#X connect 84 0 7 0;
#X connect 85 0 87 0;
#X connect 86 0 85 0;
#X connect 87 0 11 0;
#X restore 67 101 pd delread;
#N canvas 103 245 723 688 delread2 0;
#X obj 18 589 outlet~;
#X obj 51 23 inlet~;
#X obj 97 159 exp;
#X floatatom 98 180 6 0 0 0 - - -;
#X obj 224 303 wrap~;
#X obj 223 454 cos~;
#X obj 223 501 *~;
#X obj 224 281 +~ 0.5;
#X obj 224 345 -~ 0.5;
#X obj 97 115 * 0.05776;
#X text 151 173 speed;
#X text 150 187 change;
#X obj 78 286 phasor~;
#X obj 331 432 vd~ \$0-psdel;
#X obj 17 563 *~ 0;
#X obj 97 137 * 0.01;
#X obj 78 259 *;
#X obj 316 197 r \$1-hz;
#X obj 331 408 samphold~;
#X obj 320 285 phasor~;
#X obj 385 286 expr 1000/max($f1 \, 1);
#X obj 320 309 *~;
#X obj 320 334 +~ 0.02;
#X obj 223 407 *~ 1;
#X obj 223 431 clip~ -0.5 0.5;
#X obj 223 478 +~ 1;
#X obj 568 347 + 1;
#X obj 568 275 fparam \$1 squeeze;
#X obj 568 299 max 0;
#X obj 16 453 cos~;
#X obj 16 500 *~;
#X obj 124 431 vd~ \$0-psdel;
#X obj 124 407 samphold~;
#X obj 16 406 *~ 1;
#X obj 16 430 clip~ -0.5 0.5;
#X obj 16 477 +~ 1;
#X obj 16 344 -~ 0.5;
#X obj 16 524 +~;
#X obj 96 92 - 1200;
#X obj 568 323 / 100;
#X obj 96 69 fparam \$1 trans1;
#X obj 66 563 amp-qdumb \$1 amp1b 2;
#X connect 2 0 3 0;
#X connect 3 0 16 1;
#X connect 4 0 8 0;
#X connect 4 0 18 1;
#X connect 5 0 25 0;
#X connect 6 0 37 1;
#X connect 7 0 4 0;
#X connect 8 0 23 0;
#X connect 9 0 15 0;
#X connect 12 0 7 0;
#X connect 12 0 36 0;
#X connect 12 0 32 1;
#X connect 13 0 6 1;
#X connect 14 0 0 0;
#X connect 15 0 2 0;
#X connect 16 0 12 0;
#X connect 17 0 16 0;
#X connect 17 0 19 0;
#X connect 17 0 20 0;
#X connect 18 0 13 0;
#X connect 19 0 21 0;
#X connect 20 0 21 1;
#X connect 21 0 22 0;
#X connect 22 0 18 0;
#X connect 22 0 32 0;
#X connect 23 0 24 0;
#X connect 24 0 5 0;
#X connect 25 0 6 0;
#X connect 26 0 23 1;
#X connect 26 0 33 1;
#X connect 27 0 28 0;
#X connect 28 0 39 0;
#X connect 29 0 35 0;
#X connect 30 0 37 0;
#X connect 31 0 30 1;
#X connect 32 0 31 0;
#X connect 33 0 34 0;
#X connect 34 0 29 0;
#X connect 35 0 30 0;
#X connect 36 0 33 0;
#X connect 37 0 14 0;
#X connect 38 0 9 0;
#X connect 39 0 26 0;
#X connect 40 0 38 0;
#X connect 41 0 14 1;
#X restore 159 101 pd delread2;
#N canvas 63 132 715 892 fft-pshift 0;
#X obj 136 792 outlet~;
#X obj 51 23 inlet~;
#X obj 168 22 inlet~;
#X obj 273 34 tabreceive~ pshift-anal-wind;
#X obj 177 766 tabreceive~ pshift-resynth-wind;
#X obj 50 60 *~;
#X obj 169 64 *~;
#X obj 50 84 rfft~;
#X obj 169 88 rfft~;
#X obj 489 253 fparam \$1 pvocon;
#X obj 136 769 *~;
#X obj 98 373 complex-mpy~;
#X obj 50 173 complex-mpy-conj~;
#X obj 144 119 complex-norm16~;
#X obj 51 212 +~ 1e-15;
#X obj 92 294 *~;
#X text 123 279 stretch factor;
#X obj 93 329 cos~;
#X obj 133 305 -~ 0.25;
#X obj 133 329 cos~;
#X obj 97 404 complex-scale~;
#X obj 213 434 lrshift~ 1;
#X obj 224 410 lrshift~ -1;
#X obj 211 489 *~;
#X obj 399 407 fparam \$1 lock;
#X obj 399 433 / 100;
#X obj 193 514 -~;
#X obj 104 453 lrshift~ 1;
#X obj 112 429 lrshift~ -1;
#X obj 114 486 *~;
#X obj 96 511 -~;
#X obj 96 560 complex-norm16~;
#X obj 111 620 complex-scale~;
#N canvas 0 0 450 300 totab 0;
#X obj 81 31 inlet~;
#X obj 80 105 outlet~;
#X obj 100 66 tabsend~ \$0-pshift-buf;
#X connect 0 0 1 0;
#X connect 0 0 2 0;
#X restore 137 714 pd totab;
#X obj 112 648 rifft~;
#N canvas 26 185 450 300 fromtab 0;
#X obj 79 26 inlet~;
#X obj 195 28 bang~;
#X obj 85 214 line~;
#X obj 259 29 inlet;
#X obj 195 64 f;
#X text 71 48 not used;
#X obj 195 90 t f f;
#X obj 273 88 r pshift-window-size;
#X obj 75 163 pack;
#X obj 266 176 r pshift-window-size;
#X obj 311 206 samplerate~;
#X obj 262 204 t f b;
#X obj 311 230 / 1000;
#X obj 262 228 /;
#X floatatom 303 266 5 0 0 0 - - -;
#X obj 85 264 outlet~;
#X obj 8 246 print~;
#X obj 12 218 bng 15 250 50 0 empty empty empty 17 7 0 10 -262144 -1
-1;
#X obj 85 240 tabread4~ \$0-pshift-buf;
#X obj 240 135 expr ($f2/2)*(1-$f1/2);
#X obj 261 265 / 4;
#X obj 75 136 expr ($f2/2)*(1+3*$f1/2);
#X connect 1 0 4 0;
#X connect 2 0 16 0;
#X connect 2 0 18 0;
#X connect 3 0 4 1;
#X connect 4 0 6 0;
#X connect 6 0 21 0;
#X connect 6 1 19 0;
#X connect 7 0 19 1;
#X connect 7 0 21 1;
#X connect 8 0 2 0;
#X connect 9 0 11 0;
#X connect 10 0 12 0;
#X connect 11 0 13 0;
#X connect 11 1 10 0;
#X connect 12 0 13 1;
#X connect 13 0 14 0;
#X connect 13 0 20 0;
#X connect 17 0 16 0;
#X connect 18 0 15 0;
#X connect 19 0 2 0;
#X connect 20 0 8 1;
#X connect 21 0 8 0;
#X restore 136 743 pd fromtab;
#X obj 137 686 *~ 0;
#X obj 276 718 r pshift-window-size;
#X obj 218 690 amp-qdumb \$1 amp1c;
#X obj 219 717 / 2048;
#X obj 318 142 exp;
#X floatatom 318 164 6 0 0 0 - - -;
#X obj 318 98 * 0.05776;
#X text 371 163 speed;
#X text 371 175 change;
#X obj 318 120 * 0.01;
#X obj 326 190 * 512;
#X obj 370 193 r pshift-window-size;
#X obj 370 216 / 4;
#X obj 490 285 table \$0-pshift-real 2048;
#X obj 488 313 table \$0-pshift-imag 2048;
#X obj 264 305 tabreceive~ \$0-pshift-real;
#X obj 280 335 tabreceive~ \$0-pshift-imag;
#X obj 490 349 table \$0-pshift-buf 2048;
#X obj 243 591 tabsend~ \$0-pshift-imag;
#X obj 242 617 tabsend~ \$0-pshift-real;
#X obj 531 83 block~ 2048 4;
#X obj 489 610 env~ 8192;
#X floatatom 489 634 5 0 0 0 - - -;
#X obj 97 533 +~ 1e-15;
#X obj 51 242 expr~ (1./6.28318)*atan2($v2 \, $v1);
#X obj 318 75 fparam \$1 trans1;
#X connect 1 0 5 0;
#X connect 2 0 6 0;
#X connect 3 0 5 1;
#X connect 3 0 6 1;
#X connect 4 0 10 1;
#X connect 5 0 7 0;
#X connect 6 0 8 0;
#X connect 7 0 12 0;
#X connect 7 1 12 1;
#X connect 8 0 13 0;
#X connect 8 1 13 1;
#X connect 10 0 0 0;
#X connect 11 0 20 0;
#X connect 11 1 20 1;
#X connect 12 0 14 0;
#X connect 12 1 60 1;
#X connect 13 0 12 2;
#X connect 13 1 12 3;
#X connect 13 2 20 2;
#X connect 13 2 32 2;
#X connect 14 0 60 0;
#X connect 15 0 17 0;
#X connect 15 0 18 0;
#X connect 17 0 11 0;
#X connect 18 0 19 0;
#X connect 19 0 11 1;
#X connect 20 0 27 0;
#X connect 20 0 28 0;
#X connect 20 0 30 0;
#X connect 20 1 26 0;
#X connect 20 1 21 0;
#X connect 20 1 22 0;
#X connect 21 0 23 0;
#X connect 22 0 23 0;
#X connect 23 0 26 1;
#X connect 24 0 25 0;
#X connect 25 0 23 1;
#X connect 25 0 29 1;
#X connect 26 0 31 1;
#X connect 27 0 29 0;
#X connect 28 0 29 0;
#X connect 29 0 30 1;
#X connect 30 0 59 0;
#X connect 31 0 32 0;
#X connect 31 0 55 0;
#X connect 31 1 32 1;
#X connect 31 1 54 0;
#X connect 32 0 34 0;
#X connect 32 1 34 1;
#X connect 33 0 35 0;
#X connect 34 0 36 0;
#X connect 35 0 10 0;
#X connect 36 0 33 0;
#X connect 37 0 39 1;
#X connect 38 0 39 0;
#X connect 39 0 36 1;
#X connect 40 0 41 0;
#X connect 41 0 46 0;
#X connect 41 0 35 1;
#X connect 42 0 45 0;
#X connect 45 0 40 0;
#X connect 46 0 15 1;
#X connect 47 0 48 0;
#X connect 48 0 46 1;
#X connect 51 0 11 2;
#X connect 52 0 11 3;
#X connect 57 0 58 0;
#X connect 59 0 31 0;
#X connect 60 0 15 0;
#X connect 61 0 42 0;
#X restore 407 114 pd fft-pshift;
#X obj 401 62 biquad~ 0 0 0 1 0;
#N canvas 538 359 567 614 delread3 0;
#X obj 133 546 outlet~;
#X obj 435 69 inlet~;
#X obj 135 341 *~;
#X obj 99 141 exp;
#X floatatom 100 162 6 0 0 0 - - -;
#X obj 41 358 cos~;
#X obj 100 180 - 1;
#X obj 99 97 * 0.05776;
#X obj 100 201 * -1;
#X text 148 152 speed;
#X text 147 166 change;
#X obj 305 144 max 1;
#X obj 135 429 vd~ \$0-psdel;
#X obj 238 438 vd~ \$0-psdel;
#X obj 99 119 * 0.01;
#X obj 134 517 *~ 0;
#X obj 135 403 +~ 0.025;
#X obj 238 413 +~ 0.025;
#X obj 305 69 r \$1-hz;
#X obj 309 179 pack 0 11.61;
#X obj 309 205 line~;
#X obj 203 203 pack 0 11.61;
#X obj 203 228 line~;
#X obj 203 179 expr 1000/$f1;
#X obj 79 259 *~ 0;
#X obj 305 95 max 1;
#X obj 99 74 fparam \$1 trans1;
#X floatatom 348 255 5 0 0 0 - - -;
#X floatatom 402 255 5 0 0 0 - - -;
#X obj 41 382 +~ 1;
#X obj 41 334 *~ 0.5;
#X obj 134 456 -~;
#X obj 99 456 *~;
#X obj 135 487 +~;
#X obj 79 301 phasor~;
#X obj 134 377 +~;
#X obj 174 517 amp-qdumb \$1 amp1d;
#X obj 305 119 expr 1000/$f1;
#X obj 41 406 *~ 0.5;
#X connect 2 0 35 0;
#X connect 2 0 17 0;
#X connect 3 0 4 0;
#X connect 4 0 6 0;
#X connect 5 0 29 0;
#X connect 6 0 8 0;
#X connect 7 0 14 0;
#X connect 8 0 24 1;
#X connect 11 0 19 0;
#X connect 11 0 23 0;
#X connect 12 0 31 0;
#X connect 13 0 31 1;
#X connect 13 0 33 1;
#X connect 14 0 3 0;
#X connect 15 0 0 0;
#X connect 16 0 12 0;
#X connect 17 0 13 0;
#X connect 18 0 25 0;
#X connect 19 0 20 0;
#X connect 19 0 28 0;
#X connect 20 0 2 1;
#X connect 20 0 35 1;
#X connect 21 0 22 0;
#X connect 21 0 27 0;
#X connect 22 0 24 0;
#X connect 23 0 21 0;
#X connect 24 0 34 0;
#X connect 25 0 37 0;
#X connect 26 0 7 0;
#X connect 29 0 38 0;
#X connect 30 0 5 0;
#X connect 31 0 32 1;
#X connect 32 0 33 0;
#X connect 33 0 15 0;
#X connect 34 0 2 0;
#X connect 34 0 30 0;
#X connect 35 0 16 0;
#X connect 36 0 15 1;
#X connect 37 0 11 0;
#X connect 38 0 32 0;
#X restore 248 101 pd delread3;
#X connect 1 0 3 0;
#X connect 1 0 6 0;
#X connect 1 0 7 0;
#X connect 3 0 4 0;
#X connect 3 0 5 0;
#X connect 3 0 8 0;
#X connect 4 0 0 0;
#X connect 5 0 0 0;
#X connect 6 0 0 0;
#X connect 7 0 6 1;
#X connect 8 0 0 0;
#X restore 138 140 pd pitchshift;
#X obj 137 250 rampdown~;
#X obj 168 225 line~;
#X obj 138 225 *~;
#X msg 289 262 0 \, 1 5;
#X obj 299 238 r \$1-ramp-master;
#X obj 289 215 loadbang;
#X obj 473 94 env~ 8192;
#X floatatom 474 133 5 0 0 0 - - -;
#X obj 73 322 fparam \$1 pvocon;
#X obj 161 20 amp-qdumb \$1 thru;
#X connect 0 0 7 0;
#X connect 0 0 8 0;
#X connect 2 0 3 0;
#X connect 3 0 1 0;
#X connect 5 0 10 0;
#X connect 6 0 5 0;
#X connect 7 0 6 0;
#X connect 7 0 9 0;
#X connect 8 0 5 0;
#X connect 8 0 17 0;
#X connect 10 0 13 0;
#X connect 11 0 4 0;
#X connect 12 0 13 1;
#X connect 13 0 11 0;
#X connect 14 0 12 0;
#X connect 15 0 14 0;
#X connect 15 0 11 1;
#X connect 16 0 14 0;
#X connect 17 0 18 0;
#X connect 19 0 2 0;
#X connect 20 0 8 1;
#X restore 121 95 pd processing;
#N canvas 80 387 794 505 voice-changer 0;
#X obj 41 20 r \$1-attack;
#X obj 41 96 + 1;
#X obj 41 219 t b f;
#X obj 41 243 f \$1;
#X obj 47 287 s qlist-recall-string;
#X obj 48 265 pack;
#X obj 41 46 spigot;
#X obj 122 46 r nutso;
#X obj 98 48 tgl 15 0 empty empty empty 0 -6 0 8 -262144 -1 -1 0 1
;
#X obj 244 316 print;
#X obj 245 284 spigot;
#X obj 279 242 r loud-nutso;
#X obj 203 19 r reset;
#X obj 41 73 random 43;
#X obj 280 264 tgl 15 0 empty empty empty 17 7 0 10 -262144 -1 -1 0
1;
#X obj 497 37 r \$1-attack;
#X obj 497 63 spigot;
#X obj 548 65 tgl 15 0 empty empty empty 0 -6 0 8 -262144 -1 -1 0 1
;
#X obj 578 63 r scatsinger;
#X obj 559 204 random 56;
#X obj 559 227 + 30;
#X obj 561 278 s \$1-vsamp;
#X obj 522 126 timer;
#X obj 521 151 > 80;
#X obj 576 249 v scat-last;
#X obj 435 124 s scat-bang;
#X obj 544 91 r scat-bang;
#X obj 497 89 t b b;
#X obj 522 174 sel 0 1;
#X obj 472 206 v scat-last;
#X msg 203 42 \; nutso 0 \; sneak -1;
#X obj 111 107 r \$1-attack;
#X obj 111 133 spigot;
#X obj 168 135 tgl 15 0 empty empty empty 0 -6 0 8 -262144 -1 -1 0
1;
#X obj 210 108 r sneak;
#X obj 210 131 != -1;
#X obj 148 159 r sneak;
#X obj 112 158 f;
#X msg 147 188 0;
#X msg 329 41 \; sneak 16;
#X connect 0 0 6 0;
#X connect 1 0 2 0;
#X connect 2 0 3 0;
#X connect 2 1 5 1;
#X connect 3 0 5 0;
#X connect 5 0 4 0;
#X connect 5 0 10 0;
#X connect 6 0 13 0;
#X connect 7 0 8 0;
#X connect 8 0 6 1;
#X connect 10 0 9 0;
#X connect 11 0 14 0;
#X connect 12 0 30 0;
#X connect 13 0 1 0;
#X connect 14 0 10 1;
#X connect 15 0 16 0;
#X connect 16 0 27 0;
#X connect 17 0 16 1;
#X connect 18 0 17 0;
#X connect 19 0 20 0;
#X connect 20 0 21 0;
#X connect 20 0 24 0;
#X connect 22 0 23 0;
#X connect 23 0 28 0;
#X connect 26 0 22 0;
#X connect 27 0 25 0;
#X connect 27 1 22 1;
#X connect 28 0 29 0;
#X connect 28 1 19 0;
#X connect 29 0 21 0;
#X connect 31 0 32 0;
#X connect 32 0 37 0;
#X connect 33 0 32 1;
#X connect 34 0 35 0;
#X connect 35 0 33 0;
#X connect 36 0 37 1;
#X connect 37 0 38 0;
#X connect 37 0 2 0;
#X connect 38 0 33 0;
#X restore 317 57 pd voice-changer;
#X obj 207 118 s~ \$1-imod~;
#X floatatom 131 76 7 0 0 0 - - -;
#X obj 122 183 outlet~;
#X floatatom 192 76 7 0 0 0 - - -;
#X obj 131 54 unpack;
#X obj 121 151 +~;
#N canvas 603 154 346 449 osc 0;
#X obj 51 193 osc~;
#X obj 51 215 +~ 0.15;
#X obj 51 237 cos~;
#X obj 51 301 *~ 0;
#X obj 87 300 amp-qdumb \$1 osc;
#X obj 51 268 *~;
#X obj 128 184 r \$1-fastdb;
#X obj 130 210 dbtorms;
#X obj 130 234 pack 0 11;
#X obj 130 258 line~;
#X obj 54 21 r \$1-hz;
#X obj 51 325 outlet~;
#X obj 179 9 fparam \$1 quantize;
#X obj 109 60 spigot;
#X obj 55 54 spigot;
#X obj 110 108 + 0.5;
#X obj 110 132 i;
#X obj 109 85 ftom;
#X obj 110 156 mtof;
#X floatatom 192 126 5 0 0 0 - - -;
#X floatatom 227 103 5 0 0 0 - - -;
#X obj 126 33 == 0;
#X connect 0 0 1 0;
#X connect 1 0 2 0;
#X connect 2 0 5 0;
#X connect 3 0 11 0;
#X connect 4 0 3 1;
#X connect 5 0 3 0;
#X connect 6 0 7 0;
#X connect 7 0 8 0;
#X connect 8 0 9 0;
#X connect 9 0 5 1;
#X connect 10 0 14 0;
#X connect 10 0 13 0;
#X connect 12 0 13 1;
#X connect 12 0 21 0;
#X connect 13 0 17 0;
#X connect 13 0 20 0;
#X connect 14 0 0 0;
#X connect 14 0 19 0;
#X connect 15 0 16 0;
#X connect 16 0 18 0;
#X connect 17 0 15 0;
#X connect 18 0 0 0;
#X connect 21 0 14 1;
#X restore 225 157 pd osc;
#X connect 1 0 3 0;
#X connect 2 0 12 0;
#X connect 3 0 0 0;
#X connect 4 0 2 0;
#X connect 4 0 6 0;
#X connect 5 0 13 1;
#X connect 6 0 13 0;
#X connect 6 1 8 0;
#X connect 12 0 9 0;
#X connect 12 1 11 0;
#X connect 13 0 3 1;
#X connect 13 0 10 0;
#X connect 14 0 13 1;
