#N canvas 299 205 731 661 10;
#X declare -path lib;
#X obj 343 579 declare -path lib;
#N canvas 0 22 450 300 (subpatch) 0;
#X array array1 1024 float 0;
#X coords 0 1 1023 -1 400 140 1;
#X restore 301 402 graph;
#X obj 320 170 adc~;
#X text 300 152 live sample;
#N canvas 74 242 950 526 insample 0;
#N canvas 0 22 450 300 (subpatch) 0;
#X array sample 27428 float 0;
#X coords 0 1 27427 -1 400 150 1;
#X restore 199 18 graph;
#X obj 19 70 r read-sample;
#X obj 19 95 unpack s f;
#X obj 62 117 s insamprate;
#X obj 19 171 soundfiler;
#X msg 19 147 read -resize \$1 sample;
#X obj 19 201 s insamplength;
#X msg 357 197 \; sample resize 220500 \; insamplength 220500;
#X obj 62 282 s insamprate;
#X obj 65 233 loadbang;
#X msg 63 257 44100;
#X msg 146 234 \; pd dsp 1;
#X obj 602 396 soundfiler;
#X obj 602 426 s insamplength;
#X obj 681 279 r read-sample;
#X obj 618 326 pack 0 s;
#X floatatom 622 202 5 0 0 0 - - -;
#X obj 613 240 * 44100;
#X msg 602 372 read -maxsize 1e+06 -skip \$1 \$2 sample;
#X msg 322 329 \; sample resize 2.205e+06 \; insamplength 2.205e+06
;
#X obj 680 301 symbol;
#X connect 1 0 2 0;
#X connect 2 0 5 0;
#X connect 2 1 3 0;
#X connect 4 0 6 0;
#X connect 5 0 4 0;
#X connect 9 0 10 0;
#X connect 9 0 11 0;
#X connect 10 0 8 0;
#X connect 12 0 13 0;
#X connect 14 0 20 0;
#X connect 15 0 18 0;
#X connect 16 0 17 0;
#X connect 17 0 15 0;
#X connect 18 0 12 0;
#X connect 20 0 15 1;
#X restore 354 241 pd insample;
#X obj 300 191 tabwrite~ sample;
#X obj 300 167 bng 15 250 50 0 empty empty empty 0 -6 0 8 -262144 -1
-1;
#X text 324 11 (1) read a sample;
#N canvas 746 541 278 227 loadbang 0;
#X obj 84 65 loadbang;
#X msg 82 93 \; bash-blksize 512;
#X connect 0 0 1 0;
#X restore 355 261 pd loadbang;
#N canvas 132 108 610 492 hanning-window 0;
#X obj 60 232 phasor~;
#X obj 60 255 cos~;
#X msg 24 208 0;
#N canvas 0 22 450 300 (subpatch) 0;
#X array hanning2 4096 float 2;
#X coords 0 1 4096 0 300 150 1;
#X restore 284 82 graph;
#X obj 61 203 sig~;
#X text 90 176 sample rate / window size;
#X obj 69 143 samplerate~;
#X obj 14 119 t b f;
#X obj 61 179 /;
#X obj 14 324 tabwrite~ hanning2;
#X obj 13 68 r bash-blksize;
#X obj 59 276 -~ 1;
#X obj 59 299 *~ -0.5;
#X obj 13 91 * 2;
#N canvas 0 22 450 300 (subpatch) 0;
#X array square-window 4096 float 2;
#X coords 0 1 4096 0 300 150 1;
#X restore 279 267 graph;
#X obj 32 391 tabwrite~ square-window;
#X obj 150 275 -~ 0.5;
#X obj 151 299 +~ 1e-06;
#X obj 153 347 clip~ 0 1;
#X obj 151 322 *~ -1e+20;
#X connect 0 0 1 0;
#X connect 0 0 16 0;
#X connect 1 0 11 0;
#X connect 2 0 0 1;
#X connect 4 0 0 0;
#X connect 6 0 8 0;
#X connect 7 0 6 0;
#X connect 7 0 9 0;
#X connect 7 0 2 0;
#X connect 7 0 15 0;
#X connect 7 1 8 1;
#X connect 8 0 4 0;
#X connect 10 0 13 0;
#X connect 11 0 12 0;
#X connect 12 0 9 0;
#X connect 13 0 7 0;
#X connect 16 0 17 0;
#X connect 17 0 19 0;
#X connect 18 0 15 0;
#X connect 19 0 18 0;
#X restore 355 282 pd hanning-window;
#X obj 155 223 bng 30 250 50 0 empty empty empty 0 -6 0 8 -262144 -1
-1;
#N canvas 101 520 759 441 unphase 0;
#X obj 28 16 r bash-blksize;
#X obj 159 193 rfft~;
#X obj 159 313 rifft~;
#X obj 159 169 *~;
#X obj 161 405 outlet~;
#X obj 160 18 inlet~;
#X obj 158 221 *~;
#X obj 190 221 *~;
#X obj 159 251 q8_sqrt~;
#X obj 182 139 *~ 0;
#X obj 183 77 tabreceive~ hanning2;
#X obj 228 223 samplerate~;
#X obj 350 163 bang~;
#X obj 159 290 *~;
#X obj 415 111 inlet;
#X obj 378 224 spigot;
#X msg 415 137 1;
#X msg 429 228 0;
#X obj 378 293 outlet;
#X obj 27 147 block~;
#X obj 160 378 *~;
#X obj 228 265 phasor~;
#X obj 228 243 / 1;
#X obj 284 265 0.75;
#X obj 227 288 -~ 0.25;
#X msg 52 119 set 1024 2;
#X msg 48 98 set 1024 1;
#X obj 28 44 * 2;
#X obj 378 270 delay;
#X obj 563 225 - 63.75;
#X obj 563 201 * 2;
#X obj 563 180 r bash-blksize;
#X msg 28 73 set \$1 2;
#X obj 176 354 tabreceive~ square-window;
#X obj 205 115 expr 2/$f1;
#X obj 563 251 t f b;
#X obj 605 252 samplerate~;
#X obj 565 278 / 44100;
#X obj 564 310 * 1000;
#X connect 0 0 27 0;
#X connect 1 0 6 0;
#X connect 1 0 6 1;
#X connect 1 1 7 0;
#X connect 1 1 7 1;
#X connect 2 0 20 0;
#X connect 3 0 1 0;
#X connect 5 0 3 0;
#X connect 6 0 8 0;
#X connect 7 0 8 0;
#X connect 8 0 13 0;
#X connect 9 0 3 1;
#X connect 10 0 9 0;
#X connect 11 0 22 0;
#X connect 12 0 11 0;
#X connect 12 0 15 0;
#X connect 12 0 23 0;
#X connect 13 0 2 0;
#X connect 14 0 16 0;
#X connect 15 0 17 0;
#X connect 15 0 28 0;
#X connect 16 0 15 1;
#X connect 17 0 15 1;
#X connect 20 0 4 0;
#X connect 21 0 24 0;
#X connect 22 0 21 0;
#X connect 23 0 21 1;
#X connect 24 0 13 1;
#X connect 25 0 19 0;
#X connect 26 0 19 0;
#X connect 27 0 32 0;
#X connect 27 0 34 0;
#X connect 28 0 18 0;
#X connect 29 0 35 0;
#X connect 30 0 29 0;
#X connect 31 0 30 0;
#X connect 32 0 19 0;
#X connect 33 0 20 1;
#X connect 34 0 9 1;
#X connect 35 0 37 0;
#X connect 35 1 36 0;
#X connect 36 0 37 1;
#X connect 37 0 38 0;
#X connect 38 0 28 1;
#X restore 94 405 pd unphase;
#X obj 34 450 output~;
#X obj 136 484 tabwrite~ array1;
#X obj 546 169 r bash-blksize;
#X floatatom 546 193 5 0 0 0 - - -;
#X obj 515 207 f;
#X obj 515 228 s bash-blksize;
#X obj 515 181 bng 15 250 50 0 empty empty empty 0 -6 0 8 -262144 -1
-1;
#X msg 512 31 \; bash-blksize 256;
#X msg 511 64 \; bash-blksize 512;
#X msg 511 96 \; bash-blksize 1024;
#X msg 512 128 \; bash-blksize 2048;
#X obj 196 224 bng 30 250 50 0 empty empty empty 0 -6 0 8 -262144 -1
-1;
#X text 109 232 start;
#X text 226 236 done;
#N canvas 516 309 554 410 savit 0;
#X obj 48 18 inlet;
#X obj 107 21 inlet;
#X obj 77 66 timer;
#X obj 77 262 soundfiler;
#X obj 110 140 r bash-blksize;
#X obj 77 116 * 44.1;
#X obj 77 140 /;
#X obj 77 161 i;
#X obj 110 181 r bash-blksize;
#X obj 77 181 *;
#X obj 149 66 s resend-tabs;
#X obj 54 325 soundfiler;
#X msg 303 327 write tab/tab-pitch1.wav pitch_tab;
#X obj 303 352 soundfiler;
#X msg 267 276 \; tab-pitch1 write tab/tab-pitch1.txt;
#X obj 261 136 r insampno;
#X obj 261 158 makefilename timbre%d.wav;
#X msg 77 239 write -nframes \$1 \$2 tab-samp1;
#X obj 263 181 symbol;
#X obj 78 208 pack 0 s;
#X obj 77 91 - 150;
#X connect 0 0 2 0;
#X connect 1 0 2 1;
#X connect 2 0 20 0;
#X connect 4 0 6 1;
#X connect 5 0 6 0;
#X connect 6 0 7 0;
#X connect 7 0 9 0;
#X connect 8 0 9 1;
#X connect 9 0 19 0;
#X connect 12 0 13 0;
#X connect 15 0 16 0;
#X connect 16 0 18 0;
#X connect 17 0 3 0;
#X connect 18 0 19 1;
#X connect 19 0 17 0;
#X connect 20 0 5 0;
#X restore 163 272 pd savit;
#X obj 302 73 bng 15 250 50 0 empty empty empty 0 -6 0 8 -262144 -1
-1;
#X obj 302 122 s read-sample;
#X obj 302 98 openpanel;
#X obj 138 463 tabwrite~ tab-samp1;
#X obj 19 33 tabplay~ sample;
#X obj 23 11 bng 15 250 50 0 empty empty empty 0 -6 0 8 -262144 -1
-1;
#X obj 20 56 output~;
#X msg 300 32 \; read-sample lib/x2.wav;
#X obj 354 326 table tab-samp1 441000;
#N canvas 18 104 467 404 prep-input 0;
#X obj 32 189 osc~;
#X floatatom 33 168 5 0 0 0 - - -;
#X floatatom 34 62 5 0 0 0 - - -;
#X obj 33 144 / 1024;
#X obj 186 283 outlet~;
#X obj 33 211 *~ 0.5;
#X obj 223 91 inlet;
#X obj 221 138 tabplay~ sample;
#X obj 211 227 *~ 0;
#X obj 191 250 +~;
#X obj 212 202 -~;
#X obj 45 16 loadbang;
#X obj 44 37 3;
#X obj 124 66 tgl 15 0 empty empty empty 17 7 0 10 -262144 -1 -1 1
1;
#X text 146 66 use sine wave;
#X obj 33 123 *;
#X obj 34 81 t f b;
#X obj 65 105 samplerate~;
#X connect 0 0 5 0;
#X connect 1 0 0 0;
#X connect 2 0 16 0;
#X connect 3 0 1 0;
#X connect 5 0 10 0;
#X connect 6 0 7 0;
#X connect 7 0 10 1;
#X connect 7 0 9 0;
#X connect 8 0 9 1;
#X connect 9 0 4 0;
#X connect 10 0 8 0;
#X connect 11 0 12 0;
#X connect 12 0 2 0;
#X connect 13 0 8 1;
#X connect 15 0 3 0;
#X connect 16 0 15 0;
#X connect 16 1 17 0;
#X connect 17 0 15 1;
#X restore 61 319 pd prep-input;
#X text 508 12 change window size:;
#X floatatom 27 149 5 0 0 0 - - -;
#X floatatom 174 32 5 0 0 0 - - -;
#X obj 158 84 makefilename raw%d.wav;
#X msg 178 114 \; read-sample \$1;
#X obj 28 129 r insamplength;
#X obj 28 169 div 512;
#X obj 27 191 * 512;
#X obj 26 214 / 44.1;
#X obj 190 189 del;
#X obj 136 57 t b f;
#X obj 183 57 s insampno;
#X obj 140 5 bng 15 250 50 0 empty empty empty 17 7 0 10 -262144 -1
-1;
#X obj 142 26 f;
#X obj 174 12 + 1;
#X connect 2 0 5 0;
#X connect 6 0 5 0;
#X connect 10 0 11 1;
#X connect 10 0 26 0;
#X connect 10 0 36 0;
#X connect 11 0 12 0;
#X connect 11 0 12 1;
#X connect 11 0 13 0;
#X connect 11 0 30 0;
#X connect 11 1 13 0;
#X connect 11 1 30 0;
#X connect 14 0 15 0;
#X connect 15 0 16 1;
#X connect 16 0 17 0;
#X connect 18 0 16 0;
#X connect 23 0 26 1;
#X connect 27 0 29 0;
#X connect 29 0 28 0;
#X connect 31 0 33 1;
#X connect 31 0 33 0;
#X connect 32 0 31 0;
#X connect 36 0 11 0;
#X connect 38 0 43 0;
#X connect 39 0 50 1;
#X connect 40 0 41 0;
#X connect 42 0 38 0;
#X connect 43 0 44 0;
#X connect 44 0 45 0;
#X connect 45 0 46 1;
#X connect 46 0 23 0;
#X connect 47 0 10 0;
#X connect 47 0 46 0;
#X connect 47 1 40 0;
#X connect 47 1 48 0;
#X connect 49 0 50 0;
#X connect 50 0 51 0;
#X connect 50 0 47 0;
#X connect 51 0 39 0;
