#N canvas 164 269 874 656 12;
#X declare -path lib -path ../lib;
#N canvas 221 207 701 534 audio 0;
#N canvas 0 22 590 431 Hann-window 0;
#N canvas 0 22 450 300 (subpatch) 0;
#X array Hann-norm 512 float 0;
#X coords 0 0.1 511 0 200 120 1;
#X restore 293 249 graph;
#X msg 171 263 0;
#X obj 65 312 osc~;
#X obj 65 264 samplerate~;
#X obj 65 335 *~ -0.5;
#X obj 65 358 +~ 0.5;
#X text 272 359 0;
#X text 288 372 0;
#X obj 65 288 / 512;
#X obj 57 241 bng 15 250 50 0 empty empty empty 0 -6 0 8 -262144 -1
-1;
#X text 336 221 Hann window;
#X text 113 310 period 512;
#X text 90 215 recalculate Hann;
#X text 125 230 window table;
#X obj 57 188 loadbang;
#X text 474 375 511;
#X text 40 27 The Hann window is computed on 'loadbang' to make the
file smaller (it doesn't have to be saved with the array.);
#X obj 56 407 tabwrite~ Hann-norm;
#X obj 66 380 *~ 0.036;
#X text 270 247 0.1;
#X connect 1 0 2 1;
#X connect 2 0 4 0;
#X connect 3 0 8 0;
#X connect 4 0 5 0;
#X connect 5 0 18 0;
#X connect 8 0 2 0;
#X connect 9 0 3 0;
#X connect 9 0 1 0;
#X connect 9 0 17 0;
#X connect 14 0 9 0;
#X connect 18 0 17 0;
#X restore 364 8 pd Hann-window;
#N canvas 0 22 765 759 hann-for-pvoc 0;
#X obj 92 206 phasor~;
#X obj 64 359 cos~;
#X obj 22 385 tabwrite~ hanning;
#X msg 37 180 0;
#X text 141 13 CALCULATE HANNING;
#X text 141 27 WINDOW TABLE;
#N canvas 0 22 450 300 (subpatch) 0;
#X array hanning 2048 float 0;
#X coords 0 1 2047 -1 400 150 1;
#X restore 281 237 graph;
#X obj 93 171 sig~;
#X text 124 136 sample rate / window size;
#X msg 24 140 bang;
#X obj 94 80 samplerate~;
#X obj 25 23 r window-size;
#X obj 25 53 t b f;
#X obj 93 132 /;
#X obj 368 28 loadbang;
#X obj 369 78 samplerate~;
#X obj 369 102 s sample-rate;
#X obj 369 52 bng 15 250 50 0 empty empty empty 0 -6 0 8 -262144 -1
-1;
#X obj 375 159 loadbang;
#X msg 88 531 \; hanning resize 2048;
#X msg 376 183 \; window-size 2048;
#N canvas 0 22 450 300 (subpatch) 0;
#X array pvoc-resynth-wind 2048 float 0;
#X coords 0 1 2047 -1 400 150 1;
#X restore 283 444 graph;
#X obj 8 432 tabwrite~ pvoc-resynth-wind;
#X obj 92 225 *~ 0.5;
#X obj 92 248 -~ 0.25;
#X obj 154 280 -~ 0.25;
#X obj 156 232 *~ 2;
#X obj 156 255 clip~ 0 0.5;
#X obj 151 380 cos~;
#X connect 0 0 23 0;
#X connect 0 0 26 0;
#X connect 1 0 2 0;
#X connect 3 0 0 1;
#X connect 7 0 0 0;
#X connect 9 0 2 0;
#X connect 9 0 3 0;
#X connect 9 0 22 0;
#X connect 10 0 13 0;
#X connect 11 0 12 0;
#X connect 12 0 10 0;
#X connect 12 0 9 0;
#X connect 12 1 13 1;
#X connect 13 0 7 0;
#X connect 14 0 17 0;
#X connect 15 0 16 0;
#X connect 17 0 15 0;
#X connect 18 0 20 0;
#X connect 23 0 24 0;
#X connect 24 0 1 0;
#X connect 25 0 28 0;
#X connect 26 0 27 0;
#X connect 27 0 25 0;
#X connect 28 0 22 0;
#X restore 497 58 pd hann-for-pvoc;
#N canvas -3 10 659 684 tables-for-pvoc 0;
#X obj 264 122 soundfiler;
#X obj 287 226 loadbang;
#X obj 262 9 loadbang;
#X obj 17 7 table sample-snd1;
#X obj 15 209 table sample-att1 100;
#X obj 16 27 table sample-snd2;
#X obj 15 228 table sample-att2 100;
#X obj 16 49 table sample-snd3;
#X obj 15 248 table sample-att3 100;
#X obj 17 68 table sample-snd4;
#X obj 15 268 table sample-att4 100;
#X obj 17 91 table sample-snd5;
#X obj 18 110 table sample-snd6;
#X obj 14 290 table sample-att5 100;
#X obj 14 309 table sample-att6 100;
#N canvas 361 292 420 431 auto-attack-finder 0;
#X obj 74 36 bng 15 250 50 0 empty empty empty 0 -6 0 8 -262144 -1
-1;
#X obj 89 177 bng 15 250 50 0 empty empty empty 0 -6 0 8 -262144 -1
-1;
#X obj 84 153 spigot 1;
#X obj 113 243 1;
#X obj 119 191 0;
#X obj 72 281 timer;
#X floatatom 236 343 7 0 0 0 - - -;
#X obj 100 318 t f b;
#X obj 157 315 f;
#X obj 186 314 + 1;
#X msg 179 123 0;
#X obj 100 352 tabwrite attacks;
#X floatatom 121 390 7 0 0 0 - - -;
#X obj 111 213 del 500;
#X msg 158 66 \; attacks const 0;
#X obj 76 375 print;
#N canvas 148 269 440 250 attacks 0;
#X obj 139 166 outlet;
#X text 156 144 attacks;
#X obj 149 -1 inlet;
#X obj 216 58 switch~;
#X msg 216 29 1;
#N canvas 137 473 450 300 downsamp 0;
#X obj 89 36 inlet~;
#X obj 125 80 loadbang;
#X obj 75 179 t b;
#X obj 75 204 outlet;
#X msg 123 114 minvel 60;
#X msg 202 114 thresh 35 40;
#X obj 75 152 bonk~;
#X connect 0 0 6 0;
#X connect 1 0 4 0;
#X connect 1 0 5 0;
#X connect 2 0 3 0;
#X connect 4 0 6 0;
#X connect 5 0 6 0;
#X connect 6 0 2 0;
#X restore 144 111 pd downsamp;
#X obj 144 84 tabplay~ sample-snd1;
#X connect 2 0 4 0;
#X connect 2 0 6 0;
#X connect 4 0 3 0;
#X connect 5 0 0 0;
#X connect 6 0 5 0;
#X restore 86 122 pd attacks;
#X obj 297 77 switch~;
#X obj 298 51 tgl 15 0 empty empty empty 0 -6 0 8 -262144 -1 -1 0 1
;
#X connect 0 0 5 0;
#X connect 0 0 10 0;
#X connect 0 0 14 0;
#X connect 0 0 16 0;
#X connect 1 0 4 0;
#X connect 1 0 5 1;
#X connect 1 0 13 0;
#X connect 2 0 1 0;
#X connect 3 0 2 1;
#X connect 4 0 2 1;
#X connect 5 0 7 0;
#X connect 7 0 11 0;
#X connect 7 0 15 0;
#X connect 7 0 12 0;
#X connect 7 1 8 0;
#X connect 8 0 9 0;
#X connect 8 0 11 1;
#X connect 8 0 6 0;
#X connect 9 0 8 1;
#X connect 10 0 8 1;
#X connect 13 0 3 0;
#X connect 16 0 2 0;
#X connect 18 0 17 0;
#X restore 291 615 pd auto-attack-finder;
#X obj 17 405 table sample-pit1 100;
#X obj 17 424 table sample-pit2 100;
#X obj 17 444 table sample-pit3 100;
#X obj 17 464 table sample-pit4 100;
#X obj 16 486 table sample-pit5 100;
#X obj 16 506 table sample-pit6 100;
#X obj 284 421 loadbang;
#X obj 15 329 table sample-att7 100;
#X obj 15 527 table sample-pit7 100;
#X obj 19 590 table sample-correct 100;
#X text 188 179 for live;
#X obj 15 178 table sample-snd10 441000;
#X obj 15 366 table sample-att10 100;
#X obj 19 131 table sample-snd7;
#X obj 16 564 table sample-pit10 100;
#X obj 19 149 table sample-snd8;
#X obj 15 347 table sample-att8 100;
#X obj 15 546 table sample-pit8 100;
#X msg 284 443 \; sample-pit1 read trevor-index/original-pit.txt \;
sample-pit2 read trevor-index/original-pit.txt \; sample-pit3 read
trevor-index/original-pit.txt \; sample-pit4 read trevor-index/original-pit.txt
\; sample-pit5 const 74.6 \; sample-pit6 const 67 \; sample-pit7 read
trevor-index/janis-pitches.txt \; sample-pit8 read trevor-index/nrad2-pitches.txt
\; sample-pit10 read trevor-index/original-pit.txt \; sample-correct
0 100 80 70 70 60 90 90 90 90 0 84;
#X obj 337 9 r reload-pvoc;
#X obj 361 227 r reload-pvoc;
#X obj 341 421 r reload-pvoc;
#X msg 287 249 \; sample-att1 read trevor-index/trevor1-attacks.txt
\; sample-att2 read trevor-index/radio-attacks.txt \; sample-att3 read
trevor-index/bear-attacks.txt \; sample-att4 read trevor-index/bash-attacks.txt
\; sample-att5 const 314 \; sample-att6 const 100 \; sample-att7 read
trevor-index/janis-attacks.txt \; sample-att8 read trevor-index/nrad2-attacks.txt
\; sample-att10 const 100 \;;
#X msg 263 41 read -maxsize 2e+06 ../sound/tv/trevor1.wav sample-snd1
\, read -maxsize 2e+06 ../sound/tv/radio-montage1.wav sample-snd2 \,
read -maxsize 2e+06 ../sound/tv/bash.snd sample-snd4 \, read -resize
trevor-index/janis.wav sample-snd7 \, read -resize trevor-index/nrad.wav
sample-snd8;
#X connect 1 0 38 0;
#X connect 22 0 34 0;
#X connect 35 0 39 0;
#X connect 36 0 38 0;
#X connect 37 0 34 0;
#X connect 39 0 0 0;
#X restore 497 37 pd tables-for-pvoc;
#N canvas 311 252 485 646 outtofile 0;
#X obj 32 45 inlet~;
#X obj 49 171 dbtorms;
#X obj 31 197 *~;
#X obj 348 139 bng 15 250 50 0 empty empty empty 0 -6 0 8 -262144 -1
-1;
#X obj 351 282 metro 1000;
#X obj 355 253 tgl 15 0 empty empty empty 0 -6 0 8 -262144 -1 -1 0
1;
#X obj 351 310 f;
#X obj 380 311 + 1;
#X obj 344 164 t b b;
#X msg 165 196 open /tmp/x.wav \, start;
#X msg 388 195 stop;
#X msg 427 196 0;
#X msg 346 193 1;
#X msg 410 311 0;
#X floatatom 350 346 5 0 0 0 - - -;
#X floatatom 53 151 5 0 0 0 - - -;
#X obj 397 158 bng 15 250 50 0 empty empty empty 0 -6 0 8 -262144 -1
-1;
#X obj 33 315 writesf~;
#X obj 164 113 dbtorms;
#X obj 151 133 *~;
#X floatatom 168 93 5 0 0 0 - - -;
#X obj 152 71 catch~ zz-record;
#X obj 51 574 throw~ outz~;
#X obj 50 542 readsf~;
#X floatatom 35 420 5 0 0 0 - - -;
#X obj 50 489 makefilename /home/msp/work/guitar/rec/patterns%d.wav
;
#X obj 33 441 moses 10;
#X obj 27 466 makefilename /home/msp/work/guitar/rec/patterns0%d.wav
;
#X msg 49 517 open \$1 \, start;
#X obj 33 400 bng 15 250 50 0 empty empty empty 17 7 0 10 -262144 -1
-1;
#X msg 93 399 stop;
#X obj 44 76 s~ other-insig;
#X obj 53 105 loadbang;
#X msg 53 129 95;
#X obj 110 315 r mono-out-writesf;
#X connect 0 0 2 0;
#X connect 0 0 31 0;
#X connect 1 0 2 1;
#X connect 2 0 17 0;
#X connect 3 0 8 0;
#X connect 4 0 6 0;
#X connect 5 0 4 0;
#X connect 6 0 7 0;
#X connect 6 0 14 0;
#X connect 7 0 6 1;
#X connect 8 0 9 0;
#X connect 8 0 12 0;
#X connect 8 1 13 0;
#X connect 9 0 17 0;
#X connect 10 0 17 0;
#X connect 11 0 5 0;
#X connect 12 0 5 0;
#X connect 13 0 6 1;
#X connect 15 0 1 0;
#X connect 16 0 10 0;
#X connect 16 0 11 0;
#X connect 18 0 19 1;
#X connect 19 0 17 0;
#X connect 20 0 18 0;
#X connect 21 0 19 0;
#X connect 23 0 22 0;
#X connect 24 0 26 0;
#X connect 25 0 28 0;
#X connect 26 0 27 0;
#X connect 26 1 25 0;
#X connect 28 0 23 0;
#X connect 29 0 24 0;
#X connect 30 0 23 0;
#X connect 32 0 33 0;
#X connect 33 0 15 0;
#X connect 34 0 17 0;
#X restore 21 222 pd outtofile;
#X obj 266 186 -~;
#X obj 237 186 -~;
#X obj 122 414 noise~;
#X obj 122 436 *~ 1e-05;
#X obj 121 459 s~ salt;
#N canvas 0 22 563 452 hann-for-normal 0;
#N canvas 0 22 450 300 (subpatch) 0;
#X array pv-hann 1024 float 0;
#X coords 0 1 1023 0 300 100 1;
#X restore 82 311 graph;
#X obj 378 165 osc~;
#X obj 378 190 *~ -0.5;
#X obj 378 214 +~ 0.5;
#X obj 38 173 /;
#X obj 127 142 samplerate~;
#X obj 177 204 swap;
#X obj 177 228 /;
#X obj 49 201 * 1000;
#X obj 38 115 t f b f;
#X msg 173 92 resize \$1;
#X msg 382 130 0;
#X obj 330 131 t f b;
#X text 15 8 calculate Hann window table (variable window size) and
constants window-hz (fundamental frequency of analysis) \, window-sec
and window-msec (analysis window size in seconds and msec).;
#X obj 331 247 tabwrite~ pv-hann;
#X obj 177 252 s pv-window-hz;
#X obj 331 105 r pv-window-hz;
#X obj 173 116 s pv-hann;
#X obj 38 251 s pv-window-sec;
#X obj 49 228 s pv-window-msec;
#X obj 37 88 r pv-window-size;
#X connect 1 0 2 0;
#X connect 2 0 3 0;
#X connect 3 0 14 0;
#X connect 4 0 8 0;
#X connect 4 0 18 0;
#X connect 5 0 4 1;
#X connect 5 0 6 1;
#X connect 6 0 7 0;
#X connect 6 1 7 1;
#X connect 7 0 15 0;
#X connect 8 0 19 0;
#X connect 9 0 4 0;
#X connect 9 0 6 0;
#X connect 9 1 5 0;
#X connect 9 2 10 0;
#X connect 10 0 17 0;
#X connect 11 0 1 1;
#X connect 12 0 1 0;
#X connect 12 1 11 0;
#X connect 12 1 14 0;
#X connect 16 0 12 0;
#X connect 20 0 9 0;
#X restore 362 36 pd hann-for-normal;
#N canvas 24 44 911 688 --output-- 0;
#X obj 688 490 t b;
#X obj 688 437 f;
#X obj 688 515 f;
#X msg 802 514 0;
#X obj 688 467 moses 1;
#X obj 802 486 t b f;
#X obj 768 447 moses 1;
#X obj 334 480 dbtorms;
#X obj 224 86 inlet~;
#X msg 378 445 \; pd dsp 1;
#X obj 334 524 line~;
#X obj 216 554 *~;
#X floatatom 335 447 3 0 100 0 dB - -;
#X obj 688 417 bng 15 250 50 0 empty empty mute -38 7 0 12 -262144
-1 -1;
#X obj 339 104 inlet~;
#X obj 269 551 *~;
#X text 674 367 MUTE logic:;
#X obj 216 525 hip~ 3;
#X obj 267 524 hip~ 3;
#X obj 335 423 r t-master-lvl;
#X obj 687 541 s t-master-lvl;
#X obj 688 392 r t-master-mute;
#X msg 410 484 set \$1;
#X obj 410 505 s t-master-lvl-set;
#X obj 768 418 r t-master-lvl;
#X obj 407 105 inlet~;
#X obj 338 209 biquad~ 0.83774 -0.06338 0.06338 -0.83774 1;
#X obj 338 188 biquad~ 1.94632 -0.94657 0.94657 -1.94632 1;
#X obj 406 230 biquad~ -0.02569 0.260502 -0.260502 0.02569 1;
#X obj 406 251 biquad~ 1.8685 -0.870686 0.870686 -1.8685 1;
#X obj 224 203 rzero_rev~ 0;
#X obj 752 231 f;
#X obj 334 503 pack 0 20;
#X obj 788 285 * 0.007;
#X obj 228 373 +~;
#X obj 264 375 -~;
#X obj 338 255 +~;
#X obj 789 232 * -0.003;
#X obj 791 257 + 1;
#X obj 227 288 *~ 1;
#X obj 397 320 *~ 0;
#X obj 227 322 +~;
#X obj 443 146 r~ salt;
#X obj 87 446 catch~ add-to-out;
#X obj 220 621 dac~ 1 3;
#X obj 293 622 dac~ 2 4;
#X obj 232 109 s~ out-to-fft;
#X obj 306 585 *~ 3;
#X obj 345 590 *~ 3;
#X obj 387 589 *~ 2;
#X obj 387 616 dac~ 5 6;
#X obj 751 187 setctl spread;
#X obj 752 210 r spread;
#X obj 102 134 catch~ outz~;
#X obj 80 570 env~ 8192;
#X obj 80 592 i;
#X obj 80 614 - 88;
#X obj 80 637 s big-meter;
#X connect 0 0 2 0;
#X connect 1 0 4 0;
#X connect 2 0 20 0;
#X connect 3 0 20 0;
#X connect 4 0 0 0;
#X connect 4 1 5 0;
#X connect 5 0 3 0;
#X connect 6 1 2 1;
#X connect 7 0 32 0;
#X connect 8 0 46 0;
#X connect 8 0 30 0;
#X connect 10 0 11 1;
#X connect 10 0 15 1;
#X connect 11 0 44 0;
#X connect 11 0 47 0;
#X connect 11 0 49 0;
#X connect 11 0 54 0;
#X connect 12 0 9 0;
#X connect 12 0 22 0;
#X connect 12 0 7 0;
#X connect 13 0 1 0;
#X connect 14 0 27 0;
#X connect 15 0 45 0;
#X connect 15 0 48 0;
#X connect 15 0 49 0;
#X connect 15 0 54 0;
#X connect 17 0 11 0;
#X connect 18 0 15 0;
#X connect 19 0 12 0;
#X connect 21 0 13 0;
#X connect 22 0 23 0;
#X connect 24 0 1 1;
#X connect 24 0 6 0;
#X connect 25 0 28 0;
#X connect 26 0 36 0;
#X connect 27 0 26 0;
#X connect 28 0 29 0;
#X connect 29 0 36 1;
#X connect 30 0 39 0;
#X connect 31 0 33 0;
#X connect 31 0 37 0;
#X connect 32 0 10 0;
#X connect 33 0 40 1;
#X connect 34 0 17 0;
#X connect 35 0 18 0;
#X connect 36 0 40 0;
#X connect 37 0 38 0;
#X connect 38 0 39 1;
#X connect 39 0 41 0;
#X connect 40 0 34 1;
#X connect 40 0 35 1;
#X connect 41 0 34 0;
#X connect 41 0 35 0;
#X connect 42 0 27 0;
#X connect 42 0 28 0;
#X connect 43 0 17 0;
#X connect 43 0 18 0;
#X connect 47 0 44 1;
#X connect 48 0 45 1;
#X connect 49 0 50 0;
#X connect 49 0 50 1;
#X connect 52 0 31 0;
#X connect 53 0 30 0;
#X connect 54 0 55 0;
#X connect 55 0 56 0;
#X connect 56 0 57 0;
#X restore 194 213 pd --output--;
#N canvas 263 82 514 671 reset 0;
#X obj 348 485 loadbang;
#X msg 348 511 \; spread 100 \; mic-in 105 \; reset bang;
#X obj 363 600 r mic-in;
#X obj 89 70 r reset;
#X msg 89 94 0-qlist-recall bang;
#X connect 0 0 1 0;
#X connect 3 0 4 0;
#X restore 366 175 pd reset;
#N canvas 166 71 779 458 work 0;
#X text 334 27 contextual per-string preset recall;
#X obj 388 180 r reset;
#X text 29 82 make pvoc parameters per-string;
#X text 28 66 de-click preset recall;
#X text 334 10 apps:;
#X text 28 98 improved bonk;
#X text 330 43 'grammatical' formant motion;
#X text 28 49 dynamic control of waveshaping;
#X text 29 32 string equalization to nominal amplitude;
#X text 29 14 inharmonic/percussive modulation;
#X floatatom 13 189 5 0 100 0 - - -;
#X msg 13 210 \; all-bonks minvel \$1;
#X floatatom 194 200 5 0 100 0 - - -;
#X msg 165 259 \; all-bonks thresh \$1 \$2;
#X floatatom 239 199 5 0 100 0 - - -;
#X obj 194 237 pack;
#X obj 242 226 t b f;
#X msg 16 250 \; all-bonks print;
#X obj 456 285 setctl updown;
#X obj 450 314 setctl upvoice;
#X obj 449 337 setctl downvoice;
#X msg 27 359 \; all-sigmunds npeak 6;
#X msg 199 361 \; all-sigmunds npeak 12;
#X text 405 73 voice time stretching;
#X text 406 91 bash;
#X text 405 108 garbage-can perc machine?;
#X text 404 127 vocal attacks to set start points on waveshaping;
#X msg 388 204 \; pvocspeed 38 \; xtalk 20;
#X connect 1 0 27 0;
#X connect 10 0 11 0;
#X connect 12 0 15 0;
#X connect 14 0 16 0;
#X connect 15 0 13 0;
#X connect 16 0 15 0;
#X connect 16 1 15 1;
#X restore 550 326 pd work;
#N canvas 0 22 660 686 keys 0;
#N canvas 0 22 832 358 do-keys------------------------------------------
0;
#X obj 662 56 keyname;
#X obj 662 83 pack 0 s;
#X obj 661 110 route 1;
#X symbolatom 661 156 20 0 0 0 - - -;
#X obj 661 133 symbol;
#X obj 290 150 key;
#X obj 209 35 setctl keys-on;
#X obj 339 174 r keys-on;
#X obj 289 174 spigot;
#X floatatom 241 169 5 0 0 0 - - -;
#X obj 92 278 outlet;
#X obj 661 181 outlet;
#X obj 151 195 select 32;
#X msg 151 219 48;
#X text 200 219 alias space to 0;
#X connect 0 0 1 0;
#X connect 0 1 1 1;
#X connect 1 0 2 0;
#X connect 2 0 4 0;
#X connect 3 0 11 0;
#X connect 4 0 3 0;
#X connect 5 0 8 0;
#X connect 5 0 9 0;
#X connect 7 0 8 1;
#X connect 8 0 12 0;
#X connect 12 0 13 0;
#X connect 12 1 10 0;
#X connect 13 0 10 0;
#X restore 92 4 pd do-keys------------------------------------------
;
#N canvas 0 22 753 556 older-ideas 0;
#X obj 39 307 s reset;
#X msg 46 90 \; reset bang \; nutso 1;
#X msg 57 180 \; reset bang \; qlist-recall 40 \; auto 1;
#X msg 154 94 \; reset bang \; qlist-recall 35 \; sp02 bang;
#X text 182 159 badbass+octs;
#X text 129 417 conform;
#X msg 96 270 \; reset bang \; qlist-recall 11 \; t-mode 1;
#X msg 149 457 \; reset bang \; sp04 bang \; vocdepth 80;
#X text 161 517 sampler;
#X text 238 259 sitar;
#X msg 183 205 \; reset bang \; qlist-recall 33 \; octsplit2 bang;
#X text 219 342 funk;
#X msg 125 364 \; reset bang \; qlist-recall 13 \; conform 1;
#X msg 216 298 \; reset bang \; sp05 bang;
#X text 61 236 harm+auto-vocode;
#X text 102 328 beatbox;
#X msg 256 492 \; t-master-mute bang;
#X obj 254 473 bng 15 250 50 0 empty empty empty 17 7 0 10 -262144
-1 -1;
#X obj 216 279 bng 15 250 50 0 empty empty empty 17 7 0 10 -262144
-1 -1;
#X obj 126 345 bng 15 250 50 0 empty empty empty 17 7 0 10 -262144
-1 -1;
#X obj 150 439 bng 15 250 50 0 empty empty empty 17 7 0 10 -262144
-1 -1;
#X text 43 150 random;
#X obj 154 76 bng 15 250 50 0 empty empty empty 17 7 0 10 -262144 -1
-1;
#X obj 183 182 bng 15 250 50 0 empty empty empty 17 7 0 10 -262144
-1 -1;
#X msg 241 398 \; qlist-recall 30;
#X obj 242 374 bng 15 250 50 0 empty empty empty 17 7 0 10 -262144
-1 -1;
#X obj 21 49 select 32 49 50 51 52 53 54 55 56 57 27;
#X obj 304 87 bng 15 250 50 0 empty empty empty 17 7 0 10 -262144 -1
-1;
#N canvas 268 147 722 529 random 0;
#X obj 37 31 inlet;
#X obj 280 31 inlet;
#X obj 37 124 s qlist-recall;
#X floatatom 37 104 5 0 0 0 - - -;
#X obj 37 56 random 6;
#X obj 37 81 + 51;
#X obj 339 277 + 1;
#X obj 339 255 random 49;
#X obj 338 300 moses 43;
#X obj 400 301 + 7;
#X obj 307 160 f;
#X obj 307 108 t b b;
#X obj 341 161 + 1;
#X obj 307 136 until;
#X obj 358 110 0;
#X obj 360 135 b;
#X obj 280 53 bng 15 250 50 0 empty empty empty 17 7 0 10 -262144 -1
-1;
#X obj 342 184 moses 7;
#X obj 342 207 t b f;
#X obj 278 78 t b b;
#X obj 372 233 s qlist-recall-voice;
#X obj 479 324 pack;
#X obj 479 352 print zz;
#X obj 338 327 f;
#X obj 338 354 s qlist-recall1;
#X msg 279 206 0;
#X connect 0 0 4 0;
#X connect 1 0 16 0;
#X connect 3 0 2 0;
#X connect 4 0 5 0;
#X connect 5 0 3 0;
#X connect 6 0 8 0;
#X connect 7 0 6 0;
#X connect 8 0 23 0;
#X connect 8 1 9 0;
#X connect 9 0 23 0;
#X connect 10 0 12 0;
#X connect 11 0 13 0;
#X connect 11 1 14 0;
#X connect 12 0 10 1;
#X connect 12 0 17 0;
#X connect 13 0 10 0;
#X connect 14 0 10 1;
#X connect 15 0 13 1;
#X connect 16 0 19 0;
#X connect 17 0 18 0;
#X connect 17 1 15 0;
#X connect 18 0 7 0;
#X connect 18 1 20 0;
#X connect 18 1 21 1;
#X connect 19 0 25 0;
#X connect 19 1 11 0;
#X connect 23 0 21 0;
#X connect 23 0 24 0;
#X connect 25 0 20 0;
#X restore 304 109 pd random;
#X obj 308 47 select 122 120 99 118 98 110 111;
#X obj 329 86 bng 15 250 50 0 empty empty empty 17 7 0 10 -262144 -1
-1;
#X floatatom 89 26 5 0 0 0 - - -;
#X obj 20 285 t b b;
#X obj 20 263 bng 15 250 50 0 empty empty empty 17 7 0 10 -262144 -1
-1;
#X obj 19 337 random 43;
#X obj 19 363 + 1;
#X obj 18 405 s qlist-recall;
#X floatatom 19 385 5 0 0 0 - - -;
#X obj 303 27 select 90 88 67 86 66 78 77;
#X msg 534 208 \; geiger 1;
#X msg 594 130 \; alarm 1;
#X obj 535 186 bng 15 250 50 0 empty empty empty 17 7 0 10 -262144
-1 -1;
#X obj 624 72 bng 15 250 50 0 empty empty empty 17 7 0 10 -262144 -1
-1;
#X symbolatom 535 29 20 0 0 0 - - -;
#X obj 594 90 bng 15 250 50 0 empty empty empty 17 7 0 10 -262144 -1
-1;
#X obj 566 142 bng 15 250 50 0 empty empty empty 17 7 0 10 -262144
-1 -1;
#X msg 567 165 \; geiger 0;
#X msg 623 90 \; alarm 0;
#X obj 628 212 bng 15 250 50 0 empty empty empty 17 7 0 10 -262144
-1 -1;
#X obj 535 49 select F1 F2 F3 F4 F5;
#X obj 628 235 s reset;
#X connect 17 0 16 0;
#X connect 18 0 13 0;
#X connect 19 0 12 0;
#X connect 20 0 7 0;
#X connect 22 0 3 0;
#X connect 23 0 10 0;
#X connect 25 0 24 0;
#X connect 26 0 33 0;
#X connect 26 1 1 0;
#X connect 26 2 2 0;
#X connect 26 3 6 0;
#X connect 26 4 19 0;
#X connect 26 5 20 0;
#X connect 26 6 22 0;
#X connect 26 7 23 0;
#X connect 26 8 18 0;
#X connect 26 9 25 0;
#X connect 26 10 17 0;
#X connect 27 0 28 0;
#X connect 29 0 27 0;
#X connect 29 1 30 0;
#X connect 30 0 28 1;
#X connect 31 0 26 0;
#X connect 32 0 34 0;
#X connect 32 1 0 0;
#X connect 33 0 32 0;
#X connect 34 0 35 0;
#X connect 35 0 37 0;
#X connect 37 0 36 0;
#X connect 38 0 27 0;
#X connect 38 1 30 0;
#X connect 41 0 39 0;
#X connect 42 0 47 0;
#X connect 43 0 49 0;
#X connect 44 0 40 0;
#X connect 45 0 46 0;
#X connect 48 0 50 0;
#X connect 49 0 41 0;
#X connect 49 1 45 0;
#X connect 49 2 44 0;
#X connect 49 3 42 0;
#X connect 49 4 48 0;
#X restore 431 324 pd older-ideas;
#X obj 399 39 select F1 F2 F3 F4 F5 F6 F7 F8;
#X msg 142 595 \; reset bang \; qlist-recall 30;
#X text 258 619 1 radio;
#X text 335 416 4 scat;
#X obj 92 35 select 32 48 49 50 51 52 53 54 55 56 57;
#X text 344 311 5 f-ff;
#X msg 233 285 \; reset bang \; qlist-recall 50;
#X text 372 245 6 barf;
#X msg 251 220 \; reset bang \; qlist-recall 59;
#X text 398 187 7 badbs;
#X msg 277 148 \; reset bang \; qlist-recall 35 \; octsplit3 bang;
#X text 424 117 8 random;
#X msg 298 77 \; reset bang \; qlist-recall 20 \; nutso 1;
#X obj 24 183 r reset;
#X msg 24 258 0;
#X obj 24 211 bng 15 250 50 0 empty empty empty 17 7 0 10 -262144 -1
-1;
#X obj 28 67 moses 48;
#X obj 40 99 moses 58;
#X msg 42 132 stop;
#X obj 5 135 - 48;
#X obj 4 291 s key-fback;
#X obj 24 237 del 1;
#X obj 20 25 t f f;
#X msg 405 358 \; reset bang \; qlist-recall 40 \; auto 1;
#X text 535 528 conform;
#X msg 407 494 \; reset bang \; qlist-recall 13 \; conform 1;
#X text 531 393 paper+auto-vocode;
#X text 277 544 2 mutron+beatbox;
#X msg 434 228 \; reset bang \; qlist-recall 30 \; conform 1;
#X text 563 265 9 radio+conform;
#X text 554 640 3 sitar;
#X msg 435 606 \; reset bang \; qlist-recall 33 \; octsplit2 bang;
#X text 309 470 3 paper+auto-vocode;
#X msg 211 373 \; reset bang \; qlist-recall 67 \; scatsinger 1;
#X msg 58 389 \; reset bang \; qlist-recall 5;
#X text 69 370 0 fawnk;
#X msg 188 447 \; reset bang \; qlist-recall 12 \; auto 1 \; t-fftout
85;
#X msg 165 519 \; reset bang \; qlist-recall 6 \; t-bash 73 \; t-mode
1;
#X connect 0 0 6 0;
#X connect 0 0 24 0;
#X connect 0 1 2 0;
#X connect 6 1 36 0;
#X connect 6 2 3 0;
#X connect 6 3 39 0;
#X connect 6 4 38 0;
#X connect 6 5 35 0;
#X connect 6 6 8 0;
#X connect 6 7 10 0;
#X connect 6 8 12 0;
#X connect 6 9 14 0;
#X connect 6 10 30 0;
#X connect 15 0 17 0;
#X connect 16 0 22 0;
#X connect 17 0 23 0;
#X connect 18 1 19 0;
#X connect 19 0 20 0;
#X connect 19 0 21 0;
#X connect 20 0 23 0;
#X connect 21 0 22 0;
#X connect 23 0 16 0;
#X connect 24 0 18 0;
#X connect 24 1 6 0;
#X restore 367 309 pd keys;
#X obj 23 483 declare -path lib -path ../lib;
#N canvas 26 111 448 298 vibro 0;
#X obj 90 53 metro 200;
#X obj 58 103 del 100;
#X obj 95 32 tgl 15 0 empty empty empty 17 7 0 10 -262144 -1 -1 0 1
;
#X msg 120 79 \; trans1 20 100;
#X msg 101 144 \; trans1 -20 100;
#X connect 0 0 3 0;
#X connect 0 0 1 0;
#X connect 1 0 4 0;
#X connect 2 0 0 0;
#X restore 366 214 pd vibro;
#N canvas 0 0 824 421 read-and-write-test-soundfile 0;
#X obj 90 110 metro 2000;
#X obj 90 89 tgl 15 0 empty empty empty 17 7 0 10 -262144 -1 -1 0 1
;
#X floatatom 157 88 5 0 0 0 - - -;
#X obj 91 146 symbol;
#X symbolatom 377 251 60 0 0 0 - - -;
#X msg 389 78 test/4note.wav;
#X obj 377 229 symbol;
#X obj 376 25 openpanel;
#X msg 397 100 /home/msp/pd/doc/sound/bell.aiff;
#X msg 399 124 /home/msp/pd/doc/sound/voice.wav;
#X msg 403 152 /home/msp/pd/doc/sound/voice2.wav;
#X msg 85 289 0 \, open \$1;
#X obj 175 229 t b;
#X obj 174 261 del 100;
#X msg 176 288 1;
#X obj 84 338 s 3-readsf;
#X obj 376 4 bng 15 250 50 0 empty empty empty 17 7 0 10 -262144 -1
-1;
#X obj 389 55 loadbang;
#X obj 157 66 * 10;
#X floatatom 156 48 5 20 1000 0 - - -;
#X obj 155 6 loadbang;
#X msg 154 28 200;
#X obj 49 128 bng 15 250 50 0 empty empty empty 17 7 0 10 -262144 -1
-1;
#X msg 411 188 /home/msp/pd/patch/extern/bonk/x1-dstring.wav;
#X obj 308 342 r 3-attack;
#X obj 310 373 bng 15 250 50 0 empty empty empty 17 7 0 10 -262144
-1 -1;
#X obj 566 316 tabwrite~ test;
#X obj 566 293 bng 15 250 50 0 empty empty empty 0 -6 0 8 -262144 -1
-1;
#X msg 561 373 write test.wav test;
#X obj 561 398 soundfiler;
#X obj 603 290 adc~ 5;
#X obj 566 344 table test 441000;
#X obj 426 328 r 3-attack;
#X obj 430 358 spigot;
#X obj 491 368 tgl 15 0 empty empty empty 17 7 0 10 -262144 -1 -1 0
1;
#X msg 433 382 0;
#X connect 0 0 3 0;
#X connect 1 0 0 0;
#X connect 2 0 0 1;
#X connect 3 0 12 0;
#X connect 3 0 11 0;
#X connect 4 0 3 1;
#X connect 5 0 6 0;
#X connect 6 0 4 0;
#X connect 7 0 6 0;
#X connect 8 0 6 0;
#X connect 9 0 6 0;
#X connect 10 0 6 0;
#X connect 11 0 15 0;
#X connect 12 0 13 0;
#X connect 13 0 14 0;
#X connect 14 0 15 0;
#X connect 16 0 7 0;
#X connect 17 0 5 0;
#X connect 18 0 2 0;
#X connect 19 0 18 0;
#X connect 20 0 21 0;
#X connect 21 0 19 0;
#X connect 22 0 3 0;
#X connect 23 0 6 0;
#X connect 24 0 25 0;
#X connect 27 0 26 0;
#X connect 28 0 29 0;
#X connect 30 0 26 0;
#X connect 32 0 33 0;
#X connect 33 0 27 0;
#X connect 33 0 35 0;
#X connect 34 0 33 1;
#X connect 35 0 34 0;
#X restore 366 195 pd read-and-write-test-soundfile;
#N canvas 553 268 585 527 testtone-out 0;
#X obj 266 323 tgl 15 0 empty empty empty 17 7 0 10 -262144 -1 -1 0
1;
#X obj 274 365 *;
#X floatatom 292 284 5 0 100 0 - - -;
#X obj 291 306 dbtorms;
#X obj 290 326 t b f;
#X obj 256 412 *~;
#X obj 251 446 dac~;
#X obj 36 123 osc~ 440;
#X floatatom 36 103 5 0 0 0 - - -;
#X obj 36 81 mtof;
#X obj 35 166 +~ 0.1;
#X obj 35 191 cos~;
#X obj 36 144 *~ 2;
#X obj 36 216 *~ 0;
#X obj 85 192 tgl 15 0 empty empty empty 17 7 0 10 -262144 -1 -1 0
1;
#X obj 86 212 * 0.1;
#N canvas 408 301 558 370 in-table 0;
#X obj 94 45 route stop;
#X obj 161 78 list;
#X obj 92 19 inlet;
#X obj 162 106 unpack s 0;
#X obj 160 157 soundfiler;
#N canvas 0 22 450 300 (subpatch) 0;
#X array input-tab 188269 float 2;
#X coords 0 1 188269 -1 200 140 1;
#X restore 270 212 graph;
#X obj 67 235 tgl 15 0 empty empty empty 17 7 0 10 -262144 -1 -1 0
1;
#X msg 67 208 0;
#X msg 101 210 1;
#X obj 63 263 metro;
#X floatatom 134 255 5 0 0 0 - - -;
#X obj 62 290 tabplay~ input-tab;
#X obj 63 319 outlet~;
#X msg 16 274 stop;
#X msg 160 134 read -resize lib/\$1 input-tab;
#X obj 147 199 t b f;
#X connect 0 0 7 0;
#X connect 0 0 13 0;
#X connect 0 1 1 0;
#X connect 1 0 3 0;
#X connect 2 0 0 0;
#X connect 3 0 14 0;
#X connect 3 1 15 0;
#X connect 6 0 9 0;
#X connect 7 0 6 0;
#X connect 8 0 6 0;
#X connect 9 0 11 0;
#X connect 10 0 9 1;
#X connect 11 0 12 0;
#X connect 13 0 11 0;
#X connect 14 0 4 0;
#X connect 15 0 8 0;
#X connect 15 1 10 0;
#X restore 470 233 pd in-table;
#X msg 471 203 stop;
#X msg 367 177 x1.wav 3800;
#X msg 375 203 x2.wav 2000;
#X obj 37 247 +~;
#X floatatom 36 61 5 0 0 0 - - -;
#X obj 158 123 osc~ 440;
#X floatatom 158 103 5 0 0 0 - - -;
#X obj 158 81 mtof;
#X obj 158 216 *~ 0;
#X obj 207 192 tgl 15 0 empty empty empty 17 7 0 10 -262144 -1 -1 0
1;
#X obj 208 212 * 0.1;
#X floatatom 158 61 5 0 0 0 - - -;
#X obj 35 427 throw~ add-in-4;
#X connect 0 0 1 0;
#X connect 1 0 5 1;
#X connect 2 0 3 0;
#X connect 3 0 4 0;
#X connect 4 0 1 0;
#X connect 4 1 1 1;
#X connect 5 0 6 0;
#X connect 5 0 6 1;
#X connect 7 0 12 0;
#X connect 8 0 7 0;
#X connect 9 0 8 0;
#X connect 10 0 11 0;
#X connect 11 0 13 0;
#X connect 12 0 10 0;
#X connect 13 0 20 0;
#X connect 14 0 15 0;
#X connect 15 0 13 1;
#X connect 16 0 20 1;
#X connect 17 0 16 0;
#X connect 18 0 16 0;
#X connect 19 0 16 0;
#X connect 20 0 5 0;
#X connect 20 0 29 0;
#X connect 21 0 9 0;
#X connect 22 0 25 0;
#X connect 23 0 22 0;
#X connect 24 0 23 0;
#X connect 25 0 20 1;
#X connect 26 0 27 0;
#X connect 27 0 25 1;
#X connect 28 0 24 0;
#X restore 363 60 pd testtone-out;
#N canvas 0 22 448 298 scatsinger 0;
#X obj 64 39 r reset;
#X obj 177 39 setctl scatsinger;
#X obj 177 70 setctl livesinger;
#X msg 65 60 \; scatsinger 0 \; livesinger 0 \; nutso 0 \;;
#X obj 183 99 setctl nutso;
#X connect 0 0 3 0;
#X restore 366 233 pd scatsinger;
#N canvas 0 22 540 271 see-pit-amp 0;
#X obj 35 7 tgl 15 0 empty empty empty 17 7 0 10 -262144 -1 -1 0 1
;
#X obj 24 48 r 1-avg-amp;
#X floatatom 24 72 7 0 0 0 - - -;
#X floatatom 108 72 7 0 0 0 - - -;
#X obj 108 48 r 2-avg-amp;
#X floatatom 192 72 7 0 0 0 - - -;
#X floatatom 276 72 7 0 0 0 - - -;
#X floatatom 362 73 7 0 0 0 - - -;
#X floatatom 445 73 7 0 0 0 - - -;
#X obj 192 48 r 3-avg-amp;
#X obj 276 48 r 4-avg-amp;
#X obj 362 49 r 5-avg-amp;
#X obj 445 49 r 6-avg-amp;
#X obj 35 28 s calc-avg-amp;
#X obj 33 128 r 1-tune;
#X floatatom 33 152 7 0 0 0 - - -;
#X floatatom 98 152 7 0 0 0 - - -;
#X floatatom 161 152 7 0 0 0 - - -;
#X floatatom 226 152 7 0 0 0 - - -;
#X floatatom 290 153 7 0 0 0 - - -;
#X floatatom 355 153 7 0 0 0 - - -;
#X obj 98 128 r 2-tune;
#X obj 161 128 r 3-tune;
#X obj 226 128 r 4-tune;
#X obj 290 129 r 5-tune;
#X obj 355 129 r 6-tune;
#X connect 0 0 13 0;
#X connect 1 0 2 0;
#X connect 4 0 3 0;
#X connect 9 0 5 0;
#X connect 10 0 6 0;
#X connect 11 0 7 0;
#X connect 12 0 8 0;
#X connect 14 0 15 0;
#X connect 21 0 16 0;
#X connect 22 0 17 0;
#X connect 23 0 18 0;
#X connect 24 0 19 0;
#X connect 25 0 20 0;
#X restore 363 81 pd see-pit-amp;
#N canvas 507 368 863 576 preset-rebalance 0;
#X floatatom 32 149 5 0 0 0 - - -;
#X obj 81 138 f;
#X obj 32 87 bng 15 250 50 0 empty empty empty 17 7 0 10 -262144 -1
-1;
#X obj 418 138 f;
#X obj 372 138 f;
#X obj 164 138 f;
#X obj 204 138 f;
#X obj 243 138 f;
#X obj 281 138 f;
#X obj 327 138 f;
#X obj 31 63 t b f;
#X obj 123 138 f;
#X msg 30 17 1.05;
#X obj 99 76 r h0;
#X obj 141 76 r h1;
#X obj 182 76 r h2;
#X obj 222 76 r h3;
#X obj 261 76 r h4;
#X obj 299 76 r fmt;
#X obj 81 220 s h0;
#X obj 123 220 s h1;
#X obj 164 220 s h2;
#X obj 204 220 s h3;
#X obj 243 220 s h4;
#X obj 281 220 s fmt;
#X obj 327 220 s voz;
#X obj 372 220 s tri;
#X obj 418 220 s thru;
#X obj 345 76 r voz;
#X obj 390 76 r tri;
#X obj 436 76 r thru;
#X obj 76 339 f;
#X obj 27 288 bng 15 250 50 0 empty empty empty 17 7 0 10 -262144 -1
-1;
#X obj 427 339 f;
#X obj 381 339 f;
#X obj 162 339 f;
#X obj 204 339 f;
#X obj 248 339 f;
#X obj 289 339 f;
#X obj 336 339 f;
#X obj 119 339 f;
#X obj 94 277 r h0;
#X obj 137 277 r h1;
#X obj 180 277 r h2;
#X obj 222 277 r h3;
#X obj 266 277 r h4;
#X obj 307 277 r fmt;
#X obj 76 421 s h0;
#X obj 119 421 s h1;
#X obj 162 421 s h2;
#X obj 204 421 s h3;
#X obj 248 421 s h4;
#X obj 289 421 s fmt;
#X obj 336 421 s voz;
#X obj 381 421 s tri;
#X obj 427 421 s thru;
#X obj 354 277 r voz;
#X obj 399 277 r tri;
#X obj 445 277 r thru;
#X obj 76 368 + 0.5;
#X obj 119 368 + 0.5;
#X obj 162 368 + 0.5;
#X obj 204 368 + 0.5;
#X obj 248 368 + 0.5;
#X obj 289 368 + 0.5;
#X obj 336 367 + 0.5;
#X obj 381 367 + 0.5;
#X obj 427 368 + 0.5;
#X obj 76 394 i;
#X obj 119 394 i;
#X obj 162 394 i;
#X obj 204 394 i;
#X obj 248 394 i;
#X obj 289 394 i;
#X obj 336 394 i;
#X obj 381 394 i;
#X obj 427 394 i;
#X obj 81 193 *;
#X obj 123 193 *;
#X obj 164 193 *;
#X obj 204 193 *;
#X obj 243 193 *;
#X obj 281 193 *;
#X obj 327 193 *;
#X obj 372 193 *;
#X obj 418 193 *;
#X msg 40 38 0.95238;
#X obj 108 11 r preset-amp-up;
#X obj 113 36 r preset-amp-down;
#X obj 55 255 r preset-amp-round;
#X connect 0 0 77 1;
#X connect 0 0 79 1;
#X connect 0 0 80 1;
#X connect 0 0 81 1;
#X connect 0 0 82 1;
#X connect 0 0 83 1;
#X connect 0 0 84 1;
#X connect 0 0 85 1;
#X connect 0 0 78 1;
#X connect 1 0 77 0;
#X connect 2 0 1 0;
#X connect 2 0 5 0;
#X connect 2 0 6 0;
#X connect 2 0 7 0;
#X connect 2 0 8 0;
#X connect 2 0 9 0;
#X connect 2 0 4 0;
#X connect 2 0 3 0;
#X connect 2 0 11 0;
#X connect 3 0 85 0;
#X connect 4 0 84 0;
#X connect 5 0 79 0;
#X connect 6 0 80 0;
#X connect 7 0 81 0;
#X connect 8 0 82 0;
#X connect 9 0 83 0;
#X connect 10 0 2 0;
#X connect 10 1 0 0;
#X connect 11 0 78 0;
#X connect 12 0 10 0;
#X connect 13 0 1 1;
#X connect 14 0 11 1;
#X connect 15 0 5 1;
#X connect 16 0 6 1;
#X connect 17 0 7 1;
#X connect 18 0 8 1;
#X connect 28 0 9 1;
#X connect 29 0 4 1;
#X connect 30 0 3 1;
#X connect 31 0 59 0;
#X connect 32 0 31 0;
#X connect 32 0 35 0;
#X connect 32 0 36 0;
#X connect 32 0 37 0;
#X connect 32 0 38 0;
#X connect 32 0 39 0;
#X connect 32 0 34 0;
#X connect 32 0 33 0;
#X connect 32 0 40 0;
#X connect 33 0 67 0;
#X connect 34 0 66 0;
#X connect 35 0 61 0;
#X connect 36 0 62 0;
#X connect 37 0 63 0;
#X connect 38 0 64 0;
#X connect 39 0 65 0;
#X connect 40 0 60 0;
#X connect 41 0 31 1;
#X connect 42 0 40 1;
#X connect 43 0 35 1;
#X connect 44 0 36 1;
#X connect 45 0 37 1;
#X connect 46 0 38 1;
#X connect 56 0 39 1;
#X connect 57 0 34 1;
#X connect 58 0 33 1;
#X connect 59 0 68 0;
#X connect 60 0 69 0;
#X connect 61 0 70 0;
#X connect 62 0 71 0;
#X connect 63 0 72 0;
#X connect 64 0 73 0;
#X connect 65 0 74 0;
#X connect 66 0 75 0;
#X connect 67 0 76 0;
#X connect 68 0 47 0;
#X connect 69 0 48 0;
#X connect 70 0 49 0;
#X connect 71 0 50 0;
#X connect 72 0 51 0;
#X connect 73 0 52 0;
#X connect 74 0 53 0;
#X connect 75 0 54 0;
#X connect 76 0 55 0;
#X connect 77 0 19 0;
#X connect 78 0 20 0;
#X connect 79 0 21 0;
#X connect 80 0 22 0;
#X connect 81 0 23 0;
#X connect 82 0 24 0;
#X connect 83 0 25 0;
#X connect 84 0 26 0;
#X connect 85 0 27 0;
#X connect 86 0 10 0;
#X connect 87 0 12 0;
#X connect 88 0 86 0;
#X connect 89 0 32 0;
#X restore 366 252 pd preset-rebalance;
#N canvas 282 50 385 313 adc 0;
#X obj 50 258 outlet~;
#X obj 18 43 adc~ 1;
#X obj 17 71 s~ adc-ch1;
#X obj 98 71 s~ adc-ch2;
#X obj 99 43 adc~ 2;
#X obj 180 43 adc~ 3;
#X obj 180 71 s~ adc-ch3;
#X obj 261 43 adc~ 4;
#X obj 260 71 s~ adc-ch4;
#X obj 17 108 adc~ 5;
#X obj 16 136 s~ adc-ch5;
#X obj 98 108 adc~ 6;
#X obj 97 136 s~ adc-ch6;
#X obj 179 108 adc~ 7;
#X obj 178 136 s~ adc-ch7;
#X obj 260 108 adc~ 8;
#X obj 259 136 s~ adc-ch8;
#X connect 1 0 2 0;
#X connect 4 0 3 0;
#X connect 5 0 6 0;
#X connect 7 0 8 0;
#X connect 9 0 10 0;
#X connect 11 0 12 0;
#X connect 13 0 14 0;
#X connect 15 0 16 0;
#X restore 20 7 pd adc;
#N canvas 0 22 578 310 make-paf-tab 0;
#X obj 192 41 bng 15 250 50 0 empty empty empty 17 7 0 10 -262144 -1
-1;
#X obj 191 64 t b b;
#X obj 192 92 until;
#X obj 208 125 f;
#X obj 238 127 + 1;
#X obj 207 153 moses 203;
#X obj 275 117 b;
#X obj 262 90 0;
#X obj 206 183 t f f;
#X obj 130 266 tabwrite paf-tab;
#X obj 88 237 expr 1/(1+$f1*$f1);
#X obj 431 20 loadbang;
#X text 92 175 Cauchy;
#X obj 431 47 bng 15 250 50 0 empty empty empty 17 7 0 10 -262144 -1
-1;
#X obj 430 70 t b b;
#X obj 431 98 until;
#X obj 447 131 f;
#X obj 477 133 + 1;
#X obj 514 123 b;
#X obj 501 96 0;
#X obj 445 189 t f f;
#X obj 369 272 tabwrite paf-tab;
#X text 334 186 Gauss;
#X obj 327 243 expr exp(-$f1*$f1);
#X obj 10 13 table paf-tab 403;
#X obj 88 209 expr ($f1-201)/40;
#X obj 327 215 expr ($f1-201)/40;
#X obj 446 159 moses 403;
#X connect 0 0 1 0;
#X connect 1 0 2 0;
#X connect 1 1 7 0;
#X connect 2 0 3 0;
#X connect 3 0 4 0;
#X connect 3 0 5 0;
#X connect 4 0 3 1;
#X connect 5 0 8 0;
#X connect 5 1 6 0;
#X connect 6 0 2 1;
#X connect 7 0 3 1;
#X connect 8 0 25 0;
#X connect 8 1 9 1;
#X connect 10 0 9 0;
#X connect 11 0 13 0;
#X connect 13 0 14 0;
#X connect 14 0 15 0;
#X connect 14 1 19 0;
#X connect 15 0 16 0;
#X connect 16 0 17 0;
#X connect 16 0 27 0;
#X connect 17 0 16 1;
#X connect 18 0 15 1;
#X connect 19 0 16 1;
#X connect 20 0 26 0;
#X connect 20 1 21 1;
#X connect 23 0 21 0;
#X connect 25 0 10 0;
#X connect 26 0 23 0;
#X connect 27 0 20 0;
#X connect 27 1 18 0;
#X restore 482 451 pd make-paf-tab;
#X obj 23 460 setctl tunex;
#N canvas 786 620 448 298 locale 0;
#X obj 21 66 loadbang;
#X obj 21 92 del 10;
#X obj 21 237 qlist;
#X text 39 29 delayed so that this happens after "mormal" loadbangs.
;
#X msg 20 117 read locale.txt cr \, bang;
#X obj 310 185 r #;
#X obj 311 215 r chnl-mic;
#X obj 308 247 r trim-mic;
#X msg 33 209 read other/locale-zero.txt cr \, bang;
#X obj 223 97 del 20;
#X msg 223 122 \; 0-qlist-recall bang;
#X connect 0 0 1 0;
#X connect 0 0 9 0;
#X connect 1 0 4 0;
#X connect 4 0 2 0;
#X connect 8 0 2 0;
#X connect 9 0 10 0;
#X restore 366 271 pd locale;
#N canvas 0 22 448 298 metro500 0;
#X obj 120 24 loadbang;
#X obj 122 49 bng 15 250 50 0 empty empty empty 17 7 0 10 -262144 -1
-1;
#X obj 119 70 metro 500;
#X obj 120 98 s metro500;
#X connect 0 0 1 0;
#X connect 1 0 2 0;
#X connect 2 0 3 0;
#X restore 495 81 pd metro500;
#N canvas 0 28 1024 721 tables-for-waveshape 0;
#X obj 605 27 soundfiler;
#X obj 489 28 loadbang;
#X obj 17 7 table waveform10;
#X obj 17 27 table waveform11;
#X obj 17 47 table waveform12;
#X obj 17 67 table waveform13;
#X obj 17 87 table waveform14;
#X obj 17 107 table waveform15;
#X obj 17 127 table waveform16;
#X obj 17 147 table waveform17;
#X obj 17 167 table waveform18;
#X obj 17 187 table waveform19;
#X obj 17 207 table waveform20;
#X obj 17 226 table waveform21;
#X obj 17 247 table waveform22;
#X obj 16 266 table waveform23;
#X obj 17 287 table waveform24;
#X obj 16 307 table waveform25;
#X obj 17 327 table waveform26;
#X obj 17 346 table waveform27;
#X obj 17 366 table waveform28;
#X obj 16 386 table waveform29;
#X obj 570 26 r sf;
#X obj 135 7 table waveform30;
#X obj 135 27 table waveform31;
#X obj 135 67 table waveform33;
#X obj 135 47 table waveform32;
#X obj 135 87 table waveform34;
#X obj 135 107 table waveform35;
#X obj 135 127 table waveform36;
#X obj 135 147 table waveform37;
#X obj 135 167 table waveform38;
#X obj 135 187 table waveform39;
#X obj 135 207 table waveform40;
#X obj 135 227 table waveform41;
#X obj 135 247 table waveform42;
#X obj 135 267 table waveform43;
#X obj 135 287 table waveform44;
#X obj 135 307 table waveform45;
#X obj 135 327 table waveform46;
#X obj 135 347 table waveform47;
#X obj 135 367 table waveform48;
#X obj 135 387 table waveform49;
#X obj 253 7 table waveform50;
#X obj 253 27 table waveform51;
#X obj 253 47 table waveform52;
#X obj 253 67 table waveform53;
#X obj 253 87 table waveform54;
#X obj 253 107 table waveform55;
#X obj 253 127 table waveform56;
#X obj 253 148 table waveform57;
#X obj 253 167 table waveform58;
#X obj 253 187 table waveform59;
#X obj 253 207 table waveform60;
#X obj 253 227 table waveform61;
#X obj 253 247 table waveform62;
#X obj 253 267 table waveform63;
#X obj 253 287 table waveform64;
#X obj 253 307 table waveform65;
#X obj 252 327 table waveform66;
#X obj 253 347 table waveform67;
#X obj 253 367 table waveform68;
#X obj 253 387 table waveform69;
#X obj 372 7 table waveform70;
#X obj 372 27 table waveform71;
#X obj 372 47 table waveform72;
#X obj 372 67 table waveform73;
#X obj 372 88 table waveform74;
#X obj 372 107 table waveform75;
#X obj 372 127 table waveform76;
#X obj 372 147 table waveform77;
#X obj 372 167 table waveform78;
#X obj 372 187 table waveform79;
#X obj 372 207 table waveform80;
#X obj 371 227 table waveform81;
#X obj 372 247 table waveform82;
#X obj 372 267 table waveform83;
#X obj 372 287 table waveform84;
#X obj 372 307 table waveform85;
#X msg 828 50 \; sf read -resize timbre/timbre50.wav waveform50 \;
sf read -resize timbre/timbre51.wav waveform51 \; sf read -resize timbre/timbre52.wav
waveform52 \; sf read -resize timbre/timbre53.wav waveform53 \; sf
read -resize timbre/timbre54.wav waveform54 \; sf read -resize timbre/timbre55.wav
waveform55 \; sf read -resize timbre/timbre56.wav waveform56 \; sf
read -resize timbre/timbre57.wav waveform57 \; sf read -resize timbre/timbre58.wav
waveform58 \; sf read -resize timbre/timbre59.wav waveform59 \; sf
read -resize timbre/timbre60.wav waveform60 \; sf read -resize timbre/timbre61.wav
waveform61 \; sf read -resize timbre/timbre62.wav waveform62 \; sf
read -resize timbre/timbre63.wav waveform63 \; sf read -resize timbre/timbre64.wav
waveform64 \; sf read -resize timbre/timbre65.wav waveform65 \; sf
read -resize timbre/timbre66.wav waveform66 \; sf read -resize timbre/timbre67.wav
waveform67 \; sf read -resize timbre/timbre68.wav waveform68 \; sf
read -resize timbre/timbre69.wav waveform69 \; sf read -resize timbre/timbre70.wav
waveform70 \; sf read -resize timbre/timbre71.wav waveform71 \; sf
read -resize timbre/timbre72.wav waveform72 \; sf read -resize timbre/timbre73.wav
waveform73 \; sf read -resize timbre/timbre74.wav waveform74 \; sf
read -resize timbre/timbre75.wav waveform75 \; sf read -resize timbre/timbre76.wav
waveform76 \; sf read -resize timbre/timbre77.wav waveform77 \; sf
read -resize timbre/timbre78.wav waveform78 \; sf read -resize timbre/timbre79.wav
waveform79 \; sf read -resize timbre/timbre80.wav waveform80 \; sf
read -resize timbre/timbre81.wav waveform81 \; sf read -resize timbre/timbre82.wav
waveform82 \; sf read -resize timbre/timbre83.wav waveform83 \; sf
read -resize timbre/timbre84.wav waveform84 \; sf read -resize timbre/timbre85.wav
waveform85 \;;
#X msg 489 50 \; sf read -resize timbre/timbre0.wav waveform0 \; sf
read -resize timbre/timbre10.wav waveform10 \; sf read -resize timbre/timbre11.wav
waveform11 \; sf read -resize timbre/timbre12.wav waveform12 \; sf
read -resize timbre/timbre13.wav waveform13 \; sf read -resize timbre/timbre14.wav
waveform14 \; sf read -resize timbre/timbre15.wav waveform15 \; sf
read -resize timbre/timbre16.wav waveform16 \; sf read -resize timbre/timbre17.wav
waveform17 \; sf read -resize timbre/timbre18.wav waveform18 \; sf
read -resize timbre/timbre19.wav waveform19 \; sf read -resize timbre/timbre20.wav
waveform20 \; sf read -resize timbre/timbre21.wav waveform21 \; sf
read -resize timbre/timbre22.wav waveform22 \; sf read -resize timbre/timbre23.wav
waveform23 \; sf read -resize timbre/timbre24.wav waveform24 \; sf
read -resize timbre/timbre25.wav waveform25 \; sf read -resize timbre/timbre26.wav
waveform26 \; sf read -resize timbre/timbre27.wav waveform27 \; sf
read -resize timbre/timbre28.wav waveform28 \; sf read -resize timbre/timbre29.wav
waveform29 \; sf read -resize timbre/timbre30.wav waveform30 \; sf
read -resize timbre/timbre31.wav waveform31 \; sf read -resize timbre/timbre32.wav
waveform32 \; sf read -resize timbre/timbre33.wav waveform33 \; sf
read -resize timbre/timbre34.wav waveform34 \; sf read -resize timbre/timbre35.wav
waveform35 \; sf read -resize timbre/timbre36.wav waveform36 \; sf
read -resize timbre/timbre37.wav waveform37 \; sf read -resize timbre/timbre38.wav
waveform38 \; sf read -resize timbre/timbre39.wav waveform39 \; sf
read -resize timbre/timbre40.wav waveform40 \; sf read -resize timbre/timbre41.wav
waveform41 \; sf read -resize timbre/timbre42.wav waveform42 \; sf
read -resize timbre/timbre43.wav waveform43 \; sf read -resize timbre/timbre44.wav
waveform44 \; sf read -resize timbre/timbre45.wav waveform45 \; sf
read -resize timbre/timbre46.wav waveform46 \; sf read -resize timbre/timbre47.wav
waveform47 \; sf read -resize timbre/timbre48.wav waveform48 \; sf
read -resize timbre/timbre49.wav waveform49 \;;
#X obj 24 415 table waveform0;
#X obj 20 459 table waveform100 882000;
#X obj 21 437 table waveform1 441000;
#X connect 1 0 80 0;
#X connect 1 0 79 0;
#X connect 22 0 0 0;
#X restore 495 104 pd tables-for-waveshape;
#N canvas 376 191 450 300 record-string 0;
#X obj 97 55 adc~ 1;
#X obj 95 117 writesf~;
#X msg 177 49 open /tmp/foo1.txt \, start;
#X msg 173 79 stop;
#X connect 0 0 1 0;
#X connect 2 0 1 0;
#X connect 3 0 1 0;
#X restore 366 290 pd record-string;
#N canvas 399 164 698 331 octsplit 0;
#X obj 30 34 r octsplit;
#X obj 193 38 r octsplit2;
#X obj 364 29 r octsplit3;
#X msg 134 246 \; qlist-recall-voice \$1 \; \$2 \$3 \; qlist-recall-voice
0;
#X obj 137 222 r param;
#X msg 544 187 \; 1-octave -80 \; 2-octave -80 \; 3-octave -30 \; 4-octave
0 \; 5-octave 0 \; 6-octave 0;
#X msg 391 188 \; 1-octave 100 \; 2-octave 100 \; 3-octave 60 \; 4-octave
0 \; 5-octave 0 \; 6-octave -100;
#X msg 191 62 \; param 1 octave 100 \; param 2 octave 100 \; param
3 octave 60 \; param 4 octave 0 \; param 5 octave 0 \; param 6 octave
-100;
#X msg 362 53 \; param 1 octave -80 \; param 2 octave -80 \; param
3 octave -30 \; param 4 octave 0 \; param 5 octave 0 \; param 6 octave
0;
#X msg 29 57 \; param 1 octave -120 \; param 2 octave -80 \; param
3 octave -20 \; param 4 octave 0 \; param 5 octave 40 \; param 6 octave
70;
#X obj 514 29 r octsplit4;
#X msg 512 53 \; param 1 octave -30 \; param 2 octave -80 \; param
3 octave -140 \; param 4 octave 0 \; param 5 octave 0 \; param 6 octave
0;
#X connect 0 0 9 0;
#X connect 1 0 7 0;
#X connect 2 0 8 0;
#X connect 4 0 3 0;
#X connect 10 0 11 0;
#X restore 482 473 pd octsplit;
#X obj 19 52 string 1 3 2048 40 0 1 2;
#X obj 505 15 2tab/2tab-tables;
#N canvas 648 301 447 353 midi 0;
#X obj 53 157 ctlin;
#X floatatom 52 213 5 0 0 0 - - -;
#X floatatom 72 192 5 0 0 0 - - -;
#X floatatom 111 172 5 0 0 0 - - -;
#X floatatom 187 151 5 0 0 0 - - -;
#X obj 186 175 ctlout 3 16;
#X floatatom 189 105 5 0 0 0 - - -;
#X obj 188 129 ctlout 2 16;
#X floatatom 189 59 5 0 127 0 - - -;
#X floatatom 18 14 5 0 0 0 - - -;
#X obj 17 38 ctlout 0 16;
#X obj 188 83 ctlout 1 16;
#X floatatom 183 248 5 0 0 0 - - -;
#X floatatom 185 202 5 0 0 0 - - -;
#X obj 184 226 ctlout 4 16;
#X obj 182 272 ctlout 5 16;
#X floatatom 296 216 5 0 127 0 - - -;
#X floatatom 299 105 5 0 0 0 - - -;
#X floatatom 299 59 5 0 0 0 - - -;
#X floatatom 180 295 5 0 0 0 - - -;
#X obj 179 319 ctlout 6 16;
#X obj 298 83 ctlout 7 16;
#X obj 298 129 ctlout 8 16;
#X floatatom 141 31 5 0 127 0 - - -;
#X floatatom 273 24 5 0 127 0 - - -;
#X text 142 -2 guitar;
#X text 270 3 aux;
#X obj 296 237 t b f;
#X obj 293 293 ctlout 0 16;
#X msg 285 267 127;
#X connect 0 0 1 0;
#X connect 0 1 2 0;
#X connect 0 2 3 0;
#X connect 4 0 5 0;
#X connect 6 0 7 0;
#X connect 8 0 11 0;
#X connect 9 0 10 0;
#X connect 12 0 15 0;
#X connect 13 0 14 0;
#X connect 16 0 27 0;
#X connect 17 0 22 0;
#X connect 18 0 21 0;
#X connect 19 0 20 0;
#X connect 23 0 19 0;
#X connect 23 0 8 0;
#X connect 23 0 6 0;
#X connect 23 0 4 0;
#X connect 23 0 13 0;
#X connect 23 0 12 0;
#X connect 24 0 18 0;
#X connect 24 0 17 0;
#X connect 27 0 29 0;
#X connect 27 1 28 1;
#X connect 29 0 28 0;
#X restore 367 152 pd midi;
#N canvas 99 111 808 544 make-samples 0;
#N canvas 0 22 450 300 (subpatch) 0;
#X array array1 2048 float 0;
#X coords 0 1 2047 -1 400 140 1;
#X restore 323 230 graph;
#N canvas 263 126 950 526 insample 0;
#N canvas 0 22 450 300 (subpatch) 0;
#X array sample 4e+06 float 0;
#X coords 0 1 4e+06 -1 400 150 1;
#X restore 199 18 graph;
#X obj 19 70 r read-sample;
#X obj 19 95 unpack s f;
#X obj 62 117 s insamprate;
#X obj 19 171 soundfiler;
#X msg 19 147 read -resize \$1 sample;
#X obj 19 201 s insamplength;
#X msg 357 197 \; sample resize 220500 \; insamplength 220500;
#X obj 62 282 s insamprate;
#X obj 65 233 loadbang;
#X msg 63 257 44100;
#X msg 146 234 \; pd dsp 1;
#X obj 602 396 soundfiler;
#X obj 602 426 s insamplength;
#X obj 681 279 r read-sample;
#X obj 618 326 pack 0 s;
#X floatatom 622 202 5 0 0 0 - - -;
#X obj 613 240 * 44100;
#X msg 602 372 read -maxsize 1e+06 -skip \$1 \$2 sample;
#X msg 322 329 \; sample resize 2.205e+06 \; insamplength 2.205e+06
;
#X obj 680 301 symbol;
#X connect 1 0 2 0;
#X connect 2 0 5 0;
#X connect 2 1 3 0;
#X connect 4 0 6 0;
#X connect 5 0 4 0;
#X connect 9 0 10 0;
#X connect 9 0 11 0;
#X connect 10 0 8 0;
#X connect 12 0 13 0;
#X connect 14 0 20 0;
#X connect 15 0 18 0;
#X connect 16 0 17 0;
#X connect 17 0 15 0;
#X connect 18 0 12 0;
#X connect 20 0 15 1;
#X restore 510 64 pd insample;
#X text 324 11 (1) read a sample;
#N canvas 482 421 314 198 loadbang 0;
#X obj 70 36 loadbang;
#X obj 70 103 samplerate~;
#X obj 71 61 t b b;
#X obj 70 127 s sample-rate;
#X msg 122 60 \; bash-blksize 512;
#X obj 144 32 bng 15 250 50 0 empty empty empty 17 7 0 10 -262144 -1
-1;
#X connect 0 0 2 0;
#X connect 1 0 3 0;
#X connect 2 0 1 0;
#X connect 2 1 4 0;
#X connect 5 0 2 0;
#X restore 510 86 pd loadbang;
#N canvas 132 108 610 492 hanning-window 0;
#X obj 60 232 phasor~;
#X obj 60 255 cos~;
#X msg 24 208 0;
#N canvas 0 22 450 300 (subpatch) 0;
#X array hanning2 4096 float 2;
#X coords 0 1 4096 0 300 150 1;
#X restore 284 82 graph;
#X obj 61 203 sig~;
#X text 90 176 sample rate / window size;
#X obj 69 143 samplerate~;
#X obj 14 119 t b f;
#X obj 61 179 /;
#X obj 14 324 tabwrite~ hanning2;
#X obj 13 68 r bash-blksize;
#X obj 59 276 -~ 1;
#X obj 59 299 *~ -0.5;
#X obj 13 91 * 2;
#N canvas 0 22 450 300 (subpatch) 0;
#X array square-window 4096 float 2;
#X coords 0 1 4096 0 300 150 1;
#X restore 279 267 graph;
#X obj 32 391 tabwrite~ square-window;
#X obj 150 275 -~ 0.5;
#X obj 151 299 +~ 1e-06;
#X obj 153 347 clip~ 0 1;
#X obj 151 322 *~ -1e+20;
#X connect 0 0 1 0;
#X connect 0 0 16 0;
#X connect 1 0 11 0;
#X connect 2 0 0 1;
#X connect 4 0 0 0;
#X connect 6 0 8 0;
#X connect 7 0 6 0;
#X connect 7 0 9 0;
#X connect 7 0 2 0;
#X connect 7 0 15 0;
#X connect 7 1 8 1;
#X connect 8 0 4 0;
#X connect 10 0 13 0;
#X connect 11 0 12 0;
#X connect 12 0 9 0;
#X connect 13 0 7 0;
#X connect 16 0 17 0;
#X connect 17 0 19 0;
#X connect 18 0 15 0;
#X connect 19 0 18 0;
#X restore 510 108 pd hanning-window;
#X obj 152 154 bng 30 250 50 0 empty empty empty 0 -6 0 8 -262144 -1
-1;
#X msg 301 30 \; read-sample Hamburger.wav;
#N canvas 32 30 862 544 unphase 0;
#X obj 28 16 r bash-blksize;
#X obj 101 167 outlet~;
#X obj 160 18 inlet~;
#X obj 276 10 inlet;
#X obj 29 67 block~;
#X obj 363 12 inlet;
#N canvas 0 22 557 450 overlap-2 0;
#X obj 28 16 r bash-blksize;
#X obj 159 193 rfft~;
#X obj 159 313 rifft~;
#X obj 159 169 *~;
#X obj 161 405 outlet~;
#X obj 160 18 inlet~;
#X obj 158 221 *~;
#X obj 190 221 *~;
#X obj 159 251 q8_sqrt~;
#X obj 182 139 *~ 0;
#X obj 183 77 tabreceive~ hanning2;
#X obj 228 223 samplerate~;
#X obj 350 163 bang~;
#X obj 159 290 *~;
#X obj 27 147 block~;
#X obj 160 378 *~;
#X obj 228 265 phasor~;
#X obj 228 243 / 1;
#X obj 284 265 0.75;
#X obj 227 288 -~ 0.25;
#X msg 52 119 set 1024 2;
#X msg 48 98 set 1024 1;
#X obj 28 44 * 2;
#X msg 28 73 set \$1 2;
#X obj 176 354 tabreceive~ square-window;
#X obj 205 115 expr 2/$f1;
#X connect 0 0 22 0;
#X connect 1 0 6 0;
#X connect 1 0 6 1;
#X connect 1 1 7 0;
#X connect 1 1 7 1;
#X connect 2 0 15 0;
#X connect 3 0 1 0;
#X connect 5 0 3 0;
#X connect 6 0 8 0;
#X connect 7 0 8 0;
#X connect 8 0 13 0;
#X connect 9 0 3 1;
#X connect 10 0 9 0;
#X connect 11 0 17 0;
#X connect 12 0 11 0;
#X connect 12 0 18 0;
#X connect 13 0 2 0;
#X connect 15 0 4 0;
#X connect 16 0 19 0;
#X connect 17 0 16 0;
#X connect 18 0 16 1;
#X connect 19 0 13 1;
#X connect 20 0 14 0;
#X connect 21 0 14 0;
#X connect 22 0 23 0;
#X connect 22 0 25 0;
#X connect 23 0 14 0;
#X connect 24 0 15 1;
#X connect 25 0 9 1;
#X restore 161 59 pd overlap-2;
#X msg 28 41 set \$1 1;
#X obj 293 401 tabwrite~ array1;
#X obj 360 224 tgl 15 0 empty empty empty 17 7 0 10 -262144 -1 -1 0
1;
#X obj 361 246 sel 0 1;
#X obj 425 226 s start-rt-table;
#X obj 370 280 tabwrite~ waveform100;
#X obj 363 305 tabwrite~ waveform100;
#X obj 295 380 tabwrite~ waveform1;
#X obj 360 198 b;
#X obj 636 213 bang~;
#X obj 628 262 f;
#X obj 659 264 + 1;
#X floatatom 628 291 5 0 0 0 - - -;
#X obj 568 216 0;
#X obj 627 392 f;
#X obj 658 394 + 1;
#X obj 628 338 moses 5;
#X obj 628 362 b;
#X floatatom 626 418 5 0 0 0 - - -;
#X obj 628 312 t f f;
#X obj 625 442 s frame-recorded;
#X connect 0 0 7 0;
#X connect 2 0 6 0;
#X connect 3 0 14 0;
#X connect 3 0 8 0;
#X connect 5 0 15 0;
#X connect 6 0 1 0;
#X connect 6 0 14 0;
#X connect 6 0 12 0;
#X connect 6 0 13 0;
#X connect 6 0 8 0;
#X connect 7 0 4 0;
#X connect 9 0 10 0;
#X connect 10 0 13 0;
#X connect 10 1 12 0;
#X connect 15 0 9 0;
#X connect 15 0 11 0;
#X connect 15 0 20 0;
#X connect 16 0 17 0;
#X connect 17 0 18 0;
#X connect 17 0 19 0;
#X connect 18 0 17 1;
#X connect 19 0 26 0;
#X connect 20 0 17 1;
#X connect 21 0 22 0;
#X connect 21 0 25 0;
#X connect 22 0 21 1;
#X connect 23 0 24 0;
#X connect 23 1 21 0;
#X connect 24 0 21 0;
#X connect 25 0 27 0;
#X connect 26 0 23 0;
#X restore 98 362 pd unphase;
#X obj 38 407 output~;
#X obj 193 155 bng 30 250 50 0 empty empty empty 0 -6 0 8 -262144 -1
-1;
#X text 97 164 start;
#X text 223 167 done;
#N canvas 43 437 554 410 savit 0;
#X obj 48 18 inlet;
#X obj 107 21 inlet;
#X obj 77 66 timer;
#X obj 77 240 soundfiler;
#X obj 110 126 r bash-blksize;
#X obj 77 100 * 44.1;
#X obj 77 126 /;
#X obj 77 153 i;
#X obj 110 181 r bash-blksize;
#X obj 77 181 *;
#X obj 149 66 s resend-tabs;
#X obj 54 325 soundfiler;
#X msg 77 217 write -nframes \$1 tab/tab-samp1.wav tab-samp1;
#X msg 171 328 write tab/tab-pitch1.wav pitch_tab;
#X obj 171 353 soundfiler;
#X msg 135 277 \; tab-pitch1 write tab/tab-pitch1.txt;
#X connect 0 0 2 0;
#X connect 1 0 2 1;
#X connect 2 0 5 0;
#X connect 4 0 6 1;
#X connect 5 0 6 0;
#X connect 6 0 7 0;
#X connect 7 0 9 0;
#X connect 8 0 9 1;
#X connect 9 0 12 0;
#X connect 12 0 3 0;
#X connect 13 0 14 0;
#X restore 160 203 pd savit;
#X obj 153 18 bng 15 250 50 0 empty empty empty 0 -6 0 8 -262144 -1
-1;
#X obj 153 67 s read-sample;
#X obj 153 43 openpanel;
#X obj 131 102 r record;
#X obj 131 123 t b f;
#X obj 193 121 r done-record;
#X obj 19 33 tabplay~ sample;
#X obj 23 11 bng 15 250 50 0 empty empty empty 0 -6 0 8 -262144 -1
-1;
#X obj 19 61 output~;
#X obj 175 321 metro 10000;
#X obj 175 277 loadbang;
#X obj 175 301 tgl 15 0 empty empty empty 17 7 0 10 -262144 -1 -1 1
1;
#X obj 14 325 inlet~;
#X connect 5 0 7 1;
#X connect 5 0 12 0;
#X connect 7 0 8 0;
#X connect 7 0 8 1;
#X connect 9 0 12 1;
#X connect 13 0 15 0;
#X connect 15 0 14 0;
#X connect 16 0 17 0;
#X connect 17 0 5 0;
#X connect 18 0 9 0;
#X connect 19 0 21 1;
#X connect 19 0 21 0;
#X connect 20 0 19 0;
#X connect 22 0 7 2;
#X connect 23 0 24 0;
#X connect 24 0 22 0;
#X connect 25 0 7 0;
#X restore 82 28 pd make-samples;
#N canvas 141 178 707 334 mic 0;
#X obj 50 258 outlet~;
#X obj 52 12 inlet~;
#X msg 115 123 set adc-ch\$1;
#X obj 115 99 r chnl-mic;
#X obj 133 149 r~ adc-ch7;
#X obj 132 224 outlet~;
#X obj 247 153 dbtorms;
#X obj 246 108 + 100;
#X obj 246 34 loadbang;
#X floatatom 248 131 5 0 0 0 - - -;
#X obj 258 57 r trim-mic;
#X obj 246 82 f 0;
#X obj 133 173 *~;
#X obj 225 217 env~ 8192;
#X obj 225 239 i;
#X obj 225 261 - 88;
#X obj 225 284 s mic-meter;
#X obj 422 60 table test-in-mic;
#X obj 450 187 tabplay~ test-in-mic;
#X obj 470 274 soundfiler;
#X msg 467 248 read -resize x2.wav test-in-mic;
#X obj 466 223 loadbang;
#X obj 450 93 r test-mic-loop;
#X obj 450 118 tgl 15 0 empty empty empty 17 7 0 10 -262144 -1 -1 0
1;
#X obj 450 140 sel 1 0;
#X msg 466 164 stop;
#X obj 550 154 b;
#X obj 133 197 +~;
#X obj 342 220 output~;
#X connect 1 0 0 0;
#X connect 2 0 4 0;
#X connect 3 0 2 0;
#X connect 4 0 12 0;
#X connect 6 0 12 1;
#X connect 7 0 9 0;
#X connect 8 0 11 0;
#X connect 9 0 6 0;
#X connect 10 0 11 0;
#X connect 11 0 7 0;
#X connect 12 0 27 0;
#X connect 13 0 14 0;
#X connect 14 0 15 0;
#X connect 15 0 16 0;
#X connect 18 0 27 1;
#X connect 18 0 28 0;
#X connect 18 0 28 1;
#X connect 18 1 26 0;
#X connect 20 0 19 0;
#X connect 21 0 20 0;
#X connect 22 0 23 0;
#X connect 23 0 24 0;
#X connect 24 0 18 0;
#X connect 24 1 25 0;
#X connect 25 0 18 0;
#X connect 26 0 18 0;
#X connect 27 0 5 0;
#X connect 27 0 13 0;
#X restore 19 29 pd mic;
#X msg 293 446 \; pd-smeck.pd loadbang;
#N canvas 633 349 553 521 record-6 0;
#X obj 267 13 r~ string-1-trimmed;
#X obj 265 177 writesf~ 6;
#X obj 281 40 r~ string-2-trimmed;
#X obj 292 67 r~ string-3-trimmed;
#X obj 307 94 r~ string-4-trimmed;
#X obj 317 120 r~ string-5-trimmed;
#X obj 331 147 r~ string-6-trimmed;
#X msg 40 67 open /tmp/in6.wav \, start;
#X msg 48 102 stop;
#X obj 59 280 readsf~ 6;
#X msg 59 222 open other/blues-cadence6.wav \, start;
#X msg 83 251 stop;
#X obj 60 434 throw~ add-in-1;
#X obj 138 251 r reset;
#X obj 60 191 r test-input;
#X obj 70 410 throw~ add-in-2;
#X obj 81 386 throw~ add-in-3;
#X obj 91 363 throw~ add-in-4;
#X obj 99 339 throw~ add-in-5;
#X obj 109 314 throw~ add-in-6;
#X floatatom 275 297 5 0 0 0 - - -;
#X obj 276 319 t b f;
#X obj 290 362 makefilename /tmp/preset-%d.wav;
#X msg 288 393 \; mono-out-writesf open \$1 \, start;
#X msg 289 439 \; mono-out-writesf stop;
#X msg 335 314 \; qlist-recall \$1;
#X connect 0 0 1 0;
#X connect 2 0 1 1;
#X connect 3 0 1 2;
#X connect 4 0 1 3;
#X connect 5 0 1 4;
#X connect 6 0 1 5;
#X connect 7 0 1 0;
#X connect 8 0 1 0;
#X connect 9 0 12 0;
#X connect 9 1 15 0;
#X connect 9 2 16 0;
#X connect 9 3 17 0;
#X connect 9 4 18 0;
#X connect 9 5 19 0;
#X connect 9 6 24 0;
#X connect 10 0 9 0;
#X connect 11 0 9 0;
#X connect 13 0 11 0;
#X connect 14 0 10 0;
#X connect 20 0 21 0;
#X connect 21 0 10 0;
#X connect 21 1 22 0;
#X connect 21 1 25 0;
#X connect 22 0 23 0;
#X restore 41 283 pd record-6;
#X obj 19 118 string 4 6 1024 55 0 3 5;
#X obj 19 140 string 5 7 1024 59 0 4 6;
#X obj 19 162 string 6 8 1024 64 0 5 6;
#X obj 19 74 string 2 4 2048 45 0 1 3;
#X obj 19 96 string 3 5 1024 50 0 2 4;
#X connect 4 0 10 2;
#X connect 5 0 10 1;
#X connect 6 0 7 0;
#X connect 7 0 8 0;
#X connect 21 0 33 0;
#X connect 29 0 39 0;
#X connect 29 1 4 0;
#X connect 33 0 29 0;
#X connect 33 1 32 0;
#X connect 36 0 37 0;
#X connect 36 1 5 1;
#X connect 37 0 38 0;
#X connect 37 1 4 0;
#X connect 38 0 3 0;
#X connect 38 0 10 0;
#X connect 38 1 5 0;
#X connect 39 0 40 0;
#X connect 39 1 5 0;
#X connect 40 0 36 0;
#X connect 40 1 4 1;
#X restore 625 83 pd audio;
#X obj 26 47 bng 15 250 50 0 1-qlist-recall empty 1 -10 8 0 10 -262144
-1 -1;
#X obj 26 64 bng 15 250 50 0 2-qlist-recall empty 2 -10 8 0 10 -262144
-1 -1;
#X obj 26 81 bng 15 250 50 0 3-qlist-recall empty 3 -10 8 0 10 -262144
-1 -1;
#X obj 26 98 bng 15 250 50 0 4-qlist-recall empty 4 -10 8 0 10 -262144
-1 -1;
#X obj 26 115 bng 15 250 50 0 5-qlist-recall empty 5 -10 8 0 10 -262144
-1 -1;
#X obj 26 132 bng 15 250 50 0 6-qlist-recall empty 6 -10 8 0 10 -262144
-1 -1;
#X obj 26 149 bng 15 250 50 0 7-qlist-recall empty 7 -10 8 0 10 -262144
-1 -1;
#X obj 26 166 bng 15 250 50 0 8-qlist-recall empty 8 -10 8 0 10 -262144
-1 -1;
#X obj 26 183 bng 15 250 50 0 9-qlist-recall empty 9 -10 8 0 10 -262144
-1 -1;
#X obj 26 200 bng 15 250 50 0 10-qlist-recall empty 10 -18 8 0 10 -262144
-1 -1;
#X obj 124 47 bng 15 250 50 0 11-qlist-recall empty 11 -18 8 0 10 -262144
-1 -1;
#X obj 124 64 bng 15 250 50 0 12-qlist-recall empty 12 -18 8 0 10 -262144
-1 -1;
#X obj 124 81 bng 15 250 50 0 13-qlist-recall empty 13 -18 8 0 10 -262144
-1 -1;
#X obj 124 98 bng 15 250 50 0 14-qlist-recall empty 14 -18 8 0 10 -262144
-1 -1;
#X obj 124 115 bng 15 250 50 0 15-qlist-recall empty 15 -18 8 0 10
-262144 -1 -1;
#X obj 124 132 bng 15 250 50 0 16-qlist-recall empty 16 -18 8 0 10
-262144 -1 -1;
#X obj 124 149 bng 15 250 50 0 17-qlist-recall empty 17 -18 8 0 10
-262144 -1 -1;
#X obj 124 166 bng 15 250 50 0 18-qlist-recall empty 18 -18 8 0 10
-262144 -1 -1;
#X obj 124 183 bng 15 250 50 0 19-qlist-recall empty 19 -18 8 0 10
-262144 -1 -1;
#X obj 124 200 bng 15 250 50 0 20-qlist-recall empty 20 -18 8 0 10
-262144 -1 -1;
#X obj 214 47 bng 15 250 50 0 21-qlist-recall empty 21 -18 8 0 10 -262144
-1 -1;
#X obj 214 64 bng 15 250 50 0 22-qlist-recall empty 22 -18 8 0 10 -262144
-1 -1;
#X obj 214 81 bng 15 250 50 0 23-qlist-recall empty 23 -18 8 0 10 -262144
-1 -1;
#X obj 214 98 bng 15 250 50 0 24-qlist-recall empty 24 -18 8 0 10 -262144
-1 -1;
#X obj 214 115 bng 15 250 50 0 25-qlist-recall empty 25 -18 8 0 10
-262144 -1 -1;
#X obj 214 132 bng 15 250 50 0 26-qlist-recall empty 26 -18 8 0 10
-262144 -1 -1;
#X obj 214 149 bng 15 250 50 0 27-qlist-recall empty 27 -18 8 0 10
-262144 -1 -1;
#X obj 214 166 bng 15 250 50 0 28-qlist-recall empty 28 -18 8 0 10
-262144 -1 -1;
#X obj 214 183 bng 15 250 50 0 29-qlist-recall empty 29 -18 8 0 10
-262144 -1 -1;
#X obj 214 200 bng 15 250 50 0 30-qlist-recall empty 30 -18 8 0 10
-262144 -1 -1;
#X obj 303 47 bng 15 250 50 0 31-qlist-recall empty 31 -18 8 0 10 -262144
-1 -1;
#X obj 303 64 bng 15 250 50 0 32-qlist-recall empty 32 -18 8 0 10 -262144
-1 -1;
#X obj 303 81 bng 15 250 50 0 33-qlist-recall empty 33 -18 8 0 10 -262144
-1 -1;
#X obj 303 98 bng 15 250 50 0 34-qlist-recall empty 34 -18 8 0 10 -262144
-1 -1;
#X obj 303 115 bng 15 250 50 0 35-qlist-recall empty 35 -18 8 0 10
-262144 -1 -1;
#X obj 303 132 bng 15 250 50 0 36-qlist-recall empty 36 -18 8 0 10
-262144 -1 -1;
#X obj 303 149 bng 15 250 50 0 37-qlist-recall empty 37 -18 8 0 10
-262144 -1 -1;
#X obj 303 166 bng 15 250 50 0 38-qlist-recall empty 38 -18 8 0 10
-262144 -1 -1;
#X obj 303 183 bng 15 250 50 0 39-qlist-recall empty 39 -18 8 0 10
-262144 -1 -1;
#X obj 303 200 bng 15 250 50 0 40-qlist-recall empty 40 -18 8 0 10
-262144 -1 -1;
#X floatatom 662 374 3 0 120 0 master t-master-lvl-set t-master-lvl
;
#X obj 690 374 bng 15 250 50 0 t-master-mute empty empty -10 8 0 10
-262144 -1 -1;
#X obj 684 230 vu 15 120 big-meter empty -1 -8 0 8 -66577 -1 0 0;
#X obj 497 47 bng 15 250 50 0 51-qlist-recall empty 51 -18 8 0 10 -262144
-1 -1;
#X obj 497 64 bng 15 250 50 0 52-qlist-recall empty 52 -18 8 0 10 -262144
-1 -1;
#X obj 497 81 bng 15 250 50 0 53-qlist-recall empty 53 -18 8 0 10 -262144
-1 -1;
#X obj 497 98 bng 15 250 50 0 54-qlist-recall empty 54 -18 8 0 10 -262144
-1 -1;
#X obj 497 115 bng 15 250 50 0 55-qlist-recall empty 55 -18 8 0 10
-262144 -1 -1;
#X obj 497 132 bng 15 250 50 0 56-qlist-recall empty 56 -18 8 0 10
-262144 -1 -1;
#X obj 497 149 bng 15 250 50 0 57-qlist-recall empty 57 -18 8 0 10
-262144 -1 -1;
#X obj 497 166 bng 15 250 50 0 58-qlist-recall empty 58 -18 8 0 10
-262144 -1 -1;
#X obj 497 183 bng 15 250 50 0 59-qlist-recall empty 59 -18 8 0 10
-262144 -1 -1;
#X obj 497 200 bng 15 250 50 0 60-qlist-recall empty 60 -18 8 0 10
-262144 -1 -1;
#X obj 400 46 bng 15 250 50 0 41-qlist-recall empty 41 -18 8 0 10 -262144
-1 -1;
#X obj 400 63 bng 15 250 50 0 42-qlist-recall empty 42 -18 8 0 10 -262144
-1 -1;
#X obj 400 80 bng 15 250 50 0 43-qlist-recall empty 43 -18 8 0 10 -262144
-1 -1;
#X obj 400 97 bng 15 250 50 0 44-qlist-recall empty 44 -18 8 0 10 -262144
-1 -1;
#X obj 400 114 bng 15 250 50 0 45-qlist-recall empty 45 -18 8 0 10
-262144 -1 -1;
#X obj 400 131 bng 15 250 50 0 46-qlist-recall empty 46 -18 8 0 10
-262144 -1 -1;
#X obj 400 148 bng 15 250 50 0 47-qlist-recall empty 47 -18 8 0 10
-262144 -1 -1;
#X obj 400 165 bng 15 250 50 0 48-qlist-recall empty 48 -18 8 0 10
-262144 -1 -1;
#X obj 400 182 bng 15 250 50 0 49-qlist-recall empty 49 -18 8 0 10
-262144 -1 -1;
#X obj 400 199 bng 15 250 50 0 50-qlist-recall empty 50 -18 8 0 10
-262144 -1 -1;
#X floatatom 668 393 3 0 100 0 spread spread-set spread;
#X obj 26 30 bng 15 250 50 0 0-qlist-recall empty 0 -10 8 0 10 -262144
-1 -1;
#N canvas 407 57 360 146 spectrum 0;
#N canvas 117 716 811 253 graph 0;
#N canvas 0 22 450 300 (subpatch) 0;
#X array output 384 float 0;
#X coords 0 1 383 0 768 200 1;
#X restore 19 -28 graph;
#X text 33 168 |;
#X text 108 169 |;
#X text 201 169 |;
#X text 294 169 |;
#X text 386 169 |;
#X text 100 181 500;
#X text 192 181 1000;
#X text 285 181 1500;
#X text 377 181 2000;
#X text 52 168 |;
#X text 70 168 |;
#X text 89 168 |;
#X text 126 168 |;
#X text 145 168 |;
#X text 163 168 |;
#X text 182 168 |;
#X text 219 168 |;
#X text 238 168 |;
#X text 256 168 |;
#X text 275 168 |;
#X text 312 168 |;
#X text 331 168 |;
#X text 349 168 |;
#X text 368 168 |;
#X text 405 168 |;
#X text 424 168 |;
#X text 442 168 |;
#X text 461 168 |;
#X text 479 169 |;
#X text 498 168 |;
#X text 517 168 |;
#X text 535 168 |;
#X text 470 182 2500;
#X text 555 168 |;
#X text 574 169 |;
#X text 593 168 |;
#X text 612 168 |;
#X text 630 168 |;
#X text 650 168 |;
#X text 565 182 3000;
#X text 667 169 |;
#X text 686 168 |;
#X text 705 168 |;
#X text 723 168 |;
#X text 743 168 |;
#X text 658 182 3500;
#X text 760 168 |;
#X text 751 181 4000;
#X restore 270 115 pd graph;
#X obj 10 39 gain~;
#X obj 10 19 catch~ in-sum~;
#N canvas 0 22 450 300 calculate 0;
#X obj 122 92 switch~;
#X obj 122 69 tgl 15 0 empty empty empty 17 7 0 10 -262144 -1 -1 0
1;
#N canvas 587 366 607 436 hanning-window 0;
#X obj 92 206 phasor~;
#X obj 92 276 cos~;
#X obj 30 294 -~;
#X obj 28 218 sig~ 1;
#X msg 37 180 0;
#X text 148 17 CALCULATE HANNING;
#X text 148 31 WINDOW TABLE;
#N canvas 0 22 450 300 (subpatch) 0;
#X array \$0-hanning 4096 float 0;
#X coords 0 1 4095 -1 200 150 1;
#X restore 352 155 graph;
#X obj 93 131 / 1024;
#X text 146 129 sample rate / window size;
#X msg 23 144 bang;
#X obj 66 311 sig~ 0.5;
#X obj 49 342 *~;
#X obj 67 96 samplerate~;
#X obj 25 53 t b f;
#X obj 93 157 / 2;
#X obj 93 231 *~ 2;
#X obj 93 252 clip~ 0 1;
#X msg 358 61 \; output xticks 0 4.65 1;
#X obj 358 40 loadbang;
#X obj 274 299 loadbang;
#X msg 383 109 \; window-size 2048;
#X obj 23 395 tabwrite~ \$0-hanning;
#X obj 331 349 t b b;
#X msg 252 378 resize 4096;
#X obj 250 400 s \$0-hanning;
#X msg 361 374 \; s-window-size 4096;
#X obj 25 9 r s-window-size;
#X obj 330 325 bng 15 250 50 0 empty empty empty 0 -6 0 8 -262144 -1
-1;
#X connect 0 0 16 0;
#X connect 1 0 2 1;
#X connect 2 0 12 0;
#X connect 3 0 2 0;
#X connect 4 0 0 1;
#X connect 8 0 15 0;
#X connect 10 0 4 0;
#X connect 10 0 22 0;
#X connect 11 0 12 1;
#X connect 12 0 22 0;
#X connect 13 0 8 0;
#X connect 14 0 13 0;
#X connect 14 0 10 0;
#X connect 14 1 8 1;
#X connect 15 0 0 0;
#X connect 16 0 17 0;
#X connect 17 0 1 0;
#X connect 19 0 18 0;
#X connect 20 0 28 0;
#X connect 23 0 24 0;
#X connect 23 1 26 0;
#X connect 24 0 25 0;
#X connect 27 0 14 0;
#X connect 28 0 23 0;
#X restore 222 47 pd hanning-window;
#N canvas 674 177 394 369 fft 0;
#X obj 145 68 *~;
#X obj 176 68 inlet~;
#X obj 145 91 rfft~;
#X obj 182 114 *~;
#X obj 148 114 *~;
#X obj 148 137 +~;
#X obj 148 185 sqrt~;
#X obj 149 163 +~ 0;
#X obj 148 280 tabwrite~ output;
#X obj 266 132 bang~;
#X obj 265 158 f;
#X obj 300 159 + 1;
#X obj 240 196 sel 0;
#X obj 300 182 mod 20;
#X obj 316 56 tgl 15 0 empty empty empty 0 -6 0 8 -262144 -1 -1 1 1
;
#X obj 323 80 sel 0 1;
#X obj 149 209 sqrt~;
#X obj 151 238 *~ 0.1;
#X obj 216 312 block~ 4096 4;
#X msg 347 117 4;
#X msg 317 115 8;
#X obj 55 18 tabreceive~ \$0-hanning;
#X obj 316 8 loadbang;
#X msg 316 33 1;
#X connect 0 0 2 0;
#X connect 1 0 0 1;
#X connect 2 0 4 0;
#X connect 2 0 4 1;
#X connect 2 1 3 0;
#X connect 2 1 3 1;
#X connect 3 0 5 1;
#X connect 4 0 5 0;
#X connect 5 0 7 0;
#X connect 6 0 16 0;
#X connect 7 0 6 0;
#X connect 9 0 10 0;
#X connect 10 0 11 0;
#X connect 10 0 12 0;
#X connect 11 0 13 0;
#X connect 12 0 8 0;
#X connect 13 0 10 1;
#X connect 14 0 15 0;
#X connect 15 0 20 0;
#X connect 15 1 19 0;
#X connect 16 0 17 0;
#X connect 17 0 8 0;
#X connect 19 0 13 1;
#X connect 20 0 13 1;
#X connect 21 0 0 0;
#X connect 22 0 23 0;
#X connect 23 0 14 0;
#X restore 21 77 pd fft;
#X obj 23 47 inlet~;
#X obj 123 49 inlet;
#X connect 1 0 0 0;
#X connect 4 0 3 0;
#X connect 5 0 1 0;
#X restore 140 122 pd calculate;
#X obj 209 80 tgl 15 0 empty empty empty 17 7 0 10 -262144 -1 -1 0
1;
#X obj 104 41 gain~;
#X obj 104 21 r~ out-to-fft;
#X obj 89 122 +~;
#X connect 1 0 7 0;
#X connect 2 0 1 0;
#X connect 4 0 3 1;
#X connect 5 0 7 1;
#X connect 6 0 5 0;
#X connect 7 0 3 0;
#X restore 625 134 pd spectrum;
#X obj 572 47 bng 15 250 50 0 61-qlist-recall empty 61 -18 8 0 10 -262144
-1 -1;
#X obj 572 64 bng 15 250 50 0 62-qlist-recall empty 62 -18 8 0 10 -262144
-1 -1;
#X obj 572 81 bng 15 250 50 0 63-qlist-recall empty 63 -18 8 0 10 -262144
-1 -1;
#X obj 572 98 bng 15 250 50 0 64-qlist-recall empty 64 -18 8 0 10 -262144
-1 -1;
#X obj 572 115 bng 15 250 50 0 65-qlist-recall empty 65 -18 8 0 10
-262144 -1 -1;
#X obj 572 132 bng 15 250 50 0 66-qlist-recall empty 66 -18 8 0 10
-262144 -1 -1;
#X obj 572 149 bng 15 250 50 0 67-qlist-recall empty 67 -18 8 0 10
-262144 -1 -1;
#X obj 572 166 bng 15 250 50 0 68-qlist-recall empty 68 -18 8 0 10
-262144 -1 -1;
#X obj 572 183 bng 15 250 50 0 69-qlist-recall empty 69 -18 8 0 10
-262144 -1 -1;
#X obj 572 200 bng 15 250 50 0 70-qlist-recall empty 70 -18 8 0 10
-262144 -1 -1;
#N canvas 73 114 928 666 ctl 0;
#X obj 335 20 r p-h0;
#X obj 448 20 r p-h1;
#X obj 570 19 r p-h2;
#X obj 710 21 r p-h3;
#X obj 45 239 setctl filterbias;
#X obj 206 229 setctl fshz;
#X obj 45 218 setctl thru;
#X obj 47 285 setctl h0;
#X obj 47 306 setctl h1;
#X obj 47 327 setctl h2;
#X obj 47 348 setctl h3;
#X obj 47 369 setctl h4;
#X obj 484 342 setctl tri;
#X obj 484 363 setctl partials;
#X obj 187 15 setctl level;
#X obj 187 36 setctl octave;
#X obj 187 57 setctl window;
#X obj 187 78 setctl amp0;
#X obj 187 99 setctl amp1;
#X obj 187 141 setctl amp2;
#X obj 775 318 setctl pvocon;
#X obj 775 337 setctl pvocsamp;
#X obj 775 356 setctl pvocspeed;
#X obj 775 375 setctl pvocdist;
#X obj 206 295 setctl inter1;
#X obj 206 316 setctl inter2;
#X obj 484 385 setctl symmetry;
#X obj 484 406 setctl duty;
#X obj 225 348 setctl pmod;
#X obj 225 369 setctl pharm;
#X obj 225 390 setctl penv;
#X obj 190 437 setctl oddh;
#X obj 358 220 setctl vcfa;
#X obj 358 241 setctl vcfp;
#X obj 358 304 setctl vcfd;
#X obj 358 325 setctl vcf;
#X obj 184 193 setctl pss;
#X obj 41 518 setctl amp1b;
#X obj 40 542 setctl squeeze;
#X obj 42 571 setctl amp1c;
#X obj 39 592 setctl lock;
#X msg 779 237 \; preset-number 0;
#X obj 778 213 r reset;
#X obj 779 275 r preset-number;
#X obj 206 250 setctl fspc;
#X obj 206 272 setctl fsmix;
#X obj 187 120 setctl trans1;
#X obj 187 160 setctl trans2;
#X obj 64 419 setctl osc;
#X obj 63 441 setctl quantize;
#X obj 76 163 setctl pslock;
#X obj 46 261 setctl fz;
#X obj 358 347 setctl vcfbias;
#X obj 358 367 setctl vcfq;
#X obj 358 388 setctl vcfdepth;
#X obj 381 502 spigot;
#X obj 432 502 r tie-vcf;
#X obj 359 410 mutectl vcfq;
#X obj 380 458 r vcf+;
#X obj 387 481 s vcf;
#X obj 358 262 setctl vcfa2;
#X obj 358 283 setctl vcfp2;
#X msg 381 523 \; vcfp \$1 \; vcfp2 \$1 \; vcfa 20 \; vcfa2 200 \;
vcfd 1000;
#X msg 335 44 \; window 20 \; amp0 50 \; amp1 0 \; trans1 0 \; amp2
0 \; trans2 0;
#X msg 448 44 \; window 9 \; amp0 44 \; amp1 41 \; trans1 -7 \; amp2
41 \; trans2 5;
#X msg 570 43 \; window 5 \; amp0 44 \; amp1 41 \; trans1 0.15 \; amp2
41 \; trans2 -0.2;
#X msg 710 45 \; window 9 \; amp0 44 \; amp1 41 \; trans1 -7 \; amp2
41 \; trans2 5;
#X obj 602 513 spigot;
#X obj 601 469 r cf+;
#X obj 608 492 s cf;
#X obj 653 513 r tie-cf;
#X msg 602 534 \; cfp \$1 \; cfp2 \$1 \; cfa 20 \; cfa2 200 \; cfd
1000;
#X obj 493 218 setctl voz;
#X obj 493 256 setctl vfret;
#X obj 493 275 setctl vframes;
#X obj 493 294 setctl vspeed;
#X obj 639 239 setctl cfa;
#X obj 639 258 setctl cfp;
#X obj 639 277 setctl cfa2;
#X obj 639 296 setctl cfp2;
#X obj 639 315 setctl cfd;
#X obj 639 334 setctl cf;
#X obj 637 362 setctl cfbias;
#X obj 638 439 setctl bw;
#X obj 637 385 setctl fmtclip;
#X obj 638 408 setctl fmteven;
#X obj 639 214 setctl fmt;
#X obj 493 237 setctl vsamp;
#X obj 790 427 setctl nf;
#X obj 789 446 setctl nd;
#X connect 0 0 63 0;
#X connect 1 0 64 0;
#X connect 2 0 65 0;
#X connect 3 0 66 0;
#X connect 42 0 41 0;
#X connect 55 0 62 0;
#X connect 56 0 55 1;
#X connect 58 0 55 0;
#X connect 58 0 59 0;
#X connect 67 0 71 0;
#X connect 68 0 67 0;
#X connect 68 0 69 0;
#X connect 70 0 67 1;
#X restore 624 108 pd ctl;
#X floatatom 82 279 5 0 100 0 filterbias filterbias-set filterbias
;
#X text 292 384 mod:;
#X floatatom 309 422 5 -200 500 0 fspc fspc-set fspc;
#X floatatom 309 404 5 0 0 0 fshz fshz-set fshz;
#X floatatom 410 318 5 0 100 0 amp0 amp0-set amp0;
#X floatatom 410 334 5 0 100 0 amp1 amp1-set amp1;
#X floatatom 410 350 5 -2400 1200 0 trans1 trans1-set trans1;
#X floatatom 410 366 5 0 100 0 amp2 amp2-set amp2;
#X floatatom 410 382 5 -2400 1200 0 trans2 trans2-set trans2;
#X obj 392 403 bng 15 250 50 0 p-h0 empty 0 -11 8 0 10 -262144 -1 -1
;
#X obj 392 421 bng 15 250 50 0 p-h1 empty 1 -11 8 0 10 -262144 -1 -1
;
#X obj 41 247 bng 15 250 50 0 reset empty empty 15 6 0 10 -262144 -1
-1;
#X obj 413 486 tgl 12 0 \$1-pvocon \$1-pvocon-set on -17 6 0 10 -262144
-1 -1 0 1;
#X text 399 469 pvoc:;
#X floatatom 413 500 5 0 100 0 sample #1-pvocsamp-set #1-pvocsamp;
#X floatatom 155 246 5 0 100 0 thru thru-set thru;
#X floatatom 78 358 5 0 100 0 h2 h2-set h2;
#X floatatom 78 376 5 0 100 0 h3 h3-set h3;
#X floatatom 200 288 5 0 100 0 tri tri-set tri;
#X floatatom 209 304 5 0 100 0 partials partials-set partials;
#X floatatom 78 394 5 0 100 0 h4 h4-set h4;
#X floatatom 78 340 5 0 100 0 h1 h1-set h1;
#X floatatom 308 461 5 0 100 0 inter1 inter1-set inter1;
#X floatatom 308 479 5 0 100 0 inter2 inter2-set inter2;
#X floatatom 434 260 4 -200 100 0 octave octave-set octave;
#X floatatom 209 320 5 -100 100 0 symmetry symmetry-set symmetry;
#X floatatom 209 336 5 0 100 0 duty duty-set duty;
#X obj 427 404 bng 15 250 50 0 p-h2 empty 2 -11 8 0 10 -262144 -1 -1
;
#X obj 427 421 bng 15 250 50 0 p-h3 empty 3 -11 8 0 10 -262144 -1 -1
;
#X floatatom 413 516 5 0 100 0 speed #1-pvocspeed-set #1-pvocspeed
;
#X floatatom 413 532 5 0 300 0 distance #1-pvocdist-set #1-pvocdist
;
#X obj 435 278 tgl 12 0 oddh oddh-set empty -17 6 0 10 -262144 -1 -1
0 1;
#X text 398 276 oddh;
#X text 60 247 reset;
#X text 382 297 pitchshift:;
#X floatatom 84 499 5 0 100 0 pmod pmod-set pmod;
#X floatatom 84 517 5 0 100 0 pharm pharm-set pharm;
#X floatatom 84 535 5 0 100 0 penv penv-set penv;
#X floatatom 78 322 5 0 100 0 h0 h0-set h0;
#X floatatom 76 430 5 0 100 0 osc osc-set osc;
#X obj 63 453 tgl 12 0 quantize quantize-set empty -17 6 0 10 -262144
-1 -1 0 1;
#X text 79 450 quantize;
#X obj 811 566 bng 15 250 50 0 empty empty empty 0 -6 0 8 -262144 -1
-1;
#X floatatom 739 565 2 0 0 1 preset preset-number -;
#X text 799 547 STORE;
#N canvas 69 200 1080 741 -qlists- 0;
#X obj 28 18 inlet;
#X obj 12 70 f;
#X obj 80 18 inlet;
#X obj 15 290 qlist;
#X obj 15 264 r qlist-save;
#X msg 84 98 \; qlist-save clear;
#X obj 50 140 s qlist-grab;
#X obj 31 165 makefilename preset/x%d.txt;
#X msg 31 190 \; qlist-save write \$1;
#X obj 12 98 t f f b b;
#X obj 12 236 s qlist-reload;
#X obj 743 9 qlist-grab level;
#X obj 67 466 s reset;
#X obj 49 495 s qlist-recall;
#X obj 26 520 s qlist-resave;
#X obj 72 61 r qlist-resave;
#X obj 26 444 t f f b;
#X msg 13 379 1 \, 2 \, 3 \, 4 \, 5 \, 6 \, 7 \, 8 \, 9 \, 10;
#X obj 26 419 +;
#N canvas 31 173 637 352 timed-sequencer 0;
#X obj 53 191 qlist;
#X obj 267 146 f;
#X obj 301 146 + 1;
#X obj 67 84 t b b;
#X obj 194 76 1;
#X obj 248 179 div 60;
#X obj 302 179 mod 60;
#X obj 207 218 s seq-min;
#X obj 280 222 s seq-sec;
#X obj 107 196 b;
#X obj 228 75 0;
#X obj 272 121 1;
#X obj 67 14 r seq-start;
#X obj 214 15 r seq-stop;
#X obj 248 97 metro 1000;
#X obj 118 112 s reset;
#X msg 164 39 rewind;
#X obj 47 280 r seq-step;
#X msg 333 265 tempo 1;
#X obj 358 27 r #;
#X obj 334 290 print;
#X msg 65 155 read seq.txt \, tempo 1;
#X obj 365 218 r label;
#X msg 194 285 tempo 100;
#X obj 364 241 del 0.1;
#X obj 193 262 r seq-step;
#X obj 489 266 bng 15 250 50 0 seq-start empty empty 17 8 0 10 -262144
-1 -1;
#X obj 489 283 bng 15 250 50 0 seq-stop empty empty 17 8 0 10 -262144
-1 -1;
#X floatatom 489 304 3 0 100 0 - seq-min -;
#X floatatom 523 304 3 0 100 0 : seq-sec -;
#X text 507 264 START;
#X text 509 283 STOP;
#X obj 558 268 bng 50 250 50 0 seq-step empty empty 17 8 0 10 -262144
-1 -1;
#X text 578 253 STEP;
#X connect 0 1 9 0;
#X connect 1 0 2 0;
#X connect 1 0 5 0;
#X connect 1 0 6 0;
#X connect 2 0 1 1;
#X connect 3 0 0 0;
#X connect 3 0 4 0;
#X connect 3 1 11 0;
#X connect 3 1 21 0;
#X connect 3 1 15 0;
#X connect 4 0 14 0;
#X connect 5 0 7 0;
#X connect 6 0 8 0;
#X connect 9 0 10 0;
#X connect 10 0 7 0;
#X connect 10 0 8 0;
#X connect 10 0 14 0;
#X connect 11 0 1 1;
#X connect 12 0 3 0;
#X connect 13 0 16 0;
#X connect 13 0 10 0;
#X connect 14 0 1 0;
#X connect 16 0 0 0;
#X connect 18 0 0 0;
#X connect 18 0 20 0;
#X connect 21 0 0 0;
#X connect 22 0 24 0;
#X connect 23 0 0 0;
#X connect 24 0 18 0;
#X connect 25 0 23 0;
#X restore 21 597 pd timed-sequencer;
#N canvas 314 125 710 484 step-sequencer 0;
#X obj 53 191 qlist;
#X obj 67 84 t b b;
#X obj 118 112 s reset;
#X obj 338 15 key;
#X obj 67 14 r step-seq-on;
#X obj 466 98 setctl step-seq-on;
#X msg 103 145 read step-seq.txt \, rewind;
#X msg 29 137 next;
#X obj 205 35 del 0;
#X obj 205 13 r step-seq-step;
#X obj 198 76 spigot;
#X obj 58 48 sel 1;
#X floatatom 406 201 5 0 0 0 - - -;
#X obj 338 37 sel 32;
#X obj 47 280 s step-seq-label;
#X connect 0 0 14 0;
#X connect 1 0 7 0;
#X connect 1 1 6 0;
#X connect 1 1 2 0;
#X connect 3 0 13 0;
#X connect 4 0 11 0;
#X connect 4 0 10 1;
#X connect 6 0 0 0;
#X connect 7 0 0 0;
#X connect 8 0 10 0;
#X connect 9 0 8 0;
#X connect 10 0 7 0;
#X connect 11 0 1 0;
#X connect 13 0 10 0;
#X coords 0 0 1 1 100 60 0;
#X restore 25 621 pd step-sequencer;
#X msg 107 654 \; pd--qlists- sort;
#X msg 12 329 0 \, 10 \, 20 \, 30 \, 40 \, 50 \, 60;
#X obj 12 355 t b f;
#X obj 742 526 qlist-grab filterbias;
#X obj 742 547 qlist-grab octave;
#X obj 742 590 qlist-grab fshz;
#X obj 580 17 qlist-grab thru;
#X obj 580 59 qlist-grab h1;
#X obj 580 80 qlist-grab h2;
#X obj 580 101 qlist-grab h3;
#X obj 580 122 qlist-grab h4;
#X obj 580 143 qlist-grab tri;
#X obj 580 164 qlist-grab partials;
#X obj 584 609 qlist-grab inter1;
#X obj 584 628 qlist-grab inter2;
#X obj 580 185 qlist-grab symmetry;
#X obj 580 206 qlist-grab duty;
#X obj 743 30 qlist-grab pvocon;
#X obj 743 51 qlist-grab pvocsamp;
#X obj 743 114 qlist-grab vcf;
#X obj 743 135 qlist-grab vcfp;
#X obj 743 156 qlist-grab vcfa;
#X obj 743 219 qlist-grab vcfd;
#X obj 743 240 qlist-grab vcfbias;
#X obj 743 304 qlist-grab window;
#X obj 743 325 qlist-grab amp0;
#X obj 743 346 qlist-grab delay0;
#X obj 743 367 qlist-grab amp1;
#X obj 743 388 qlist-grab delay1;
#X obj 743 430 qlist-grab amp2;
#X obj 743 451 qlist-grab delay2;
#X obj 924 9 qlist-grab eq1;
#X obj 924 30 qlist-grab eq1p;
#X obj 924 51 qlist-grab eq1a;
#X obj 924 72 qlist-grab eq1d;
#X obj 924 93 qlist-grab ef1;
#X obj 924 114 qlist-grab ef1p;
#X obj 924 135 qlist-grab ef1a;
#X obj 924 198 qlist-grab ef1d;
#X obj 924 219 qlist-grab bw1;
#X obj 924 240 qlist-grab eq2;
#X obj 924 261 qlist-grab eq2p;
#X obj 924 282 qlist-grab eq2a;
#X obj 924 303 qlist-grab eq2d;
#X obj 924 324 qlist-grab ef2;
#X obj 924 345 qlist-grab ef2p;
#X obj 924 366 qlist-grab ef2a;
#X obj 924 429 qlist-grab ef2d;
#X obj 924 450 qlist-grab bw2;
#X obj 743 72 qlist-grab pvocspeed;
#X obj 743 93 qlist-grab pvocdist;
#X obj 924 387 qlist-grab ef2q;
#X obj 924 408 qlist-grab ef2b;
#X obj 924 156 qlist-grab ef1q;
#X obj 924 177 qlist-grab ef1b;
#X obj 580 227 qlist-grab oddh;
#X obj 583 493 qlist-grab voz;
#X obj 583 531 qlist-grab vfret;
#X obj 583 512 qlist-grab vsamp;
#X obj 583 569 qlist-grab vspeed;
#X obj 583 550 qlist-grab vframes;
#X obj 924 471 qlist-grab eqbias;
#X obj 924 492 qlist-grab pmod;
#X obj 924 513 qlist-grab pharm;
#X obj 924 534 qlist-grab penv;
#X obj 580 38 qlist-grab h0;
#X obj 245 32 qlist-read 1;
#X obj 743 409 qlist-grab trans1;
#X obj 743 472 qlist-grab trans2;
#X obj 742 611 qlist-grab fsmix;
#X obj 925 565 qlist-grab osc;
#X obj 925 586 qlist-grab quantize;
#X obj 926 610 qlist-grab pslock;
#X obj 742 569 qlist-grab fspc;
#X obj 743 261 qlist-grab vcfq;
#X obj 743 283 qlist-grab vcfdepth;
#X obj 743 177 qlist-grab vcfp2;
#X obj 743 198 qlist-grab vcfa2;
#X obj 580 267 qlist-grab fmtclip;
#X obj 580 288 qlist-grab fmteven;
#X obj 580 246 qlist-grab fmt;
#X obj 580 456 qlist-grab bw;
#X obj 580 435 qlist-grab cfbias;
#X obj 580 414 qlist-grab cfd;
#X obj 580 351 qlist-grab cfa;
#X obj 580 330 qlist-grab cfp;
#X obj 580 309 qlist-grab cf;
#X obj 580 372 qlist-grab cfp2;
#X obj 580 393 qlist-grab cfa2;
#X obj 927 633 qlist-grab nf;
#X obj 927 652 qlist-grab nd;
#X obj 246 10 qlist-read 0;
#X obj 245 53 qlist-read 2;
#X obj 245 74 qlist-read 3;
#X obj 245 95 qlist-read 4;
#X obj 245 116 qlist-read 5;
#X obj 245 137 qlist-read 6;
#X obj 245 158 qlist-read 7;
#X obj 245 179 qlist-read 8;
#X obj 245 200 qlist-read 9;
#X obj 245 221 qlist-read 10;
#X obj 245 242 qlist-read 11;
#X obj 245 263 qlist-read 12;
#X obj 245 284 qlist-read 13;
#X obj 245 305 qlist-read 14;
#X obj 245 326 qlist-read 15;
#X obj 245 347 qlist-read 16;
#X obj 245 368 qlist-read 17;
#X obj 245 389 qlist-read 18;
#X obj 245 410 qlist-read 19;
#X obj 245 431 qlist-read 20;
#X obj 245 452 qlist-read 21;
#X obj 245 473 qlist-read 22;
#X obj 245 494 qlist-read 23;
#X obj 245 515 qlist-read 24;
#X obj 245 536 qlist-read 25;
#X obj 245 557 qlist-read 26;
#X obj 245 578 qlist-read 27;
#X obj 245 599 qlist-read 28;
#X obj 245 620 qlist-read 29;
#X obj 245 641 qlist-read 30;
#X obj 360 32 qlist-read 31;
#X obj 360 53 qlist-read 32;
#X obj 360 74 qlist-read 33;
#X obj 360 95 qlist-read 34;
#X obj 360 116 qlist-read 35;
#X obj 360 137 qlist-read 36;
#X obj 360 158 qlist-read 37;
#X obj 360 179 qlist-read 38;
#X obj 360 200 qlist-read 39;
#X obj 360 221 qlist-read 40;
#X obj 360 242 qlist-read 41;
#X obj 360 263 qlist-read 42;
#X obj 360 284 qlist-read 43;
#X obj 360 305 qlist-read 44;
#X obj 360 326 qlist-read 45;
#X obj 360 347 qlist-read 46;
#X obj 360 368 qlist-read 47;
#X obj 360 389 qlist-read 48;
#X obj 360 410 qlist-read 49;
#X obj 360 431 qlist-read 50;
#X obj 360 452 qlist-read 51;
#X obj 360 473 qlist-read 52;
#X obj 360 494 qlist-read 53;
#X obj 360 515 qlist-read 54;
#X obj 360 536 qlist-read 55;
#X obj 360 557 qlist-read 56;
#X obj 360 578 qlist-read 57;
#X obj 360 599 qlist-read 58;
#X obj 360 620 qlist-read 59;
#X obj 360 641 qlist-read 60;
#X obj 468 32 qlist-read 61;
#X obj 468 53 qlist-read 62;
#X obj 468 74 qlist-read 63;
#X obj 468 95 qlist-read 64;
#X obj 468 116 qlist-read 65;
#X obj 468 137 qlist-read 66;
#X obj 468 158 qlist-read 67;
#X obj 468 179 qlist-read 68;
#X obj 468 200 qlist-read 69;
#X obj 468 221 qlist-read 70;
#X connect 0 0 1 1;
#X connect 1 0 9 0;
#X connect 2 0 1 0;
#X connect 4 0 3 0;
#X connect 7 0 8 0;
#X connect 9 0 10 0;
#X connect 9 1 7 0;
#X connect 9 2 6 0;
#X connect 9 3 5 0;
#X connect 15 0 9 0;
#X connect 16 0 14 0;
#X connect 16 1 13 0;
#X connect 16 2 12 0;
#X connect 17 0 18 0;
#X connect 18 0 16 0;
#X connect 22 0 23 0;
#X connect 23 0 17 0;
#X connect 23 1 18 1;
#X restore 739 585 pd -qlists-;
#X floatatom 309 440 5 0 100 0 fsmix fsmix-set fsmix;
#X text 570 25 temp;
#X text 45 65 monstr;
#N canvas 0 22 1024 561 graphpit 0;
#N canvas 0 22 450 300 (subpatch) 0;
#X array pitch-track 1000 float 2;
#X coords 0 100 1000 36 1000 500 1;
#X restore 100 20 graph;
#N canvas 551 82 533 528 do-graph 0;
#X obj 221 345 r 1-raw-pit;
#X obj 311 213 mtof;
#X msg 311 260 maxfreq \$1;
#X obj 312 148 loadbang;
#X obj 311 234 * 30;
#X obj 311 190 f 40;
#X obj 310 167 bng 15 250 50 0 empty empty empty 17 7 0 10 -262144
-1 -1;
#X floatatom 383 232 7 0 0 0 - - -;
#X obj 69 96 readsf~;
#X msg 74 66 open /home/msp/e-string-pitchtrack.wav \, start;
#X obj 106 336 max 36;
#X obj 110 398 f;
#X obj 149 399 + 1;
#X obj 110 362 t b f;
#X obj 112 429 moses 1000;
#X obj 112 458 pack;
#X obj 112 486 s pitch-track;
#X obj 59 31 bng 15 250 50 0 empty empty empty 17 7 0 10 -262144 -1
-1;
#X msg 175 372 0;
#X obj 147 157 osc~ 440;
#X obj 46 164 output~;
#X obj 61 8 inlet;
#X msg 404 368 param1 \$1;
#X msg 418 420 param2 \$1;
#X obj 417 153 writesf~;
#X msg 182 32 open /home/msp/e-string-pitchtrack.wav \, start;
#X msg 356 93 stop;
#X obj 419 75 adc~ 3;
#X floatatom 404 344 5 0 0 0 - - -;
#X floatatom 421 395 5 0 0 0 - - -;
#X obj 108 308 sigmund~ -npts 2048 -npeak 12;
#X obj 373 455 s sigmund-1;
#X connect 1 0 4 0;
#X connect 2 0 30 0;
#X connect 3 0 6 0;
#X connect 4 0 2 0;
#X connect 4 0 7 0;
#X connect 5 0 1 0;
#X connect 6 0 5 0;
#X connect 8 0 20 0;
#X connect 8 0 20 1;
#X connect 8 0 30 0;
#X connect 9 0 8 0;
#X connect 10 0 13 0;
#X connect 11 0 12 0;
#X connect 11 0 14 0;
#X connect 12 0 11 1;
#X connect 13 0 11 0;
#X connect 13 1 15 1;
#X connect 14 0 15 0;
#X connect 15 0 16 0;
#X connect 17 0 18 0;
#X connect 17 0 9 0;
#X connect 18 0 11 1;
#X connect 21 0 17 0;
#X connect 22 0 30 0;
#X connect 22 0 31 0;
#X connect 23 0 30 0;
#X connect 23 0 31 0;
#X connect 25 0 24 0;
#X connect 26 0 24 0;
#X connect 27 0 24 0;
#X connect 28 0 22 0;
#X connect 29 0 23 0;
#X connect 30 0 10 0;
#X restore 58 530 pd do-graph;
#X obj 58 508 bng 15 250 50 0 empty empty empty 17 7 0 10 -262144 -1
-1;
#X connect 2 0 1 0;
#X restore 622 163 pd graphpit;
#X msg 623 542 \; xtalk 100;
#X msg 625 582 \; xtalk 20;
#X text 44 46 tume;
#X msg 490 468 \; sigmund-1 param1 10 \, param2 0.1 \; sigmund-2 param1
10 \, param2 0.1 \;;
#X text 46 80 synth;
#X text 518 45 i1;
#X text 47 116 z;
#X obj 459 336 tgl 12 0 pslock pslock-set empty -17 6 0 10 -262144
-1 -1 0 1;
#X text 450 350 pslock;
#X obj 533 541 bng 15 250 50 0 octsplit empty octsplit 17 8 0 12 -262144
-1 -1;
#X obj 533 558 bng 15 250 50 0 octsplit2 empty octsplit2 17 8 0 12
-262144 -1 -1;
#X obj 534 575 bng 15 250 50 0 octsplit3 empty octsplit3 17 8 0 12
-262144 -1 -1;
#X floatatom 82 296 5 0 100 0 fz fz-set fz;
#X text 517 61 i2;
#X text 519 81 honk;
#X text 47 98 bad;
#X text 46 151 dbass;
#X text 46 168 paf;
#X floatatom 531 348 3 0 160 0 vcf vcf-set vcf+;
#X floatatom 535 387 3 0 999 0 vcfq vcfq-set vcfq;
#X floatatom 547 367 3 0 100 0 vcfbias vcfbias-set vcfbias;
#X floatatom 531 280 3 0 500 0 vcfp vcfp-set vcfp;
#X floatatom 531 263 5 0 500 0 vcfa vcfa-set vcfa;
#X floatatom 531 331 5 0 9999 0 vcfd vcfd-set vcfd;
#X obj 559 351 tgl 12 0 tie-vcf tie-vcf-set empty 0 0 0 10 -262144
-1 -1 0 1;
#X text 532 247 VCF:;
#X floatatom 531 314 3 0 500 0 vcfp2 vcfp2-set vcfp2;
#X floatatom 531 297 5 0 500 0 vcfa2 vcfa2-set vcfa2;
#X floatatom 551 405 3 0 100 0 vcfdepth vcfdepth-set vcfdepth;
#X obj 564 389 tgl 12 0 vcfq-mute vcfq-mute-set empty 0 0 0 10 -262144
-1 -1 0 1;
#X text 47 182 osplit;
#X text 46 200 twang;
#X text 144 48 fuzz1;
#X text 48 132 3+;
#X text 142 65 fuzz2;
#X text 145 82 brass;
#X text 145 97 angel;
#X text 517 99 brass;
#X floatatom 193 525 3 0 160 0 bw bw-set bw;
#X floatatom 190 455 3 0 160 0 cf cf-set cf+;
#X floatatom 190 391 3 0 500 0 cfp cfp-set cfp;
#X floatatom 190 375 5 0 500 0 cfa cfa-set cfa;
#X floatatom 190 439 5 0 9999 0 cfd cfd-set cfd;
#X obj 217 457 tgl 12 0 tie-cf tie-cf-set empty 0 0 0 10 -262144 -1
-1 0 1;
#X floatatom 211 489 5 0 100 0 fmtclip fmtclip-set fmtclip;
#X floatatom 211 505 5 0 100 0 fmteven fmteven-set fmteven;
#X floatatom 211 473 3 0 100 0 cfbias cfbias-set cfbias;
#X floatatom 190 423 3 0 500 0 cfp2 cfp2-set cfp2;
#X floatatom 190 407 5 0 500 0 cfa2 cfa2-set cfa2;
#X floatatom 307 287 5 0 100 0 voz voz-set voz;
#X floatatom 317 319 5 -6 36 0 vfret vfret-set vfret;
#X floatatom 317 335 5 0 100 0 vframes vframes-set vframes;
#X floatatom 317 351 5 1 300 0 vspeed vspeed-set vspeed;
#X floatatom 317 303 5 0 85 0 vsamp vsamp-set vsamp;
#X floatatom 190 359 3 0 160 0 fmt fmt-set fmt;
#X text 144 115 durh;
#X text 144 132 fmt1;
#X obj 765 279 tgl 12 0 nutso nutso-set empty -17 6 0 10 -262144 -1
-1 0 1;
#X text 724 278 nutso;
#X obj 766 299 tgl 12 0 scatsinger scatsinger-set empty -17 6 0 10
-262144 -1 -1 0 1;
#X text 731 298 scat;
#X text 146 150 voz;
#X obj 256 587 bng 15 250 50 0 preset-amp-up empty empty 17 7 0 10
-262144 -1 -1;
#X text 275 587 up;
#X obj 256 602 bng 15 250 50 0 preset-amp-down empty empty 17 7 0 10
-262144 -1 -1;
#X text 275 602 down;
#X obj 256 625 bng 15 250 50 0 preset-amp-round empty empty 17 7 0
10 -262144 -1 -1;
#X text 275 625 round;
#X floatatom 83 586 5 -36 100 0 nf nf-set nf;
#X floatatom 84 605 5 0 100 0 nd nd-set nd;
#X text 145 184 mu1;
#X text 515 146 fff;
#X text 146 198 space;
#X text 231 46 brass2;
#X msg 226 234 \; cfa2 500 \; cfp2 0;
#X obj 781 375 tgl 12 0 updown updown-set empty -17 6 0 10 -262144
-1 -1 0 1;
#X text 733 372 updown;
#X floatatom 782 397 3 1 70 0 upvoice upvoice-set upvoice;
#X floatatom 782 416 3 1 70 0 downvoice downvoice-set downvoice;
#X obj 786 451 tgl 12 0 loud-updown empty empty -17 6 0 10 -262144
-1 -1 0 1;
#X text 702 448 loud-updown;
#X text 517 130 barf;
#X text 516 114 ff2;
#X text 232 62 funk;
#X text 234 78 vcf2;
#X obj 654 230 vu 15 120 mic-meter empty -1 -8 0 8 -66577 -1 0 0;
#X text 647 353 mic;
#X text 681 352 out;
#X obj 765 317 tgl 12 0 livesinger livesinger-set empty -17 6 0 10
-262144 -1 -1 0 1;
#X text 727 316 live;
#X text 516 162 ff3;
#X text 230 97 sitar;
#X text 230 114 thwak;
#X text 148 168 spud;
#X text 230 130 cat;
#X text 232 147 hpschd;
#X text 235 162 hpsch2;
#X text 234 181 4th;
#X text 235 199 fuzz3;
#X text 323 46 fuzz4;
#X text 325 64 duh;
#X text 324 80 brass2;
#X text 322 96 bosco;
#X text 515 180 toot;
#X text 323 115 osplit2;
#X text 323 149 belz;
#X text 323 132 goddam;
#X text 322 166 fawnk;
#X text 322 183 phooz;
#X text 321 198 osplit;
#X text 516 200 fuzz5;
#X text 596 46 RAKETE;
#X text 418 45 funk2;
#X obj 534 595 bng 15 250 50 0 octsplit4 empty in-D 17 8 0 12 -262144
-1 -1;
#X text 419 63 paf;
#X obj 371 594 bng 15 250 50 0 test-input empty empty 17 7 0 10 -262144
-1 -1;
#X text 388 594 test input;
#X connect 120 0 123 1;
#X connect 121 0 123 0;
